M48
; DRILL file {KiCad 9.0.2} date 2025-10-22T09:47:37+0300
; FORMAT={-:-/ absolute / metric / decimal}
; #@! TF.CreationDate,2025-10-22T09:47:37+03:00
; #@! TF.GenerationSoftware,Kicad,Pcbnew,9.0.2
; #@! TF.FileFunction,Plated,1,4,PTH
FMAT,2
METRIC
; #@! TA.AperFunction,Plated,PTH,ViaDrill
T1C0.300
; #@! TA.AperFunction,Plated,PTH,ViaDrill
T2C0.500
; #@! TA.AperFunction,Plated,PTH,ViaDrill
T3C0.762
; #@! TA.AperFunction,Plated,PTH,ComponentDrill
T4C1.000
; #@! TA.AperFunction,Plated,PTH,ComponentDrill
T5C1.900
%
G90
G05
T1
X130.85Y-85.3
X131.0Y-86.5
X131.3Y-75.75
X132.8Y-71.8
X132.8Y-76.9
X132.95Y-81.2
X133.25Y-78.5
X133.3Y-99.85
X133.6Y-73.15
X133.95Y-94.75
X136.362Y-94.312
X136.7Y-70.05
X136.7Y-88.7
X136.85Y-93.45
X137.0Y-78.4
X137.201Y-94.912
X137.25Y-82.2
X137.7Y-70.2
X138.15Y-83.1
X138.4Y-82.1
X138.4Y-92.85
X138.9Y-97.45
X139.7Y-89.3
X139.9Y-85.9
X140.25Y-95.0
X140.5Y-91.049
X140.55Y-88.25
X140.75Y-78.65
X141.056Y-92.454
X141.25Y-84.2
X141.65Y-77.9
X142.05Y-70.55
X142.75Y-83.8
X142.9Y-84.85
X142.9Y-92.249
X143.15Y-90.35
X143.65Y-95.55
X144.1Y-67.55
X144.3Y-92.25
X144.409Y-95.297
X144.8Y-86.35
X145.25Y-92.3
X145.45Y-79.15
X145.55Y-83.95
X145.7Y-76.0
X146.0Y-95.2
X146.7Y-92.4
X147.0Y-87.15
X147.2Y-86.15
X147.35Y-78.5
X147.4Y-83.7
X147.95Y-76.8
X148.15Y-85.15
X148.25Y-86.9
X148.3Y-88.15
X148.349Y-91.299
X148.5Y-96.9
X148.75Y-68.2
X149.2Y-76.95
X149.5Y-97.0
X149.8Y-83.5
X150.684Y-93.3
X150.9Y-95.6
X151.15Y-86.8
X151.214Y-91.701
X151.325Y-85.975
X151.35Y-81.55
X151.45Y-84.15
X151.95Y-93.501
X152.2Y-67.7
X154.25Y-92.7
X154.3Y-84.849
X154.499Y-83.251
X154.5Y-86.049
X154.6Y-87.39
X155.5Y-80.2
X155.6Y-74.65
X157.224Y-93.703
X157.25Y-87.6
X157.25Y-90.35
X157.35Y-82.05
X157.398Y-89.55
X157.398Y-86.814
X157.398Y-88.386
X157.55Y-83.251
X157.6Y-84.35
X157.849Y-93.203
X158.35Y-92.259
X158.95Y-68.1
X159.65Y-67.35
X160.85Y-92.65
X161.581Y-93.737
X161.65Y-67.65
X161.75Y-92.1
X162.008Y-86.65
X162.05Y-87.95
X162.1Y-85.4
X162.1Y-88.95
X162.1Y-90.2
X163.6Y-96.6
X165.25Y-89.5
X165.4Y-87.05
X167.1Y-76.95
X168.561Y-84.95
X170.5Y-92.95
X171.2Y-92.1
X171.95Y-92.6
X172.75Y-92.0
X173.575Y-76.775
X174.0Y-77.2
X176.45Y-88.55
X177.45Y-79.95
X177.705Y-74.048
X178.049Y-75.849
X178.05Y-87.05
X178.4Y-89.3
X179.2Y-88.55
X181.8Y-97.1
X183.45Y-101.45
X185.75Y-74.95
X187.0Y-89.0
X189.25Y-89.9
X189.6Y-76.5
X190.45Y-75.6
X190.45Y-88.9
X190.8Y-63.3
X191.1Y-89.85
X191.2Y-76.45
X191.55Y-96.9
T2
X158.35Y-84.95
X159.45Y-86.65
X161.2Y-84.95
X161.5Y-82.0
X162.85Y-73.85
T3
X186.65Y-85.31
X186.65Y-86.58
X186.685Y-84.035
X186.75Y-98.66
X186.75Y-99.93
X186.785Y-97.385
X187.15Y-72.21
X187.15Y-73.48
X187.185Y-70.935
X188.1Y-85.31
X188.1Y-86.58
X188.135Y-84.035
X188.15Y-98.66
X188.15Y-99.93
X188.185Y-97.385
X188.565Y-72.205
X188.565Y-73.475
X188.6Y-70.93
T4
X169.2Y-61.725
X180.2Y-61.725
T5
X172.2Y-71.725
X177.2Y-71.725
M30
