%TF.GenerationSoftware,KiCad,Pcbnew,9.0.2*%
%TF.CreationDate,2025-10-22T09:47:41+03:00*%
%TF.ProjectId,aair_gimb_pcb,61616972-5f67-4696-9d62-5f7063622e6b,rev?*%
%TF.SameCoordinates,Original*%
%TF.FileFunction,Legend,Bot*%
%TF.FilePolarity,Positive*%
%FSLAX46Y46*%
G04 Gerber Fmt 4.6, Leading zero omitted, Abs format (unit mm)*
G04 Created by KiCad (PCBNEW 9.0.2) date 2025-10-22 09:47:41*
%MOMM*%
%LPD*%
G01*
G04 APERTURE LIST*
%ADD10C,0.114300*%
%ADD11C,0.150000*%
%ADD12C,0.120000*%
%ADD13C,0.127000*%
%ADD14C,0.119380*%
%ADD15C,0.203200*%
G04 APERTURE END LIST*
D10*
X155130886Y-67280085D02*
X155154714Y-67258313D01*
X155154714Y-67258313D02*
X155178541Y-67192999D01*
X155178541Y-67192999D02*
X155178541Y-67149456D01*
X155178541Y-67149456D02*
X155154714Y-67084142D01*
X155154714Y-67084142D02*
X155107058Y-67040599D01*
X155107058Y-67040599D02*
X155059403Y-67018828D01*
X155059403Y-67018828D02*
X154964093Y-66997056D01*
X154964093Y-66997056D02*
X154892610Y-66997056D01*
X154892610Y-66997056D02*
X154797299Y-67018828D01*
X154797299Y-67018828D02*
X154749644Y-67040599D01*
X154749644Y-67040599D02*
X154701989Y-67084142D01*
X154701989Y-67084142D02*
X154678161Y-67149456D01*
X154678161Y-67149456D02*
X154678161Y-67192999D01*
X154678161Y-67192999D02*
X154701989Y-67258313D01*
X154701989Y-67258313D02*
X154725816Y-67280085D01*
X154725816Y-67454256D02*
X154701989Y-67476028D01*
X154701989Y-67476028D02*
X154678161Y-67519571D01*
X154678161Y-67519571D02*
X154678161Y-67628428D01*
X154678161Y-67628428D02*
X154701989Y-67671971D01*
X154701989Y-67671971D02*
X154725816Y-67693742D01*
X154725816Y-67693742D02*
X154773472Y-67715513D01*
X154773472Y-67715513D02*
X154821127Y-67715513D01*
X154821127Y-67715513D02*
X154892610Y-67693742D01*
X154892610Y-67693742D02*
X155178541Y-67432485D01*
X155178541Y-67432485D02*
X155178541Y-67715513D01*
X155178541Y-67933228D02*
X155178541Y-68020314D01*
X155178541Y-68020314D02*
X155154714Y-68063857D01*
X155154714Y-68063857D02*
X155130886Y-68085628D01*
X155130886Y-68085628D02*
X155059403Y-68129171D01*
X155059403Y-68129171D02*
X154964093Y-68150942D01*
X154964093Y-68150942D02*
X154773472Y-68150942D01*
X154773472Y-68150942D02*
X154725816Y-68129171D01*
X154725816Y-68129171D02*
X154701989Y-68107400D01*
X154701989Y-68107400D02*
X154678161Y-68063857D01*
X154678161Y-68063857D02*
X154678161Y-67976771D01*
X154678161Y-67976771D02*
X154701989Y-67933228D01*
X154701989Y-67933228D02*
X154725816Y-67911457D01*
X154725816Y-67911457D02*
X154773472Y-67889685D01*
X154773472Y-67889685D02*
X154892610Y-67889685D01*
X154892610Y-67889685D02*
X154940265Y-67911457D01*
X154940265Y-67911457D02*
X154964093Y-67933228D01*
X154964093Y-67933228D02*
X154987920Y-67976771D01*
X154987920Y-67976771D02*
X154987920Y-68063857D01*
X154987920Y-68063857D02*
X154964093Y-68107400D01*
X154964093Y-68107400D02*
X154940265Y-68129171D01*
X154940265Y-68129171D02*
X154892610Y-68150942D01*
D11*
X184442857Y-82904819D02*
X184776190Y-82428628D01*
X185014285Y-82904819D02*
X185014285Y-81904819D01*
X185014285Y-81904819D02*
X184633333Y-81904819D01*
X184633333Y-81904819D02*
X184538095Y-81952438D01*
X184538095Y-81952438D02*
X184490476Y-82000057D01*
X184490476Y-82000057D02*
X184442857Y-82095295D01*
X184442857Y-82095295D02*
X184442857Y-82238152D01*
X184442857Y-82238152D02*
X184490476Y-82333390D01*
X184490476Y-82333390D02*
X184538095Y-82381009D01*
X184538095Y-82381009D02*
X184633333Y-82428628D01*
X184633333Y-82428628D02*
X185014285Y-82428628D01*
X184061904Y-82000057D02*
X184014285Y-81952438D01*
X184014285Y-81952438D02*
X183919047Y-81904819D01*
X183919047Y-81904819D02*
X183680952Y-81904819D01*
X183680952Y-81904819D02*
X183585714Y-81952438D01*
X183585714Y-81952438D02*
X183538095Y-82000057D01*
X183538095Y-82000057D02*
X183490476Y-82095295D01*
X183490476Y-82095295D02*
X183490476Y-82190533D01*
X183490476Y-82190533D02*
X183538095Y-82333390D01*
X183538095Y-82333390D02*
X184109523Y-82904819D01*
X184109523Y-82904819D02*
X183490476Y-82904819D01*
X182919047Y-82333390D02*
X183014285Y-82285771D01*
X183014285Y-82285771D02*
X183061904Y-82238152D01*
X183061904Y-82238152D02*
X183109523Y-82142914D01*
X183109523Y-82142914D02*
X183109523Y-82095295D01*
X183109523Y-82095295D02*
X183061904Y-82000057D01*
X183061904Y-82000057D02*
X183014285Y-81952438D01*
X183014285Y-81952438D02*
X182919047Y-81904819D01*
X182919047Y-81904819D02*
X182728571Y-81904819D01*
X182728571Y-81904819D02*
X182633333Y-81952438D01*
X182633333Y-81952438D02*
X182585714Y-82000057D01*
X182585714Y-82000057D02*
X182538095Y-82095295D01*
X182538095Y-82095295D02*
X182538095Y-82142914D01*
X182538095Y-82142914D02*
X182585714Y-82238152D01*
X182585714Y-82238152D02*
X182633333Y-82285771D01*
X182633333Y-82285771D02*
X182728571Y-82333390D01*
X182728571Y-82333390D02*
X182919047Y-82333390D01*
X182919047Y-82333390D02*
X183014285Y-82381009D01*
X183014285Y-82381009D02*
X183061904Y-82428628D01*
X183061904Y-82428628D02*
X183109523Y-82523866D01*
X183109523Y-82523866D02*
X183109523Y-82714342D01*
X183109523Y-82714342D02*
X183061904Y-82809580D01*
X183061904Y-82809580D02*
X183014285Y-82857200D01*
X183014285Y-82857200D02*
X182919047Y-82904819D01*
X182919047Y-82904819D02*
X182728571Y-82904819D01*
X182728571Y-82904819D02*
X182633333Y-82857200D01*
X182633333Y-82857200D02*
X182585714Y-82809580D01*
X182585714Y-82809580D02*
X182538095Y-82714342D01*
X182538095Y-82714342D02*
X182538095Y-82523866D01*
X182538095Y-82523866D02*
X182585714Y-82428628D01*
X182585714Y-82428628D02*
X182633333Y-82381009D01*
X182633333Y-82381009D02*
X182728571Y-82333390D01*
D10*
X145793914Y-69242685D02*
X145815686Y-69266876D01*
X145815686Y-69266876D02*
X145881000Y-69291066D01*
X145881000Y-69291066D02*
X145924543Y-69291066D01*
X145924543Y-69291066D02*
X145989857Y-69266876D01*
X145989857Y-69266876D02*
X146033400Y-69218495D01*
X146033400Y-69218495D02*
X146055171Y-69170114D01*
X146055171Y-69170114D02*
X146076943Y-69073352D01*
X146076943Y-69073352D02*
X146076943Y-69000780D01*
X146076943Y-69000780D02*
X146055171Y-68904018D01*
X146055171Y-68904018D02*
X146033400Y-68855637D01*
X146033400Y-68855637D02*
X145989857Y-68807256D01*
X145989857Y-68807256D02*
X145924543Y-68783066D01*
X145924543Y-68783066D02*
X145881000Y-68783066D01*
X145881000Y-68783066D02*
X145815686Y-68807256D01*
X145815686Y-68807256D02*
X145793914Y-68831447D01*
X145358486Y-69291066D02*
X145619743Y-69291066D01*
X145489114Y-69291066D02*
X145489114Y-68783066D01*
X145489114Y-68783066D02*
X145532657Y-68855637D01*
X145532657Y-68855637D02*
X145576200Y-68904018D01*
X145576200Y-68904018D02*
X145619743Y-68928209D01*
X144966600Y-68783066D02*
X145053685Y-68783066D01*
X145053685Y-68783066D02*
X145097228Y-68807256D01*
X145097228Y-68807256D02*
X145119000Y-68831447D01*
X145119000Y-68831447D02*
X145162542Y-68904018D01*
X145162542Y-68904018D02*
X145184314Y-69000780D01*
X145184314Y-69000780D02*
X145184314Y-69194304D01*
X145184314Y-69194304D02*
X145162542Y-69242685D01*
X145162542Y-69242685D02*
X145140771Y-69266876D01*
X145140771Y-69266876D02*
X145097228Y-69291066D01*
X145097228Y-69291066D02*
X145010142Y-69291066D01*
X145010142Y-69291066D02*
X144966600Y-69266876D01*
X144966600Y-69266876D02*
X144944828Y-69242685D01*
X144944828Y-69242685D02*
X144923057Y-69194304D01*
X144923057Y-69194304D02*
X144923057Y-69073352D01*
X144923057Y-69073352D02*
X144944828Y-69024971D01*
X144944828Y-69024971D02*
X144966600Y-69000780D01*
X144966600Y-69000780D02*
X145010142Y-68976590D01*
X145010142Y-68976590D02*
X145097228Y-68976590D01*
X145097228Y-68976590D02*
X145140771Y-69000780D01*
X145140771Y-69000780D02*
X145162542Y-69024971D01*
X145162542Y-69024971D02*
X145184314Y-69073352D01*
D11*
X170232857Y-68659580D02*
X170280476Y-68707200D01*
X170280476Y-68707200D02*
X170423333Y-68754819D01*
X170423333Y-68754819D02*
X170518571Y-68754819D01*
X170518571Y-68754819D02*
X170661428Y-68707200D01*
X170661428Y-68707200D02*
X170756666Y-68611961D01*
X170756666Y-68611961D02*
X170804285Y-68516723D01*
X170804285Y-68516723D02*
X170851904Y-68326247D01*
X170851904Y-68326247D02*
X170851904Y-68183390D01*
X170851904Y-68183390D02*
X170804285Y-67992914D01*
X170804285Y-67992914D02*
X170756666Y-67897676D01*
X170756666Y-67897676D02*
X170661428Y-67802438D01*
X170661428Y-67802438D02*
X170518571Y-67754819D01*
X170518571Y-67754819D02*
X170423333Y-67754819D01*
X170423333Y-67754819D02*
X170280476Y-67802438D01*
X170280476Y-67802438D02*
X170232857Y-67850057D01*
X169851904Y-67850057D02*
X169804285Y-67802438D01*
X169804285Y-67802438D02*
X169709047Y-67754819D01*
X169709047Y-67754819D02*
X169470952Y-67754819D01*
X169470952Y-67754819D02*
X169375714Y-67802438D01*
X169375714Y-67802438D02*
X169328095Y-67850057D01*
X169328095Y-67850057D02*
X169280476Y-67945295D01*
X169280476Y-67945295D02*
X169280476Y-68040533D01*
X169280476Y-68040533D02*
X169328095Y-68183390D01*
X169328095Y-68183390D02*
X169899523Y-68754819D01*
X169899523Y-68754819D02*
X169280476Y-68754819D01*
X168899523Y-67850057D02*
X168851904Y-67802438D01*
X168851904Y-67802438D02*
X168756666Y-67754819D01*
X168756666Y-67754819D02*
X168518571Y-67754819D01*
X168518571Y-67754819D02*
X168423333Y-67802438D01*
X168423333Y-67802438D02*
X168375714Y-67850057D01*
X168375714Y-67850057D02*
X168328095Y-67945295D01*
X168328095Y-67945295D02*
X168328095Y-68040533D01*
X168328095Y-68040533D02*
X168375714Y-68183390D01*
X168375714Y-68183390D02*
X168947142Y-68754819D01*
X168947142Y-68754819D02*
X168328095Y-68754819D01*
D10*
X150543914Y-69304685D02*
X150565686Y-69328876D01*
X150565686Y-69328876D02*
X150631000Y-69353066D01*
X150631000Y-69353066D02*
X150674543Y-69353066D01*
X150674543Y-69353066D02*
X150739857Y-69328876D01*
X150739857Y-69328876D02*
X150783400Y-69280495D01*
X150783400Y-69280495D02*
X150805171Y-69232114D01*
X150805171Y-69232114D02*
X150826943Y-69135352D01*
X150826943Y-69135352D02*
X150826943Y-69062780D01*
X150826943Y-69062780D02*
X150805171Y-68966018D01*
X150805171Y-68966018D02*
X150783400Y-68917637D01*
X150783400Y-68917637D02*
X150739857Y-68869256D01*
X150739857Y-68869256D02*
X150674543Y-68845066D01*
X150674543Y-68845066D02*
X150631000Y-68845066D01*
X150631000Y-68845066D02*
X150565686Y-68869256D01*
X150565686Y-68869256D02*
X150543914Y-68893447D01*
X150108486Y-69353066D02*
X150369743Y-69353066D01*
X150239114Y-69353066D02*
X150239114Y-68845066D01*
X150239114Y-68845066D02*
X150282657Y-68917637D01*
X150282657Y-68917637D02*
X150326200Y-68966018D01*
X150326200Y-68966018D02*
X150369743Y-68990209D01*
X149956085Y-68845066D02*
X149673057Y-68845066D01*
X149673057Y-68845066D02*
X149825457Y-69038590D01*
X149825457Y-69038590D02*
X149760142Y-69038590D01*
X149760142Y-69038590D02*
X149716600Y-69062780D01*
X149716600Y-69062780D02*
X149694828Y-69086971D01*
X149694828Y-69086971D02*
X149673057Y-69135352D01*
X149673057Y-69135352D02*
X149673057Y-69256304D01*
X149673057Y-69256304D02*
X149694828Y-69304685D01*
X149694828Y-69304685D02*
X149716600Y-69328876D01*
X149716600Y-69328876D02*
X149760142Y-69353066D01*
X149760142Y-69353066D02*
X149890771Y-69353066D01*
X149890771Y-69353066D02*
X149934314Y-69328876D01*
X149934314Y-69328876D02*
X149956085Y-69304685D01*
D11*
X170742857Y-76359580D02*
X170790476Y-76407200D01*
X170790476Y-76407200D02*
X170933333Y-76454819D01*
X170933333Y-76454819D02*
X171028571Y-76454819D01*
X171028571Y-76454819D02*
X171171428Y-76407200D01*
X171171428Y-76407200D02*
X171266666Y-76311961D01*
X171266666Y-76311961D02*
X171314285Y-76216723D01*
X171314285Y-76216723D02*
X171361904Y-76026247D01*
X171361904Y-76026247D02*
X171361904Y-75883390D01*
X171361904Y-75883390D02*
X171314285Y-75692914D01*
X171314285Y-75692914D02*
X171266666Y-75597676D01*
X171266666Y-75597676D02*
X171171428Y-75502438D01*
X171171428Y-75502438D02*
X171028571Y-75454819D01*
X171028571Y-75454819D02*
X170933333Y-75454819D01*
X170933333Y-75454819D02*
X170790476Y-75502438D01*
X170790476Y-75502438D02*
X170742857Y-75550057D01*
X170409523Y-75454819D02*
X169790476Y-75454819D01*
X169790476Y-75454819D02*
X170123809Y-75835771D01*
X170123809Y-75835771D02*
X169980952Y-75835771D01*
X169980952Y-75835771D02*
X169885714Y-75883390D01*
X169885714Y-75883390D02*
X169838095Y-75931009D01*
X169838095Y-75931009D02*
X169790476Y-76026247D01*
X169790476Y-76026247D02*
X169790476Y-76264342D01*
X169790476Y-76264342D02*
X169838095Y-76359580D01*
X169838095Y-76359580D02*
X169885714Y-76407200D01*
X169885714Y-76407200D02*
X169980952Y-76454819D01*
X169980952Y-76454819D02*
X170266666Y-76454819D01*
X170266666Y-76454819D02*
X170361904Y-76407200D01*
X170361904Y-76407200D02*
X170409523Y-76359580D01*
X168838095Y-76454819D02*
X169409523Y-76454819D01*
X169123809Y-76454819D02*
X169123809Y-75454819D01*
X169123809Y-75454819D02*
X169219047Y-75597676D01*
X169219047Y-75597676D02*
X169314285Y-75692914D01*
X169314285Y-75692914D02*
X169409523Y-75740533D01*
D10*
X147243914Y-69092685D02*
X147265686Y-69116876D01*
X147265686Y-69116876D02*
X147331000Y-69141066D01*
X147331000Y-69141066D02*
X147374543Y-69141066D01*
X147374543Y-69141066D02*
X147439857Y-69116876D01*
X147439857Y-69116876D02*
X147483400Y-69068495D01*
X147483400Y-69068495D02*
X147505171Y-69020114D01*
X147505171Y-69020114D02*
X147526943Y-68923352D01*
X147526943Y-68923352D02*
X147526943Y-68850780D01*
X147526943Y-68850780D02*
X147505171Y-68754018D01*
X147505171Y-68754018D02*
X147483400Y-68705637D01*
X147483400Y-68705637D02*
X147439857Y-68657256D01*
X147439857Y-68657256D02*
X147374543Y-68633066D01*
X147374543Y-68633066D02*
X147331000Y-68633066D01*
X147331000Y-68633066D02*
X147265686Y-68657256D01*
X147265686Y-68657256D02*
X147243914Y-68681447D01*
X146808486Y-69141066D02*
X147069743Y-69141066D01*
X146939114Y-69141066D02*
X146939114Y-68633066D01*
X146939114Y-68633066D02*
X146982657Y-68705637D01*
X146982657Y-68705637D02*
X147026200Y-68754018D01*
X147026200Y-68754018D02*
X147069743Y-68778209D01*
X146416600Y-68802399D02*
X146416600Y-69141066D01*
X146525457Y-68608876D02*
X146634314Y-68971733D01*
X146634314Y-68971733D02*
X146351285Y-68971733D01*
D11*
X184992857Y-69724819D02*
X185326190Y-69248628D01*
X185564285Y-69724819D02*
X185564285Y-68724819D01*
X185564285Y-68724819D02*
X185183333Y-68724819D01*
X185183333Y-68724819D02*
X185088095Y-68772438D01*
X185088095Y-68772438D02*
X185040476Y-68820057D01*
X185040476Y-68820057D02*
X184992857Y-68915295D01*
X184992857Y-68915295D02*
X184992857Y-69058152D01*
X184992857Y-69058152D02*
X185040476Y-69153390D01*
X185040476Y-69153390D02*
X185088095Y-69201009D01*
X185088095Y-69201009D02*
X185183333Y-69248628D01*
X185183333Y-69248628D02*
X185564285Y-69248628D01*
X184611904Y-68820057D02*
X184564285Y-68772438D01*
X184564285Y-68772438D02*
X184469047Y-68724819D01*
X184469047Y-68724819D02*
X184230952Y-68724819D01*
X184230952Y-68724819D02*
X184135714Y-68772438D01*
X184135714Y-68772438D02*
X184088095Y-68820057D01*
X184088095Y-68820057D02*
X184040476Y-68915295D01*
X184040476Y-68915295D02*
X184040476Y-69010533D01*
X184040476Y-69010533D02*
X184088095Y-69153390D01*
X184088095Y-69153390D02*
X184659523Y-69724819D01*
X184659523Y-69724819D02*
X184040476Y-69724819D01*
X183707142Y-68724819D02*
X183040476Y-68724819D01*
X183040476Y-68724819D02*
X183469047Y-69724819D01*
D10*
X148793914Y-69192685D02*
X148815686Y-69216876D01*
X148815686Y-69216876D02*
X148881000Y-69241066D01*
X148881000Y-69241066D02*
X148924543Y-69241066D01*
X148924543Y-69241066D02*
X148989857Y-69216876D01*
X148989857Y-69216876D02*
X149033400Y-69168495D01*
X149033400Y-69168495D02*
X149055171Y-69120114D01*
X149055171Y-69120114D02*
X149076943Y-69023352D01*
X149076943Y-69023352D02*
X149076943Y-68950780D01*
X149076943Y-68950780D02*
X149055171Y-68854018D01*
X149055171Y-68854018D02*
X149033400Y-68805637D01*
X149033400Y-68805637D02*
X148989857Y-68757256D01*
X148989857Y-68757256D02*
X148924543Y-68733066D01*
X148924543Y-68733066D02*
X148881000Y-68733066D01*
X148881000Y-68733066D02*
X148815686Y-68757256D01*
X148815686Y-68757256D02*
X148793914Y-68781447D01*
X148619743Y-68781447D02*
X148597971Y-68757256D01*
X148597971Y-68757256D02*
X148554429Y-68733066D01*
X148554429Y-68733066D02*
X148445571Y-68733066D01*
X148445571Y-68733066D02*
X148402029Y-68757256D01*
X148402029Y-68757256D02*
X148380257Y-68781447D01*
X148380257Y-68781447D02*
X148358486Y-68829828D01*
X148358486Y-68829828D02*
X148358486Y-68878209D01*
X148358486Y-68878209D02*
X148380257Y-68950780D01*
X148380257Y-68950780D02*
X148641514Y-69241066D01*
X148641514Y-69241066D02*
X148358486Y-69241066D01*
X148097228Y-68950780D02*
X148140771Y-68926590D01*
X148140771Y-68926590D02*
X148162542Y-68902399D01*
X148162542Y-68902399D02*
X148184314Y-68854018D01*
X148184314Y-68854018D02*
X148184314Y-68829828D01*
X148184314Y-68829828D02*
X148162542Y-68781447D01*
X148162542Y-68781447D02*
X148140771Y-68757256D01*
X148140771Y-68757256D02*
X148097228Y-68733066D01*
X148097228Y-68733066D02*
X148010142Y-68733066D01*
X148010142Y-68733066D02*
X147966600Y-68757256D01*
X147966600Y-68757256D02*
X147944828Y-68781447D01*
X147944828Y-68781447D02*
X147923057Y-68829828D01*
X147923057Y-68829828D02*
X147923057Y-68854018D01*
X147923057Y-68854018D02*
X147944828Y-68902399D01*
X147944828Y-68902399D02*
X147966600Y-68926590D01*
X147966600Y-68926590D02*
X148010142Y-68950780D01*
X148010142Y-68950780D02*
X148097228Y-68950780D01*
X148097228Y-68950780D02*
X148140771Y-68974971D01*
X148140771Y-68974971D02*
X148162542Y-68999161D01*
X148162542Y-68999161D02*
X148184314Y-69047542D01*
X148184314Y-69047542D02*
X148184314Y-69144304D01*
X148184314Y-69144304D02*
X148162542Y-69192685D01*
X148162542Y-69192685D02*
X148140771Y-69216876D01*
X148140771Y-69216876D02*
X148097228Y-69241066D01*
X148097228Y-69241066D02*
X148010142Y-69241066D01*
X148010142Y-69241066D02*
X147966600Y-69216876D01*
X147966600Y-69216876D02*
X147944828Y-69192685D01*
X147944828Y-69192685D02*
X147923057Y-69144304D01*
X147923057Y-69144304D02*
X147923057Y-69047542D01*
X147923057Y-69047542D02*
X147944828Y-68999161D01*
X147944828Y-68999161D02*
X147966600Y-68974971D01*
X147966600Y-68974971D02*
X148010142Y-68950780D01*
X152243914Y-69292685D02*
X152265686Y-69316876D01*
X152265686Y-69316876D02*
X152331000Y-69341066D01*
X152331000Y-69341066D02*
X152374543Y-69341066D01*
X152374543Y-69341066D02*
X152439857Y-69316876D01*
X152439857Y-69316876D02*
X152483400Y-69268495D01*
X152483400Y-69268495D02*
X152505171Y-69220114D01*
X152505171Y-69220114D02*
X152526943Y-69123352D01*
X152526943Y-69123352D02*
X152526943Y-69050780D01*
X152526943Y-69050780D02*
X152505171Y-68954018D01*
X152505171Y-68954018D02*
X152483400Y-68905637D01*
X152483400Y-68905637D02*
X152439857Y-68857256D01*
X152439857Y-68857256D02*
X152374543Y-68833066D01*
X152374543Y-68833066D02*
X152331000Y-68833066D01*
X152331000Y-68833066D02*
X152265686Y-68857256D01*
X152265686Y-68857256D02*
X152243914Y-68881447D01*
X151808486Y-69341066D02*
X152069743Y-69341066D01*
X151939114Y-69341066D02*
X151939114Y-68833066D01*
X151939114Y-68833066D02*
X151982657Y-68905637D01*
X151982657Y-68905637D02*
X152026200Y-68954018D01*
X152026200Y-68954018D02*
X152069743Y-68978209D01*
X151394828Y-68833066D02*
X151612542Y-68833066D01*
X151612542Y-68833066D02*
X151634314Y-69074971D01*
X151634314Y-69074971D02*
X151612542Y-69050780D01*
X151612542Y-69050780D02*
X151569000Y-69026590D01*
X151569000Y-69026590D02*
X151460142Y-69026590D01*
X151460142Y-69026590D02*
X151416600Y-69050780D01*
X151416600Y-69050780D02*
X151394828Y-69074971D01*
X151394828Y-69074971D02*
X151373057Y-69123352D01*
X151373057Y-69123352D02*
X151373057Y-69244304D01*
X151373057Y-69244304D02*
X151394828Y-69292685D01*
X151394828Y-69292685D02*
X151416600Y-69316876D01*
X151416600Y-69316876D02*
X151460142Y-69341066D01*
X151460142Y-69341066D02*
X151569000Y-69341066D01*
X151569000Y-69341066D02*
X151612542Y-69316876D01*
X151612542Y-69316876D02*
X151634314Y-69292685D01*
D12*
%TO.C,C33*%
X170811252Y-81840000D02*
X169388748Y-81840000D01*
X170811252Y-83660000D02*
X169388748Y-83660000D01*
%TO.C,C36*%
X173090000Y-79386252D02*
X173090000Y-77963748D01*
X174910000Y-79386252D02*
X174910000Y-77963748D01*
D13*
%TO.C,C29*%
X155381500Y-66851500D02*
X155381500Y-68248500D01*
X155381500Y-66851500D02*
X156087620Y-66851500D01*
X155381500Y-68248500D02*
X156087620Y-68248500D01*
X157088380Y-66851500D02*
X157794500Y-66851500D01*
X157794500Y-66851500D02*
X157794500Y-68248500D01*
X157794500Y-68248500D02*
X157088380Y-68248500D01*
D12*
%TO.C,R28*%
X185877064Y-83540000D02*
X181522936Y-83540000D01*
X185877064Y-86960000D02*
X181522936Y-86960000D01*
D14*
%TO.C,C16*%
X144799760Y-69513120D02*
X144799760Y-70211620D01*
X144799760Y-71212380D02*
X144799760Y-71910880D01*
X144815000Y-71910880D02*
X146085000Y-71910880D01*
X146085000Y-69513120D02*
X144815000Y-69513120D01*
X146100240Y-70211620D02*
X146100240Y-69513120D01*
X146100240Y-71212380D02*
X146100240Y-71910880D01*
D12*
%TO.C,D1*%
X159240000Y-69500000D02*
X164750000Y-69500000D01*
X159240000Y-72800000D02*
X159240000Y-69500000D01*
X159240000Y-72800000D02*
X164750000Y-72800000D01*
%TO.C,C22*%
X162730000Y-65840000D02*
X166950000Y-65840000D01*
X162730000Y-68860000D02*
X162730000Y-65840000D01*
X166950000Y-68860000D02*
X162730000Y-68860000D01*
D14*
%TO.C,C13*%
X149499760Y-69575120D02*
X149499760Y-70273620D01*
X149499760Y-71274380D02*
X149499760Y-71972880D01*
X149515000Y-71972880D02*
X150785000Y-71972880D01*
X150785000Y-69575120D02*
X149515000Y-69575120D01*
X150800240Y-70273620D02*
X150800240Y-69575120D01*
X150800240Y-71274380D02*
X150800240Y-71972880D01*
D15*
%TO.C,U3*%
X151726000Y-72644000D02*
X154774000Y-72644000D01*
X151726000Y-79756000D02*
X151726000Y-72644000D01*
X154774000Y-79756000D02*
X151726000Y-79756000D01*
X157822000Y-79756000D02*
X158584000Y-79756000D01*
X158584000Y-72644000D02*
X157822000Y-72644000D01*
X158584000Y-79756000D02*
X160870000Y-78232000D01*
X160870000Y-74168000D02*
X158584000Y-72644000D01*
X160870000Y-78232000D02*
X160870000Y-74168000D01*
D12*
%TO.C,C31*%
X170811252Y-76940000D02*
X169388748Y-76940000D01*
X170811252Y-78760000D02*
X169388748Y-78760000D01*
%TO.C,C35*%
X171961252Y-86540000D02*
X170538748Y-86540000D01*
X171961252Y-88360000D02*
X170538748Y-88360000D01*
%TO.C,C27*%
X169438748Y-74290000D02*
X170861252Y-74290000D01*
X169438748Y-76110000D02*
X170861252Y-76110000D01*
D14*
%TO.C,C14*%
X146299760Y-69513120D02*
X146299760Y-70211620D01*
X146299760Y-71212380D02*
X146299760Y-71910880D01*
X146315000Y-71910880D02*
X147585000Y-71910880D01*
X147585000Y-69513120D02*
X146315000Y-69513120D01*
X147600240Y-70211620D02*
X147600240Y-69513120D01*
X147600240Y-71212380D02*
X147600240Y-71910880D01*
D12*
%TO.C,C30*%
X153960000Y-69340000D02*
X158180000Y-69340000D01*
X158180000Y-69340000D02*
X158180000Y-72360000D01*
X158180000Y-72360000D02*
X153960000Y-72360000D01*
%TO.C,R27*%
X186527064Y-70190000D02*
X182172936Y-70190000D01*
X186527064Y-73610000D02*
X182172936Y-73610000D01*
D14*
%TO.C,C28*%
X147849760Y-69563120D02*
X147849760Y-70261620D01*
X147849760Y-71262380D02*
X147849760Y-71960880D01*
X147865000Y-71960880D02*
X149135000Y-71960880D01*
X149135000Y-69563120D02*
X147865000Y-69563120D01*
X149150240Y-70261620D02*
X149150240Y-69563120D01*
X149150240Y-71262380D02*
X149150240Y-71960880D01*
%TO.C,C15*%
X151099760Y-69601120D02*
X151099760Y-70299620D01*
X151099760Y-71300380D02*
X151099760Y-71998880D01*
X151115000Y-71998880D02*
X152385000Y-71998880D01*
X152385000Y-69601120D02*
X151115000Y-69601120D01*
X152400240Y-70299620D02*
X152400240Y-69601120D01*
X152400240Y-71300380D02*
X152400240Y-71998880D01*
D12*
%TO.C,C34*%
X172311252Y-84190000D02*
X170888748Y-84190000D01*
X172311252Y-86010000D02*
X170888748Y-86010000D01*
%TO.C,C32*%
X170811252Y-79390000D02*
X169388748Y-79390000D01*
X170811252Y-81210000D02*
X169388748Y-81210000D01*
%TD*%
M02*
