%TF.GenerationSoftware,KiCad,Pcbnew,9.0.2*%
%TF.CreationDate,2025-10-22T09:47:40+03:00*%
%TF.ProjectId,aair_gimb_pcb,61616972-5f67-4696-9d62-5f7063622e6b,rev?*%
%TF.SameCoordinates,Original*%
%TF.FileFunction,Copper,L3,Inr*%
%TF.FilePolarity,Positive*%
%FSLAX46Y46*%
G04 Gerber Fmt 4.6, Leading zero omitted, Abs format (unit mm)*
G04 Created by KiCad (PCBNEW 9.0.2) date 2025-10-22 09:47:40*
%MOMM*%
%LPD*%
G01*
G04 APERTURE LIST*
G04 Aperture macros list*
%AMRoundRect*
0 Rectangle with rounded corners*
0 $1 Rounding radius*
0 $2 $3 $4 $5 $6 $7 $8 $9 X,Y pos of 4 corners*
0 Add a 4 corners polygon primitive as box body*
4,1,4,$2,$3,$4,$5,$6,$7,$8,$9,$2,$3,0*
0 Add four circle primitives for the rounded corners*
1,1,$1+$1,$2,$3*
1,1,$1+$1,$4,$5*
1,1,$1+$1,$6,$7*
1,1,$1+$1,$8,$9*
0 Add four rect primitives between the rounded corners*
20,1,$1+$1,$2,$3,$4,$5,0*
20,1,$1+$1,$4,$5,$6,$7,0*
20,1,$1+$1,$6,$7,$8,$9,0*
20,1,$1+$1,$8,$9,$2,$3,0*%
G04 Aperture macros list end*
%TA.AperFunction,ComponentPad*%
%ADD10C,1.400000*%
%TD*%
%TA.AperFunction,ComponentPad*%
%ADD11RoundRect,0.770000X-0.980000X-0.980000X0.980000X-0.980000X0.980000X0.980000X-0.980000X0.980000X0*%
%TD*%
%TA.AperFunction,ComponentPad*%
%ADD12C,3.500000*%
%TD*%
%TA.AperFunction,ViaPad*%
%ADD13C,0.600000*%
%TD*%
%TA.AperFunction,ViaPad*%
%ADD14C,0.800000*%
%TD*%
%TA.AperFunction,ViaPad*%
%ADD15C,1.524000*%
%TD*%
%TA.AperFunction,Conductor*%
%ADD16C,0.200000*%
%TD*%
%TA.AperFunction,Conductor*%
%ADD17C,0.650000*%
%TD*%
%TA.AperFunction,Conductor*%
%ADD18C,0.600000*%
%TD*%
%TA.AperFunction,Conductor*%
%ADD19C,0.500000*%
%TD*%
G04 APERTURE END LIST*
D10*
%TO.N,*%
%TO.C,xt30*%
X169200000Y-61725000D03*
X180200000Y-61725000D03*
D11*
%TO.N,V_SUPPLY*%
X177200000Y-71725000D03*
D12*
%TO.N,GND*%
X172200000Y-71725000D03*
%TD*%
D13*
%TO.N,V_SUPPLY*%
X163600000Y-96600000D03*
D14*
X161500000Y-82000000D03*
D13*
%TO.N,Net-(U1-GVDD)*%
X157250000Y-87600000D03*
X149500000Y-97000000D03*
%TO.N,Net-(U1-DVDD)*%
X157600000Y-84350000D03*
X157224403Y-93703105D03*
X150900000Y-95600000D03*
%TO.N,VCC*%
X154250000Y-92700000D03*
X151450000Y-84150000D03*
%TO.N,GND*%
X151325000Y-85975000D03*
D14*
X158350000Y-84950000D03*
D13*
X132800000Y-76900000D03*
X154600000Y-87390000D03*
X161650000Y-67650000D03*
X167100000Y-76950000D03*
D14*
X161200000Y-84950000D03*
D13*
X147350000Y-78500000D03*
D15*
X186750000Y-98660000D03*
D13*
X151150000Y-86800000D03*
X173575000Y-76775000D03*
X142050000Y-70550000D03*
X143150000Y-90350000D03*
X150684372Y-93300000D03*
D15*
X186785000Y-97385000D03*
D13*
X171200000Y-92100000D03*
X172750000Y-92000000D03*
X174000000Y-77200000D03*
X159650000Y-67350000D03*
X140750000Y-78650000D03*
D15*
X186750000Y-99930000D03*
X188150000Y-98660000D03*
D13*
X133950000Y-94750000D03*
D15*
X188150000Y-99930000D03*
D13*
X145450000Y-79150000D03*
X161581383Y-93737011D03*
X137000000Y-78400000D03*
D15*
X188185000Y-97385000D03*
D13*
X133300000Y-99850000D03*
D14*
X159450000Y-86650000D03*
D13*
%TO.N,/drv8302/H2_VS*%
X132950000Y-81200000D03*
X160850000Y-92650000D03*
X176450000Y-88550000D03*
X190450000Y-88900000D03*
%TO.N,/drv8302/H1_VS*%
X190450000Y-75600000D03*
X141650000Y-77900000D03*
X168560659Y-84950000D03*
%TO.N,/drv8302/H3_VS*%
X191550000Y-96900000D03*
X138400000Y-82100000D03*
X181800000Y-97100000D03*
%TO.N,LED_STATUS*%
X138400000Y-92850000D03*
X139700000Y-89300000D03*
%TO.N,USB_CONN_D-*%
X133600000Y-73150000D03*
X136700000Y-70050000D03*
D14*
%TO.N,+5V*%
X162850000Y-73850000D03*
D13*
X145700000Y-76000000D03*
X155600000Y-74650000D03*
%TO.N,SWCLK*%
X147400000Y-83700000D03*
X147950000Y-76800000D03*
%TO.N,+3.3V*%
X144800000Y-86350000D03*
X138150000Y-83100000D03*
X148750000Y-68200000D03*
X149800000Y-83500000D03*
X158950000Y-68100000D03*
X148500000Y-96900000D03*
X141250000Y-84200000D03*
%TO.N,SWDIO*%
X149200000Y-76950000D03*
X148150000Y-85150000D03*
%TO.N,NRST*%
X131300000Y-75750000D03*
X139900000Y-85900000D03*
X152200000Y-67700000D03*
%TO.N,Net-(U1-RT_CLK)*%
X157350000Y-82050000D03*
X151350000Y-81550000D03*
%TO.N,/Stm32f405/SENS2*%
X140550000Y-88250000D03*
X137250000Y-82200000D03*
%TO.N,/Stm32f405/SENS3*%
X136700000Y-88700000D03*
X133250000Y-78500000D03*
%TO.N,/Stm32f405/FAULT*%
X146000000Y-95200000D03*
X157550000Y-83251000D03*
%TO.N,/drv8302/M_L2*%
X189250000Y-89900000D03*
X162100000Y-88950000D03*
%TO.N,/Stm32f405/DC_CAL*%
X157398398Y-86813883D03*
X146700000Y-92400000D03*
%TO.N,/drv8302/M_H3*%
X191100000Y-89850000D03*
X162100000Y-90200000D03*
%TO.N,/Stm32f405/GAIN*%
X145250000Y-92300000D03*
X154500000Y-86049000D03*
%TO.N,/drv8302/M_H2*%
X162049592Y-87950000D03*
X191200000Y-76450000D03*
%TO.N,/Stm32f405/Current_ADC_2*%
X151950000Y-93501000D03*
X140500000Y-91049000D03*
%TO.N,/drv8302/M_H1*%
X162100000Y-85400000D03*
X190800000Y-63300000D03*
%TO.N,/Stm32f405/EN_GATE*%
X157398398Y-88386116D03*
X140250000Y-95000000D03*
%TO.N,/Stm32f405/M_PWM*%
X154300000Y-84849000D03*
X144300000Y-92250000D03*
%TO.N,/drv8302/H2_LOW*%
X165250000Y-89500000D03*
X178050000Y-87050000D03*
X179200000Y-88550000D03*
D15*
X188100000Y-86580000D03*
D13*
X171950000Y-92600000D03*
D15*
X186685000Y-84035000D03*
X188135000Y-84035000D03*
X186650000Y-86580000D03*
X188100000Y-85310000D03*
X186650000Y-85310000D03*
D13*
%TO.N,Net-(U1-VSENSE)*%
X155500000Y-80200000D03*
X154498928Y-83251000D03*
%TO.N,/drv8302/M_L1*%
X162008402Y-86650000D03*
X189600000Y-76500000D03*
%TO.N,/Stm32f405/L2*%
X148349265Y-91299265D03*
X158350000Y-92258817D03*
%TO.N,/drv8302/M_L3*%
X161750000Y-92100000D03*
X183450000Y-101450000D03*
D15*
%TO.N,/drv8302/H1_LOW*%
X188565000Y-72205000D03*
D13*
X178049265Y-75849265D03*
X177704897Y-74048454D03*
X165400000Y-87050000D03*
X170500000Y-92950000D03*
D15*
X187150000Y-73480000D03*
X188565000Y-73475000D03*
X188600000Y-70930000D03*
X187150000Y-72210000D03*
X187185000Y-70935000D03*
D13*
%TO.N,/Stm32f405/L1*%
X157250057Y-90350000D03*
X151213676Y-91701000D03*
%TO.N,I2C_SCL*%
X131000000Y-86500000D03*
X142900000Y-84850000D03*
%TO.N,SPI1_MOSI*%
X144408949Y-95297017D03*
X138900000Y-97450000D03*
%TO.N,SPI1_SCK*%
X142900000Y-92249000D03*
X136361765Y-94311765D03*
%TO.N,USB_D-*%
X132800000Y-71800000D03*
X147000000Y-87150000D03*
%TO.N,USB_D+*%
X137700000Y-70200000D03*
X147200000Y-86150000D03*
%TO.N,UART_RX*%
X145550000Y-83950000D03*
X144100000Y-67550000D03*
%TO.N,SPI1_MISO*%
X137200518Y-94911765D03*
X143650000Y-95550000D03*
%TO.N,SPI1_CS*%
X141056253Y-92453780D03*
X136850000Y-93450000D03*
%TO.N,I2C_SDA*%
X130850000Y-85300000D03*
X142750000Y-83800000D03*
%TO.N,/Stm32f405/H1*%
X148300000Y-88150000D03*
X157398291Y-89549999D03*
%TO.N,/Stm32f405/H3*%
X157848664Y-93202807D03*
X148250000Y-86900000D03*
%TO.N,Net-(Q4-G)*%
X187000000Y-89000000D03*
X178400000Y-89300000D03*
%TO.N,Net-(Q6-G)*%
X177450000Y-79950000D03*
X185750000Y-74950000D03*
%TD*%
D16*
%TO.N,Net-(U1-DVDD)*%
X157224403Y-93703105D02*
X156746895Y-93703105D01*
X154850000Y-95600000D02*
X150900000Y-95600000D01*
X156746895Y-93703105D02*
X154850000Y-95600000D01*
D17*
%TO.N,/drv8302/H2_VS*%
X179100000Y-91200000D02*
X176450000Y-88550000D01*
D16*
X160850000Y-92650000D02*
X161300000Y-92650000D01*
D17*
X190450000Y-88900000D02*
X190274000Y-89076000D01*
X189350000Y-91200000D02*
X179100000Y-91200000D01*
X190274000Y-90276000D02*
X189350000Y-91200000D01*
X190274000Y-89076000D02*
X190274000Y-90276000D01*
D16*
X173900057Y-88550000D02*
X176450000Y-88550000D01*
X161300000Y-92650000D02*
X161851000Y-93201000D01*
X161851000Y-93201000D02*
X169249057Y-93201000D01*
X169249057Y-93201000D02*
X173900057Y-88550000D01*
D18*
%TO.N,/drv8302/H1_VS*%
X181816000Y-83134000D02*
X189350000Y-75600000D01*
D19*
X168560659Y-84950000D02*
X168900000Y-84950000D01*
X168900000Y-84950000D02*
X170200000Y-83650000D01*
D18*
X181200000Y-83134000D02*
X181816000Y-83134000D01*
X189350000Y-75600000D02*
X190450000Y-75600000D01*
D19*
X170200000Y-83650000D02*
X180684000Y-83650000D01*
X180684000Y-83650000D02*
X181200000Y-83134000D01*
D17*
%TO.N,/drv8302/H3_VS*%
X185700000Y-95100000D02*
X189900000Y-95100000D01*
X181800000Y-97100000D02*
X183700000Y-97100000D01*
X189900000Y-95100000D02*
X191550000Y-96750000D01*
X183700000Y-97100000D02*
X185500000Y-95300000D01*
D16*
X191550000Y-96750000D02*
X191550000Y-96900000D01*
X185500000Y-95300000D02*
X185700000Y-95100000D01*
%TO.N,LED_STATUS*%
X139700000Y-91550000D02*
X139700000Y-89300000D01*
X138400000Y-92850000D02*
X139700000Y-91550000D01*
%TO.N,+3.3V*%
X152801943Y-92302000D02*
X148502057Y-92302000D01*
X153751000Y-93251057D02*
X152801943Y-92302000D01*
X153751000Y-93748943D02*
X153751000Y-93251057D01*
X148500000Y-96900000D02*
X151299000Y-94101000D01*
X148502057Y-92302000D02*
X144800000Y-88599943D01*
X144800000Y-88599943D02*
X144800000Y-86350000D01*
X153398943Y-94101000D02*
X153751000Y-93748943D01*
X151299000Y-94101000D02*
X153398943Y-94101000D01*
%TO.N,NRST*%
X144150000Y-76249943D02*
X144150000Y-75750000D01*
X139900000Y-85900000D02*
X139900000Y-80499943D01*
X144150000Y-75750000D02*
X131300000Y-75750000D01*
X152200000Y-67700000D02*
X144150000Y-75750000D01*
X139900000Y-80499943D02*
X144150000Y-76249943D01*
%TO.N,/Stm32f405/SENS3*%
X133250000Y-78500000D02*
X136650000Y-81900000D01*
X136650000Y-88650000D02*
X136700000Y-88700000D01*
X136650000Y-81900000D02*
X136650000Y-88650000D01*
%TO.N,/Stm32f405/Current_ADC_2*%
X146349943Y-94700000D02*
X146248943Y-94599000D01*
X151950000Y-93501000D02*
X151751000Y-93700000D01*
X146248943Y-94599000D02*
X145751057Y-94599000D01*
X144657892Y-94696017D02*
X144160006Y-94696017D01*
X151132900Y-93700000D02*
X150132900Y-94700000D01*
X144661875Y-94700000D02*
X144657892Y-94696017D01*
X144160006Y-94696017D02*
X144156023Y-94700000D01*
X145650057Y-94700000D02*
X144661875Y-94700000D01*
X151751000Y-93700000D02*
X151132900Y-93700000D01*
X150132900Y-94700000D02*
X146349943Y-94700000D01*
X144151000Y-94700000D02*
X140500000Y-91049000D01*
X145751057Y-94599000D02*
X145650057Y-94700000D01*
X144156023Y-94700000D02*
X144151000Y-94700000D01*
%TO.N,/drv8302/H2_LOW*%
X179790000Y-85310000D02*
X186650000Y-85310000D01*
D19*
X170750000Y-84550000D02*
X186170000Y-84550000D01*
D16*
X178050000Y-87050000D02*
X179790000Y-85310000D01*
D19*
X165250000Y-89500000D02*
X165800000Y-89500000D01*
X165800000Y-89500000D02*
X170750000Y-84550000D01*
X186170000Y-84550000D02*
X186685000Y-84035000D01*
D16*
%TO.N,/Stm32f405/L2*%
X158350000Y-92258817D02*
X158350000Y-92188563D01*
X148688827Y-90959703D02*
X148349265Y-91299265D01*
X158350000Y-92188563D02*
X158300000Y-92138563D01*
X156709703Y-90959703D02*
X148688827Y-90959703D01*
X157888563Y-92138563D02*
X156709703Y-90959703D01*
X158300000Y-92138563D02*
X157888563Y-92138563D01*
D19*
%TO.N,/drv8302/H1_LOW*%
X173900000Y-78550000D02*
X184900000Y-78550000D01*
X187150000Y-76300000D02*
X187150000Y-73480000D01*
X165400000Y-87050000D02*
X173900000Y-78550000D01*
X184900000Y-78550000D02*
X187150000Y-76300000D01*
D16*
X177704897Y-74048454D02*
X186581546Y-74048454D01*
X186581546Y-74048454D02*
X187150000Y-73480000D01*
%TO.N,/Stm32f405/H1*%
X157398291Y-89549999D02*
X157348292Y-89500000D01*
X157348292Y-89500000D02*
X151550000Y-89500000D01*
X151550000Y-89500000D02*
X150200000Y-88150000D01*
X150200000Y-88150000D02*
X148300000Y-88150000D01*
%TD*%
%TA.AperFunction,Conductor*%
%TO.N,GND*%
G36*
X147705703Y-92355327D02*
G01*
X147712181Y-92361359D01*
X148017196Y-92666374D01*
X148017206Y-92666385D01*
X148021536Y-92670715D01*
X148021537Y-92670716D01*
X148133341Y-92782520D01*
X148207725Y-92825465D01*
X148270272Y-92861577D01*
X148422999Y-92902500D01*
X148423000Y-92902500D01*
X150852123Y-92902500D01*
X150919162Y-92922185D01*
X150964917Y-92974989D01*
X150974861Y-93044147D01*
X150945836Y-93107703D01*
X150907548Y-93135311D01*
X150908154Y-93136359D01*
X150764190Y-93219475D01*
X150764182Y-93219481D01*
X149920484Y-94063181D01*
X149859161Y-94096666D01*
X149832803Y-94099500D01*
X146618010Y-94099500D01*
X146602524Y-94095350D01*
X146588780Y-94096006D01*
X146556011Y-94082888D01*
X146541404Y-94074455D01*
X146536786Y-94071789D01*
X146530847Y-94068360D01*
X146530845Y-94068358D01*
X146530844Y-94068358D01*
X146480728Y-94039423D01*
X146328000Y-93998499D01*
X146169886Y-93998499D01*
X146162290Y-93998499D01*
X146162274Y-93998500D01*
X145837727Y-93998500D01*
X145837711Y-93998499D01*
X145830115Y-93998499D01*
X145672000Y-93998499D01*
X145595636Y-94018961D01*
X145519271Y-94039423D01*
X145519270Y-94039424D01*
X145463213Y-94071789D01*
X145445027Y-94082289D01*
X145443991Y-94082887D01*
X145381991Y-94099500D01*
X144768143Y-94099500D01*
X144765635Y-94099475D01*
X144750587Y-94099170D01*
X144736949Y-94095516D01*
X144578835Y-94095516D01*
X144578831Y-94095517D01*
X144447115Y-94095517D01*
X144380076Y-94075832D01*
X144359434Y-94059198D01*
X143373700Y-93073464D01*
X143340215Y-93012141D01*
X143345199Y-92942449D01*
X143387071Y-92886516D01*
X143392462Y-92882700D01*
X143410289Y-92870789D01*
X143457457Y-92823621D01*
X143511819Y-92769260D01*
X143573142Y-92735775D01*
X143642834Y-92740759D01*
X143687181Y-92769260D01*
X143789707Y-92871786D01*
X143789711Y-92871789D01*
X143920814Y-92959390D01*
X143920827Y-92959397D01*
X144044654Y-93010687D01*
X144066503Y-93019737D01*
X144189220Y-93044147D01*
X144221153Y-93050499D01*
X144221156Y-93050500D01*
X144221158Y-93050500D01*
X144378844Y-93050500D01*
X144378845Y-93050499D01*
X144533497Y-93019737D01*
X144596330Y-92993711D01*
X144684808Y-92957063D01*
X144685332Y-92958329D01*
X144746910Y-92945497D01*
X144805871Y-92965996D01*
X144870821Y-93009394D01*
X144870823Y-93009395D01*
X144870827Y-93009397D01*
X145016498Y-93069735D01*
X145016503Y-93069737D01*
X145166126Y-93099499D01*
X145171153Y-93100499D01*
X145171156Y-93100500D01*
X145171158Y-93100500D01*
X145328844Y-93100500D01*
X145328845Y-93100499D01*
X145483497Y-93069737D01*
X145622547Y-93012141D01*
X145629172Y-93009397D01*
X145629172Y-93009396D01*
X145629179Y-93009394D01*
X145760289Y-92921789D01*
X145848636Y-92833441D01*
X145909957Y-92799958D01*
X145979649Y-92804942D01*
X146035583Y-92846813D01*
X146039418Y-92852232D01*
X146078213Y-92910292D01*
X146189707Y-93021786D01*
X146189711Y-93021789D01*
X146320814Y-93109390D01*
X146320827Y-93109397D01*
X146466498Y-93169735D01*
X146466503Y-93169737D01*
X146621153Y-93200499D01*
X146621156Y-93200500D01*
X146621158Y-93200500D01*
X146778844Y-93200500D01*
X146778845Y-93200499D01*
X146933497Y-93169737D01*
X147079179Y-93109394D01*
X147210289Y-93021789D01*
X147321789Y-92910289D01*
X147409394Y-92779179D01*
X147412719Y-92771153D01*
X147445290Y-92692518D01*
X147469737Y-92633497D01*
X147500500Y-92478842D01*
X147500500Y-92449040D01*
X147520185Y-92382001D01*
X147572989Y-92336246D01*
X147642147Y-92326302D01*
X147705703Y-92355327D01*
G37*
%TD.AperFunction*%
%TA.AperFunction,Conductor*%
G36*
X167526729Y-60649861D02*
G01*
X167593743Y-60669621D01*
X167639439Y-60722476D01*
X167650586Y-60773271D01*
X167759049Y-83577628D01*
X167739683Y-83644761D01*
X167722731Y-83665899D01*
X165084703Y-86303927D01*
X165044480Y-86330805D01*
X165020819Y-86340606D01*
X165020818Y-86340607D01*
X164889715Y-86428207D01*
X164889707Y-86428213D01*
X164778213Y-86539707D01*
X164778210Y-86539711D01*
X164690609Y-86670814D01*
X164690602Y-86670827D01*
X164630264Y-86816498D01*
X164630261Y-86816510D01*
X164599500Y-86971153D01*
X164599500Y-87128846D01*
X164630261Y-87283489D01*
X164630264Y-87283501D01*
X164690602Y-87429172D01*
X164690609Y-87429185D01*
X164778210Y-87560288D01*
X164778213Y-87560292D01*
X164889707Y-87671786D01*
X164889711Y-87671789D01*
X165020814Y-87759390D01*
X165020827Y-87759397D01*
X165155598Y-87815220D01*
X165166503Y-87819737D01*
X165276546Y-87841626D01*
X165321153Y-87850499D01*
X165321156Y-87850500D01*
X165321158Y-87850500D01*
X165478844Y-87850500D01*
X165478845Y-87850499D01*
X165633497Y-87819737D01*
X165779179Y-87759394D01*
X165910289Y-87671789D01*
X166021789Y-87560289D01*
X166109394Y-87429179D01*
X166119191Y-87405524D01*
X166146069Y-87365297D01*
X167559081Y-85952285D01*
X167620400Y-85918803D01*
X167690092Y-85923787D01*
X167746025Y-85965659D01*
X167770442Y-86031123D01*
X167770757Y-86039379D01*
X167772540Y-86414138D01*
X167753174Y-86481270D01*
X167736222Y-86502409D01*
X165551108Y-88687522D01*
X165489785Y-88721007D01*
X165439236Y-88721458D01*
X165328846Y-88699500D01*
X165328842Y-88699500D01*
X165171158Y-88699500D01*
X165171155Y-88699500D01*
X165016510Y-88730261D01*
X165016498Y-88730264D01*
X164870827Y-88790602D01*
X164870814Y-88790609D01*
X164739711Y-88878210D01*
X164739707Y-88878213D01*
X164628213Y-88989707D01*
X164628210Y-88989711D01*
X164540609Y-89120814D01*
X164540602Y-89120827D01*
X164480264Y-89266498D01*
X164480261Y-89266510D01*
X164449500Y-89421153D01*
X164449500Y-89578846D01*
X164480261Y-89733489D01*
X164480264Y-89733501D01*
X164540602Y-89879172D01*
X164540609Y-89879185D01*
X164628210Y-90010288D01*
X164628213Y-90010292D01*
X164739707Y-90121786D01*
X164739711Y-90121789D01*
X164870814Y-90209390D01*
X164870827Y-90209397D01*
X164965695Y-90248692D01*
X165016503Y-90269737D01*
X165171153Y-90300499D01*
X165171156Y-90300500D01*
X165171158Y-90300500D01*
X165328844Y-90300500D01*
X165328845Y-90300499D01*
X165435617Y-90279261D01*
X165483488Y-90269739D01*
X165483489Y-90269738D01*
X165483497Y-90269737D01*
X165507155Y-90259937D01*
X165554604Y-90250500D01*
X165873920Y-90250500D01*
X165982933Y-90228815D01*
X166018913Y-90221658D01*
X166155495Y-90165084D01*
X166238569Y-90109576D01*
X166278416Y-90082952D01*
X167572574Y-88788793D01*
X167633891Y-88755312D01*
X167703582Y-88760296D01*
X167759516Y-88802167D01*
X167783933Y-88867632D01*
X167784248Y-88875888D01*
X167801371Y-92475910D01*
X167782005Y-92543043D01*
X167729419Y-92589048D01*
X167677372Y-92600500D01*
X162594720Y-92600500D01*
X162527681Y-92580815D01*
X162481926Y-92528011D01*
X162471982Y-92458853D01*
X162480159Y-92429048D01*
X162517163Y-92339711D01*
X162519737Y-92333497D01*
X162550500Y-92178842D01*
X162550500Y-92021158D01*
X162550500Y-92021155D01*
X162550499Y-92021153D01*
X162542055Y-91978704D01*
X162519737Y-91866503D01*
X162519735Y-91866498D01*
X162459397Y-91720827D01*
X162459390Y-91720814D01*
X162371789Y-91589711D01*
X162371786Y-91589707D01*
X162260292Y-91478213D01*
X162260288Y-91478210D01*
X162129185Y-91390609D01*
X162129172Y-91390602D01*
X161983501Y-91330264D01*
X161983489Y-91330261D01*
X161828845Y-91299500D01*
X161828842Y-91299500D01*
X161671158Y-91299500D01*
X161671155Y-91299500D01*
X161516510Y-91330261D01*
X161516498Y-91330264D01*
X161370827Y-91390602D01*
X161370814Y-91390609D01*
X161239711Y-91478210D01*
X161239707Y-91478213D01*
X161128213Y-91589707D01*
X161128210Y-91589711D01*
X161040609Y-91720814D01*
X161040604Y-91720823D01*
X161019012Y-91772953D01*
X160975171Y-91827356D01*
X160908877Y-91849421D01*
X160904451Y-91849500D01*
X160771155Y-91849500D01*
X160616510Y-91880261D01*
X160616498Y-91880264D01*
X160470827Y-91940602D01*
X160470814Y-91940609D01*
X160339711Y-92028210D01*
X160339707Y-92028213D01*
X160228213Y-92139707D01*
X160228210Y-92139711D01*
X160140609Y-92270814D01*
X160140602Y-92270827D01*
X160080264Y-92416498D01*
X160080261Y-92416510D01*
X160049500Y-92571153D01*
X160049500Y-92728846D01*
X160080261Y-92883489D01*
X160080264Y-92883501D01*
X160140602Y-93029172D01*
X160140609Y-93029185D01*
X160228210Y-93160288D01*
X160228213Y-93160292D01*
X160339707Y-93271786D01*
X160339711Y-93271789D01*
X160470814Y-93359390D01*
X160470827Y-93359397D01*
X160616498Y-93419735D01*
X160616503Y-93419737D01*
X160739788Y-93444260D01*
X160771153Y-93450499D01*
X160771156Y-93450500D01*
X160771158Y-93450500D01*
X160928844Y-93450500D01*
X160928845Y-93450499D01*
X161083497Y-93419737D01*
X161103827Y-93411315D01*
X161173295Y-93403847D01*
X161235774Y-93435121D01*
X161238960Y-93438196D01*
X161482284Y-93681520D01*
X161482286Y-93681521D01*
X161482290Y-93681524D01*
X161619209Y-93760573D01*
X161619216Y-93760577D01*
X161771943Y-93801501D01*
X161771945Y-93801501D01*
X161937654Y-93801501D01*
X161937670Y-93801500D01*
X167684265Y-93801500D01*
X167751304Y-93821185D01*
X167797059Y-93873989D01*
X167808263Y-93924907D01*
X167826697Y-97800499D01*
X167847740Y-102224910D01*
X167828374Y-102292043D01*
X167775788Y-102338048D01*
X167723741Y-102349500D01*
X123674500Y-102349500D01*
X123607461Y-102329815D01*
X123561706Y-102277011D01*
X123550500Y-102225500D01*
X123550500Y-100493713D01*
X123949500Y-100493713D01*
X123949500Y-100706286D01*
X123982753Y-100916239D01*
X124048444Y-101118414D01*
X124144951Y-101307820D01*
X124269890Y-101479786D01*
X124420213Y-101630109D01*
X124592179Y-101755048D01*
X124592181Y-101755049D01*
X124592184Y-101755051D01*
X124781588Y-101851557D01*
X124983757Y-101917246D01*
X125193713Y-101950500D01*
X125193714Y-101950500D01*
X125406286Y-101950500D01*
X125406287Y-101950500D01*
X125616243Y-101917246D01*
X125818412Y-101851557D01*
X126007816Y-101755051D01*
X126029789Y-101739086D01*
X126179786Y-101630109D01*
X126179788Y-101630106D01*
X126179792Y-101630104D01*
X126330104Y-101479792D01*
X126330106Y-101479788D01*
X126330109Y-101479786D01*
X126455048Y-101307820D01*
X126455047Y-101307820D01*
X126455051Y-101307816D01*
X126551557Y-101118412D01*
X126617246Y-100916243D01*
X126650500Y-100706287D01*
X126650500Y-100493713D01*
X126617246Y-100283757D01*
X126551557Y-100081588D01*
X126455051Y-99892184D01*
X126455049Y-99892181D01*
X126455048Y-99892179D01*
X126330109Y-99720213D01*
X126179786Y-99569890D01*
X126007820Y-99444951D01*
X125818414Y-99348444D01*
X125818413Y-99348443D01*
X125818412Y-99348443D01*
X125616243Y-99282754D01*
X125616241Y-99282753D01*
X125616240Y-99282753D01*
X125454957Y-99257208D01*
X125406287Y-99249500D01*
X125193713Y-99249500D01*
X125145042Y-99257208D01*
X124983760Y-99282753D01*
X124781585Y-99348444D01*
X124592179Y-99444951D01*
X124420213Y-99569890D01*
X124269890Y-99720213D01*
X124144951Y-99892179D01*
X124048444Y-100081585D01*
X123982753Y-100283760D01*
X123949500Y-100493713D01*
X123550500Y-100493713D01*
X123550500Y-97371153D01*
X138099500Y-97371153D01*
X138099500Y-97528846D01*
X138130261Y-97683489D01*
X138130264Y-97683501D01*
X138190602Y-97829172D01*
X138190609Y-97829185D01*
X138278210Y-97960288D01*
X138278213Y-97960292D01*
X138389707Y-98071786D01*
X138389711Y-98071789D01*
X138520814Y-98159390D01*
X138520827Y-98159397D01*
X138666498Y-98219735D01*
X138666503Y-98219737D01*
X138821153Y-98250499D01*
X138821156Y-98250500D01*
X138821158Y-98250500D01*
X138978844Y-98250500D01*
X138978845Y-98250499D01*
X139133497Y-98219737D01*
X139279179Y-98159394D01*
X139410289Y-98071789D01*
X139521789Y-97960289D01*
X139609394Y-97829179D01*
X139669737Y-97683497D01*
X139700500Y-97528842D01*
X139700500Y-97371158D01*
X139700500Y-97371155D01*
X139700499Y-97371153D01*
X139682204Y-97279179D01*
X139669737Y-97216503D01*
X139635352Y-97133489D01*
X139609397Y-97070827D01*
X139609390Y-97070814D01*
X139521789Y-96939711D01*
X139521786Y-96939707D01*
X139410292Y-96828213D01*
X139410288Y-96828210D01*
X139279185Y-96740609D01*
X139279172Y-96740602D01*
X139133501Y-96680264D01*
X139133489Y-96680261D01*
X138978845Y-96649500D01*
X138978842Y-96649500D01*
X138821158Y-96649500D01*
X138821155Y-96649500D01*
X138666510Y-96680261D01*
X138666498Y-96680264D01*
X138520827Y-96740602D01*
X138520814Y-96740609D01*
X138389711Y-96828210D01*
X138389707Y-96828213D01*
X138278213Y-96939707D01*
X138278210Y-96939711D01*
X138190609Y-97070814D01*
X138190602Y-97070827D01*
X138130264Y-97216498D01*
X138130261Y-97216510D01*
X138099500Y-97371153D01*
X123550500Y-97371153D01*
X123550500Y-94232918D01*
X135561265Y-94232918D01*
X135561265Y-94390611D01*
X135592026Y-94545254D01*
X135592029Y-94545266D01*
X135652367Y-94690937D01*
X135652374Y-94690950D01*
X135739975Y-94822053D01*
X135739978Y-94822057D01*
X135851472Y-94933551D01*
X135851476Y-94933554D01*
X135982579Y-95021155D01*
X135982592Y-95021162D01*
X136121846Y-95078842D01*
X136128268Y-95081502D01*
X136282918Y-95112264D01*
X136282921Y-95112265D01*
X136282923Y-95112265D01*
X136334259Y-95112265D01*
X136401298Y-95131950D01*
X136447053Y-95184754D01*
X136448820Y-95188813D01*
X136491120Y-95290937D01*
X136491127Y-95290950D01*
X136578728Y-95422053D01*
X136578731Y-95422057D01*
X136690225Y-95533551D01*
X136690229Y-95533554D01*
X136821332Y-95621155D01*
X136821345Y-95621162D01*
X136967016Y-95681500D01*
X136967021Y-95681502D01*
X137107243Y-95709394D01*
X137121671Y-95712264D01*
X137121674Y-95712265D01*
X137121676Y-95712265D01*
X137279362Y-95712265D01*
X137279363Y-95712264D01*
X137434015Y-95681502D01*
X137561139Y-95628846D01*
X137579690Y-95621162D01*
X137579690Y-95621161D01*
X137579697Y-95621159D01*
X137710807Y-95533554D01*
X137822307Y-95422054D01*
X137909912Y-95290944D01*
X137970255Y-95145262D01*
X138001018Y-94990607D01*
X138001018Y-94921153D01*
X139449500Y-94921153D01*
X139449500Y-95078846D01*
X139480261Y-95233489D01*
X139480264Y-95233501D01*
X139540602Y-95379172D01*
X139540609Y-95379185D01*
X139628210Y-95510288D01*
X139628213Y-95510292D01*
X139739707Y-95621786D01*
X139739711Y-95621789D01*
X139870814Y-95709390D01*
X139870827Y-95709397D01*
X140016498Y-95769735D01*
X140016503Y-95769737D01*
X140166131Y-95799500D01*
X140171153Y-95800499D01*
X140171156Y-95800500D01*
X140171158Y-95800500D01*
X140328844Y-95800500D01*
X140328845Y-95800499D01*
X140483497Y-95769737D01*
X140629179Y-95709394D01*
X140760289Y-95621789D01*
X140871789Y-95510289D01*
X140959394Y-95379179D01*
X141019737Y-95233497D01*
X141050500Y-95078842D01*
X141050500Y-94921158D01*
X141050500Y-94921155D01*
X141050499Y-94921153D01*
X141047304Y-94905093D01*
X141019737Y-94766503D01*
X140993986Y-94704334D01*
X140959397Y-94620827D01*
X140959390Y-94620814D01*
X140871789Y-94489711D01*
X140871786Y-94489707D01*
X140760292Y-94378213D01*
X140760288Y-94378210D01*
X140629185Y-94290609D01*
X140629172Y-94290602D01*
X140483501Y-94230264D01*
X140483489Y-94230261D01*
X140328845Y-94199500D01*
X140328842Y-94199500D01*
X140171158Y-94199500D01*
X140171155Y-94199500D01*
X140016510Y-94230261D01*
X140016498Y-94230264D01*
X139870827Y-94290602D01*
X139870814Y-94290609D01*
X139739711Y-94378210D01*
X139739707Y-94378213D01*
X139628213Y-94489707D01*
X139628210Y-94489711D01*
X139540609Y-94620814D01*
X139540602Y-94620827D01*
X139480264Y-94766498D01*
X139480261Y-94766510D01*
X139449500Y-94921153D01*
X138001018Y-94921153D01*
X138001018Y-94832923D01*
X138001018Y-94832920D01*
X138001017Y-94832918D01*
X137992046Y-94787819D01*
X137970255Y-94678268D01*
X137962927Y-94660577D01*
X137909915Y-94532592D01*
X137909908Y-94532579D01*
X137822307Y-94401476D01*
X137822304Y-94401472D01*
X137710810Y-94289978D01*
X137710806Y-94289975D01*
X137579703Y-94202374D01*
X137579694Y-94202369D01*
X137503669Y-94170879D01*
X137449266Y-94127038D01*
X137427201Y-94060744D01*
X137444480Y-93993045D01*
X137463440Y-93968637D01*
X137471789Y-93960289D01*
X137559394Y-93829179D01*
X137619737Y-93683497D01*
X137650500Y-93528842D01*
X137650500Y-93528835D01*
X137651097Y-93522782D01*
X137653130Y-93522982D01*
X137670185Y-93464902D01*
X137722989Y-93419147D01*
X137792147Y-93409203D01*
X137855703Y-93438228D01*
X137862181Y-93444260D01*
X137889707Y-93471786D01*
X137889711Y-93471789D01*
X138020814Y-93559390D01*
X138020827Y-93559397D01*
X138122805Y-93601637D01*
X138166503Y-93619737D01*
X138321153Y-93650499D01*
X138321156Y-93650500D01*
X138321158Y-93650500D01*
X138478844Y-93650500D01*
X138478845Y-93650499D01*
X138633497Y-93619737D01*
X138779179Y-93559394D01*
X138910289Y-93471789D01*
X139021789Y-93360289D01*
X139109394Y-93229179D01*
X139113414Y-93219475D01*
X139144871Y-93143529D01*
X139169737Y-93083497D01*
X139194635Y-92958329D01*
X139200638Y-92928150D01*
X139233023Y-92866239D01*
X139234516Y-92864718D01*
X140133904Y-91965331D01*
X140195225Y-91931848D01*
X140264917Y-91936832D01*
X140320850Y-91978704D01*
X140345267Y-92044168D01*
X140336145Y-92100465D01*
X140286516Y-92220283D01*
X140286514Y-92220290D01*
X140255753Y-92374933D01*
X140255753Y-92532626D01*
X140286514Y-92687269D01*
X140286517Y-92687281D01*
X140346855Y-92832952D01*
X140346862Y-92832965D01*
X140434463Y-92964068D01*
X140434466Y-92964072D01*
X140545960Y-93075566D01*
X140545964Y-93075569D01*
X140677067Y-93163170D01*
X140677080Y-93163177D01*
X140813010Y-93219480D01*
X140822756Y-93223517D01*
X140977406Y-93254279D01*
X140977409Y-93254280D01*
X140977411Y-93254280D01*
X141135097Y-93254280D01*
X141135098Y-93254279D01*
X141289750Y-93223517D01*
X141419585Y-93169738D01*
X141435425Y-93163177D01*
X141435425Y-93163176D01*
X141435432Y-93163174D01*
X141548345Y-93087727D01*
X141615019Y-93066851D01*
X141682399Y-93085335D01*
X141704914Y-93103150D01*
X143266816Y-94665052D01*
X143300301Y-94726375D01*
X143295317Y-94796067D01*
X143253445Y-94852000D01*
X143248027Y-94855834D01*
X143139713Y-94928208D01*
X143139707Y-94928213D01*
X143028213Y-95039707D01*
X143028210Y-95039711D01*
X142940609Y-95170814D01*
X142940602Y-95170827D01*
X142880264Y-95316498D01*
X142880261Y-95316510D01*
X142849500Y-95471153D01*
X142849500Y-95628846D01*
X142880261Y-95783489D01*
X142880264Y-95783501D01*
X142940602Y-95929172D01*
X142940609Y-95929185D01*
X143028210Y-96060288D01*
X143028213Y-96060292D01*
X143139707Y-96171786D01*
X143139711Y-96171789D01*
X143270814Y-96259390D01*
X143270827Y-96259397D01*
X143410916Y-96317423D01*
X143416503Y-96319737D01*
X143571153Y-96350499D01*
X143571156Y-96350500D01*
X143571158Y-96350500D01*
X143728844Y-96350500D01*
X143728845Y-96350499D01*
X143883497Y-96319737D01*
X144029179Y-96259394D01*
X144160289Y-96171789D01*
X144203546Y-96128531D01*
X144264868Y-96095046D01*
X144315423Y-96094596D01*
X144330104Y-96097517D01*
X144330107Y-96097517D01*
X144487793Y-96097517D01*
X144487794Y-96097516D01*
X144642446Y-96066754D01*
X144788128Y-96006411D01*
X144919238Y-95918806D01*
X145030738Y-95807306D01*
X145118343Y-95676196D01*
X145120292Y-95671490D01*
X145164127Y-95617086D01*
X145230419Y-95595016D01*
X145298120Y-95612290D01*
X145337957Y-95650046D01*
X145378210Y-95710288D01*
X145378213Y-95710292D01*
X145489707Y-95821786D01*
X145489711Y-95821789D01*
X145620814Y-95909390D01*
X145620827Y-95909397D01*
X145764031Y-95968713D01*
X145766503Y-95969737D01*
X145921153Y-96000499D01*
X145921156Y-96000500D01*
X145921158Y-96000500D01*
X146078844Y-96000500D01*
X146078845Y-96000499D01*
X146233497Y-95969737D01*
X146356456Y-95918806D01*
X146379172Y-95909397D01*
X146379172Y-95909396D01*
X146379179Y-95909394D01*
X146510289Y-95821789D01*
X146621789Y-95710289D01*
X146709394Y-95579179D01*
X146769737Y-95433497D01*
X146776339Y-95400309D01*
X146808724Y-95338398D01*
X146869439Y-95303824D01*
X146897956Y-95300500D01*
X148950903Y-95300500D01*
X149017942Y-95320185D01*
X149063697Y-95372989D01*
X149073641Y-95442147D01*
X149044616Y-95505703D01*
X149038584Y-95512181D01*
X148485339Y-96065425D01*
X148424016Y-96098910D01*
X148421850Y-96099361D01*
X148266508Y-96130261D01*
X148266498Y-96130264D01*
X148120827Y-96190602D01*
X148120814Y-96190609D01*
X147989711Y-96278210D01*
X147989707Y-96278213D01*
X147878213Y-96389707D01*
X147878210Y-96389711D01*
X147790609Y-96520814D01*
X147790602Y-96520827D01*
X147730264Y-96666498D01*
X147730261Y-96666510D01*
X147699500Y-96821153D01*
X147699500Y-96978846D01*
X147730261Y-97133489D01*
X147730264Y-97133501D01*
X147790602Y-97279172D01*
X147790609Y-97279185D01*
X147878210Y-97410288D01*
X147878213Y-97410292D01*
X147989707Y-97521786D01*
X147989711Y-97521789D01*
X148120814Y-97609390D01*
X148120827Y-97609397D01*
X148266498Y-97669735D01*
X148266503Y-97669737D01*
X148421153Y-97700499D01*
X148421156Y-97700500D01*
X148421158Y-97700500D01*
X148578844Y-97700500D01*
X148578845Y-97700499D01*
X148733497Y-97669737D01*
X148874727Y-97611237D01*
X148944196Y-97603769D01*
X148991070Y-97622697D01*
X149120814Y-97709390D01*
X149120827Y-97709397D01*
X149266498Y-97769735D01*
X149266503Y-97769737D01*
X149421153Y-97800499D01*
X149421156Y-97800500D01*
X149421158Y-97800500D01*
X149578844Y-97800500D01*
X149578845Y-97800499D01*
X149733497Y-97769737D01*
X149879179Y-97709394D01*
X150010289Y-97621789D01*
X150121789Y-97510289D01*
X150209394Y-97379179D01*
X150212719Y-97371153D01*
X150238301Y-97309390D01*
X150269737Y-97233497D01*
X150300500Y-97078842D01*
X150300500Y-96921158D01*
X150300500Y-96921155D01*
X150300499Y-96921153D01*
X150282012Y-96828213D01*
X150269737Y-96766503D01*
X150269735Y-96766498D01*
X150209397Y-96620827D01*
X150209390Y-96620814D01*
X150142798Y-96521153D01*
X162799500Y-96521153D01*
X162799500Y-96678846D01*
X162830261Y-96833489D01*
X162830264Y-96833501D01*
X162890602Y-96979172D01*
X162890609Y-96979185D01*
X162978210Y-97110288D01*
X162978213Y-97110292D01*
X163089707Y-97221786D01*
X163089711Y-97221789D01*
X163220814Y-97309390D01*
X163220827Y-97309397D01*
X163366498Y-97369735D01*
X163366503Y-97369737D01*
X163521153Y-97400499D01*
X163521156Y-97400500D01*
X163521158Y-97400500D01*
X163678844Y-97400500D01*
X163678845Y-97400499D01*
X163833497Y-97369737D01*
X163979179Y-97309394D01*
X164110289Y-97221789D01*
X164221789Y-97110289D01*
X164309394Y-96979179D01*
X164369737Y-96833497D01*
X164400500Y-96678842D01*
X164400500Y-96521158D01*
X164400500Y-96521155D01*
X164400499Y-96521153D01*
X164376499Y-96400499D01*
X164369737Y-96366503D01*
X164366268Y-96358127D01*
X164309397Y-96220827D01*
X164309390Y-96220814D01*
X164221789Y-96089711D01*
X164221786Y-96089707D01*
X164110292Y-95978213D01*
X164110288Y-95978210D01*
X163979185Y-95890609D01*
X163979172Y-95890602D01*
X163833501Y-95830264D01*
X163833489Y-95830261D01*
X163678845Y-95799500D01*
X163678842Y-95799500D01*
X163521158Y-95799500D01*
X163521155Y-95799500D01*
X163366510Y-95830261D01*
X163366498Y-95830264D01*
X163220827Y-95890602D01*
X163220814Y-95890609D01*
X163089711Y-95978210D01*
X163089707Y-95978213D01*
X162978213Y-96089707D01*
X162978210Y-96089711D01*
X162890609Y-96220814D01*
X162890602Y-96220827D01*
X162830264Y-96366498D01*
X162830261Y-96366510D01*
X162799500Y-96521153D01*
X150142798Y-96521153D01*
X150121789Y-96489711D01*
X150121786Y-96489707D01*
X150028337Y-96396258D01*
X150023998Y-96388312D01*
X150016751Y-96382887D01*
X150007516Y-96358127D01*
X149994852Y-96334935D01*
X149995497Y-96325905D01*
X149992334Y-96317423D01*
X149997950Y-96291602D01*
X149999836Y-96265243D01*
X150005654Y-96256189D01*
X150007186Y-96249150D01*
X150028332Y-96220901D01*
X150120899Y-96128335D01*
X150182219Y-96094852D01*
X150251911Y-96099836D01*
X150296258Y-96128337D01*
X150389707Y-96221786D01*
X150389711Y-96221789D01*
X150520814Y-96309390D01*
X150520827Y-96309397D01*
X150658683Y-96366498D01*
X150666503Y-96369737D01*
X150799832Y-96396258D01*
X150821153Y-96400499D01*
X150821156Y-96400500D01*
X150821158Y-96400500D01*
X150978844Y-96400500D01*
X150978845Y-96400499D01*
X150989179Y-96398443D01*
X151014287Y-96393450D01*
X151014292Y-96393449D01*
X151099800Y-96376439D01*
X151133497Y-96369737D01*
X151279179Y-96309394D01*
X151354005Y-96259397D01*
X151410875Y-96221398D01*
X151477553Y-96200520D01*
X151479766Y-96200500D01*
X154763331Y-96200500D01*
X154763347Y-96200501D01*
X154770943Y-96200501D01*
X154929054Y-96200501D01*
X154929057Y-96200501D01*
X155081785Y-96159577D01*
X155139136Y-96126465D01*
X155218716Y-96080520D01*
X155330520Y-95968716D01*
X155330520Y-95968714D01*
X155340724Y-95958511D01*
X155340727Y-95958506D01*
X156815993Y-94483241D01*
X156877314Y-94449758D01*
X156947006Y-94454742D01*
X156951084Y-94456347D01*
X156990906Y-94472842D01*
X157145556Y-94503604D01*
X157145559Y-94503605D01*
X157145561Y-94503605D01*
X157303247Y-94503605D01*
X157303248Y-94503604D01*
X157457900Y-94472842D01*
X157603582Y-94412499D01*
X157734692Y-94324894D01*
X157846192Y-94213394D01*
X157933797Y-94082284D01*
X157944647Y-94056086D01*
X157988487Y-94001683D01*
X158035015Y-93981921D01*
X158082161Y-93972544D01*
X158227843Y-93912201D01*
X158358953Y-93824596D01*
X158470453Y-93713096D01*
X158558058Y-93581986D01*
X158567418Y-93559390D01*
X158591932Y-93500207D01*
X158618401Y-93436304D01*
X158649164Y-93281649D01*
X158649164Y-93123965D01*
X158646485Y-93110497D01*
X158652711Y-93040906D01*
X158695573Y-92985728D01*
X158720647Y-92971744D01*
X158729179Y-92968211D01*
X158860289Y-92880606D01*
X158971789Y-92769106D01*
X159059394Y-92637996D01*
X159066369Y-92621158D01*
X159094746Y-92552647D01*
X159119737Y-92492314D01*
X159150500Y-92337659D01*
X159150500Y-92179975D01*
X159150500Y-92179972D01*
X159150499Y-92179970D01*
X159143879Y-92146690D01*
X159119737Y-92025320D01*
X159113967Y-92011389D01*
X159059397Y-91879644D01*
X159059390Y-91879631D01*
X158971789Y-91748528D01*
X158971786Y-91748524D01*
X158860292Y-91637030D01*
X158860288Y-91637027D01*
X158729185Y-91549426D01*
X158729172Y-91549419D01*
X158583501Y-91489081D01*
X158583489Y-91489078D01*
X158428845Y-91458317D01*
X158428842Y-91458317D01*
X158271158Y-91458317D01*
X158271153Y-91458317D01*
X158157997Y-91480825D01*
X158088405Y-91474598D01*
X158046125Y-91446889D01*
X157753103Y-91153867D01*
X157719618Y-91092544D01*
X157724602Y-91022852D01*
X157757189Y-90977247D01*
X157756039Y-90976097D01*
X157871843Y-90860292D01*
X157871846Y-90860289D01*
X157959451Y-90729179D01*
X158019794Y-90583497D01*
X158050557Y-90428842D01*
X158050557Y-90271158D01*
X158050557Y-90271155D01*
X158029457Y-90165084D01*
X158021263Y-90123888D01*
X158027490Y-90054298D01*
X158039773Y-90030814D01*
X158107685Y-89929178D01*
X158168028Y-89783496D01*
X158198791Y-89628841D01*
X158198791Y-89471157D01*
X158198791Y-89471154D01*
X158198790Y-89471152D01*
X158196629Y-89460288D01*
X158168028Y-89316502D01*
X158128536Y-89221158D01*
X158107688Y-89170826D01*
X158107681Y-89170813D01*
X158018288Y-89037028D01*
X157997410Y-88970351D01*
X158015894Y-88902971D01*
X158018288Y-88899246D01*
X158020184Y-88896407D01*
X158020187Y-88896405D01*
X158107792Y-88765295D01*
X158168135Y-88619613D01*
X158198898Y-88464958D01*
X158198898Y-88307274D01*
X158198898Y-88307271D01*
X158198897Y-88307269D01*
X158184060Y-88232679D01*
X158168135Y-88152619D01*
X158153970Y-88118422D01*
X158107795Y-88006943D01*
X158107788Y-88006930D01*
X158041887Y-87908303D01*
X158021009Y-87841626D01*
X158023371Y-87815224D01*
X158043010Y-87716498D01*
X158050500Y-87678844D01*
X158050500Y-87521155D01*
X158023372Y-87384778D01*
X158029599Y-87315186D01*
X158041882Y-87291701D01*
X158107792Y-87193062D01*
X158168135Y-87047380D01*
X158198898Y-86892725D01*
X158198898Y-86735041D01*
X158198898Y-86735038D01*
X158169900Y-86589258D01*
X158169900Y-86589257D01*
X158168136Y-86580393D01*
X158168135Y-86580386D01*
X158167496Y-86578844D01*
X158164310Y-86571153D01*
X161207902Y-86571153D01*
X161207902Y-86728846D01*
X161238663Y-86883489D01*
X161238666Y-86883501D01*
X161299004Y-87029172D01*
X161299011Y-87029185D01*
X161386612Y-87160288D01*
X161386615Y-87160292D01*
X161459237Y-87232914D01*
X161492722Y-87294237D01*
X161487738Y-87363929D01*
X161459237Y-87408276D01*
X161427805Y-87439707D01*
X161427802Y-87439711D01*
X161340201Y-87570814D01*
X161340194Y-87570827D01*
X161279856Y-87716498D01*
X161279853Y-87716510D01*
X161249092Y-87871153D01*
X161249092Y-88028846D01*
X161279853Y-88183489D01*
X161279856Y-88183501D01*
X161340194Y-88329172D01*
X161340201Y-88329185D01*
X161400100Y-88418829D01*
X161420978Y-88485506D01*
X161402494Y-88552886D01*
X161400102Y-88556608D01*
X161390610Y-88570814D01*
X161390602Y-88570828D01*
X161330264Y-88716498D01*
X161330261Y-88716510D01*
X161299500Y-88871153D01*
X161299500Y-89028846D01*
X161330261Y-89183489D01*
X161330264Y-89183501D01*
X161390602Y-89329172D01*
X161390609Y-89329185D01*
X161478210Y-89460288D01*
X161478213Y-89460292D01*
X161505240Y-89487319D01*
X161538725Y-89548642D01*
X161533741Y-89618334D01*
X161505240Y-89662681D01*
X161478213Y-89689707D01*
X161478210Y-89689711D01*
X161390609Y-89820814D01*
X161390602Y-89820827D01*
X161330264Y-89966498D01*
X161330261Y-89966510D01*
X161299500Y-90121153D01*
X161299500Y-90278846D01*
X161330261Y-90433489D01*
X161330264Y-90433501D01*
X161390602Y-90579172D01*
X161390609Y-90579185D01*
X161478210Y-90710288D01*
X161478213Y-90710292D01*
X161589707Y-90821786D01*
X161589711Y-90821789D01*
X161720814Y-90909390D01*
X161720827Y-90909397D01*
X161866498Y-90969735D01*
X161866503Y-90969737D01*
X162019972Y-91000264D01*
X162021153Y-91000499D01*
X162021156Y-91000500D01*
X162021158Y-91000500D01*
X162178844Y-91000500D01*
X162178845Y-91000499D01*
X162333497Y-90969737D01*
X162479179Y-90909394D01*
X162610289Y-90821789D01*
X162721789Y-90710289D01*
X162809394Y-90579179D01*
X162869737Y-90433497D01*
X162900500Y-90278842D01*
X162900500Y-90121158D01*
X162900500Y-90121155D01*
X162900499Y-90121153D01*
X162888250Y-90059576D01*
X162869737Y-89966503D01*
X162854274Y-89929171D01*
X162809397Y-89820827D01*
X162809390Y-89820814D01*
X162721789Y-89689711D01*
X162721786Y-89689707D01*
X162694760Y-89662681D01*
X162661275Y-89601358D01*
X162666259Y-89531666D01*
X162694760Y-89487319D01*
X162721786Y-89460292D01*
X162721789Y-89460289D01*
X162809394Y-89329179D01*
X162869737Y-89183497D01*
X162900500Y-89028842D01*
X162900500Y-88871158D01*
X162900500Y-88871155D01*
X162900499Y-88871153D01*
X162885852Y-88797518D01*
X162869737Y-88716503D01*
X162833569Y-88629185D01*
X162809397Y-88570827D01*
X162809395Y-88570823D01*
X162809394Y-88570821D01*
X162749490Y-88481169D01*
X162728613Y-88414493D01*
X162747097Y-88347113D01*
X162749495Y-88343383D01*
X162758981Y-88329187D01*
X162758982Y-88329184D01*
X162758986Y-88329179D01*
X162762446Y-88320827D01*
X162786003Y-88263954D01*
X162819329Y-88183497D01*
X162850092Y-88028842D01*
X162850092Y-87871158D01*
X162850092Y-87871155D01*
X162850091Y-87871153D01*
X162850024Y-87870814D01*
X162819329Y-87716503D01*
X162803730Y-87678844D01*
X162758989Y-87570827D01*
X162758982Y-87570814D01*
X162671381Y-87439711D01*
X162671378Y-87439707D01*
X162598756Y-87367085D01*
X162565271Y-87305762D01*
X162570255Y-87236070D01*
X162598754Y-87191725D01*
X162630191Y-87160289D01*
X162717796Y-87029179D01*
X162778139Y-86883497D01*
X162808902Y-86728842D01*
X162808902Y-86571158D01*
X162808902Y-86571155D01*
X162808901Y-86571153D01*
X162785063Y-86451314D01*
X162778139Y-86416503D01*
X162775565Y-86410288D01*
X162717799Y-86270827D01*
X162717792Y-86270814D01*
X162631524Y-86141705D01*
X162610646Y-86075027D01*
X162629131Y-86007647D01*
X162646941Y-85985136D01*
X162721789Y-85910289D01*
X162809394Y-85779179D01*
X162812854Y-85770827D01*
X162834015Y-85719737D01*
X162869737Y-85633497D01*
X162900500Y-85478842D01*
X162900500Y-85321158D01*
X162900500Y-85321155D01*
X162900499Y-85321153D01*
X162882204Y-85229179D01*
X162869737Y-85166503D01*
X162869735Y-85166498D01*
X162809397Y-85020827D01*
X162809390Y-85020814D01*
X162721789Y-84889711D01*
X162721786Y-84889707D01*
X162610292Y-84778213D01*
X162610288Y-84778210D01*
X162479185Y-84690609D01*
X162479172Y-84690602D01*
X162333501Y-84630264D01*
X162333489Y-84630261D01*
X162178845Y-84599500D01*
X162178842Y-84599500D01*
X162021158Y-84599500D01*
X162021155Y-84599500D01*
X161866510Y-84630261D01*
X161866498Y-84630264D01*
X161720827Y-84690602D01*
X161720814Y-84690609D01*
X161589711Y-84778210D01*
X161589707Y-84778213D01*
X161478213Y-84889707D01*
X161478210Y-84889711D01*
X161390609Y-85020814D01*
X161390602Y-85020827D01*
X161330264Y-85166498D01*
X161330261Y-85166510D01*
X161299500Y-85321153D01*
X161299500Y-85478846D01*
X161330261Y-85633489D01*
X161330264Y-85633501D01*
X161390602Y-85779172D01*
X161390609Y-85779185D01*
X161476878Y-85908294D01*
X161497756Y-85974971D01*
X161479272Y-86042351D01*
X161461457Y-86064866D01*
X161386615Y-86139707D01*
X161386612Y-86139711D01*
X161299011Y-86270814D01*
X161299004Y-86270827D01*
X161238666Y-86416498D01*
X161238663Y-86416510D01*
X161207902Y-86571153D01*
X158164310Y-86571153D01*
X158107795Y-86434710D01*
X158107788Y-86434697D01*
X158020187Y-86303594D01*
X158020184Y-86303590D01*
X157908690Y-86192096D01*
X157908686Y-86192093D01*
X157777583Y-86104492D01*
X157777570Y-86104485D01*
X157631899Y-86044147D01*
X157631887Y-86044144D01*
X157477243Y-86013383D01*
X157477240Y-86013383D01*
X157319556Y-86013383D01*
X157319553Y-86013383D01*
X157164908Y-86044144D01*
X157164896Y-86044147D01*
X157019225Y-86104485D01*
X157019212Y-86104492D01*
X156888109Y-86192093D01*
X156888105Y-86192096D01*
X156776611Y-86303590D01*
X156776608Y-86303594D01*
X156689007Y-86434697D01*
X156689000Y-86434710D01*
X156628662Y-86580381D01*
X156628659Y-86580393D01*
X156597898Y-86735036D01*
X156597898Y-86892729D01*
X156625025Y-87029106D01*
X156618798Y-87098698D01*
X156606510Y-87122188D01*
X156540609Y-87220814D01*
X156540602Y-87220827D01*
X156480264Y-87366498D01*
X156480261Y-87366510D01*
X156449500Y-87521153D01*
X156449500Y-87678846D01*
X156480261Y-87833489D01*
X156480264Y-87833501D01*
X156540602Y-87979172D01*
X156540609Y-87979185D01*
X156606510Y-88077812D01*
X156627388Y-88144490D01*
X156625025Y-88170894D01*
X156597898Y-88307269D01*
X156597898Y-88464962D01*
X156628659Y-88619605D01*
X156628662Y-88619617D01*
X156673575Y-88728048D01*
X156681044Y-88797518D01*
X156649768Y-88859997D01*
X156589679Y-88895648D01*
X156559014Y-88899500D01*
X151850097Y-88899500D01*
X151783058Y-88879815D01*
X151762416Y-88863181D01*
X150687590Y-87788355D01*
X150687588Y-87788352D01*
X150568717Y-87669481D01*
X150568716Y-87669480D01*
X150464643Y-87609394D01*
X150464642Y-87609393D01*
X150431783Y-87590422D01*
X150375881Y-87575443D01*
X150279057Y-87549499D01*
X150120943Y-87549499D01*
X150113347Y-87549499D01*
X150113331Y-87549500D01*
X149010759Y-87549500D01*
X148943720Y-87529815D01*
X148897965Y-87477011D01*
X148888021Y-87407853D01*
X148907657Y-87356609D01*
X148926632Y-87328211D01*
X148959394Y-87279179D01*
X149019737Y-87133497D01*
X149050500Y-86978842D01*
X149050500Y-86821158D01*
X149050500Y-86821155D01*
X149050499Y-86821153D01*
X149038015Y-86758394D01*
X149019737Y-86666503D01*
X149019735Y-86666498D01*
X148959397Y-86520827D01*
X148959390Y-86520814D01*
X148871789Y-86389711D01*
X148871786Y-86389707D01*
X148760292Y-86278213D01*
X148760288Y-86278210D01*
X148629185Y-86190609D01*
X148629172Y-86190602D01*
X148483501Y-86130264D01*
X148483495Y-86130262D01*
X148473489Y-86128272D01*
X148411579Y-86095884D01*
X148377007Y-86035167D01*
X148380749Y-85965398D01*
X148421617Y-85908727D01*
X148450225Y-85892097D01*
X148529179Y-85859394D01*
X148660289Y-85771789D01*
X148771789Y-85660289D01*
X148859394Y-85529179D01*
X148862854Y-85520827D01*
X148881795Y-85475097D01*
X148919737Y-85383497D01*
X148950500Y-85228842D01*
X148950500Y-85071158D01*
X148950500Y-85071155D01*
X148950499Y-85071153D01*
X148930734Y-84971789D01*
X148919737Y-84916503D01*
X148915177Y-84905494D01*
X148859397Y-84770827D01*
X148859390Y-84770814D01*
X148771789Y-84639711D01*
X148771786Y-84639707D01*
X148660292Y-84528213D01*
X148660288Y-84528210D01*
X148529185Y-84440609D01*
X148529172Y-84440602D01*
X148383501Y-84380264D01*
X148383489Y-84380261D01*
X148228845Y-84349500D01*
X148228842Y-84349500D01*
X148160759Y-84349500D01*
X148093720Y-84329815D01*
X148047965Y-84277011D01*
X148038021Y-84207853D01*
X148057657Y-84156609D01*
X148104977Y-84085789D01*
X148109394Y-84079179D01*
X148112719Y-84071153D01*
X148138306Y-84009379D01*
X148169737Y-83933497D01*
X148200500Y-83778842D01*
X148200500Y-83621158D01*
X148200500Y-83621155D01*
X148200499Y-83621153D01*
X148194773Y-83592369D01*
X148169737Y-83466503D01*
X148168084Y-83462512D01*
X148150953Y-83421153D01*
X148999500Y-83421153D01*
X148999500Y-83578846D01*
X149030261Y-83733489D01*
X149030264Y-83733501D01*
X149090602Y-83879172D01*
X149090609Y-83879185D01*
X149178210Y-84010288D01*
X149178213Y-84010292D01*
X149289707Y-84121786D01*
X149289711Y-84121789D01*
X149420814Y-84209390D01*
X149420827Y-84209397D01*
X149566498Y-84269735D01*
X149566503Y-84269737D01*
X149721153Y-84300499D01*
X149721156Y-84300500D01*
X149721158Y-84300500D01*
X149878844Y-84300500D01*
X149878845Y-84300499D01*
X150033497Y-84269737D01*
X150179179Y-84209394D01*
X150310289Y-84121789D01*
X150421789Y-84010289D01*
X150422397Y-84009378D01*
X150422839Y-84009008D01*
X150425653Y-84005581D01*
X150426303Y-84006114D01*
X150476010Y-83964573D01*
X150545334Y-83955866D01*
X150608362Y-83986020D01*
X150645082Y-84045463D01*
X150649500Y-84078269D01*
X150649500Y-84228846D01*
X150680261Y-84383489D01*
X150680264Y-84383501D01*
X150740602Y-84529172D01*
X150740609Y-84529185D01*
X150828210Y-84660288D01*
X150828213Y-84660292D01*
X150939707Y-84771786D01*
X150939711Y-84771789D01*
X151070814Y-84859390D01*
X151070827Y-84859397D01*
X151208683Y-84916498D01*
X151216503Y-84919737D01*
X151371153Y-84950499D01*
X151371156Y-84950500D01*
X151371158Y-84950500D01*
X151528844Y-84950500D01*
X151528845Y-84950499D01*
X151683497Y-84919737D01*
X151829179Y-84859394D01*
X151960289Y-84771789D01*
X151961925Y-84770153D01*
X153499500Y-84770153D01*
X153499500Y-84927846D01*
X153530261Y-85082489D01*
X153530264Y-85082501D01*
X153590602Y-85228172D01*
X153590609Y-85228185D01*
X153678210Y-85359288D01*
X153678213Y-85359292D01*
X153794018Y-85475097D01*
X153793094Y-85476020D01*
X153828637Y-85528201D01*
X153830506Y-85598045D01*
X153813740Y-85635196D01*
X153790611Y-85669811D01*
X153790602Y-85669827D01*
X153730264Y-85815498D01*
X153730261Y-85815510D01*
X153699500Y-85970153D01*
X153699500Y-86127846D01*
X153730261Y-86282489D01*
X153730264Y-86282501D01*
X153790602Y-86428172D01*
X153790609Y-86428185D01*
X153878210Y-86559288D01*
X153878213Y-86559292D01*
X153989707Y-86670786D01*
X153989711Y-86670789D01*
X154120814Y-86758390D01*
X154120827Y-86758397D01*
X154266498Y-86818735D01*
X154266503Y-86818737D01*
X154421153Y-86849499D01*
X154421156Y-86849500D01*
X154421158Y-86849500D01*
X154578844Y-86849500D01*
X154578845Y-86849499D01*
X154733497Y-86818737D01*
X154879179Y-86758394D01*
X155010289Y-86670789D01*
X155121789Y-86559289D01*
X155209394Y-86428179D01*
X155269737Y-86282497D01*
X155300500Y-86127842D01*
X155300500Y-85970158D01*
X155300500Y-85970155D01*
X155300499Y-85970153D01*
X155290879Y-85921789D01*
X155269737Y-85815503D01*
X155254691Y-85779179D01*
X155209397Y-85669827D01*
X155209390Y-85669814D01*
X155121789Y-85538711D01*
X155121786Y-85538707D01*
X155005982Y-85422903D01*
X155006905Y-85421979D01*
X154971361Y-85369795D01*
X154969493Y-85299951D01*
X154986261Y-85262800D01*
X154988737Y-85259093D01*
X155009394Y-85228179D01*
X155069737Y-85082497D01*
X155100500Y-84927842D01*
X155100500Y-84770158D01*
X155100500Y-84770155D01*
X155100499Y-84770153D01*
X155090471Y-84719738D01*
X155069737Y-84615503D01*
X155069735Y-84615498D01*
X155009397Y-84469827D01*
X155009390Y-84469814D01*
X154921789Y-84338711D01*
X154921786Y-84338707D01*
X154810292Y-84227213D01*
X154810288Y-84227210D01*
X154782625Y-84208726D01*
X154737820Y-84155114D01*
X154729113Y-84085789D01*
X154759268Y-84022761D01*
X154804061Y-83991064D01*
X154878107Y-83960394D01*
X155009217Y-83872789D01*
X155120717Y-83761289D01*
X155208322Y-83630179D01*
X155268665Y-83484497D01*
X155299428Y-83329842D01*
X155299428Y-83172158D01*
X155299428Y-83172155D01*
X155299427Y-83172153D01*
X155294921Y-83149500D01*
X155268665Y-83017503D01*
X155232530Y-82930264D01*
X155208325Y-82871827D01*
X155208318Y-82871814D01*
X155120717Y-82740711D01*
X155120714Y-82740707D01*
X155009220Y-82629213D01*
X155009216Y-82629210D01*
X154878113Y-82541609D01*
X154878100Y-82541602D01*
X154732429Y-82481264D01*
X154732417Y-82481261D01*
X154577773Y-82450500D01*
X154577770Y-82450500D01*
X154420086Y-82450500D01*
X154420083Y-82450500D01*
X154265438Y-82481261D01*
X154265426Y-82481264D01*
X154119755Y-82541602D01*
X154119742Y-82541609D01*
X153988639Y-82629210D01*
X153988635Y-82629213D01*
X153877141Y-82740707D01*
X153877138Y-82740711D01*
X153789537Y-82871814D01*
X153789530Y-82871827D01*
X153729192Y-83017498D01*
X153729189Y-83017510D01*
X153698428Y-83172153D01*
X153698428Y-83329846D01*
X153729189Y-83484489D01*
X153729192Y-83484501D01*
X153789530Y-83630172D01*
X153789537Y-83630185D01*
X153877138Y-83761288D01*
X153877141Y-83761292D01*
X153988635Y-83872786D01*
X153988643Y-83872792D01*
X154016301Y-83891273D01*
X154061107Y-83944885D01*
X154069814Y-84014210D01*
X154039660Y-84077237D01*
X153994864Y-84108936D01*
X153920824Y-84139604D01*
X153920814Y-84139609D01*
X153789711Y-84227210D01*
X153789707Y-84227213D01*
X153678213Y-84338707D01*
X153678210Y-84338711D01*
X153590609Y-84469814D01*
X153590602Y-84469827D01*
X153530264Y-84615498D01*
X153530261Y-84615510D01*
X153499500Y-84770153D01*
X151961925Y-84770153D01*
X152002906Y-84729172D01*
X152055694Y-84676385D01*
X152071786Y-84660292D01*
X152071789Y-84660289D01*
X152159394Y-84529179D01*
X152219737Y-84383497D01*
X152250500Y-84228842D01*
X152250500Y-84071158D01*
X152250500Y-84071155D01*
X152250499Y-84071153D01*
X152243007Y-84033489D01*
X152219737Y-83916503D01*
X152219735Y-83916498D01*
X152159397Y-83770827D01*
X152159390Y-83770814D01*
X152071789Y-83639711D01*
X152071786Y-83639707D01*
X151960292Y-83528213D01*
X151960288Y-83528210D01*
X151829185Y-83440609D01*
X151829172Y-83440602D01*
X151683501Y-83380264D01*
X151683489Y-83380261D01*
X151528845Y-83349500D01*
X151528842Y-83349500D01*
X151371158Y-83349500D01*
X151371155Y-83349500D01*
X151216510Y-83380261D01*
X151216498Y-83380264D01*
X151070827Y-83440602D01*
X151070814Y-83440609D01*
X150939711Y-83528210D01*
X150939707Y-83528213D01*
X150828213Y-83639707D01*
X150828206Y-83639716D01*
X150827597Y-83640628D01*
X150827155Y-83640997D01*
X150824347Y-83644419D01*
X150823697Y-83643886D01*
X150773982Y-83685429D01*
X150704656Y-83694132D01*
X150641631Y-83663973D01*
X150604916Y-83604527D01*
X150600500Y-83571730D01*
X150600500Y-83421155D01*
X150600499Y-83421153D01*
X150582012Y-83328213D01*
X150569737Y-83266503D01*
X150569735Y-83266498D01*
X150509397Y-83120827D01*
X150509390Y-83120814D01*
X150421789Y-82989711D01*
X150421786Y-82989707D01*
X150310292Y-82878213D01*
X150310288Y-82878210D01*
X150179185Y-82790609D01*
X150179172Y-82790602D01*
X150033501Y-82730264D01*
X150033489Y-82730261D01*
X149878845Y-82699500D01*
X149878842Y-82699500D01*
X149721158Y-82699500D01*
X149721155Y-82699500D01*
X149566510Y-82730261D01*
X149566498Y-82730264D01*
X149420827Y-82790602D01*
X149420814Y-82790609D01*
X149289711Y-82878210D01*
X149289707Y-82878213D01*
X149178213Y-82989707D01*
X149178210Y-82989711D01*
X149090609Y-83120814D01*
X149090602Y-83120827D01*
X149030264Y-83266498D01*
X149030261Y-83266510D01*
X148999500Y-83421153D01*
X148150953Y-83421153D01*
X148109397Y-83320827D01*
X148109390Y-83320814D01*
X148021789Y-83189711D01*
X148021786Y-83189707D01*
X147910292Y-83078213D01*
X147910288Y-83078210D01*
X147779185Y-82990609D01*
X147779172Y-82990602D01*
X147633501Y-82930264D01*
X147633489Y-82930261D01*
X147478845Y-82899500D01*
X147478842Y-82899500D01*
X147321158Y-82899500D01*
X147321155Y-82899500D01*
X147166510Y-82930261D01*
X147166498Y-82930264D01*
X147020827Y-82990602D01*
X147020814Y-82990609D01*
X146889711Y-83078210D01*
X146889707Y-83078213D01*
X146778213Y-83189707D01*
X146778210Y-83189711D01*
X146690609Y-83320814D01*
X146690602Y-83320827D01*
X146630264Y-83466498D01*
X146630261Y-83466510D01*
X146599500Y-83621153D01*
X146599500Y-83778846D01*
X146630261Y-83933489D01*
X146630264Y-83933501D01*
X146690602Y-84079172D01*
X146690609Y-84079185D01*
X146778210Y-84210288D01*
X146778213Y-84210292D01*
X146889707Y-84321786D01*
X146889711Y-84321789D01*
X147020814Y-84409390D01*
X147020827Y-84409397D01*
X147166498Y-84469735D01*
X147166503Y-84469737D01*
X147316131Y-84499500D01*
X147321153Y-84500499D01*
X147321156Y-84500500D01*
X147389241Y-84500500D01*
X147456280Y-84520185D01*
X147502035Y-84572989D01*
X147511979Y-84642147D01*
X147492343Y-84693391D01*
X147440609Y-84770815D01*
X147440602Y-84770827D01*
X147380264Y-84916498D01*
X147380261Y-84916510D01*
X147349500Y-85071153D01*
X147349500Y-85225500D01*
X147329815Y-85292539D01*
X147277011Y-85338294D01*
X147225500Y-85349500D01*
X147121155Y-85349500D01*
X146966510Y-85380261D01*
X146966498Y-85380264D01*
X146820827Y-85440602D01*
X146820814Y-85440609D01*
X146689711Y-85528210D01*
X146689707Y-85528213D01*
X146578213Y-85639707D01*
X146578210Y-85639711D01*
X146490609Y-85770814D01*
X146490602Y-85770827D01*
X146430264Y-85916498D01*
X146430261Y-85916510D01*
X146399500Y-86071153D01*
X146399500Y-86228846D01*
X146430260Y-86383488D01*
X146430261Y-86383489D01*
X146430263Y-86383497D01*
X146458354Y-86451316D01*
X146465822Y-86520784D01*
X146434546Y-86583263D01*
X146431474Y-86586446D01*
X146378214Y-86639706D01*
X146378210Y-86639711D01*
X146290609Y-86770814D01*
X146290602Y-86770827D01*
X146230264Y-86916498D01*
X146230261Y-86916510D01*
X146199500Y-87071153D01*
X146199500Y-87228846D01*
X146230261Y-87383489D01*
X146230264Y-87383501D01*
X146290602Y-87529172D01*
X146290609Y-87529185D01*
X146378210Y-87660288D01*
X146378213Y-87660292D01*
X146489707Y-87771786D01*
X146489711Y-87771789D01*
X146620814Y-87859390D01*
X146620827Y-87859397D01*
X146758695Y-87916503D01*
X146766503Y-87919737D01*
X146921153Y-87950499D01*
X146921156Y-87950500D01*
X146921158Y-87950500D01*
X147078844Y-87950500D01*
X147078845Y-87950499D01*
X147233497Y-87919737D01*
X147285933Y-87898017D01*
X147341880Y-87874844D01*
X147411349Y-87867375D01*
X147473828Y-87898650D01*
X147509480Y-87958739D01*
X147510949Y-88013596D01*
X147499500Y-88071153D01*
X147499500Y-88228846D01*
X147530261Y-88383489D01*
X147530264Y-88383501D01*
X147590602Y-88529172D01*
X147590609Y-88529185D01*
X147678210Y-88660288D01*
X147678213Y-88660292D01*
X147789707Y-88771786D01*
X147789711Y-88771789D01*
X147920814Y-88859390D01*
X147920827Y-88859397D01*
X148017646Y-88899500D01*
X148066503Y-88919737D01*
X148221153Y-88950499D01*
X148221156Y-88950500D01*
X148221158Y-88950500D01*
X148378844Y-88950500D01*
X148378845Y-88950499D01*
X148533497Y-88919737D01*
X148679179Y-88859394D01*
X148720584Y-88831728D01*
X148810875Y-88771398D01*
X148877553Y-88750520D01*
X148879766Y-88750500D01*
X149899903Y-88750500D01*
X149966942Y-88770185D01*
X149987584Y-88786819D01*
X151065139Y-89864374D01*
X151065149Y-89864385D01*
X151069479Y-89868715D01*
X151069480Y-89868716D01*
X151181284Y-89980520D01*
X151267884Y-90030518D01*
X151309071Y-90054298D01*
X151318215Y-90059577D01*
X151470942Y-90100500D01*
X151470943Y-90100500D01*
X156332408Y-90100500D01*
X156352620Y-90106435D01*
X156373661Y-90107563D01*
X156385475Y-90116082D01*
X156399447Y-90120185D01*
X156413242Y-90136105D01*
X156430333Y-90148430D01*
X156435665Y-90161983D01*
X156445202Y-90172989D01*
X156448200Y-90193840D01*
X156455915Y-90213448D01*
X156454585Y-90238246D01*
X156455146Y-90242147D01*
X156454025Y-90248692D01*
X156451896Y-90259395D01*
X156419511Y-90321306D01*
X156358795Y-90355880D01*
X156330279Y-90359203D01*
X148767884Y-90359203D01*
X148609770Y-90359203D01*
X148457042Y-90400126D01*
X148457041Y-90400126D01*
X148457039Y-90400127D01*
X148457036Y-90400128D01*
X148416641Y-90423450D01*
X148416642Y-90423451D01*
X148416559Y-90423499D01*
X148320111Y-90479183D01*
X148319873Y-90479420D01*
X148312583Y-90483637D01*
X148298850Y-90486979D01*
X148274692Y-90497915D01*
X148115773Y-90529526D01*
X148115763Y-90529529D01*
X147970092Y-90589867D01*
X147970081Y-90589873D01*
X147856324Y-90665883D01*
X147789647Y-90686760D01*
X147722267Y-90668275D01*
X147699753Y-90650461D01*
X145436819Y-88387527D01*
X145403334Y-88326204D01*
X145400500Y-88299846D01*
X145400500Y-86929765D01*
X145420185Y-86862726D01*
X145421398Y-86860874D01*
X145447936Y-86821158D01*
X145509394Y-86729179D01*
X145569737Y-86583497D01*
X145600500Y-86428842D01*
X145600500Y-86271158D01*
X145600500Y-86271155D01*
X145600499Y-86271153D01*
X145599573Y-86266498D01*
X145569737Y-86116503D01*
X145562694Y-86099500D01*
X145509397Y-85970827D01*
X145509390Y-85970814D01*
X145421789Y-85839711D01*
X145421786Y-85839707D01*
X145310292Y-85728213D01*
X145310288Y-85728210D01*
X145179185Y-85640609D01*
X145179172Y-85640602D01*
X145033501Y-85580264D01*
X145033489Y-85580261D01*
X144878845Y-85549500D01*
X144878842Y-85549500D01*
X144721158Y-85549500D01*
X144721155Y-85549500D01*
X144566510Y-85580261D01*
X144566498Y-85580264D01*
X144420827Y-85640602D01*
X144420814Y-85640609D01*
X144289711Y-85728210D01*
X144289707Y-85728213D01*
X144178213Y-85839707D01*
X144178210Y-85839711D01*
X144090609Y-85970814D01*
X144090602Y-85970827D01*
X144030264Y-86116498D01*
X144030261Y-86116510D01*
X143999500Y-86271153D01*
X143999500Y-86428846D01*
X144030261Y-86583489D01*
X144030264Y-86583501D01*
X144090602Y-86729172D01*
X144090609Y-86729185D01*
X144178602Y-86860874D01*
X144199480Y-86927551D01*
X144199500Y-86929765D01*
X144199500Y-88513273D01*
X144199499Y-88513291D01*
X144199499Y-88678997D01*
X144199498Y-88678997D01*
X144240424Y-88831732D01*
X144240425Y-88831733D01*
X144265116Y-88874498D01*
X144265117Y-88874500D01*
X144319475Y-88968652D01*
X144319481Y-88968660D01*
X144438349Y-89087528D01*
X144438355Y-89087533D01*
X146738641Y-91387819D01*
X146772126Y-91449142D01*
X146767142Y-91518834D01*
X146725270Y-91574767D01*
X146659806Y-91599184D01*
X146650960Y-91599500D01*
X146621155Y-91599500D01*
X146466510Y-91630261D01*
X146466498Y-91630264D01*
X146320827Y-91690602D01*
X146320814Y-91690609D01*
X146189711Y-91778210D01*
X146101364Y-91866557D01*
X146040040Y-91900041D01*
X145970349Y-91895057D01*
X145914415Y-91853185D01*
X145910581Y-91847766D01*
X145871789Y-91789711D01*
X145871786Y-91789707D01*
X145760292Y-91678213D01*
X145760288Y-91678210D01*
X145629185Y-91590609D01*
X145629172Y-91590602D01*
X145483501Y-91530264D01*
X145483489Y-91530261D01*
X145328845Y-91499500D01*
X145328842Y-91499500D01*
X145171158Y-91499500D01*
X145171155Y-91499500D01*
X145016510Y-91530261D01*
X145016498Y-91530264D01*
X144865193Y-91592937D01*
X144864671Y-91591678D01*
X144803046Y-91604498D01*
X144744126Y-91584002D01*
X144679185Y-91540609D01*
X144679172Y-91540602D01*
X144533501Y-91480264D01*
X144533489Y-91480261D01*
X144378845Y-91449500D01*
X144378842Y-91449500D01*
X144221158Y-91449500D01*
X144221155Y-91449500D01*
X144066510Y-91480261D01*
X144066498Y-91480264D01*
X143920827Y-91540602D01*
X143920814Y-91540609D01*
X143789711Y-91628210D01*
X143789707Y-91628213D01*
X143688181Y-91729740D01*
X143626858Y-91763225D01*
X143557166Y-91758241D01*
X143512819Y-91729740D01*
X143410292Y-91627213D01*
X143410288Y-91627210D01*
X143279185Y-91539609D01*
X143279172Y-91539602D01*
X143133501Y-91479264D01*
X143133489Y-91479261D01*
X142978845Y-91448500D01*
X142978842Y-91448500D01*
X142821158Y-91448500D01*
X142821155Y-91448500D01*
X142666510Y-91479261D01*
X142666498Y-91479264D01*
X142520827Y-91539602D01*
X142520814Y-91539609D01*
X142389711Y-91627210D01*
X142389707Y-91627213D01*
X142278213Y-91738707D01*
X142278208Y-91738713D01*
X142266317Y-91756510D01*
X142212705Y-91801314D01*
X142143379Y-91810021D01*
X142080352Y-91779866D01*
X142075535Y-91775299D01*
X141334573Y-91034337D01*
X141301088Y-90973014D01*
X141300637Y-90970847D01*
X141278646Y-90860292D01*
X141269737Y-90815503D01*
X141235804Y-90733580D01*
X141209397Y-90669827D01*
X141209390Y-90669814D01*
X141121789Y-90538711D01*
X141121786Y-90538707D01*
X141010292Y-90427213D01*
X141010288Y-90427210D01*
X140879185Y-90339609D01*
X140879172Y-90339602D01*
X140733501Y-90279264D01*
X140733489Y-90279261D01*
X140578845Y-90248500D01*
X140578842Y-90248500D01*
X140424500Y-90248500D01*
X140415814Y-90245949D01*
X140406853Y-90247238D01*
X140382812Y-90236259D01*
X140357461Y-90228815D01*
X140351533Y-90221974D01*
X140343297Y-90218213D01*
X140329007Y-90195978D01*
X140311706Y-90176011D01*
X140309418Y-90165496D01*
X140305523Y-90159435D01*
X140300500Y-90124500D01*
X140300500Y-89879765D01*
X140320185Y-89812726D01*
X140321398Y-89810874D01*
X140339692Y-89783496D01*
X140409394Y-89679179D01*
X140469737Y-89533497D01*
X140500500Y-89378842D01*
X140500500Y-89221158D01*
X140496031Y-89198690D01*
X140502260Y-89129099D01*
X140545123Y-89073922D01*
X140611013Y-89050678D01*
X140617649Y-89050500D01*
X140628844Y-89050500D01*
X140628845Y-89050499D01*
X140783497Y-89019737D01*
X140929179Y-88959394D01*
X141060289Y-88871789D01*
X141171789Y-88760289D01*
X141259394Y-88629179D01*
X141262719Y-88621153D01*
X141290995Y-88552886D01*
X141319737Y-88483497D01*
X141350500Y-88328842D01*
X141350500Y-88171158D01*
X141350500Y-88171155D01*
X141350499Y-88171153D01*
X141331932Y-88077812D01*
X141319737Y-88016503D01*
X141315772Y-88006930D01*
X141259397Y-87870827D01*
X141259390Y-87870814D01*
X141171789Y-87739711D01*
X141171786Y-87739707D01*
X141060292Y-87628213D01*
X141060288Y-87628210D01*
X140929185Y-87540609D01*
X140929172Y-87540602D01*
X140783501Y-87480264D01*
X140783489Y-87480261D01*
X140628845Y-87449500D01*
X140628842Y-87449500D01*
X140471158Y-87449500D01*
X140471155Y-87449500D01*
X140316510Y-87480261D01*
X140316498Y-87480264D01*
X140170827Y-87540602D01*
X140170814Y-87540609D01*
X140039711Y-87628210D01*
X140039707Y-87628213D01*
X139928213Y-87739707D01*
X139928210Y-87739711D01*
X139840609Y-87870814D01*
X139840602Y-87870827D01*
X139780264Y-88016498D01*
X139780261Y-88016510D01*
X139749500Y-88171153D01*
X139749500Y-88171158D01*
X139749500Y-88328842D01*
X139749501Y-88328846D01*
X139753969Y-88351310D01*
X139747740Y-88420901D01*
X139704877Y-88476078D01*
X139638987Y-88499322D01*
X139632351Y-88499500D01*
X139621155Y-88499500D01*
X139466510Y-88530261D01*
X139466498Y-88530264D01*
X139320827Y-88590602D01*
X139320814Y-88590609D01*
X139189711Y-88678210D01*
X139189707Y-88678213D01*
X139078213Y-88789707D01*
X139078210Y-88789711D01*
X138990609Y-88920814D01*
X138990602Y-88920827D01*
X138930264Y-89066498D01*
X138930261Y-89066510D01*
X138899500Y-89221153D01*
X138899500Y-89378846D01*
X138930261Y-89533489D01*
X138930264Y-89533501D01*
X138990602Y-89679172D01*
X138990609Y-89679185D01*
X139078602Y-89810874D01*
X139099480Y-89877551D01*
X139099500Y-89879765D01*
X139099500Y-91249902D01*
X139079815Y-91316941D01*
X139063181Y-91337583D01*
X138385339Y-92015425D01*
X138324016Y-92048910D01*
X138321850Y-92049361D01*
X138166508Y-92080261D01*
X138166498Y-92080264D01*
X138020827Y-92140602D01*
X138020814Y-92140609D01*
X137889711Y-92228210D01*
X137889707Y-92228213D01*
X137778213Y-92339707D01*
X137778210Y-92339711D01*
X137690609Y-92470814D01*
X137690602Y-92470827D01*
X137630264Y-92616498D01*
X137630261Y-92616510D01*
X137599500Y-92771153D01*
X137598903Y-92777218D01*
X137596869Y-92777017D01*
X137579815Y-92835098D01*
X137527011Y-92880853D01*
X137457853Y-92890797D01*
X137394297Y-92861772D01*
X137387819Y-92855740D01*
X137360292Y-92828213D01*
X137360288Y-92828210D01*
X137229185Y-92740609D01*
X137229172Y-92740602D01*
X137083501Y-92680264D01*
X137083489Y-92680261D01*
X136928845Y-92649500D01*
X136928842Y-92649500D01*
X136771158Y-92649500D01*
X136771155Y-92649500D01*
X136616510Y-92680261D01*
X136616498Y-92680264D01*
X136470827Y-92740602D01*
X136470814Y-92740609D01*
X136339711Y-92828210D01*
X136339707Y-92828213D01*
X136228213Y-92939707D01*
X136228210Y-92939711D01*
X136140609Y-93070814D01*
X136140602Y-93070827D01*
X136080264Y-93216498D01*
X136080261Y-93216510D01*
X136049500Y-93371153D01*
X136049500Y-93492281D01*
X136029815Y-93559320D01*
X135987338Y-93598517D01*
X135987651Y-93598986D01*
X135984678Y-93600972D01*
X135983958Y-93601637D01*
X135982585Y-93602370D01*
X135851476Y-93689975D01*
X135851472Y-93689978D01*
X135739978Y-93801472D01*
X135739975Y-93801476D01*
X135652374Y-93932579D01*
X135652367Y-93932592D01*
X135592029Y-94078263D01*
X135592026Y-94078275D01*
X135561265Y-94232918D01*
X123550500Y-94232918D01*
X123550500Y-85221153D01*
X130049500Y-85221153D01*
X130049500Y-85378846D01*
X130080261Y-85533489D01*
X130080264Y-85533501D01*
X130140602Y-85679172D01*
X130140609Y-85679185D01*
X130228210Y-85810288D01*
X130228213Y-85810292D01*
X130318037Y-85900116D01*
X130351522Y-85961439D01*
X130346538Y-86031131D01*
X130333458Y-86056688D01*
X130290609Y-86120814D01*
X130290602Y-86120827D01*
X130230264Y-86266498D01*
X130230261Y-86266510D01*
X130199500Y-86421153D01*
X130199500Y-86578846D01*
X130230261Y-86733489D01*
X130230264Y-86733501D01*
X130290602Y-86879172D01*
X130290609Y-86879185D01*
X130378210Y-87010288D01*
X130378213Y-87010292D01*
X130489707Y-87121786D01*
X130489711Y-87121789D01*
X130620814Y-87209390D01*
X130620827Y-87209397D01*
X130766498Y-87269735D01*
X130766503Y-87269737D01*
X130849459Y-87286238D01*
X130921153Y-87300499D01*
X130921156Y-87300500D01*
X130921158Y-87300500D01*
X131078844Y-87300500D01*
X131078845Y-87300499D01*
X131233497Y-87269737D01*
X131351592Y-87220821D01*
X131379172Y-87209397D01*
X131379172Y-87209396D01*
X131379179Y-87209394D01*
X131510289Y-87121789D01*
X131621789Y-87010289D01*
X131709394Y-86879179D01*
X131769737Y-86733497D01*
X131800500Y-86578842D01*
X131800500Y-86421158D01*
X131800500Y-86421155D01*
X131800499Y-86421153D01*
X131784477Y-86340606D01*
X131769737Y-86266503D01*
X131754139Y-86228846D01*
X131709397Y-86120827D01*
X131709390Y-86120814D01*
X131621789Y-85989711D01*
X131621786Y-85989707D01*
X131531962Y-85899883D01*
X131498477Y-85838560D01*
X131503461Y-85768868D01*
X131516536Y-85743319D01*
X131559394Y-85679179D01*
X131619737Y-85533497D01*
X131650500Y-85378842D01*
X131650500Y-85221158D01*
X131650500Y-85221155D01*
X131650499Y-85221153D01*
X131630326Y-85119737D01*
X131619737Y-85066503D01*
X131592398Y-85000500D01*
X131559397Y-84920827D01*
X131559390Y-84920814D01*
X131471789Y-84789711D01*
X131471786Y-84789707D01*
X131360292Y-84678213D01*
X131360288Y-84678210D01*
X131229185Y-84590609D01*
X131229172Y-84590602D01*
X131083501Y-84530264D01*
X131083489Y-84530261D01*
X130928845Y-84499500D01*
X130928842Y-84499500D01*
X130771158Y-84499500D01*
X130771155Y-84499500D01*
X130616510Y-84530261D01*
X130616498Y-84530264D01*
X130470827Y-84590602D01*
X130470814Y-84590609D01*
X130339711Y-84678210D01*
X130339707Y-84678213D01*
X130228213Y-84789707D01*
X130228210Y-84789711D01*
X130140609Y-84920814D01*
X130140602Y-84920827D01*
X130080264Y-85066498D01*
X130080261Y-85066510D01*
X130049500Y-85221153D01*
X123550500Y-85221153D01*
X123550500Y-81121153D01*
X132149500Y-81121153D01*
X132149500Y-81278846D01*
X132180261Y-81433489D01*
X132180264Y-81433501D01*
X132240602Y-81579172D01*
X132240609Y-81579185D01*
X132328210Y-81710288D01*
X132328213Y-81710292D01*
X132439707Y-81821786D01*
X132439711Y-81821789D01*
X132570814Y-81909390D01*
X132570827Y-81909397D01*
X132619139Y-81929408D01*
X132716503Y-81969737D01*
X132871153Y-82000499D01*
X132871156Y-82000500D01*
X132871158Y-82000500D01*
X133028844Y-82000500D01*
X133028845Y-82000499D01*
X133183497Y-81969737D01*
X133296166Y-81923067D01*
X133329172Y-81909397D01*
X133329172Y-81909396D01*
X133329179Y-81909394D01*
X133460289Y-81821789D01*
X133571789Y-81710289D01*
X133659394Y-81579179D01*
X133719737Y-81433497D01*
X133750500Y-81278842D01*
X133750500Y-81121158D01*
X133750500Y-81121155D01*
X133750499Y-81121153D01*
X133719738Y-80966510D01*
X133719737Y-80966503D01*
X133696080Y-80909390D01*
X133659397Y-80820827D01*
X133659390Y-80820814D01*
X133571789Y-80689711D01*
X133571786Y-80689707D01*
X133460292Y-80578213D01*
X133460288Y-80578210D01*
X133329185Y-80490609D01*
X133329172Y-80490602D01*
X133183501Y-80430264D01*
X133183489Y-80430261D01*
X133028845Y-80399500D01*
X133028842Y-80399500D01*
X132871158Y-80399500D01*
X132871155Y-80399500D01*
X132716510Y-80430261D01*
X132716498Y-80430264D01*
X132570827Y-80490602D01*
X132570814Y-80490609D01*
X132439711Y-80578210D01*
X132439707Y-80578213D01*
X132328213Y-80689707D01*
X132328210Y-80689711D01*
X132240609Y-80820814D01*
X132240602Y-80820827D01*
X132180264Y-80966498D01*
X132180261Y-80966510D01*
X132149500Y-81121153D01*
X123550500Y-81121153D01*
X123550500Y-75671153D01*
X130499500Y-75671153D01*
X130499500Y-75828846D01*
X130530261Y-75983489D01*
X130530264Y-75983501D01*
X130590602Y-76129172D01*
X130590609Y-76129185D01*
X130678210Y-76260288D01*
X130678213Y-76260292D01*
X130789707Y-76371786D01*
X130789711Y-76371789D01*
X130920814Y-76459390D01*
X130920827Y-76459397D01*
X131066498Y-76519735D01*
X131066503Y-76519737D01*
X131221153Y-76550499D01*
X131221156Y-76550500D01*
X131221158Y-76550500D01*
X131378844Y-76550500D01*
X131378845Y-76550499D01*
X131533497Y-76519737D01*
X131679179Y-76459394D01*
X131792794Y-76383479D01*
X131810875Y-76371398D01*
X131877553Y-76350520D01*
X131879766Y-76350500D01*
X142900845Y-76350500D01*
X142967884Y-76370185D01*
X143013639Y-76422989D01*
X143023583Y-76492147D01*
X142994558Y-76555703D01*
X142988528Y-76562177D01*
X142521864Y-77028842D01*
X142299510Y-77251196D01*
X142238187Y-77284681D01*
X142168495Y-77279697D01*
X142142938Y-77266617D01*
X142029185Y-77190609D01*
X142029172Y-77190602D01*
X141883501Y-77130264D01*
X141883489Y-77130261D01*
X141728845Y-77099500D01*
X141728842Y-77099500D01*
X141571158Y-77099500D01*
X141571155Y-77099500D01*
X141416510Y-77130261D01*
X141416498Y-77130264D01*
X141270827Y-77190602D01*
X141270814Y-77190609D01*
X141139711Y-77278210D01*
X141139707Y-77278213D01*
X141028213Y-77389707D01*
X141028210Y-77389711D01*
X140940609Y-77520814D01*
X140940602Y-77520827D01*
X140880264Y-77666498D01*
X140880261Y-77666510D01*
X140849500Y-77821153D01*
X140849500Y-77978846D01*
X140880261Y-78133489D01*
X140880264Y-78133501D01*
X140940602Y-78279172D01*
X140940609Y-78279185D01*
X141016617Y-78392938D01*
X141037495Y-78459615D01*
X141019011Y-78526996D01*
X141001196Y-78549510D01*
X139531286Y-80019421D01*
X139419481Y-80131225D01*
X139419479Y-80131228D01*
X139369361Y-80218037D01*
X139369359Y-80218039D01*
X139340425Y-80268152D01*
X139340424Y-80268153D01*
X139337559Y-80278846D01*
X139299499Y-80420886D01*
X139299499Y-80420888D01*
X139299499Y-80588989D01*
X139299500Y-80589002D01*
X139299500Y-81596560D01*
X139279815Y-81663599D01*
X139227011Y-81709354D01*
X139157853Y-81719298D01*
X139094297Y-81690273D01*
X139072398Y-81665451D01*
X139021789Y-81589711D01*
X139021786Y-81589707D01*
X138910292Y-81478213D01*
X138910288Y-81478210D01*
X138779185Y-81390609D01*
X138779172Y-81390602D01*
X138633501Y-81330264D01*
X138633489Y-81330261D01*
X138478845Y-81299500D01*
X138478842Y-81299500D01*
X138321158Y-81299500D01*
X138321155Y-81299500D01*
X138166510Y-81330261D01*
X138166498Y-81330264D01*
X138020827Y-81390602D01*
X138020814Y-81390609D01*
X137889711Y-81478210D01*
X137889707Y-81478213D01*
X137849884Y-81518037D01*
X137788561Y-81551522D01*
X137718869Y-81546538D01*
X137693312Y-81533458D01*
X137629185Y-81490609D01*
X137629172Y-81490602D01*
X137483501Y-81430264D01*
X137483489Y-81430261D01*
X137328845Y-81399500D01*
X137328842Y-81399500D01*
X137171158Y-81399500D01*
X137147089Y-81404287D01*
X137092345Y-81415176D01*
X137022753Y-81408947D01*
X136980474Y-81381239D01*
X134084574Y-78485339D01*
X134051089Y-78424016D01*
X134050638Y-78421849D01*
X134032584Y-78331088D01*
X134019737Y-78266503D01*
X133989915Y-78194506D01*
X133959397Y-78120827D01*
X133959390Y-78120814D01*
X133871789Y-77989711D01*
X133871786Y-77989707D01*
X133760292Y-77878213D01*
X133760288Y-77878210D01*
X133629185Y-77790609D01*
X133629172Y-77790602D01*
X133483501Y-77730264D01*
X133483489Y-77730261D01*
X133328845Y-77699500D01*
X133328842Y-77699500D01*
X133171158Y-77699500D01*
X133171155Y-77699500D01*
X133016510Y-77730261D01*
X133016498Y-77730264D01*
X132870827Y-77790602D01*
X132870814Y-77790609D01*
X132739711Y-77878210D01*
X132739707Y-77878213D01*
X132628213Y-77989707D01*
X132628210Y-77989711D01*
X132540609Y-78120814D01*
X132540602Y-78120827D01*
X132480264Y-78266498D01*
X132480261Y-78266510D01*
X132449500Y-78421153D01*
X132449500Y-78578846D01*
X132480261Y-78733489D01*
X132480264Y-78733501D01*
X132540602Y-78879172D01*
X132540609Y-78879185D01*
X132628210Y-79010288D01*
X132628213Y-79010292D01*
X132739707Y-79121786D01*
X132739711Y-79121789D01*
X132870814Y-79209390D01*
X132870827Y-79209397D01*
X133016498Y-79269735D01*
X133016503Y-79269737D01*
X133081147Y-79282595D01*
X133171849Y-79300638D01*
X133233760Y-79333023D01*
X133235339Y-79334574D01*
X136013181Y-82112416D01*
X136046666Y-82173739D01*
X136049500Y-82200097D01*
X136049500Y-88195064D01*
X136029815Y-88262103D01*
X136028603Y-88263954D01*
X135990608Y-88320817D01*
X135990602Y-88320828D01*
X135930264Y-88466498D01*
X135930261Y-88466510D01*
X135899500Y-88621153D01*
X135899500Y-88778846D01*
X135930261Y-88933489D01*
X135930264Y-88933501D01*
X135990602Y-89079172D01*
X135990609Y-89079185D01*
X136078210Y-89210288D01*
X136078213Y-89210292D01*
X136189707Y-89321786D01*
X136189711Y-89321789D01*
X136320814Y-89409390D01*
X136320827Y-89409397D01*
X136466498Y-89469735D01*
X136466503Y-89469737D01*
X136621153Y-89500499D01*
X136621156Y-89500500D01*
X136621158Y-89500500D01*
X136778844Y-89500500D01*
X136778845Y-89500499D01*
X136933497Y-89469737D01*
X137079179Y-89409394D01*
X137210289Y-89321789D01*
X137321789Y-89210289D01*
X137409394Y-89079179D01*
X137469737Y-88933497D01*
X137500500Y-88778842D01*
X137500500Y-88621158D01*
X137500500Y-88621155D01*
X137500499Y-88621153D01*
X137482204Y-88529179D01*
X137469737Y-88466503D01*
X137467163Y-88460289D01*
X137409397Y-88320827D01*
X137409390Y-88320814D01*
X137321789Y-88189711D01*
X137321786Y-88189707D01*
X137286819Y-88154740D01*
X137253334Y-88093417D01*
X137250500Y-88067059D01*
X137250500Y-83603439D01*
X137270185Y-83536400D01*
X137322989Y-83490645D01*
X137392147Y-83480701D01*
X137455703Y-83509726D01*
X137477602Y-83534548D01*
X137528210Y-83610288D01*
X137528213Y-83610292D01*
X137639707Y-83721786D01*
X137639711Y-83721789D01*
X137770814Y-83809390D01*
X137770827Y-83809397D01*
X137844013Y-83839711D01*
X137916503Y-83869737D01*
X138071153Y-83900499D01*
X138071156Y-83900500D01*
X138071158Y-83900500D01*
X138228844Y-83900500D01*
X138228845Y-83900499D01*
X138383497Y-83869737D01*
X138529179Y-83809394D01*
X138660289Y-83721789D01*
X138771789Y-83610289D01*
X138859394Y-83479179D01*
X138919737Y-83333497D01*
X138950500Y-83178842D01*
X138950500Y-83021158D01*
X138950500Y-83021155D01*
X138950499Y-83021153D01*
X138926499Y-82900499D01*
X138919737Y-82866503D01*
X138919484Y-82865893D01*
X138906291Y-82834042D01*
X138904700Y-82819251D01*
X138898349Y-82805801D01*
X138901040Y-82785215D01*
X138898821Y-82764573D01*
X138905632Y-82750099D01*
X138907408Y-82736521D01*
X138922156Y-82714987D01*
X138926109Y-82706589D01*
X138929473Y-82702604D01*
X139021789Y-82610289D01*
X139076261Y-82528764D01*
X139080758Y-82523440D01*
X139104325Y-82507865D01*
X139126010Y-82489743D01*
X139133094Y-82488853D01*
X139139049Y-82484918D01*
X139167301Y-82484556D01*
X139195335Y-82481036D01*
X139201773Y-82484116D01*
X139208913Y-82484025D01*
X139232875Y-82498996D01*
X139258363Y-82511190D01*
X139262115Y-82517264D01*
X139268168Y-82521046D01*
X139280230Y-82546591D01*
X139295082Y-82570634D01*
X139296477Y-82580998D01*
X139298002Y-82584226D01*
X139297465Y-82588330D01*
X139299500Y-82603439D01*
X139299500Y-85320234D01*
X139279815Y-85387273D01*
X139278602Y-85389125D01*
X139190609Y-85520814D01*
X139190602Y-85520827D01*
X139130264Y-85666498D01*
X139130261Y-85666510D01*
X139099500Y-85821153D01*
X139099500Y-85978846D01*
X139130261Y-86133489D01*
X139130264Y-86133501D01*
X139190602Y-86279172D01*
X139190609Y-86279185D01*
X139278210Y-86410288D01*
X139278213Y-86410292D01*
X139389707Y-86521786D01*
X139389711Y-86521789D01*
X139520814Y-86609390D01*
X139520827Y-86609397D01*
X139594013Y-86639711D01*
X139666503Y-86669737D01*
X139821153Y-86700499D01*
X139821156Y-86700500D01*
X139821158Y-86700500D01*
X139978844Y-86700500D01*
X139978845Y-86700499D01*
X140133497Y-86669737D01*
X140279179Y-86609394D01*
X140410289Y-86521789D01*
X140521789Y-86410289D01*
X140609394Y-86279179D01*
X140612719Y-86271153D01*
X140645465Y-86192096D01*
X140669737Y-86133497D01*
X140700500Y-85978842D01*
X140700500Y-85821158D01*
X140700500Y-85821155D01*
X140700499Y-85821153D01*
X140682012Y-85728213D01*
X140669737Y-85666503D01*
X140666792Y-85659394D01*
X140609397Y-85520827D01*
X140609390Y-85520814D01*
X140521398Y-85389125D01*
X140500520Y-85322447D01*
X140500500Y-85320234D01*
X140500500Y-84881941D01*
X140520185Y-84814902D01*
X140572989Y-84769147D01*
X140642147Y-84759203D01*
X140705703Y-84788228D01*
X140712181Y-84794260D01*
X140739707Y-84821786D01*
X140739711Y-84821789D01*
X140870814Y-84909390D01*
X140870827Y-84909397D01*
X140970060Y-84950500D01*
X141016503Y-84969737D01*
X141171153Y-85000499D01*
X141171156Y-85000500D01*
X141171158Y-85000500D01*
X141328844Y-85000500D01*
X141328845Y-85000499D01*
X141483497Y-84969737D01*
X141601592Y-84920821D01*
X141629172Y-84909397D01*
X141629172Y-84909396D01*
X141629179Y-84909394D01*
X141760289Y-84821789D01*
X141871789Y-84710289D01*
X141872397Y-84709378D01*
X141872839Y-84709008D01*
X141875653Y-84705581D01*
X141876303Y-84706114D01*
X141926010Y-84664573D01*
X141995334Y-84655866D01*
X142058362Y-84686020D01*
X142095082Y-84745463D01*
X142099500Y-84778269D01*
X142099500Y-84928846D01*
X142130261Y-85083489D01*
X142130264Y-85083501D01*
X142190602Y-85229172D01*
X142190609Y-85229185D01*
X142278210Y-85360288D01*
X142278213Y-85360292D01*
X142389707Y-85471786D01*
X142389711Y-85471789D01*
X142520814Y-85559390D01*
X142520827Y-85559397D01*
X142614133Y-85598045D01*
X142666503Y-85619737D01*
X142821153Y-85650499D01*
X142821156Y-85650500D01*
X142821158Y-85650500D01*
X142978844Y-85650500D01*
X142978845Y-85650499D01*
X143133497Y-85619737D01*
X143279179Y-85559394D01*
X143410289Y-85471789D01*
X143521789Y-85360289D01*
X143609394Y-85229179D01*
X143612719Y-85221153D01*
X143641984Y-85150499D01*
X143669737Y-85083497D01*
X143700500Y-84928842D01*
X143700500Y-84771158D01*
X143700500Y-84771155D01*
X143700499Y-84771153D01*
X143688211Y-84709379D01*
X143669737Y-84616503D01*
X143660625Y-84594505D01*
X143609397Y-84470827D01*
X143609390Y-84470814D01*
X143521789Y-84339711D01*
X143521786Y-84339707D01*
X143489237Y-84307158D01*
X143455752Y-84245835D01*
X143460736Y-84176143D01*
X143462344Y-84172056D01*
X143519737Y-84033497D01*
X143550500Y-83878842D01*
X143550500Y-83871153D01*
X144749500Y-83871153D01*
X144749500Y-84028846D01*
X144780261Y-84183489D01*
X144780264Y-84183501D01*
X144840602Y-84329172D01*
X144840609Y-84329185D01*
X144928210Y-84460288D01*
X144928213Y-84460292D01*
X145039707Y-84571786D01*
X145039711Y-84571789D01*
X145170814Y-84659390D01*
X145170827Y-84659397D01*
X145291496Y-84709379D01*
X145316503Y-84719737D01*
X145471153Y-84750499D01*
X145471156Y-84750500D01*
X145471158Y-84750500D01*
X145628844Y-84750500D01*
X145628845Y-84750499D01*
X145783497Y-84719737D01*
X145929179Y-84659394D01*
X146060289Y-84571789D01*
X146171789Y-84460289D01*
X146259394Y-84329179D01*
X146319737Y-84183497D01*
X146350500Y-84028842D01*
X146350500Y-83871158D01*
X146350500Y-83871155D01*
X146350499Y-83871153D01*
X146332137Y-83778842D01*
X146319737Y-83716503D01*
X146310471Y-83694132D01*
X146259397Y-83570827D01*
X146259390Y-83570814D01*
X146171789Y-83439711D01*
X146171786Y-83439707D01*
X146060292Y-83328213D01*
X146060288Y-83328210D01*
X145929185Y-83240609D01*
X145929172Y-83240602D01*
X145783501Y-83180264D01*
X145783489Y-83180261D01*
X145628845Y-83149500D01*
X145628842Y-83149500D01*
X145471158Y-83149500D01*
X145471155Y-83149500D01*
X145316510Y-83180261D01*
X145316498Y-83180264D01*
X145170827Y-83240602D01*
X145170814Y-83240609D01*
X145039711Y-83328210D01*
X145039707Y-83328213D01*
X144928213Y-83439707D01*
X144928210Y-83439711D01*
X144840609Y-83570814D01*
X144840602Y-83570827D01*
X144780264Y-83716498D01*
X144780261Y-83716510D01*
X144749500Y-83871153D01*
X143550500Y-83871153D01*
X143550500Y-83721158D01*
X143550500Y-83721155D01*
X143550499Y-83721153D01*
X143539125Y-83663973D01*
X143519737Y-83566503D01*
X143499671Y-83518059D01*
X143459397Y-83420827D01*
X143459390Y-83420814D01*
X143371789Y-83289711D01*
X143371786Y-83289707D01*
X143260292Y-83178213D01*
X143260288Y-83178210D01*
X143129185Y-83090609D01*
X143129172Y-83090602D01*
X142983501Y-83030264D01*
X142983489Y-83030261D01*
X142828845Y-82999500D01*
X142828842Y-82999500D01*
X142671158Y-82999500D01*
X142671155Y-82999500D01*
X142516510Y-83030261D01*
X142516498Y-83030264D01*
X142370827Y-83090602D01*
X142370814Y-83090609D01*
X142239711Y-83178210D01*
X142239707Y-83178213D01*
X142128213Y-83289707D01*
X142128210Y-83289711D01*
X142040609Y-83420814D01*
X142040602Y-83420827D01*
X141983423Y-83558873D01*
X141939582Y-83613277D01*
X141873288Y-83635342D01*
X141805589Y-83618063D01*
X141781181Y-83599102D01*
X141760292Y-83578213D01*
X141760288Y-83578210D01*
X141629185Y-83490609D01*
X141629172Y-83490602D01*
X141483501Y-83430264D01*
X141483489Y-83430261D01*
X141328845Y-83399500D01*
X141328842Y-83399500D01*
X141171158Y-83399500D01*
X141171155Y-83399500D01*
X141016510Y-83430261D01*
X141016498Y-83430264D01*
X140870827Y-83490602D01*
X140870814Y-83490609D01*
X140739711Y-83578210D01*
X140739707Y-83578213D01*
X140712181Y-83605740D01*
X140650858Y-83639225D01*
X140581166Y-83634241D01*
X140525233Y-83592369D01*
X140500816Y-83526905D01*
X140500500Y-83518059D01*
X140500500Y-81471153D01*
X150549500Y-81471153D01*
X150549500Y-81628846D01*
X150580261Y-81783489D01*
X150580264Y-81783501D01*
X150640602Y-81929172D01*
X150640609Y-81929185D01*
X150728210Y-82060288D01*
X150728213Y-82060292D01*
X150839707Y-82171786D01*
X150839711Y-82171789D01*
X150970814Y-82259390D01*
X150970827Y-82259397D01*
X151116498Y-82319735D01*
X151116503Y-82319737D01*
X151271153Y-82350499D01*
X151271156Y-82350500D01*
X151271158Y-82350500D01*
X151428844Y-82350500D01*
X151428845Y-82350499D01*
X151583497Y-82319737D01*
X151729179Y-82259394D01*
X151860289Y-82171789D01*
X151971789Y-82060289D01*
X152031348Y-81971153D01*
X156549500Y-81971153D01*
X156549500Y-82128846D01*
X156580261Y-82283489D01*
X156580264Y-82283501D01*
X156640602Y-82429172D01*
X156640609Y-82429185D01*
X156728210Y-82560288D01*
X156728213Y-82560292D01*
X156839705Y-82671784D01*
X156839728Y-82671803D01*
X156839736Y-82671815D01*
X156844018Y-82676097D01*
X156843206Y-82676908D01*
X156879066Y-82729547D01*
X156880941Y-82799391D01*
X156864172Y-82836551D01*
X156840608Y-82871816D01*
X156840602Y-82871827D01*
X156780264Y-83017498D01*
X156780261Y-83017510D01*
X156749500Y-83172153D01*
X156749500Y-83329846D01*
X156780261Y-83484489D01*
X156780264Y-83484501D01*
X156840602Y-83630172D01*
X156840609Y-83630185D01*
X156931595Y-83766354D01*
X156929922Y-83767471D01*
X156953627Y-83823297D01*
X156941829Y-83892163D01*
X156933562Y-83906531D01*
X156890608Y-83970816D01*
X156890602Y-83970827D01*
X156830264Y-84116498D01*
X156830261Y-84116510D01*
X156799500Y-84271153D01*
X156799500Y-84428846D01*
X156830261Y-84583489D01*
X156830264Y-84583501D01*
X156890602Y-84729172D01*
X156890609Y-84729185D01*
X156978210Y-84860288D01*
X156978213Y-84860292D01*
X157089707Y-84971786D01*
X157089711Y-84971789D01*
X157220814Y-85059390D01*
X157220827Y-85059397D01*
X157366498Y-85119735D01*
X157366503Y-85119737D01*
X157521153Y-85150499D01*
X157521156Y-85150500D01*
X157521158Y-85150500D01*
X157678844Y-85150500D01*
X157678845Y-85150499D01*
X157833497Y-85119737D01*
X157979179Y-85059394D01*
X158110289Y-84971789D01*
X158221789Y-84860289D01*
X158309394Y-84729179D01*
X158369737Y-84583497D01*
X158400500Y-84428842D01*
X158400500Y-84271158D01*
X158400500Y-84271155D01*
X158400499Y-84271153D01*
X158393906Y-84238007D01*
X158369737Y-84116503D01*
X158354312Y-84079263D01*
X158309397Y-83970827D01*
X158309390Y-83970814D01*
X158218405Y-83834646D01*
X158220077Y-83833528D01*
X158196373Y-83777708D01*
X158208167Y-83708841D01*
X158216433Y-83694474D01*
X158259394Y-83630179D01*
X158319737Y-83484497D01*
X158350500Y-83329842D01*
X158350500Y-83172158D01*
X158350500Y-83172155D01*
X158350499Y-83172153D01*
X158345993Y-83149500D01*
X158319737Y-83017503D01*
X158283602Y-82930264D01*
X158259397Y-82871827D01*
X158259390Y-82871814D01*
X158171789Y-82740711D01*
X158171786Y-82740707D01*
X158060291Y-82629212D01*
X158060269Y-82629194D01*
X158060260Y-82629181D01*
X158055982Y-82624903D01*
X158056793Y-82624091D01*
X158020932Y-82571450D01*
X158019059Y-82501605D01*
X158035826Y-82464449D01*
X158059394Y-82429179D01*
X158119737Y-82283497D01*
X158150500Y-82128842D01*
X158150500Y-81971158D01*
X158150500Y-81971155D01*
X158150499Y-81971153D01*
X158142196Y-81929408D01*
X158138595Y-81911304D01*
X160599500Y-81911304D01*
X160599500Y-82088695D01*
X160634103Y-82262658D01*
X160634106Y-82262667D01*
X160701983Y-82426540D01*
X160701990Y-82426553D01*
X160800535Y-82574034D01*
X160800538Y-82574038D01*
X160925961Y-82699461D01*
X160925965Y-82699464D01*
X161073446Y-82798009D01*
X161073459Y-82798016D01*
X161166493Y-82836551D01*
X161237334Y-82865894D01*
X161237336Y-82865894D01*
X161237341Y-82865896D01*
X161411304Y-82900499D01*
X161411307Y-82900500D01*
X161411309Y-82900500D01*
X161588693Y-82900500D01*
X161588694Y-82900499D01*
X161646682Y-82888964D01*
X161762658Y-82865896D01*
X161762661Y-82865894D01*
X161762666Y-82865894D01*
X161926547Y-82798013D01*
X162074035Y-82699464D01*
X162199464Y-82574035D01*
X162298013Y-82426547D01*
X162365894Y-82262666D01*
X162366545Y-82259397D01*
X162400499Y-82088695D01*
X162400500Y-82088693D01*
X162400500Y-81911306D01*
X162400499Y-81911304D01*
X162365896Y-81737341D01*
X162365893Y-81737332D01*
X162298016Y-81573459D01*
X162298009Y-81573446D01*
X162199464Y-81425965D01*
X162199461Y-81425961D01*
X162074038Y-81300538D01*
X162074034Y-81300535D01*
X161926553Y-81201990D01*
X161926540Y-81201983D01*
X161762667Y-81134106D01*
X161762658Y-81134103D01*
X161588694Y-81099500D01*
X161588691Y-81099500D01*
X161411309Y-81099500D01*
X161411306Y-81099500D01*
X161237341Y-81134103D01*
X161237332Y-81134106D01*
X161073459Y-81201983D01*
X161073446Y-81201990D01*
X160925965Y-81300535D01*
X160925961Y-81300538D01*
X160800538Y-81425961D01*
X160800535Y-81425965D01*
X160701990Y-81573446D01*
X160701983Y-81573459D01*
X160634106Y-81737332D01*
X160634103Y-81737341D01*
X160599500Y-81911304D01*
X158138595Y-81911304D01*
X158119738Y-81816510D01*
X158119737Y-81816503D01*
X158106062Y-81783489D01*
X158059397Y-81670827D01*
X158059390Y-81670814D01*
X157971789Y-81539711D01*
X157971786Y-81539707D01*
X157860292Y-81428213D01*
X157860288Y-81428210D01*
X157729185Y-81340609D01*
X157729172Y-81340602D01*
X157583501Y-81280264D01*
X157583489Y-81280261D01*
X157428845Y-81249500D01*
X157428842Y-81249500D01*
X157271158Y-81249500D01*
X157271155Y-81249500D01*
X157116510Y-81280261D01*
X157116498Y-81280264D01*
X156970827Y-81340602D01*
X156970814Y-81340609D01*
X156839711Y-81428210D01*
X156839707Y-81428213D01*
X156728213Y-81539707D01*
X156728210Y-81539711D01*
X156640609Y-81670814D01*
X156640602Y-81670827D01*
X156580264Y-81816498D01*
X156580261Y-81816510D01*
X156549500Y-81971153D01*
X152031348Y-81971153D01*
X152059394Y-81929179D01*
X152119737Y-81783497D01*
X152150500Y-81628842D01*
X152150500Y-81471158D01*
X152150500Y-81471155D01*
X152150499Y-81471153D01*
X152119737Y-81316503D01*
X152112694Y-81299500D01*
X152059397Y-81170827D01*
X152059390Y-81170814D01*
X151971789Y-81039711D01*
X151971786Y-81039707D01*
X151860292Y-80928213D01*
X151860288Y-80928210D01*
X151729185Y-80840609D01*
X151729172Y-80840602D01*
X151583501Y-80780264D01*
X151583489Y-80780261D01*
X151428845Y-80749500D01*
X151428842Y-80749500D01*
X151271158Y-80749500D01*
X151271155Y-80749500D01*
X151116510Y-80780261D01*
X151116498Y-80780264D01*
X150970827Y-80840602D01*
X150970814Y-80840609D01*
X150839711Y-80928210D01*
X150839707Y-80928213D01*
X150728213Y-81039707D01*
X150728210Y-81039711D01*
X150640609Y-81170814D01*
X150640602Y-81170827D01*
X150580264Y-81316498D01*
X150580261Y-81316510D01*
X150549500Y-81471153D01*
X140500500Y-81471153D01*
X140500500Y-80800040D01*
X140520185Y-80733001D01*
X140536819Y-80712359D01*
X141128025Y-80121153D01*
X154699500Y-80121153D01*
X154699500Y-80278846D01*
X154730261Y-80433489D01*
X154730264Y-80433501D01*
X154790602Y-80579172D01*
X154790609Y-80579185D01*
X154878210Y-80710288D01*
X154878213Y-80710292D01*
X154989707Y-80821786D01*
X154989711Y-80821789D01*
X155120814Y-80909390D01*
X155120827Y-80909397D01*
X155166254Y-80928213D01*
X155266503Y-80969737D01*
X155421153Y-81000499D01*
X155421156Y-81000500D01*
X155421158Y-81000500D01*
X155578844Y-81000500D01*
X155578845Y-81000499D01*
X155733497Y-80969737D01*
X155879179Y-80909394D01*
X156010289Y-80821789D01*
X156121789Y-80710289D01*
X156209394Y-80579179D01*
X156269737Y-80433497D01*
X156300500Y-80278842D01*
X156300500Y-80121158D01*
X156300500Y-80121155D01*
X156300499Y-80121153D01*
X156269737Y-79966503D01*
X156269735Y-79966498D01*
X156209397Y-79820827D01*
X156209390Y-79820814D01*
X156121789Y-79689711D01*
X156121786Y-79689707D01*
X156010292Y-79578213D01*
X156010288Y-79578210D01*
X155879185Y-79490609D01*
X155879172Y-79490602D01*
X155733501Y-79430264D01*
X155733489Y-79430261D01*
X155578845Y-79399500D01*
X155578842Y-79399500D01*
X155421158Y-79399500D01*
X155421155Y-79399500D01*
X155266510Y-79430261D01*
X155266498Y-79430264D01*
X155120827Y-79490602D01*
X155120814Y-79490609D01*
X154989711Y-79578210D01*
X154989707Y-79578213D01*
X154878213Y-79689707D01*
X154878210Y-79689711D01*
X154790609Y-79820814D01*
X154790602Y-79820827D01*
X154730264Y-79966498D01*
X154730261Y-79966510D01*
X154699500Y-80121153D01*
X141128025Y-80121153D01*
X142515689Y-78733489D01*
X144630520Y-76618659D01*
X144709577Y-76481727D01*
X144742104Y-76360333D01*
X144778468Y-76300677D01*
X144841315Y-76270148D01*
X144910691Y-76278443D01*
X144964569Y-76322928D01*
X144976439Y-76344978D01*
X144990604Y-76379175D01*
X144990609Y-76379185D01*
X145078210Y-76510288D01*
X145078213Y-76510292D01*
X145189707Y-76621786D01*
X145189711Y-76621789D01*
X145320814Y-76709390D01*
X145320827Y-76709397D01*
X145466498Y-76769735D01*
X145466503Y-76769737D01*
X145621153Y-76800499D01*
X145621156Y-76800500D01*
X145621158Y-76800500D01*
X145778844Y-76800500D01*
X145778845Y-76800499D01*
X145933497Y-76769737D01*
X146050790Y-76721153D01*
X147149500Y-76721153D01*
X147149500Y-76878846D01*
X147180261Y-77033489D01*
X147180264Y-77033501D01*
X147240602Y-77179172D01*
X147240609Y-77179185D01*
X147328210Y-77310288D01*
X147328213Y-77310292D01*
X147439707Y-77421786D01*
X147439711Y-77421789D01*
X147570814Y-77509390D01*
X147570827Y-77509397D01*
X147716498Y-77569735D01*
X147716503Y-77569737D01*
X147871153Y-77600499D01*
X147871156Y-77600500D01*
X147871158Y-77600500D01*
X148028844Y-77600500D01*
X148028845Y-77600499D01*
X148183497Y-77569737D01*
X148301592Y-77520821D01*
X148329172Y-77509397D01*
X148329172Y-77509396D01*
X148329179Y-77509394D01*
X148329184Y-77509390D01*
X148329187Y-77509389D01*
X148402665Y-77460292D01*
X148423284Y-77446514D01*
X148489960Y-77425636D01*
X148557341Y-77444120D01*
X148579856Y-77461935D01*
X148689707Y-77571786D01*
X148689711Y-77571789D01*
X148820814Y-77659390D01*
X148820827Y-77659397D01*
X148917646Y-77699500D01*
X148966503Y-77719737D01*
X149121153Y-77750499D01*
X149121156Y-77750500D01*
X149121158Y-77750500D01*
X149278844Y-77750500D01*
X149278845Y-77750499D01*
X149433497Y-77719737D01*
X149579179Y-77659394D01*
X149710289Y-77571789D01*
X149821789Y-77460289D01*
X149909394Y-77329179D01*
X149969737Y-77183497D01*
X150000500Y-77028842D01*
X150000500Y-76871158D01*
X150000500Y-76871155D01*
X150000499Y-76871153D01*
X149980326Y-76769737D01*
X149969737Y-76716503D01*
X149966791Y-76709390D01*
X149909397Y-76570827D01*
X149909390Y-76570814D01*
X149821789Y-76439711D01*
X149821786Y-76439707D01*
X149710292Y-76328213D01*
X149710288Y-76328210D01*
X149579185Y-76240609D01*
X149579172Y-76240602D01*
X149433501Y-76180264D01*
X149433489Y-76180261D01*
X149278845Y-76149500D01*
X149278842Y-76149500D01*
X149121158Y-76149500D01*
X149121155Y-76149500D01*
X148966510Y-76180261D01*
X148966498Y-76180264D01*
X148820827Y-76240602D01*
X148820814Y-76240609D01*
X148726715Y-76303485D01*
X148660037Y-76324363D01*
X148592657Y-76305878D01*
X148570143Y-76288064D01*
X148460292Y-76178213D01*
X148460288Y-76178210D01*
X148329185Y-76090609D01*
X148329172Y-76090602D01*
X148183501Y-76030264D01*
X148183489Y-76030261D01*
X148028845Y-75999500D01*
X148028842Y-75999500D01*
X147871158Y-75999500D01*
X147871155Y-75999500D01*
X147716510Y-76030261D01*
X147716498Y-76030264D01*
X147570827Y-76090602D01*
X147570814Y-76090609D01*
X147439711Y-76178210D01*
X147439707Y-76178213D01*
X147328213Y-76289707D01*
X147328210Y-76289711D01*
X147240609Y-76420814D01*
X147240602Y-76420827D01*
X147180264Y-76566498D01*
X147180261Y-76566510D01*
X147149500Y-76721153D01*
X146050790Y-76721153D01*
X146079179Y-76709394D01*
X146210289Y-76621789D01*
X146321789Y-76510289D01*
X146409394Y-76379179D01*
X146469737Y-76233497D01*
X146500500Y-76078842D01*
X146500500Y-75921158D01*
X146500500Y-75921155D01*
X146500499Y-75921153D01*
X146469738Y-75766510D01*
X146469737Y-75766503D01*
X146430242Y-75671153D01*
X146409397Y-75620827D01*
X146409390Y-75620814D01*
X146321789Y-75489711D01*
X146321786Y-75489707D01*
X146210292Y-75378213D01*
X146210288Y-75378210D01*
X146079185Y-75290609D01*
X146079172Y-75290602D01*
X145933501Y-75230264D01*
X145933491Y-75230261D01*
X145815274Y-75206746D01*
X145753363Y-75174361D01*
X145718789Y-75113645D01*
X145722529Y-75043875D01*
X145751783Y-74997450D01*
X146178080Y-74571153D01*
X154799500Y-74571153D01*
X154799500Y-74728846D01*
X154830261Y-74883489D01*
X154830264Y-74883501D01*
X154890602Y-75029172D01*
X154890609Y-75029185D01*
X154978210Y-75160288D01*
X154978213Y-75160292D01*
X155089707Y-75271786D01*
X155089711Y-75271789D01*
X155220814Y-75359390D01*
X155220827Y-75359397D01*
X155266254Y-75378213D01*
X155366503Y-75419737D01*
X155521153Y-75450499D01*
X155521156Y-75450500D01*
X155521158Y-75450500D01*
X155678844Y-75450500D01*
X155678845Y-75450499D01*
X155833497Y-75419737D01*
X155951592Y-75370821D01*
X155979172Y-75359397D01*
X155979172Y-75359396D01*
X155979179Y-75359394D01*
X156110289Y-75271789D01*
X156221789Y-75160289D01*
X156309394Y-75029179D01*
X156369737Y-74883497D01*
X156400500Y-74728842D01*
X156400500Y-74571158D01*
X156400500Y-74571155D01*
X156400499Y-74571153D01*
X156381847Y-74477385D01*
X156369737Y-74416503D01*
X156369735Y-74416498D01*
X156309397Y-74270827D01*
X156309390Y-74270814D01*
X156221789Y-74139711D01*
X156221786Y-74139707D01*
X156110292Y-74028213D01*
X156110288Y-74028210D01*
X155979185Y-73940609D01*
X155979172Y-73940602D01*
X155833501Y-73880264D01*
X155833489Y-73880261D01*
X155816261Y-73876834D01*
X155678845Y-73849500D01*
X155678842Y-73849500D01*
X155521158Y-73849500D01*
X155521155Y-73849500D01*
X155366510Y-73880261D01*
X155366498Y-73880264D01*
X155220827Y-73940602D01*
X155220814Y-73940609D01*
X155089711Y-74028210D01*
X155089707Y-74028213D01*
X154978213Y-74139707D01*
X154978210Y-74139711D01*
X154890609Y-74270814D01*
X154890602Y-74270827D01*
X154830264Y-74416498D01*
X154830261Y-74416510D01*
X154799500Y-74571153D01*
X146178080Y-74571153D01*
X146987929Y-73761304D01*
X161949500Y-73761304D01*
X161949500Y-73938695D01*
X161984103Y-74112658D01*
X161984106Y-74112667D01*
X162051983Y-74276540D01*
X162051990Y-74276553D01*
X162150535Y-74424034D01*
X162150538Y-74424038D01*
X162275961Y-74549461D01*
X162275965Y-74549464D01*
X162423446Y-74648009D01*
X162423459Y-74648016D01*
X162546363Y-74698923D01*
X162587334Y-74715894D01*
X162587336Y-74715894D01*
X162587341Y-74715896D01*
X162761304Y-74750499D01*
X162761307Y-74750500D01*
X162761309Y-74750500D01*
X162938693Y-74750500D01*
X162938694Y-74750499D01*
X162996682Y-74738964D01*
X163112658Y-74715896D01*
X163112661Y-74715894D01*
X163112666Y-74715894D01*
X163276547Y-74648013D01*
X163424035Y-74549464D01*
X163549464Y-74424035D01*
X163648013Y-74276547D01*
X163715894Y-74112666D01*
X163732694Y-74028210D01*
X163750499Y-73938695D01*
X163750500Y-73938693D01*
X163750500Y-73761306D01*
X163750499Y-73761304D01*
X163715896Y-73587341D01*
X163715893Y-73587332D01*
X163648016Y-73423459D01*
X163648009Y-73423446D01*
X163549464Y-73275965D01*
X163549461Y-73275961D01*
X163424038Y-73150538D01*
X163424034Y-73150535D01*
X163276553Y-73051990D01*
X163276540Y-73051983D01*
X163112667Y-72984106D01*
X163112658Y-72984103D01*
X162938694Y-72949500D01*
X162938691Y-72949500D01*
X162761309Y-72949500D01*
X162761306Y-72949500D01*
X162587341Y-72984103D01*
X162587332Y-72984106D01*
X162423459Y-73051983D01*
X162423446Y-73051990D01*
X162275965Y-73150535D01*
X162275961Y-73150538D01*
X162150538Y-73275961D01*
X162150535Y-73275965D01*
X162051990Y-73423446D01*
X162051983Y-73423459D01*
X161984106Y-73587332D01*
X161984103Y-73587341D01*
X161949500Y-73761304D01*
X146987929Y-73761304D01*
X152214662Y-68534572D01*
X152275983Y-68501089D01*
X152278150Y-68500638D01*
X152336085Y-68489113D01*
X152433497Y-68469737D01*
X152579179Y-68409394D01*
X152710289Y-68321789D01*
X152821789Y-68210289D01*
X152909394Y-68079179D01*
X152917217Y-68060292D01*
X152933429Y-68021153D01*
X158149500Y-68021153D01*
X158149500Y-68178846D01*
X158180261Y-68333489D01*
X158180264Y-68333501D01*
X158240602Y-68479172D01*
X158240609Y-68479185D01*
X158328210Y-68610288D01*
X158328213Y-68610292D01*
X158439707Y-68721786D01*
X158439711Y-68721789D01*
X158570814Y-68809390D01*
X158570827Y-68809397D01*
X158716498Y-68869735D01*
X158716503Y-68869737D01*
X158871153Y-68900499D01*
X158871156Y-68900500D01*
X158871158Y-68900500D01*
X159028844Y-68900500D01*
X159028845Y-68900499D01*
X159183497Y-68869737D01*
X159329179Y-68809394D01*
X159460289Y-68721789D01*
X159571789Y-68610289D01*
X159659394Y-68479179D01*
X159719737Y-68333497D01*
X159750500Y-68178842D01*
X159750500Y-68021158D01*
X159750500Y-68021155D01*
X159750499Y-68021153D01*
X159732204Y-67929179D01*
X159719737Y-67866503D01*
X159683427Y-67778842D01*
X159659397Y-67720827D01*
X159659390Y-67720814D01*
X159571789Y-67589711D01*
X159571786Y-67589707D01*
X159460292Y-67478213D01*
X159460288Y-67478210D01*
X159329185Y-67390609D01*
X159329172Y-67390602D01*
X159183501Y-67330264D01*
X159183489Y-67330261D01*
X159028845Y-67299500D01*
X159028842Y-67299500D01*
X158871158Y-67299500D01*
X158871155Y-67299500D01*
X158716510Y-67330261D01*
X158716498Y-67330264D01*
X158570827Y-67390602D01*
X158570814Y-67390609D01*
X158439711Y-67478210D01*
X158439707Y-67478213D01*
X158328213Y-67589707D01*
X158328210Y-67589711D01*
X158240609Y-67720814D01*
X158240602Y-67720827D01*
X158180264Y-67866498D01*
X158180261Y-67866510D01*
X158149500Y-68021153D01*
X152933429Y-68021153D01*
X152955603Y-67967621D01*
X152955605Y-67967614D01*
X152969737Y-67933497D01*
X153000500Y-67778842D01*
X153000500Y-67621158D01*
X153000500Y-67621155D01*
X153000499Y-67621153D01*
X152974531Y-67490606D01*
X152969737Y-67466503D01*
X152969735Y-67466498D01*
X152909397Y-67320827D01*
X152909390Y-67320814D01*
X152821789Y-67189711D01*
X152821786Y-67189707D01*
X152710292Y-67078213D01*
X152710288Y-67078210D01*
X152579185Y-66990609D01*
X152579172Y-66990602D01*
X152433501Y-66930264D01*
X152433489Y-66930261D01*
X152278845Y-66899500D01*
X152278842Y-66899500D01*
X152121158Y-66899500D01*
X152121155Y-66899500D01*
X151966510Y-66930261D01*
X151966498Y-66930264D01*
X151820827Y-66990602D01*
X151820814Y-66990609D01*
X151689711Y-67078210D01*
X151689707Y-67078213D01*
X151578213Y-67189707D01*
X151578210Y-67189711D01*
X151490609Y-67320814D01*
X151490602Y-67320827D01*
X151430264Y-67466498D01*
X151430261Y-67466508D01*
X151399361Y-67621850D01*
X151366976Y-67683761D01*
X151365425Y-67685339D01*
X143937584Y-75113181D01*
X143876261Y-75146666D01*
X143849903Y-75149500D01*
X131879766Y-75149500D01*
X131812727Y-75129815D01*
X131810875Y-75128602D01*
X131679185Y-75040609D01*
X131679172Y-75040602D01*
X131533501Y-74980264D01*
X131533489Y-74980261D01*
X131378845Y-74949500D01*
X131378842Y-74949500D01*
X131221158Y-74949500D01*
X131221155Y-74949500D01*
X131066510Y-74980261D01*
X131066498Y-74980264D01*
X130920827Y-75040602D01*
X130920814Y-75040609D01*
X130789711Y-75128210D01*
X130789707Y-75128213D01*
X130678213Y-75239707D01*
X130678210Y-75239711D01*
X130590609Y-75370814D01*
X130590602Y-75370827D01*
X130530264Y-75516498D01*
X130530261Y-75516510D01*
X130499500Y-75671153D01*
X123550500Y-75671153D01*
X123550500Y-71721153D01*
X131999500Y-71721153D01*
X131999500Y-71878846D01*
X132030261Y-72033489D01*
X132030264Y-72033501D01*
X132090602Y-72179172D01*
X132090609Y-72179185D01*
X132178210Y-72310288D01*
X132178213Y-72310292D01*
X132289707Y-72421786D01*
X132289711Y-72421789D01*
X132420814Y-72509390D01*
X132420827Y-72509397D01*
X132566498Y-72569735D01*
X132566503Y-72569737D01*
X132721153Y-72600499D01*
X132721156Y-72600500D01*
X132775576Y-72600500D01*
X132842615Y-72620185D01*
X132888370Y-72672989D01*
X132898314Y-72742147D01*
X132890137Y-72771952D01*
X132830264Y-72916498D01*
X132830261Y-72916510D01*
X132799500Y-73071153D01*
X132799500Y-73228846D01*
X132830261Y-73383489D01*
X132830264Y-73383501D01*
X132890602Y-73529172D01*
X132890609Y-73529185D01*
X132978210Y-73660288D01*
X132978213Y-73660292D01*
X133089707Y-73771786D01*
X133089711Y-73771789D01*
X133220814Y-73859390D01*
X133220827Y-73859397D01*
X133366498Y-73919735D01*
X133366503Y-73919737D01*
X133521153Y-73950499D01*
X133521156Y-73950500D01*
X133521158Y-73950500D01*
X133678844Y-73950500D01*
X133678845Y-73950499D01*
X133833497Y-73919737D01*
X133979179Y-73859394D01*
X134110289Y-73771789D01*
X134221789Y-73660289D01*
X134309394Y-73529179D01*
X134369737Y-73383497D01*
X134400500Y-73228842D01*
X134400500Y-73071158D01*
X134400500Y-73071155D01*
X134400499Y-73071153D01*
X134383184Y-72984106D01*
X134369737Y-72916503D01*
X134369735Y-72916498D01*
X134309397Y-72770827D01*
X134309390Y-72770814D01*
X134221789Y-72639711D01*
X134221786Y-72639707D01*
X134110292Y-72528213D01*
X134110288Y-72528210D01*
X133979185Y-72440609D01*
X133979172Y-72440602D01*
X133833501Y-72380264D01*
X133833489Y-72380261D01*
X133678845Y-72349500D01*
X133678842Y-72349500D01*
X133624424Y-72349500D01*
X133557385Y-72329815D01*
X133511630Y-72277011D01*
X133501686Y-72207853D01*
X133509863Y-72178048D01*
X133569735Y-72033501D01*
X133569737Y-72033497D01*
X133600500Y-71878842D01*
X133600500Y-71721158D01*
X133600500Y-71721155D01*
X133600499Y-71721153D01*
X133569738Y-71566510D01*
X133569737Y-71566503D01*
X133569735Y-71566498D01*
X133509397Y-71420827D01*
X133509390Y-71420814D01*
X133421789Y-71289711D01*
X133421786Y-71289707D01*
X133310292Y-71178213D01*
X133310288Y-71178210D01*
X133179185Y-71090609D01*
X133179172Y-71090602D01*
X133033501Y-71030264D01*
X133033489Y-71030261D01*
X132878845Y-70999500D01*
X132878842Y-70999500D01*
X132721158Y-70999500D01*
X132721155Y-70999500D01*
X132566510Y-71030261D01*
X132566498Y-71030264D01*
X132420827Y-71090602D01*
X132420814Y-71090609D01*
X132289711Y-71178210D01*
X132289707Y-71178213D01*
X132178213Y-71289707D01*
X132178210Y-71289711D01*
X132090609Y-71420814D01*
X132090602Y-71420827D01*
X132030264Y-71566498D01*
X132030261Y-71566510D01*
X131999500Y-71721153D01*
X123550500Y-71721153D01*
X123550500Y-69971153D01*
X135899500Y-69971153D01*
X135899500Y-70128846D01*
X135930261Y-70283489D01*
X135930264Y-70283501D01*
X135990602Y-70429172D01*
X135990609Y-70429185D01*
X136078210Y-70560288D01*
X136078213Y-70560292D01*
X136189707Y-70671786D01*
X136189711Y-70671789D01*
X136320814Y-70759390D01*
X136320827Y-70759397D01*
X136428225Y-70803882D01*
X136466503Y-70819737D01*
X136621153Y-70850499D01*
X136621156Y-70850500D01*
X136621158Y-70850500D01*
X136778844Y-70850500D01*
X136778845Y-70850499D01*
X136933497Y-70819737D01*
X136986097Y-70797949D01*
X137036670Y-70777002D01*
X137106139Y-70769533D01*
X137168618Y-70800808D01*
X137171803Y-70803882D01*
X137189707Y-70821786D01*
X137189711Y-70821789D01*
X137320814Y-70909390D01*
X137320827Y-70909397D01*
X137466498Y-70969735D01*
X137466503Y-70969737D01*
X137616131Y-70999500D01*
X137621153Y-71000499D01*
X137621156Y-71000500D01*
X137621158Y-71000500D01*
X137778844Y-71000500D01*
X137778845Y-71000499D01*
X137933497Y-70969737D01*
X138079179Y-70909394D01*
X138210289Y-70821789D01*
X138321789Y-70710289D01*
X138409394Y-70579179D01*
X138469737Y-70433497D01*
X138500500Y-70278842D01*
X138500500Y-70121158D01*
X138500500Y-70121155D01*
X138500499Y-70121153D01*
X138469738Y-69966510D01*
X138469737Y-69966503D01*
X138469735Y-69966498D01*
X138409397Y-69820827D01*
X138409390Y-69820814D01*
X138321789Y-69689711D01*
X138321786Y-69689707D01*
X138210292Y-69578213D01*
X138210288Y-69578210D01*
X138079185Y-69490609D01*
X138079172Y-69490602D01*
X137933501Y-69430264D01*
X137933489Y-69430261D01*
X137778845Y-69399500D01*
X137778842Y-69399500D01*
X137621158Y-69399500D01*
X137621155Y-69399500D01*
X137466510Y-69430261D01*
X137466498Y-69430264D01*
X137363330Y-69472998D01*
X137293861Y-69480467D01*
X137231382Y-69449192D01*
X137228197Y-69446118D01*
X137210292Y-69428213D01*
X137210288Y-69428210D01*
X137079185Y-69340609D01*
X137079172Y-69340602D01*
X136933501Y-69280264D01*
X136933489Y-69280261D01*
X136778845Y-69249500D01*
X136778842Y-69249500D01*
X136621158Y-69249500D01*
X136621155Y-69249500D01*
X136466510Y-69280261D01*
X136466498Y-69280264D01*
X136320827Y-69340602D01*
X136320814Y-69340609D01*
X136189711Y-69428210D01*
X136189707Y-69428213D01*
X136078213Y-69539707D01*
X136078210Y-69539711D01*
X135990609Y-69670814D01*
X135990602Y-69670827D01*
X135930264Y-69816498D01*
X135930261Y-69816510D01*
X135899500Y-69971153D01*
X123550500Y-69971153D01*
X123550500Y-67471153D01*
X143299500Y-67471153D01*
X143299500Y-67628846D01*
X143330261Y-67783489D01*
X143330264Y-67783501D01*
X143390602Y-67929172D01*
X143390609Y-67929185D01*
X143478210Y-68060288D01*
X143478213Y-68060292D01*
X143589707Y-68171786D01*
X143589711Y-68171789D01*
X143720814Y-68259390D01*
X143720827Y-68259397D01*
X143866498Y-68319735D01*
X143866503Y-68319737D01*
X144021153Y-68350499D01*
X144021156Y-68350500D01*
X144021158Y-68350500D01*
X144178844Y-68350500D01*
X144178845Y-68350499D01*
X144333497Y-68319737D01*
X144479179Y-68259394D01*
X144610289Y-68171789D01*
X144660925Y-68121153D01*
X147949500Y-68121153D01*
X147949500Y-68278846D01*
X147980261Y-68433489D01*
X147980264Y-68433501D01*
X148040602Y-68579172D01*
X148040609Y-68579185D01*
X148128210Y-68710288D01*
X148128213Y-68710292D01*
X148239707Y-68821786D01*
X148239711Y-68821789D01*
X148370814Y-68909390D01*
X148370827Y-68909397D01*
X148516498Y-68969735D01*
X148516503Y-68969737D01*
X148671153Y-69000499D01*
X148671156Y-69000500D01*
X148671158Y-69000500D01*
X148828844Y-69000500D01*
X148828845Y-69000499D01*
X148983497Y-68969737D01*
X149129179Y-68909394D01*
X149260289Y-68821789D01*
X149371789Y-68710289D01*
X149459394Y-68579179D01*
X149519737Y-68433497D01*
X149550500Y-68278842D01*
X149550500Y-68121158D01*
X149550500Y-68121155D01*
X149550499Y-68121153D01*
X149535585Y-68046175D01*
X149519737Y-67966503D01*
X149506062Y-67933489D01*
X149459397Y-67820827D01*
X149459390Y-67820814D01*
X149371789Y-67689711D01*
X149371786Y-67689707D01*
X149260292Y-67578213D01*
X149260288Y-67578210D01*
X149129185Y-67490609D01*
X149129172Y-67490602D01*
X148983501Y-67430264D01*
X148983489Y-67430261D01*
X148828845Y-67399500D01*
X148828842Y-67399500D01*
X148671158Y-67399500D01*
X148671155Y-67399500D01*
X148516510Y-67430261D01*
X148516498Y-67430264D01*
X148370827Y-67490602D01*
X148370814Y-67490609D01*
X148239711Y-67578210D01*
X148239707Y-67578213D01*
X148128213Y-67689707D01*
X148128210Y-67689711D01*
X148040609Y-67820814D01*
X148040602Y-67820827D01*
X147980264Y-67966498D01*
X147980261Y-67966510D01*
X147949500Y-68121153D01*
X144660925Y-68121153D01*
X144721789Y-68060289D01*
X144809394Y-67929179D01*
X144869737Y-67783497D01*
X144900500Y-67628842D01*
X144900500Y-67471158D01*
X144900500Y-67471155D01*
X144900499Y-67471153D01*
X144886246Y-67399500D01*
X144869737Y-67316503D01*
X144862694Y-67299500D01*
X144809397Y-67170827D01*
X144809390Y-67170814D01*
X144721789Y-67039711D01*
X144721786Y-67039707D01*
X144610292Y-66928213D01*
X144610288Y-66928210D01*
X144479185Y-66840609D01*
X144479172Y-66840602D01*
X144333501Y-66780264D01*
X144333489Y-66780261D01*
X144178845Y-66749500D01*
X144178842Y-66749500D01*
X144021158Y-66749500D01*
X144021155Y-66749500D01*
X143866510Y-66780261D01*
X143866498Y-66780264D01*
X143720827Y-66840602D01*
X143720814Y-66840609D01*
X143589711Y-66928210D01*
X143589707Y-66928213D01*
X143478213Y-67039707D01*
X143478210Y-67039711D01*
X143390609Y-67170814D01*
X143390602Y-67170827D01*
X143330264Y-67316498D01*
X143330261Y-67316510D01*
X143299500Y-67471153D01*
X123550500Y-67471153D01*
X123550500Y-64873920D01*
X133099499Y-64873920D01*
X133128340Y-65018907D01*
X133128343Y-65018917D01*
X133184912Y-65155488D01*
X133184919Y-65155501D01*
X133267048Y-65278415D01*
X133267051Y-65278419D01*
X133371580Y-65382948D01*
X133371584Y-65382951D01*
X133494498Y-65465080D01*
X133494511Y-65465087D01*
X133631082Y-65521656D01*
X133631087Y-65521658D01*
X133631091Y-65521658D01*
X133631092Y-65521659D01*
X133776079Y-65550500D01*
X133776082Y-65550500D01*
X133923920Y-65550500D01*
X134021462Y-65531096D01*
X134068913Y-65521658D01*
X134205495Y-65465084D01*
X134328416Y-65382951D01*
X134432951Y-65278416D01*
X134515084Y-65155495D01*
X134571658Y-65018913D01*
X134600500Y-64873920D01*
X137499499Y-64873920D01*
X137528340Y-65018907D01*
X137528343Y-65018917D01*
X137584912Y-65155488D01*
X137584919Y-65155501D01*
X137667048Y-65278415D01*
X137667051Y-65278419D01*
X137771580Y-65382948D01*
X137771584Y-65382951D01*
X137894498Y-65465080D01*
X137894511Y-65465087D01*
X138031082Y-65521656D01*
X138031087Y-65521658D01*
X138031091Y-65521658D01*
X138031092Y-65521659D01*
X138176079Y-65550500D01*
X138176082Y-65550500D01*
X138323920Y-65550500D01*
X138421462Y-65531096D01*
X138468913Y-65521658D01*
X138605495Y-65465084D01*
X138728416Y-65382951D01*
X138832951Y-65278416D01*
X138915084Y-65155495D01*
X138971658Y-65018913D01*
X139000500Y-64873918D01*
X139000500Y-64726082D01*
X139000500Y-64726079D01*
X138971659Y-64581092D01*
X138971658Y-64581091D01*
X138971658Y-64581087D01*
X138971656Y-64581082D01*
X138915087Y-64444511D01*
X138915080Y-64444498D01*
X138832951Y-64321584D01*
X138832948Y-64321580D01*
X138728419Y-64217051D01*
X138728415Y-64217048D01*
X138605501Y-64134919D01*
X138605488Y-64134912D01*
X138468917Y-64078343D01*
X138468907Y-64078340D01*
X138323920Y-64049500D01*
X138323918Y-64049500D01*
X138176082Y-64049500D01*
X138176080Y-64049500D01*
X138031092Y-64078340D01*
X138031082Y-64078343D01*
X137894511Y-64134912D01*
X137894498Y-64134919D01*
X137771584Y-64217048D01*
X137771580Y-64217051D01*
X137667051Y-64321580D01*
X137667048Y-64321584D01*
X137584919Y-64444498D01*
X137584912Y-64444511D01*
X137528343Y-64581082D01*
X137528340Y-64581092D01*
X137499500Y-64726079D01*
X137499500Y-64726082D01*
X137499500Y-64873918D01*
X137499500Y-64873920D01*
X137499499Y-64873920D01*
X134600500Y-64873920D01*
X134600500Y-64873918D01*
X134600500Y-64726082D01*
X134600500Y-64726079D01*
X134571659Y-64581092D01*
X134571658Y-64581091D01*
X134571658Y-64581087D01*
X134571656Y-64581082D01*
X134515087Y-64444511D01*
X134515080Y-64444498D01*
X134432951Y-64321584D01*
X134432948Y-64321580D01*
X134328419Y-64217051D01*
X134328415Y-64217048D01*
X134205501Y-64134919D01*
X134205488Y-64134912D01*
X134068917Y-64078343D01*
X134068907Y-64078340D01*
X133923920Y-64049500D01*
X133923918Y-64049500D01*
X133776082Y-64049500D01*
X133776080Y-64049500D01*
X133631092Y-64078340D01*
X133631082Y-64078343D01*
X133494511Y-64134912D01*
X133494498Y-64134919D01*
X133371584Y-64217048D01*
X133371580Y-64217051D01*
X133267051Y-64321580D01*
X133267048Y-64321584D01*
X133184919Y-64444498D01*
X133184912Y-64444511D01*
X133128343Y-64581082D01*
X133128340Y-64581092D01*
X133099500Y-64726079D01*
X133099500Y-64726082D01*
X133099500Y-64873918D01*
X133099500Y-64873920D01*
X133099499Y-64873920D01*
X123550500Y-64873920D01*
X123550500Y-63409029D01*
X123570185Y-63341990D01*
X123622989Y-63296235D01*
X123692147Y-63286291D01*
X123755703Y-63315316D01*
X123768786Y-63328493D01*
X123769893Y-63329789D01*
X123920213Y-63480109D01*
X124092179Y-63605048D01*
X124092181Y-63605049D01*
X124092184Y-63605051D01*
X124281588Y-63701557D01*
X124483757Y-63767246D01*
X124693713Y-63800500D01*
X124693714Y-63800500D01*
X124906286Y-63800500D01*
X124906287Y-63800500D01*
X125116243Y-63767246D01*
X125318412Y-63701557D01*
X125507816Y-63605051D01*
X125529789Y-63589086D01*
X125679786Y-63480109D01*
X125679788Y-63480106D01*
X125679792Y-63480104D01*
X125830104Y-63329792D01*
X125830106Y-63329788D01*
X125830109Y-63329786D01*
X125955048Y-63157820D01*
X125955047Y-63157820D01*
X125955051Y-63157816D01*
X126051557Y-62968412D01*
X126117246Y-62766243D01*
X126150500Y-62556287D01*
X126150500Y-62343713D01*
X126117246Y-62133757D01*
X126051557Y-61931588D01*
X125955051Y-61742184D01*
X125955049Y-61742181D01*
X125955048Y-61742179D01*
X125830109Y-61570213D01*
X125679786Y-61419890D01*
X125507820Y-61294951D01*
X125318414Y-61198444D01*
X125318413Y-61198443D01*
X125318412Y-61198443D01*
X125116243Y-61132754D01*
X125116241Y-61132753D01*
X125116240Y-61132753D01*
X124954957Y-61107208D01*
X124906287Y-61099500D01*
X124693713Y-61099500D01*
X124645042Y-61107208D01*
X124483760Y-61132753D01*
X124281585Y-61198444D01*
X124092179Y-61294951D01*
X123920213Y-61419890D01*
X123769892Y-61570211D01*
X123768778Y-61571516D01*
X123768231Y-61571872D01*
X123766451Y-61573653D01*
X123766076Y-61573278D01*
X123710266Y-61609700D01*
X123640398Y-61610188D01*
X123581357Y-61572826D01*
X123551888Y-61509474D01*
X123550500Y-61490970D01*
X123550500Y-60724754D01*
X123570185Y-60657715D01*
X123622989Y-60611960D01*
X123674636Y-60600754D01*
X167526729Y-60649861D01*
G37*
%TD.AperFunction*%
%TD*%
M02*
