%TF.GenerationSoftware,KiCad,Pcbnew,9.0.2*%
%TF.CreationDate,2025-10-22T09:47:40+03:00*%
%TF.ProjectId,aair_gimb_pcb,61616972-5f67-4696-9d62-5f7063622e6b,rev?*%
%TF.SameCoordinates,Original*%
%TF.FileFunction,Copper,L4,Bot*%
%TF.FilePolarity,Positive*%
%FSLAX46Y46*%
G04 Gerber Fmt 4.6, Leading zero omitted, Abs format (unit mm)*
G04 Created by KiCad (PCBNEW 9.0.2) date 2025-10-22 09:47:40*
%MOMM*%
%LPD*%
G01*
G04 APERTURE LIST*
G04 Aperture macros list*
%AMRoundRect*
0 Rectangle with rounded corners*
0 $1 Rounding radius*
0 $2 $3 $4 $5 $6 $7 $8 $9 X,Y pos of 4 corners*
0 Add a 4 corners polygon primitive as box body*
4,1,4,$2,$3,$4,$5,$6,$7,$8,$9,$2,$3,0*
0 Add four circle primitives for the rounded corners*
1,1,$1+$1,$2,$3*
1,1,$1+$1,$4,$5*
1,1,$1+$1,$6,$7*
1,1,$1+$1,$8,$9*
0 Add four rect primitives between the rounded corners*
20,1,$1+$1,$2,$3,$4,$5,0*
20,1,$1+$1,$4,$5,$6,$7,0*
20,1,$1+$1,$6,$7,$8,$9,0*
20,1,$1+$1,$8,$9,$2,$3,0*%
G04 Aperture macros list end*
%TA.AperFunction,ComponentPad*%
%ADD10C,1.400000*%
%TD*%
%TA.AperFunction,ComponentPad*%
%ADD11RoundRect,0.770000X-0.980000X-0.980000X0.980000X-0.980000X0.980000X0.980000X-0.980000X0.980000X0*%
%TD*%
%TA.AperFunction,ComponentPad*%
%ADD12C,3.500000*%
%TD*%
%TA.AperFunction,SMDPad,CuDef*%
%ADD13RoundRect,0.250000X0.325000X0.650000X-0.325000X0.650000X-0.325000X-0.650000X0.325000X-0.650000X0*%
%TD*%
%TA.AperFunction,SMDPad,CuDef*%
%ADD14RoundRect,0.250000X0.650000X-0.325000X0.650000X0.325000X-0.650000X0.325000X-0.650000X-0.325000X0*%
%TD*%
%TA.AperFunction,SMDPad,CuDef*%
%ADD15R,0.635000X1.143000*%
%TD*%
%TA.AperFunction,SMDPad,CuDef*%
%ADD16RoundRect,0.250000X0.362500X1.425000X-0.362500X1.425000X-0.362500X-1.425000X0.362500X-1.425000X0*%
%TD*%
%TA.AperFunction,SMDPad,CuDef*%
%ADD17R,1.143000X0.635000*%
%TD*%
%TA.AperFunction,SMDPad,CuDef*%
%ADD18RoundRect,0.250000X-1.000000X-0.650000X1.000000X-0.650000X1.000000X0.650000X-1.000000X0.650000X0*%
%TD*%
%TA.AperFunction,SMDPad,CuDef*%
%ADD19RoundRect,0.250000X-0.420000X-0.945000X0.420000X-0.945000X0.420000X0.945000X-0.420000X0.945000X0*%
%TD*%
%TA.AperFunction,SMDPad,CuDef*%
%ADD20R,2.032000X1.016000*%
%TD*%
%TA.AperFunction,SMDPad,CuDef*%
%ADD21R,2.032000X3.657600*%
%TD*%
%TA.AperFunction,SMDPad,CuDef*%
%ADD22RoundRect,0.250000X-0.325000X-0.650000X0.325000X-0.650000X0.325000X0.650000X-0.325000X0.650000X0*%
%TD*%
%TA.AperFunction,SMDPad,CuDef*%
%ADD23RoundRect,0.250000X0.420000X0.945000X-0.420000X0.945000X-0.420000X-0.945000X0.420000X-0.945000X0*%
%TD*%
%TA.AperFunction,ViaPad*%
%ADD24C,0.600000*%
%TD*%
%TA.AperFunction,ViaPad*%
%ADD25C,0.800000*%
%TD*%
%TA.AperFunction,ViaPad*%
%ADD26C,1.524000*%
%TD*%
%TA.AperFunction,Conductor*%
%ADD27C,0.800000*%
%TD*%
%TA.AperFunction,Conductor*%
%ADD28C,0.200000*%
%TD*%
%TA.AperFunction,Conductor*%
%ADD29C,0.600000*%
%TD*%
%TA.AperFunction,Conductor*%
%ADD30C,3.000000*%
%TD*%
%TA.AperFunction,Conductor*%
%ADD31C,0.650000*%
%TD*%
%TA.AperFunction,Conductor*%
%ADD32C,0.500000*%
%TD*%
%TA.AperFunction,Conductor*%
%ADD33C,0.350000*%
%TD*%
%TA.AperFunction,Conductor*%
%ADD34C,1.000000*%
%TD*%
%TA.AperFunction,Conductor*%
%ADD35C,1.500000*%
%TD*%
G04 APERTURE END LIST*
D10*
%TO.P,xt30,*%
%TO.N,*%
X169200000Y-61725000D03*
X180200000Y-61725000D03*
D11*
%TO.P,xt30,1,Pin_1*%
%TO.N,V_SUPPLY*%
X177200000Y-71725000D03*
D12*
%TO.P,xt30,2,Pin_2*%
%TO.N,GND*%
X172200000Y-71725000D03*
%TD*%
D13*
%TO.P,C33,1*%
%TO.N,V_SUPPLY*%
X171575000Y-82750000D03*
%TO.P,C33,2*%
%TO.N,GND*%
X168625000Y-82750000D03*
%TD*%
D14*
%TO.P,C36,1*%
%TO.N,V_SUPPLY*%
X174000000Y-80150000D03*
%TO.P,C36,2*%
%TO.N,GND*%
X174000000Y-77200000D03*
%TD*%
D15*
%TO.P,C29,1*%
%TO.N,+3.3V*%
X157350000Y-67550000D03*
%TO.P,C29,2*%
%TO.N,GND*%
X155826000Y-67550000D03*
%TD*%
D16*
%TO.P,R28,1*%
%TO.N,/drv8302/H2_LOW*%
X186662500Y-85250000D03*
%TO.P,R28,2*%
%TO.N,GND*%
X180737500Y-85250000D03*
%TD*%
D17*
%TO.P,C16,1*%
%TO.N,GND*%
X145450000Y-69950000D03*
%TO.P,C16,2*%
%TO.N,+3.3V*%
X145450000Y-71474000D03*
%TD*%
D18*
%TO.P,D1,1,K*%
%TO.N,+5V*%
X160750000Y-71150000D03*
%TO.P,D1,2,A*%
%TO.N,GND*%
X164750000Y-71150000D03*
%TD*%
D19*
%TO.P,C22,1*%
%TO.N,+5V*%
X163660000Y-67350000D03*
%TO.P,C22,2*%
%TO.N,GND*%
X166740000Y-67350000D03*
%TD*%
D17*
%TO.P,C13,1*%
%TO.N,GND*%
X150150000Y-70012000D03*
%TO.P,C13,2*%
%TO.N,+3.3V*%
X150150000Y-71536000D03*
%TD*%
D20*
%TO.P,U3,1,GND*%
%TO.N,GND*%
X152996000Y-78486000D03*
%TO.P,U3,2,V_out*%
%TO.N,+3.3V*%
X152996000Y-76200000D03*
D21*
X159600000Y-76200000D03*
D20*
%TO.P,U3,3,V_in*%
%TO.N,+5V*%
X152996000Y-73914000D03*
%TD*%
D13*
%TO.P,C31,1*%
%TO.N,V_SUPPLY*%
X171575000Y-77850000D03*
%TO.P,C31,2*%
%TO.N,GND*%
X168625000Y-77850000D03*
%TD*%
%TO.P,C35,1*%
%TO.N,V_SUPPLY*%
X172725000Y-87450000D03*
%TO.P,C35,2*%
%TO.N,GND*%
X169775000Y-87450000D03*
%TD*%
D22*
%TO.P,C27,1*%
%TO.N,GND*%
X168675000Y-75200000D03*
%TO.P,C27,2*%
%TO.N,V_SUPPLY*%
X171625000Y-75200000D03*
%TD*%
D17*
%TO.P,C14,1*%
%TO.N,GND*%
X146950000Y-69950000D03*
%TO.P,C14,2*%
%TO.N,+3.3V*%
X146950000Y-71474000D03*
%TD*%
D23*
%TO.P,C30,1*%
%TO.N,+3.3V*%
X157250000Y-70850000D03*
%TO.P,C30,2*%
%TO.N,GND*%
X154170000Y-70850000D03*
%TD*%
D16*
%TO.P,R27,1*%
%TO.N,/drv8302/H1_LOW*%
X187312500Y-71900000D03*
%TO.P,R27,2*%
%TO.N,GND*%
X181387500Y-71900000D03*
%TD*%
D17*
%TO.P,C28,1*%
%TO.N,GND*%
X148500000Y-70000000D03*
%TO.P,C28,2*%
%TO.N,+3.3V*%
X148500000Y-71524000D03*
%TD*%
%TO.P,C15,1*%
%TO.N,GND*%
X151750000Y-70038000D03*
%TO.P,C15,2*%
%TO.N,+3.3V*%
X151750000Y-71562000D03*
%TD*%
D13*
%TO.P,C34,1*%
%TO.N,V_SUPPLY*%
X173075000Y-85100000D03*
%TO.P,C34,2*%
%TO.N,GND*%
X170125000Y-85100000D03*
%TD*%
%TO.P,C32,1*%
%TO.N,V_SUPPLY*%
X171575000Y-80300000D03*
%TO.P,C32,2*%
%TO.N,GND*%
X168625000Y-80300000D03*
%TD*%
D24*
%TO.N,V_SUPPLY*%
X163600000Y-96600000D03*
D25*
X161500000Y-82000000D03*
D24*
%TO.N,Net-(U1-GVDD)*%
X157250000Y-87600000D03*
X149500000Y-97000000D03*
%TO.N,Net-(U1-DVDD)*%
X157600000Y-84350000D03*
X157224403Y-93703105D03*
X150900000Y-95600000D03*
%TO.N,VCC*%
X154250000Y-92700000D03*
X151450000Y-84150000D03*
%TO.N,GND*%
X151325000Y-85975000D03*
D25*
X158350000Y-84950000D03*
D24*
X132800000Y-76900000D03*
X154600000Y-87390000D03*
X161650000Y-67650000D03*
X167100000Y-76950000D03*
D25*
X161200000Y-84950000D03*
D24*
X147350000Y-78500000D03*
D26*
X186750000Y-98660000D03*
D24*
X151150000Y-86800000D03*
X173575000Y-76775000D03*
X142050000Y-70550000D03*
X143150000Y-90350000D03*
X150684372Y-93300000D03*
D26*
X186785000Y-97385000D03*
D24*
X171200000Y-92100000D03*
X172750000Y-92000000D03*
X174000000Y-77200000D03*
X159650000Y-67350000D03*
X140750000Y-78650000D03*
D26*
X186750000Y-99930000D03*
X188150000Y-98660000D03*
D24*
X133950000Y-94750000D03*
D26*
X188150000Y-99930000D03*
D24*
X145450000Y-79150000D03*
X161581383Y-93737011D03*
X137000000Y-78400000D03*
D26*
X188185000Y-97385000D03*
D24*
X133300000Y-99850000D03*
D25*
X159450000Y-86650000D03*
D24*
%TO.N,/drv8302/H2_VS*%
X132950000Y-81200000D03*
X160850000Y-92650000D03*
X176450000Y-88550000D03*
X190450000Y-88900000D03*
%TO.N,/drv8302/H1_VS*%
X190450000Y-75600000D03*
X141650000Y-77900000D03*
X168560659Y-84950000D03*
%TO.N,/drv8302/H3_VS*%
X191550000Y-96900000D03*
X138400000Y-82100000D03*
X181800000Y-97100000D03*
%TO.N,LED_STATUS*%
X138400000Y-92850000D03*
X139700000Y-89300000D03*
%TO.N,USB_CONN_D-*%
X133600000Y-73150000D03*
X136700000Y-70050000D03*
D25*
%TO.N,+5V*%
X162850000Y-73850000D03*
D24*
X145700000Y-76000000D03*
X155600000Y-74650000D03*
%TO.N,SWCLK*%
X147400000Y-83700000D03*
X147950000Y-76800000D03*
%TO.N,+3.3V*%
X144800000Y-86350000D03*
X138150000Y-83100000D03*
X148750000Y-68200000D03*
X149800000Y-83500000D03*
X158950000Y-68100000D03*
X148500000Y-96900000D03*
X141250000Y-84200000D03*
%TO.N,SWDIO*%
X149200000Y-76950000D03*
X148150000Y-85150000D03*
%TO.N,NRST*%
X131300000Y-75750000D03*
X139900000Y-85900000D03*
X152200000Y-67700000D03*
%TO.N,Net-(U1-RT_CLK)*%
X157350000Y-82050000D03*
X151350000Y-81550000D03*
%TO.N,/Stm32f405/SENS2*%
X140550000Y-88250000D03*
X137250000Y-82200000D03*
%TO.N,/Stm32f405/SENS3*%
X136700000Y-88700000D03*
X133250000Y-78500000D03*
%TO.N,/Stm32f405/FAULT*%
X146000000Y-95200000D03*
X157550000Y-83251000D03*
%TO.N,/drv8302/M_L2*%
X189250000Y-89900000D03*
X162100000Y-88950000D03*
%TO.N,/Stm32f405/DC_CAL*%
X157398398Y-86813883D03*
X146700000Y-92400000D03*
%TO.N,/drv8302/M_H3*%
X191100000Y-89850000D03*
X162100000Y-90200000D03*
%TO.N,/Stm32f405/GAIN*%
X145250000Y-92300000D03*
X154500000Y-86049000D03*
%TO.N,/drv8302/M_H2*%
X162049592Y-87950000D03*
X191200000Y-76450000D03*
%TO.N,/Stm32f405/Current_ADC_2*%
X151950000Y-93501000D03*
X140500000Y-91049000D03*
%TO.N,/drv8302/M_H1*%
X162100000Y-85400000D03*
X190800000Y-63300000D03*
%TO.N,/Stm32f405/EN_GATE*%
X157398398Y-88386116D03*
X140250000Y-95000000D03*
%TO.N,/Stm32f405/M_PWM*%
X154300000Y-84849000D03*
X144300000Y-92250000D03*
%TO.N,/drv8302/H2_LOW*%
X165250000Y-89500000D03*
X178050000Y-87050000D03*
X179200000Y-88550000D03*
D26*
X188100000Y-86580000D03*
D24*
X171950000Y-92600000D03*
D26*
X186685000Y-84035000D03*
X188135000Y-84035000D03*
X186650000Y-86580000D03*
X188100000Y-85310000D03*
X186650000Y-85310000D03*
D24*
%TO.N,Net-(U1-VSENSE)*%
X155500000Y-80200000D03*
X154498928Y-83251000D03*
%TO.N,/drv8302/M_L1*%
X162008402Y-86650000D03*
X189600000Y-76500000D03*
%TO.N,/Stm32f405/L2*%
X148349265Y-91299265D03*
X158350000Y-92258817D03*
%TO.N,/drv8302/M_L3*%
X161750000Y-92100000D03*
X183450000Y-101450000D03*
D26*
%TO.N,/drv8302/H1_LOW*%
X188565000Y-72205000D03*
D24*
X178049265Y-75849265D03*
X177704897Y-74048454D03*
X165400000Y-87050000D03*
X170500000Y-92950000D03*
D26*
X187150000Y-73480000D03*
X188565000Y-73475000D03*
X188600000Y-70930000D03*
X187150000Y-72210000D03*
X187185000Y-70935000D03*
D24*
%TO.N,/Stm32f405/L1*%
X157250057Y-90350000D03*
X151213676Y-91701000D03*
%TO.N,I2C_SCL*%
X131000000Y-86500000D03*
X142900000Y-84850000D03*
%TO.N,SPI1_MOSI*%
X144408949Y-95297017D03*
X138900000Y-97450000D03*
%TO.N,SPI1_SCK*%
X142900000Y-92249000D03*
X136361765Y-94311765D03*
%TO.N,USB_D-*%
X132800000Y-71800000D03*
X147000000Y-87150000D03*
%TO.N,USB_D+*%
X137700000Y-70200000D03*
X147200000Y-86150000D03*
%TO.N,UART_RX*%
X145550000Y-83950000D03*
X144100000Y-67550000D03*
%TO.N,SPI1_MISO*%
X137200518Y-94911765D03*
X143650000Y-95550000D03*
%TO.N,SPI1_CS*%
X141056253Y-92453780D03*
X136850000Y-93450000D03*
%TO.N,I2C_SDA*%
X130850000Y-85300000D03*
X142750000Y-83800000D03*
%TO.N,/Stm32f405/H1*%
X148300000Y-88150000D03*
X157398291Y-89549999D03*
%TO.N,/Stm32f405/H3*%
X157848664Y-93202807D03*
X148250000Y-86900000D03*
%TO.N,Net-(Q4-G)*%
X187000000Y-89000000D03*
X178400000Y-89300000D03*
%TO.N,Net-(Q6-G)*%
X177450000Y-79950000D03*
X185750000Y-74950000D03*
%TD*%
D27*
%TO.N,V_SUPPLY*%
X171575000Y-82750000D02*
X171575000Y-83600000D01*
X171575000Y-80300000D02*
X171575000Y-82750000D01*
X171625000Y-75200000D02*
X175100000Y-75200000D01*
D28*
X171725000Y-80150000D02*
X171575000Y-80300000D01*
D27*
X171625000Y-75200000D02*
X171625000Y-77800000D01*
X171575000Y-83600000D02*
X173075000Y-85100000D01*
D29*
X174000000Y-80150000D02*
X171725000Y-80150000D01*
D27*
X172725000Y-87450000D02*
X172725000Y-87475000D01*
X171575000Y-77850000D02*
X171575000Y-80300000D01*
X175100000Y-75200000D02*
X177200000Y-73100000D01*
X171625000Y-77800000D02*
X171575000Y-77850000D01*
D28*
X177200000Y-73100000D02*
X177200000Y-71725000D01*
D27*
X173075000Y-87100000D02*
X172725000Y-87450000D01*
X173075000Y-85100000D02*
X173075000Y-87100000D01*
X172725000Y-87475000D02*
X163600000Y-96600000D01*
D28*
%TO.N,Net-(U1-DVDD)*%
X153699000Y-87648886D02*
X153699000Y-84600057D01*
X158951000Y-92950414D02*
X158951000Y-91951000D01*
X153699000Y-84600057D02*
X154051057Y-84248000D01*
X157224403Y-93703105D02*
X157325105Y-93803807D01*
X157498000Y-84248000D02*
X157600000Y-84350000D01*
X158097607Y-93803807D02*
X158951000Y-92950414D01*
X154051057Y-84248000D02*
X157498000Y-84248000D01*
X158951000Y-91951000D02*
X157951000Y-90951000D01*
X157001114Y-90951000D02*
X153699000Y-87648886D01*
X157951000Y-90951000D02*
X157001114Y-90951000D01*
X157325105Y-93803807D02*
X158097607Y-93803807D01*
%TO.N,VCC*%
X154247000Y-92703000D02*
X154250000Y-92700000D01*
X148350057Y-85950000D02*
X147649000Y-86651057D01*
X150000000Y-85950000D02*
X148350057Y-85950000D01*
X151450000Y-84150000D02*
X151450000Y-84500000D01*
X150797218Y-92703000D02*
X154247000Y-92703000D01*
X147649000Y-86651057D02*
X147649000Y-89554782D01*
X147649000Y-89554782D02*
X150797218Y-92703000D01*
X151450000Y-84500000D02*
X150000000Y-85950000D01*
D27*
%TO.N,GND*%
X170125000Y-85100000D02*
X170125000Y-87100000D01*
D28*
X161350000Y-67350000D02*
X161650000Y-67650000D01*
D27*
X168625000Y-77850000D02*
X168625000Y-80300000D01*
D28*
X135500000Y-76900000D02*
X132800000Y-76900000D01*
D27*
X170125000Y-87100000D02*
X169775000Y-87450000D01*
D30*
X181137500Y-68287500D02*
X181137500Y-71950000D01*
D28*
X173987500Y-92000000D02*
X180737500Y-85250000D01*
X153784372Y-94665628D02*
X153900000Y-94550000D01*
X159450000Y-86050000D02*
X159450000Y-86650000D01*
D31*
X159450000Y-81081736D02*
X168806736Y-71725000D01*
D27*
X168675000Y-75200000D02*
X168675000Y-77800000D01*
X168625000Y-80300000D02*
X168625000Y-82750000D01*
D28*
X171200000Y-92100000D02*
X176750000Y-86550000D01*
X154600000Y-87390000D02*
X154600000Y-87100000D01*
X176750000Y-78800000D02*
X179987500Y-75562500D01*
X159650000Y-67350000D02*
X161350000Y-67350000D01*
D27*
X168625000Y-83600000D02*
X170125000Y-85100000D01*
D30*
X172200000Y-68550000D02*
X173700000Y-67050000D01*
D27*
X168675000Y-77800000D02*
X168625000Y-77850000D01*
D28*
X151299943Y-86800000D02*
X152924971Y-85174971D01*
X152124942Y-85975000D02*
X152924971Y-85174971D01*
D31*
X159450000Y-85750000D02*
X159450000Y-81081736D01*
D28*
X150684372Y-93300000D02*
X152050000Y-94665628D01*
D32*
X152996000Y-78486000D02*
X156854264Y-78486000D01*
D30*
X180737500Y-85250000D02*
X181201000Y-85713500D01*
D27*
X168625000Y-82750000D02*
X168625000Y-83600000D01*
D30*
X172200000Y-71725000D02*
X172200000Y-68550000D01*
X181137500Y-71950000D02*
X181137500Y-73350000D01*
X179900000Y-67050000D02*
X181137500Y-68287500D01*
X181201000Y-85713500D02*
X181201000Y-93111000D01*
D28*
X137000000Y-78400000D02*
X135500000Y-76900000D01*
X161200000Y-84950000D02*
X160250000Y-84950000D01*
X154600000Y-87100000D02*
X155651000Y-86049000D01*
X133300000Y-99850000D02*
X133300000Y-95400000D01*
X152050000Y-94665628D02*
X152500000Y-94665628D01*
X176750000Y-86550000D02*
X176750000Y-78800000D01*
D32*
X156854264Y-78486000D02*
X159450000Y-81081736D01*
D27*
X168675000Y-73875000D02*
X170825000Y-71725000D01*
D28*
X155651000Y-86049000D02*
X157251000Y-86049000D01*
D27*
X168675000Y-75200000D02*
X168675000Y-73875000D01*
D28*
X133300000Y-95400000D02*
X133950000Y-94750000D01*
D30*
X181137500Y-84850000D02*
X180737500Y-85250000D01*
D28*
X151325000Y-85975000D02*
X152124942Y-85975000D01*
X151150000Y-86800000D02*
X151299943Y-86800000D01*
D31*
X168806736Y-71725000D02*
X172200000Y-71725000D01*
D28*
X152924971Y-85174971D02*
X152996000Y-85103943D01*
X159600000Y-86800000D02*
X159450000Y-86650000D01*
X151750000Y-70038000D02*
X153358000Y-70038000D01*
X157251000Y-86049000D02*
X158350000Y-84950000D01*
X170825000Y-71725000D02*
X172200000Y-71725000D01*
D30*
X181137500Y-73350000D02*
X181137500Y-84850000D01*
D28*
X172750000Y-92000000D02*
X173987500Y-92000000D01*
X152996000Y-85103943D02*
X152996000Y-78486000D01*
X160250000Y-84950000D02*
X159450000Y-85750000D01*
D30*
X173700000Y-67050000D02*
X179900000Y-67050000D01*
D28*
X179987500Y-75562500D02*
X179987500Y-74500000D01*
D30*
X181201000Y-93111000D02*
X186750000Y-98660000D01*
D28*
X179987500Y-74500000D02*
X181137500Y-73350000D01*
X158350000Y-84950000D02*
X159450000Y-86050000D01*
X153358000Y-70038000D02*
X154170000Y-70850000D01*
D31*
X159450000Y-86650000D02*
X159450000Y-85750000D01*
D28*
%TO.N,/drv8302/H3_VS*%
X138400000Y-82199943D02*
X153850057Y-97650000D01*
X138400000Y-82100000D02*
X138400000Y-82199943D01*
X181250000Y-97650000D02*
X181800000Y-97100000D01*
X153850057Y-97650000D02*
X181250000Y-97650000D01*
%TO.N,USB_CONN_D-*%
X134600000Y-70050000D02*
X133400000Y-71250000D01*
X136700000Y-70050000D02*
X134600000Y-70050000D01*
X133400000Y-72950000D02*
X133600000Y-73150000D01*
X133400000Y-72750000D02*
X133400000Y-72950000D01*
X133400000Y-71250000D02*
X133400000Y-72750000D01*
D29*
%TO.N,+5V*%
X160750000Y-70260000D02*
X163660000Y-67350000D01*
D33*
X162850000Y-73850000D02*
X160300000Y-71300000D01*
D28*
X160870000Y-70630000D02*
X160300000Y-71200000D01*
X152996000Y-73914000D02*
X154864000Y-73914000D01*
D33*
X160300000Y-71300000D02*
X160300000Y-71200000D01*
D28*
X154864000Y-73914000D02*
X155600000Y-74650000D01*
X160750000Y-71150000D02*
X160750000Y-70260000D01*
%TO.N,SWCLK*%
X147950000Y-83150000D02*
X147400000Y-83700000D01*
X147950000Y-76800000D02*
X147950000Y-83150000D01*
D32*
%TO.N,+3.3V*%
X151750000Y-71562000D02*
X151000000Y-72312000D01*
D28*
X153600000Y-69350000D02*
X155516500Y-69350000D01*
D32*
X151000000Y-72312000D02*
X151000000Y-74204000D01*
D28*
X148450000Y-71474000D02*
X148500000Y-71524000D01*
D32*
X151000000Y-74204000D02*
X152996000Y-76200000D01*
D28*
X151850057Y-68200000D02*
X151951057Y-68301000D01*
D34*
X157250000Y-73850000D02*
X159600000Y-76200000D01*
D33*
X149800000Y-79396000D02*
X152996000Y-76200000D01*
D28*
X158400000Y-67550000D02*
X158950000Y-68100000D01*
X150138000Y-71524000D02*
X150150000Y-71536000D01*
X148750000Y-68200000D02*
X151850057Y-68200000D01*
D32*
X145450000Y-71474000D02*
X146950000Y-71474000D01*
D28*
X151951057Y-68301000D02*
X152448943Y-68301000D01*
X157350000Y-67550000D02*
X157316500Y-67550000D01*
X155516500Y-69350000D02*
X155516500Y-69416500D01*
D33*
X149800000Y-83500000D02*
X149800000Y-79396000D01*
D32*
X146950000Y-71474000D02*
X148450000Y-71474000D01*
D28*
X155516500Y-69416500D02*
X156122000Y-70022000D01*
D34*
X156422000Y-70022000D02*
X157250000Y-70850000D01*
D28*
X151724000Y-71536000D02*
X151750000Y-71562000D01*
D33*
X152996000Y-76200000D02*
X159600000Y-76200000D01*
D28*
X156122000Y-70022000D02*
X156422000Y-70022000D01*
X152549943Y-68200000D02*
X153600000Y-68200000D01*
D32*
X148500000Y-71524000D02*
X150138000Y-71524000D01*
D28*
X157316500Y-67550000D02*
X155516500Y-69350000D01*
X157350000Y-67550000D02*
X158400000Y-67550000D01*
D32*
X150150000Y-71536000D02*
X151724000Y-71536000D01*
D28*
X152448943Y-68301000D02*
X152549943Y-68200000D01*
X153600000Y-68200000D02*
X153600000Y-69350000D01*
D34*
X157250000Y-70850000D02*
X157250000Y-73850000D01*
D28*
%TO.N,SWDIO*%
X149200000Y-83450000D02*
X148150000Y-84500000D01*
X149200000Y-76950000D02*
X149200000Y-83450000D01*
X148150000Y-84500000D02*
X148150000Y-85150000D01*
%TO.N,/Stm32f405/SENS2*%
X140200000Y-88250000D02*
X137250000Y-85300000D01*
X137250000Y-85300000D02*
X137250000Y-82200000D01*
X140550000Y-88250000D02*
X140200000Y-88250000D01*
%TO.N,/drv8302/H2_LOW*%
X176850056Y-87050000D02*
X178050000Y-87050000D01*
X186650000Y-85310000D02*
X188100000Y-85310000D01*
X171950000Y-92600000D02*
X171950000Y-91950056D01*
D32*
X186685000Y-84035000D02*
X188135000Y-84035000D01*
D28*
X171950000Y-91950056D02*
X176850056Y-87050000D01*
X186650000Y-86580000D02*
X188100000Y-86580000D01*
%TO.N,Net-(U1-VSENSE)*%
X155500000Y-82249928D02*
X154498928Y-83251000D01*
X155500000Y-80200000D02*
X155500000Y-82249928D01*
%TO.N,/drv8302/H1_LOW*%
X176150000Y-86582900D02*
X176150000Y-75603351D01*
X170599000Y-92348943D02*
X170599000Y-91851057D01*
X187150000Y-73480000D02*
X188560000Y-73480000D01*
X170951057Y-91499000D02*
X171233900Y-91499000D01*
X170599000Y-91851057D02*
X170951057Y-91499000D01*
X176150000Y-75603351D02*
X177704897Y-74048454D01*
X170850029Y-92599971D02*
X170599000Y-92348943D01*
D35*
X187150000Y-72210000D02*
X188560000Y-72210000D01*
D28*
X188560000Y-73480000D02*
X188565000Y-73475000D01*
D35*
X188560000Y-72210000D02*
X188565000Y-72205000D01*
X188595000Y-70935000D02*
X188600000Y-70930000D01*
D28*
X170500000Y-92950000D02*
X170850029Y-92599971D01*
D35*
X187185000Y-70935000D02*
X188595000Y-70935000D01*
D28*
X171233900Y-91499000D02*
X176150000Y-86582900D01*
%TO.N,SPI1_MOSI*%
X138900000Y-97450000D02*
X142600000Y-97450000D01*
X144405966Y-95300000D02*
X144408949Y-95297017D01*
X144400000Y-95300000D02*
X144405966Y-95300000D01*
X142600000Y-97450000D02*
X144400000Y-95650000D01*
X144400000Y-95650000D02*
X144400000Y-95300000D01*
%TO.N,SPI1_SCK*%
X140048211Y-94311765D02*
X136361765Y-94311765D01*
X142900000Y-92249000D02*
X142110976Y-92249000D01*
X142110976Y-92249000D02*
X140048211Y-94311765D01*
%TO.N,USB_D-*%
X132800000Y-73199943D02*
X142799057Y-83199000D01*
X142799057Y-83199000D02*
X143049000Y-83199000D01*
X132800000Y-71800000D02*
X132800000Y-73199943D01*
X143049000Y-83199000D02*
X147000000Y-87150000D01*
%TO.N,USB_D+*%
X146900057Y-86150000D02*
X147200000Y-86150000D01*
X137700000Y-76949943D02*
X146900057Y-86150000D01*
X137700000Y-70200000D02*
X137700000Y-76949943D01*
%TO.N,UART_RX*%
X144100000Y-82500000D02*
X145550000Y-83950000D01*
X144100000Y-67550000D02*
X144100000Y-82500000D01*
%TO.N,SPI1_MISO*%
X138500057Y-96750000D02*
X137200518Y-95450461D01*
X142900000Y-96300000D02*
X142100000Y-96300000D01*
X143650000Y-95550000D02*
X142900000Y-96300000D01*
X137200518Y-95450461D02*
X137200518Y-94911765D01*
X141650000Y-96750000D02*
X138500057Y-96750000D01*
X142100000Y-96300000D02*
X141650000Y-96750000D01*
%TO.N,SPI1_CS*%
X136850000Y-93450000D02*
X140060033Y-93450000D01*
X140060033Y-93450000D02*
X141056253Y-92453780D01*
%TO.N,/Stm32f405/H3*%
X157848664Y-92798664D02*
X157150000Y-92100000D01*
X150761318Y-92100000D02*
X149550000Y-90888682D01*
X151664619Y-92100000D02*
X151462619Y-92302000D01*
X149550000Y-88050000D02*
X148400000Y-86900000D01*
X150964733Y-92302000D02*
X150762733Y-92100000D01*
X157150000Y-92100000D02*
X151664619Y-92100000D01*
X151462619Y-92302000D02*
X150964733Y-92302000D01*
X149550000Y-90888682D02*
X149550000Y-88050000D01*
X150762733Y-92100000D02*
X150761318Y-92100000D01*
X148400000Y-86900000D02*
X148250000Y-86900000D01*
X157848664Y-93202807D02*
X157848664Y-92798664D01*
%TD*%
%TA.AperFunction,Conductor*%
%TO.N,GND*%
G36*
X167526729Y-60649861D02*
G01*
X167593743Y-60669621D01*
X167639439Y-60722476D01*
X167650586Y-60773271D01*
X167673627Y-65617850D01*
X167654261Y-65684983D01*
X167601675Y-65730988D01*
X167532565Y-65741260D01*
X167484530Y-65723978D01*
X167479126Y-65720644D01*
X167479119Y-65720641D01*
X167312697Y-65665494D01*
X167312690Y-65665493D01*
X167209986Y-65655000D01*
X166990000Y-65655000D01*
X166990000Y-69044999D01*
X167209972Y-69044999D01*
X167209986Y-69044998D01*
X167312697Y-69034505D01*
X167479119Y-68979358D01*
X167479125Y-68979355D01*
X167500950Y-68965893D01*
X167568342Y-68947450D01*
X167635006Y-68968370D01*
X167679778Y-69022010D01*
X167690050Y-69070839D01*
X167765023Y-84833893D01*
X167765082Y-84846405D01*
X167760159Y-84871158D01*
X167760159Y-85028842D01*
X167766092Y-85058670D01*
X167766149Y-85070586D01*
X167794731Y-91079815D01*
X167775365Y-91146948D01*
X167758413Y-91168086D01*
X162900540Y-96025958D01*
X162900534Y-96025965D01*
X162801988Y-96173451D01*
X162734105Y-96337333D01*
X162734103Y-96337341D01*
X162699500Y-96511303D01*
X162699500Y-96688696D01*
X162734103Y-96862658D01*
X162734106Y-96862670D01*
X162740476Y-96878048D01*
X162747945Y-96947518D01*
X162716669Y-97009997D01*
X162656580Y-97045648D01*
X162625915Y-97049500D01*
X154150154Y-97049500D01*
X154083115Y-97029815D01*
X154062473Y-97013181D01*
X151480483Y-94431191D01*
X151446998Y-94369868D01*
X151451982Y-94300176D01*
X151493854Y-94244243D01*
X151559318Y-94219826D01*
X151615616Y-94228949D01*
X151652540Y-94244243D01*
X151716503Y-94270737D01*
X151864502Y-94300176D01*
X151871153Y-94301499D01*
X151871156Y-94301500D01*
X151871158Y-94301500D01*
X152028844Y-94301500D01*
X152028845Y-94301499D01*
X152183497Y-94270737D01*
X152329179Y-94210394D01*
X152460289Y-94122789D01*
X152571789Y-94011289D01*
X152659394Y-93880179D01*
X152719737Y-93734497D01*
X152750500Y-93579842D01*
X152750500Y-93427500D01*
X152770185Y-93360461D01*
X152822989Y-93314706D01*
X152874500Y-93303500D01*
X153674724Y-93303500D01*
X153741763Y-93323185D01*
X153743615Y-93324398D01*
X153870814Y-93409390D01*
X153870827Y-93409397D01*
X154016208Y-93469615D01*
X154016503Y-93469737D01*
X154171153Y-93500499D01*
X154171156Y-93500500D01*
X154171158Y-93500500D01*
X154328844Y-93500500D01*
X154328845Y-93500499D01*
X154483497Y-93469737D01*
X154629179Y-93409394D01*
X154760289Y-93321789D01*
X154871789Y-93210289D01*
X154959394Y-93079179D01*
X154962854Y-93070827D01*
X154980102Y-93029184D01*
X155019737Y-92933497D01*
X155032012Y-92871786D01*
X155046231Y-92800308D01*
X155078616Y-92738397D01*
X155139332Y-92703823D01*
X155167848Y-92700500D01*
X156849903Y-92700500D01*
X156879343Y-92709144D01*
X156909330Y-92715668D01*
X156914345Y-92719422D01*
X156916942Y-92720185D01*
X156937584Y-92736819D01*
X156960958Y-92760193D01*
X156994443Y-92821516D01*
X156989459Y-92891208D01*
X156947587Y-92947141D01*
X156920730Y-92962435D01*
X156845227Y-92993709D01*
X156845217Y-92993714D01*
X156714114Y-93081315D01*
X156714110Y-93081318D01*
X156602616Y-93192812D01*
X156602613Y-93192816D01*
X156515012Y-93323919D01*
X156515005Y-93323932D01*
X156454667Y-93469603D01*
X156454664Y-93469615D01*
X156423903Y-93624258D01*
X156423903Y-93781951D01*
X156454664Y-93936594D01*
X156454667Y-93936606D01*
X156515005Y-94082277D01*
X156515012Y-94082290D01*
X156602613Y-94213393D01*
X156602616Y-94213397D01*
X156714110Y-94324891D01*
X156714114Y-94324894D01*
X156845217Y-94412495D01*
X156845230Y-94412502D01*
X156990901Y-94472840D01*
X156990906Y-94472842D01*
X157145556Y-94503604D01*
X157145559Y-94503605D01*
X157145561Y-94503605D01*
X157303247Y-94503605D01*
X157303248Y-94503604D01*
X157457900Y-94472842D01*
X157507655Y-94452232D01*
X157600573Y-94413746D01*
X157648025Y-94404307D01*
X158010938Y-94404307D01*
X158010954Y-94404308D01*
X158018550Y-94404308D01*
X158176661Y-94404308D01*
X158176664Y-94404308D01*
X158329392Y-94363384D01*
X158396058Y-94324894D01*
X158466323Y-94284327D01*
X158578127Y-94172523D01*
X158578127Y-94172521D01*
X158588331Y-94162318D01*
X158588335Y-94162313D01*
X159309506Y-93441142D01*
X159309511Y-93441138D01*
X159319714Y-93430934D01*
X159319716Y-93430934D01*
X159431520Y-93319130D01*
X159498390Y-93203307D01*
X159510577Y-93182199D01*
X159551501Y-93029471D01*
X159551501Y-92871357D01*
X159551501Y-92863762D01*
X159551500Y-92863744D01*
X159551500Y-92571153D01*
X160049500Y-92571153D01*
X160049500Y-92728846D01*
X160080261Y-92883489D01*
X160080264Y-92883501D01*
X160140602Y-93029172D01*
X160140609Y-93029185D01*
X160228210Y-93160288D01*
X160228213Y-93160292D01*
X160339707Y-93271786D01*
X160339711Y-93271789D01*
X160470814Y-93359390D01*
X160470827Y-93359397D01*
X160616498Y-93419735D01*
X160616503Y-93419737D01*
X160724133Y-93441146D01*
X160771153Y-93450499D01*
X160771156Y-93450500D01*
X160771158Y-93450500D01*
X160928844Y-93450500D01*
X160928845Y-93450499D01*
X161083497Y-93419737D01*
X161200790Y-93371153D01*
X161229172Y-93359397D01*
X161229172Y-93359396D01*
X161229179Y-93359394D01*
X161360289Y-93271789D01*
X161471789Y-93160289D01*
X161559394Y-93029179D01*
X161567589Y-93009394D01*
X161580987Y-92977048D01*
X161624827Y-92922644D01*
X161691121Y-92900579D01*
X161695548Y-92900500D01*
X161828844Y-92900500D01*
X161828845Y-92900499D01*
X161983497Y-92869737D01*
X162129179Y-92809394D01*
X162260289Y-92721789D01*
X162371789Y-92610289D01*
X162459394Y-92479179D01*
X162462854Y-92470827D01*
X162502285Y-92375630D01*
X162519737Y-92333497D01*
X162550500Y-92178842D01*
X162550500Y-92021158D01*
X162550500Y-92021155D01*
X162550499Y-92021153D01*
X162535051Y-91943491D01*
X162519737Y-91866503D01*
X162519387Y-91865658D01*
X162459397Y-91720827D01*
X162459390Y-91720814D01*
X162371789Y-91589711D01*
X162371786Y-91589707D01*
X162260292Y-91478213D01*
X162260288Y-91478210D01*
X162129185Y-91390609D01*
X162129172Y-91390602D01*
X161983501Y-91330264D01*
X161983489Y-91330261D01*
X161828845Y-91299500D01*
X161828842Y-91299500D01*
X161671158Y-91299500D01*
X161671155Y-91299500D01*
X161516510Y-91330261D01*
X161516498Y-91330264D01*
X161370827Y-91390602D01*
X161370814Y-91390609D01*
X161239711Y-91478210D01*
X161239707Y-91478213D01*
X161128213Y-91589707D01*
X161128210Y-91589711D01*
X161040609Y-91720814D01*
X161040604Y-91720823D01*
X161019012Y-91772953D01*
X160975171Y-91827356D01*
X160908877Y-91849421D01*
X160904451Y-91849500D01*
X160771155Y-91849500D01*
X160616510Y-91880261D01*
X160616498Y-91880264D01*
X160470827Y-91940602D01*
X160470814Y-91940609D01*
X160339711Y-92028210D01*
X160339707Y-92028213D01*
X160228213Y-92139707D01*
X160228210Y-92139711D01*
X160140609Y-92270814D01*
X160140602Y-92270827D01*
X160080264Y-92416498D01*
X160080261Y-92416510D01*
X160049500Y-92571153D01*
X159551500Y-92571153D01*
X159551500Y-92040060D01*
X159551501Y-92040047D01*
X159551501Y-91871944D01*
X159547299Y-91856261D01*
X159510577Y-91719216D01*
X159510573Y-91719209D01*
X159431524Y-91582290D01*
X159431518Y-91582282D01*
X158438590Y-90589355D01*
X158438588Y-90589352D01*
X158319717Y-90470481D01*
X158319716Y-90470480D01*
X158303585Y-90461167D01*
X158239099Y-90423936D01*
X158239094Y-90423934D01*
X158232904Y-90420360D01*
X158182785Y-90391423D01*
X158133253Y-90378150D01*
X158124899Y-90374537D01*
X158104753Y-90357779D01*
X158082374Y-90344138D01*
X158078319Y-90335790D01*
X158071184Y-90329855D01*
X158063295Y-90304861D01*
X158051846Y-90281291D01*
X158050724Y-90272867D01*
X158050557Y-90271172D01*
X158050557Y-90271158D01*
X158050274Y-90269737D01*
X158021263Y-90123890D01*
X158027490Y-90054298D01*
X158039773Y-90030814D01*
X158107685Y-89929178D01*
X158168028Y-89783496D01*
X158198791Y-89628841D01*
X158198791Y-89471157D01*
X158198791Y-89471154D01*
X158198790Y-89471152D01*
X158191242Y-89433204D01*
X158168028Y-89316502D01*
X158147316Y-89266498D01*
X158107688Y-89170826D01*
X158107681Y-89170813D01*
X158018288Y-89037028D01*
X157997410Y-88970351D01*
X158015894Y-88902971D01*
X158018288Y-88899246D01*
X158020184Y-88896407D01*
X158020187Y-88896405D01*
X158107792Y-88765295D01*
X158168135Y-88619613D01*
X158198898Y-88464958D01*
X158198898Y-88307274D01*
X158198898Y-88307271D01*
X158198897Y-88307269D01*
X158174275Y-88183489D01*
X158168135Y-88152619D01*
X158162513Y-88139047D01*
X158107795Y-88006943D01*
X158107788Y-88006930D01*
X158041887Y-87908303D01*
X158021009Y-87841626D01*
X158023371Y-87815224D01*
X158050013Y-87681290D01*
X158050500Y-87678844D01*
X158050500Y-87521155D01*
X158023372Y-87384778D01*
X158029599Y-87315186D01*
X158041882Y-87291701D01*
X158107792Y-87193062D01*
X158168135Y-87047380D01*
X158198898Y-86892725D01*
X158198898Y-86735041D01*
X158198898Y-86735038D01*
X158169900Y-86589258D01*
X158169900Y-86589257D01*
X158168136Y-86580393D01*
X158168135Y-86580386D01*
X158167496Y-86578844D01*
X158164310Y-86571153D01*
X161207902Y-86571153D01*
X161207902Y-86728846D01*
X161238663Y-86883489D01*
X161238666Y-86883501D01*
X161299004Y-87029172D01*
X161299011Y-87029185D01*
X161386612Y-87160288D01*
X161386615Y-87160292D01*
X161459237Y-87232914D01*
X161492722Y-87294237D01*
X161487738Y-87363929D01*
X161459237Y-87408276D01*
X161427805Y-87439707D01*
X161427802Y-87439711D01*
X161340201Y-87570814D01*
X161340194Y-87570827D01*
X161279856Y-87716498D01*
X161279853Y-87716510D01*
X161249092Y-87871153D01*
X161249092Y-88028846D01*
X161279853Y-88183489D01*
X161279856Y-88183501D01*
X161340194Y-88329172D01*
X161340201Y-88329185D01*
X161400100Y-88418829D01*
X161420978Y-88485506D01*
X161402494Y-88552886D01*
X161400102Y-88556608D01*
X161390610Y-88570814D01*
X161390602Y-88570828D01*
X161330264Y-88716498D01*
X161330261Y-88716510D01*
X161299500Y-88871153D01*
X161299500Y-89028846D01*
X161330261Y-89183489D01*
X161330264Y-89183501D01*
X161390602Y-89329172D01*
X161390609Y-89329185D01*
X161478210Y-89460288D01*
X161478213Y-89460292D01*
X161505240Y-89487319D01*
X161538725Y-89548642D01*
X161533741Y-89618334D01*
X161505240Y-89662681D01*
X161478213Y-89689707D01*
X161478210Y-89689711D01*
X161390609Y-89820814D01*
X161390602Y-89820827D01*
X161330264Y-89966498D01*
X161330261Y-89966510D01*
X161299500Y-90121153D01*
X161299500Y-90278846D01*
X161330261Y-90433489D01*
X161330264Y-90433501D01*
X161390602Y-90579172D01*
X161390609Y-90579185D01*
X161478210Y-90710288D01*
X161478213Y-90710292D01*
X161589707Y-90821786D01*
X161589711Y-90821789D01*
X161720814Y-90909390D01*
X161720827Y-90909397D01*
X161866498Y-90969735D01*
X161866503Y-90969737D01*
X162021153Y-91000499D01*
X162021156Y-91000500D01*
X162021158Y-91000500D01*
X162178844Y-91000500D01*
X162178845Y-91000499D01*
X162333497Y-90969737D01*
X162479179Y-90909394D01*
X162610289Y-90821789D01*
X162721789Y-90710289D01*
X162809394Y-90579179D01*
X162869737Y-90433497D01*
X162900500Y-90278842D01*
X162900500Y-90121158D01*
X162900500Y-90121155D01*
X162900499Y-90121153D01*
X162888392Y-90060288D01*
X162869737Y-89966503D01*
X162833569Y-89879185D01*
X162809397Y-89820827D01*
X162809390Y-89820814D01*
X162721789Y-89689711D01*
X162721786Y-89689707D01*
X162694760Y-89662681D01*
X162661275Y-89601358D01*
X162666259Y-89531666D01*
X162682868Y-89501100D01*
X162688308Y-89493769D01*
X162721789Y-89460289D01*
X162747939Y-89421153D01*
X164449500Y-89421153D01*
X164449500Y-89578846D01*
X164480261Y-89733489D01*
X164480264Y-89733501D01*
X164540602Y-89879172D01*
X164540609Y-89879185D01*
X164628210Y-90010288D01*
X164628213Y-90010292D01*
X164739707Y-90121786D01*
X164739711Y-90121789D01*
X164870814Y-90209390D01*
X164870827Y-90209397D01*
X165016498Y-90269735D01*
X165016503Y-90269737D01*
X165171153Y-90300499D01*
X165171156Y-90300500D01*
X165171158Y-90300500D01*
X165328844Y-90300500D01*
X165328845Y-90300499D01*
X165483497Y-90269737D01*
X165629179Y-90209394D01*
X165760289Y-90121789D01*
X165871789Y-90010289D01*
X165959394Y-89879179D01*
X166019737Y-89733497D01*
X166050500Y-89578842D01*
X166050500Y-89421158D01*
X166050500Y-89421155D01*
X166050499Y-89421153D01*
X166048159Y-89409390D01*
X166019737Y-89266503D01*
X166019735Y-89266498D01*
X165959397Y-89120827D01*
X165959390Y-89120814D01*
X165871789Y-88989711D01*
X165871786Y-88989707D01*
X165760292Y-88878213D01*
X165760288Y-88878210D01*
X165629185Y-88790609D01*
X165629172Y-88790602D01*
X165483501Y-88730264D01*
X165483489Y-88730261D01*
X165328845Y-88699500D01*
X165328842Y-88699500D01*
X165171158Y-88699500D01*
X165171155Y-88699500D01*
X165016510Y-88730261D01*
X165016498Y-88730264D01*
X164870827Y-88790602D01*
X164870814Y-88790609D01*
X164739711Y-88878210D01*
X164739707Y-88878213D01*
X164628213Y-88989707D01*
X164628210Y-88989711D01*
X164540609Y-89120814D01*
X164540602Y-89120827D01*
X164480264Y-89266498D01*
X164480261Y-89266510D01*
X164449500Y-89421153D01*
X162747939Y-89421153D01*
X162809394Y-89329179D01*
X162869737Y-89183497D01*
X162900500Y-89028842D01*
X162900500Y-88871158D01*
X162900500Y-88871155D01*
X162900499Y-88871153D01*
X162887869Y-88807657D01*
X162869737Y-88716503D01*
X162833569Y-88629185D01*
X162809397Y-88570827D01*
X162809395Y-88570823D01*
X162809394Y-88570821D01*
X162749490Y-88481169D01*
X162728613Y-88414493D01*
X162747097Y-88347113D01*
X162749495Y-88343383D01*
X162758981Y-88329187D01*
X162758982Y-88329184D01*
X162758986Y-88329179D01*
X162762446Y-88320827D01*
X162816755Y-88189711D01*
X162819329Y-88183497D01*
X162850092Y-88028842D01*
X162850092Y-87871158D01*
X162850092Y-87871155D01*
X162850091Y-87871153D01*
X162844218Y-87841626D01*
X162819329Y-87716503D01*
X162819327Y-87716498D01*
X162758989Y-87570827D01*
X162758982Y-87570814D01*
X162671381Y-87439711D01*
X162671378Y-87439707D01*
X162598756Y-87367085D01*
X162565271Y-87305762D01*
X162570255Y-87236070D01*
X162598754Y-87191725D01*
X162630191Y-87160289D01*
X162717796Y-87029179D01*
X162725619Y-87010292D01*
X162741831Y-86971153D01*
X164599500Y-86971153D01*
X164599500Y-87128846D01*
X164630261Y-87283489D01*
X164630264Y-87283501D01*
X164690602Y-87429172D01*
X164690609Y-87429185D01*
X164778210Y-87560288D01*
X164778213Y-87560292D01*
X164889707Y-87671786D01*
X164889711Y-87671789D01*
X165020814Y-87759390D01*
X165020827Y-87759397D01*
X165155598Y-87815220D01*
X165166503Y-87819737D01*
X165276546Y-87841626D01*
X165321153Y-87850499D01*
X165321156Y-87850500D01*
X165321158Y-87850500D01*
X165478844Y-87850500D01*
X165478845Y-87850499D01*
X165633497Y-87819737D01*
X165779179Y-87759394D01*
X165910289Y-87671789D01*
X166021789Y-87560289D01*
X166109394Y-87429179D01*
X166169737Y-87283497D01*
X166200500Y-87128842D01*
X166200500Y-86971158D01*
X166200500Y-86971155D01*
X166200499Y-86971153D01*
X166184899Y-86892727D01*
X166169737Y-86816503D01*
X166135995Y-86735041D01*
X166109397Y-86670827D01*
X166109390Y-86670814D01*
X166021789Y-86539711D01*
X166021786Y-86539707D01*
X165910292Y-86428213D01*
X165910288Y-86428210D01*
X165779185Y-86340609D01*
X165779172Y-86340602D01*
X165633501Y-86280264D01*
X165633489Y-86280261D01*
X165478845Y-86249500D01*
X165478842Y-86249500D01*
X165321158Y-86249500D01*
X165321155Y-86249500D01*
X165166510Y-86280261D01*
X165166498Y-86280264D01*
X165020827Y-86340602D01*
X165020814Y-86340609D01*
X164889711Y-86428210D01*
X164889707Y-86428213D01*
X164778213Y-86539707D01*
X164778210Y-86539711D01*
X164690609Y-86670814D01*
X164690602Y-86670827D01*
X164630264Y-86816498D01*
X164630261Y-86816510D01*
X164599500Y-86971153D01*
X162741831Y-86971153D01*
X162764005Y-86917621D01*
X162764007Y-86917614D01*
X162778139Y-86883497D01*
X162808902Y-86728842D01*
X162808902Y-86571158D01*
X162808902Y-86571155D01*
X162808901Y-86571153D01*
X162796652Y-86509575D01*
X162778139Y-86416503D01*
X162737635Y-86318716D01*
X162717799Y-86270827D01*
X162717792Y-86270814D01*
X162631524Y-86141705D01*
X162610646Y-86075027D01*
X162629131Y-86007647D01*
X162646941Y-85985136D01*
X162721789Y-85910289D01*
X162809394Y-85779179D01*
X162869737Y-85633497D01*
X162900500Y-85478842D01*
X162900500Y-85321158D01*
X162900500Y-85321155D01*
X162900499Y-85321153D01*
X162891957Y-85278210D01*
X162869737Y-85166503D01*
X162869735Y-85166498D01*
X162809397Y-85020827D01*
X162809390Y-85020814D01*
X162721789Y-84889711D01*
X162721786Y-84889707D01*
X162610292Y-84778213D01*
X162610288Y-84778210D01*
X162479185Y-84690609D01*
X162479172Y-84690602D01*
X162333501Y-84630264D01*
X162333489Y-84630261D01*
X162178845Y-84599500D01*
X162178842Y-84599500D01*
X162021158Y-84599500D01*
X162021155Y-84599500D01*
X161866510Y-84630261D01*
X161866498Y-84630264D01*
X161720827Y-84690602D01*
X161720814Y-84690609D01*
X161589711Y-84778210D01*
X161589707Y-84778213D01*
X161478213Y-84889707D01*
X161478210Y-84889711D01*
X161390609Y-85020814D01*
X161390602Y-85020827D01*
X161330264Y-85166498D01*
X161330261Y-85166510D01*
X161299500Y-85321153D01*
X161299500Y-85478846D01*
X161330261Y-85633489D01*
X161330264Y-85633501D01*
X161390602Y-85779172D01*
X161390609Y-85779185D01*
X161476878Y-85908294D01*
X161497756Y-85974971D01*
X161479272Y-86042351D01*
X161461457Y-86064866D01*
X161386615Y-86139707D01*
X161386612Y-86139711D01*
X161299011Y-86270814D01*
X161299004Y-86270827D01*
X161238666Y-86416498D01*
X161238663Y-86416510D01*
X161207902Y-86571153D01*
X158164310Y-86571153D01*
X158107795Y-86434710D01*
X158107788Y-86434697D01*
X158020187Y-86303594D01*
X158020184Y-86303590D01*
X157908690Y-86192096D01*
X157908686Y-86192093D01*
X157777583Y-86104492D01*
X157777570Y-86104485D01*
X157631899Y-86044147D01*
X157631887Y-86044144D01*
X157477243Y-86013383D01*
X157477240Y-86013383D01*
X157319556Y-86013383D01*
X157319553Y-86013383D01*
X157164908Y-86044144D01*
X157164896Y-86044147D01*
X157019225Y-86104485D01*
X157019212Y-86104492D01*
X156888109Y-86192093D01*
X156888105Y-86192096D01*
X156776611Y-86303590D01*
X156776608Y-86303594D01*
X156689007Y-86434697D01*
X156689000Y-86434710D01*
X156628662Y-86580381D01*
X156628659Y-86580393D01*
X156597898Y-86735036D01*
X156597898Y-86892729D01*
X156625025Y-87029106D01*
X156618798Y-87098698D01*
X156606510Y-87122188D01*
X156540609Y-87220814D01*
X156540602Y-87220827D01*
X156480264Y-87366498D01*
X156480261Y-87366510D01*
X156449500Y-87521153D01*
X156449500Y-87678846D01*
X156480261Y-87833489D01*
X156480264Y-87833501D01*
X156540602Y-87979172D01*
X156540609Y-87979185D01*
X156606510Y-88077812D01*
X156627388Y-88144490D01*
X156625025Y-88170894D01*
X156597898Y-88307269D01*
X156597898Y-88464962D01*
X156628659Y-88619605D01*
X156628662Y-88619617D01*
X156689000Y-88765288D01*
X156689007Y-88765301D01*
X156778400Y-88899086D01*
X156799278Y-88965763D01*
X156780794Y-89033144D01*
X156778400Y-89036868D01*
X156688900Y-89170813D01*
X156688893Y-89170826D01*
X156628555Y-89316497D01*
X156628553Y-89316506D01*
X156605339Y-89433204D01*
X156572953Y-89495114D01*
X156512237Y-89529688D01*
X156442468Y-89525947D01*
X156396041Y-89496692D01*
X154335819Y-87436470D01*
X154302334Y-87375147D01*
X154299500Y-87348789D01*
X154299500Y-86973500D01*
X154319185Y-86906461D01*
X154371989Y-86860706D01*
X154423500Y-86849500D01*
X154578844Y-86849500D01*
X154578845Y-86849499D01*
X154733497Y-86818737D01*
X154879179Y-86758394D01*
X155010289Y-86670789D01*
X155121789Y-86559289D01*
X155209394Y-86428179D01*
X155269737Y-86282497D01*
X155300500Y-86127842D01*
X155300500Y-85970158D01*
X155300500Y-85970155D01*
X155300499Y-85970153D01*
X155282210Y-85878211D01*
X155269737Y-85815503D01*
X155254691Y-85779179D01*
X155209397Y-85669827D01*
X155209390Y-85669814D01*
X155121789Y-85538711D01*
X155121786Y-85538707D01*
X155005982Y-85422903D01*
X155006905Y-85421979D01*
X154971361Y-85369795D01*
X154969493Y-85299951D01*
X154986261Y-85262800D01*
X155006551Y-85232434D01*
X155009394Y-85228179D01*
X155069737Y-85082497D01*
X155096429Y-84948309D01*
X155128814Y-84886398D01*
X155189529Y-84851824D01*
X155218046Y-84848500D01*
X156915059Y-84848500D01*
X156982098Y-84868185D01*
X157002740Y-84884819D01*
X157089707Y-84971786D01*
X157089711Y-84971789D01*
X157220814Y-85059390D01*
X157220827Y-85059397D01*
X157317646Y-85099500D01*
X157366503Y-85119737D01*
X157455723Y-85137484D01*
X157521153Y-85150499D01*
X157521156Y-85150500D01*
X157521158Y-85150500D01*
X157678844Y-85150500D01*
X157678845Y-85150499D01*
X157833497Y-85119737D01*
X157979179Y-85059394D01*
X158110289Y-84971789D01*
X158221789Y-84860289D01*
X158309394Y-84729179D01*
X158369737Y-84583497D01*
X158400500Y-84428842D01*
X158400500Y-84271158D01*
X158400500Y-84271155D01*
X158400499Y-84271153D01*
X158392580Y-84231341D01*
X158369737Y-84116503D01*
X158369735Y-84116498D01*
X158309397Y-83970827D01*
X158309390Y-83970814D01*
X158218405Y-83834646D01*
X158220077Y-83833528D01*
X158196373Y-83777708D01*
X158208167Y-83708841D01*
X158216433Y-83694474D01*
X158259394Y-83630179D01*
X158319737Y-83484497D01*
X158350500Y-83329842D01*
X158350500Y-83172158D01*
X158350500Y-83172155D01*
X158350499Y-83172153D01*
X158345966Y-83149362D01*
X158319737Y-83017503D01*
X158283602Y-82930264D01*
X158259397Y-82871827D01*
X158259390Y-82871814D01*
X158171789Y-82740711D01*
X158171786Y-82740707D01*
X158060291Y-82629212D01*
X158060269Y-82629194D01*
X158060260Y-82629181D01*
X158055982Y-82624903D01*
X158056793Y-82624091D01*
X158020932Y-82571450D01*
X158019059Y-82501605D01*
X158035826Y-82464449D01*
X158059394Y-82429179D01*
X158119737Y-82283497D01*
X158150500Y-82128842D01*
X158150500Y-81971158D01*
X158150500Y-81971155D01*
X158150499Y-81971153D01*
X158142196Y-81929408D01*
X158138595Y-81911304D01*
X160599500Y-81911304D01*
X160599500Y-82088695D01*
X160634103Y-82262658D01*
X160634106Y-82262667D01*
X160701983Y-82426540D01*
X160701990Y-82426553D01*
X160800535Y-82574034D01*
X160800538Y-82574038D01*
X160925961Y-82699461D01*
X160925965Y-82699464D01*
X161073446Y-82798009D01*
X161073459Y-82798016D01*
X161166493Y-82836551D01*
X161237334Y-82865894D01*
X161237336Y-82865894D01*
X161237341Y-82865896D01*
X161411304Y-82900499D01*
X161411307Y-82900500D01*
X161411309Y-82900500D01*
X161588693Y-82900500D01*
X161588694Y-82900499D01*
X161646682Y-82888964D01*
X161762658Y-82865896D01*
X161762661Y-82865894D01*
X161762666Y-82865894D01*
X161926547Y-82798013D01*
X162074035Y-82699464D01*
X162199464Y-82574035D01*
X162298013Y-82426547D01*
X162365894Y-82262666D01*
X162366545Y-82259397D01*
X162400499Y-82088695D01*
X162400500Y-82088693D01*
X162400500Y-81911306D01*
X162400499Y-81911304D01*
X162365896Y-81737341D01*
X162365893Y-81737332D01*
X162298016Y-81573459D01*
X162298009Y-81573446D01*
X162199464Y-81425965D01*
X162199461Y-81425961D01*
X162074038Y-81300538D01*
X162074034Y-81300535D01*
X161926553Y-81201990D01*
X161926540Y-81201983D01*
X161762667Y-81134106D01*
X161762658Y-81134103D01*
X161588694Y-81099500D01*
X161588691Y-81099500D01*
X161411309Y-81099500D01*
X161411306Y-81099500D01*
X161237341Y-81134103D01*
X161237332Y-81134106D01*
X161073459Y-81201983D01*
X161073446Y-81201990D01*
X160925965Y-81300535D01*
X160925961Y-81300538D01*
X160800538Y-81425961D01*
X160800535Y-81425965D01*
X160701990Y-81573446D01*
X160701983Y-81573459D01*
X160634106Y-81737332D01*
X160634103Y-81737341D01*
X160599500Y-81911304D01*
X158138595Y-81911304D01*
X158120596Y-81820821D01*
X158119737Y-81816503D01*
X158106062Y-81783489D01*
X158059397Y-81670827D01*
X158059390Y-81670814D01*
X157971789Y-81539711D01*
X157971786Y-81539707D01*
X157860292Y-81428213D01*
X157860288Y-81428210D01*
X157729185Y-81340609D01*
X157729172Y-81340602D01*
X157583501Y-81280264D01*
X157583489Y-81280261D01*
X157428845Y-81249500D01*
X157428842Y-81249500D01*
X157271158Y-81249500D01*
X157271155Y-81249500D01*
X157116510Y-81280261D01*
X157116498Y-81280264D01*
X156970827Y-81340602D01*
X156970814Y-81340609D01*
X156839711Y-81428210D01*
X156839707Y-81428213D01*
X156728213Y-81539707D01*
X156728210Y-81539711D01*
X156640609Y-81670814D01*
X156640602Y-81670827D01*
X156580264Y-81816498D01*
X156580261Y-81816510D01*
X156549500Y-81971153D01*
X156549500Y-82128846D01*
X156580261Y-82283489D01*
X156580264Y-82283501D01*
X156640602Y-82429172D01*
X156640609Y-82429185D01*
X156728210Y-82560288D01*
X156728213Y-82560292D01*
X156839705Y-82671784D01*
X156839728Y-82671803D01*
X156839736Y-82671815D01*
X156844018Y-82676097D01*
X156843206Y-82676908D01*
X156879066Y-82729547D01*
X156880941Y-82799391D01*
X156864172Y-82836551D01*
X156840608Y-82871816D01*
X156840602Y-82871827D01*
X156780264Y-83017498D01*
X156780261Y-83017510D01*
X156749500Y-83172153D01*
X156749500Y-83329846D01*
X156780262Y-83484495D01*
X156781174Y-83487501D01*
X156781188Y-83489153D01*
X156781451Y-83490472D01*
X156781201Y-83490521D01*
X156781800Y-83557368D01*
X156744554Y-83616482D01*
X156681261Y-83646075D01*
X156662515Y-83647500D01*
X155386413Y-83647500D01*
X155365896Y-83641475D01*
X155344551Y-83640220D01*
X155333039Y-83631827D01*
X155319374Y-83627815D01*
X155305373Y-83611657D01*
X155288093Y-83599059D01*
X155282946Y-83585775D01*
X155273619Y-83575011D01*
X155270575Y-83553846D01*
X155262851Y-83533908D01*
X155264908Y-83514432D01*
X155263675Y-83505853D01*
X155264923Y-83498675D01*
X155266997Y-83488522D01*
X155268665Y-83484497D01*
X155299428Y-83329842D01*
X155299428Y-83329812D01*
X155299693Y-83328516D01*
X155315941Y-83297843D01*
X155331951Y-83267239D01*
X155332394Y-83266787D01*
X155332401Y-83266775D01*
X155332413Y-83266767D01*
X155333438Y-83265724D01*
X155980520Y-82618644D01*
X156059577Y-82481712D01*
X156100501Y-82328985D01*
X156100501Y-82170870D01*
X156100501Y-82163275D01*
X156100500Y-82163257D01*
X156100500Y-80779765D01*
X156120185Y-80712726D01*
X156121398Y-80710874D01*
X156209390Y-80579185D01*
X156209390Y-80579184D01*
X156209394Y-80579179D01*
X156269737Y-80433497D01*
X156300500Y-80278842D01*
X156300500Y-80121158D01*
X156300500Y-80121155D01*
X156300499Y-80121153D01*
X156269738Y-79966510D01*
X156269737Y-79966503D01*
X156269735Y-79966498D01*
X156209397Y-79820827D01*
X156209390Y-79820814D01*
X156121789Y-79689711D01*
X156121786Y-79689707D01*
X156010292Y-79578213D01*
X156010288Y-79578210D01*
X155879185Y-79490609D01*
X155879172Y-79490602D01*
X155733501Y-79430264D01*
X155733489Y-79430261D01*
X155578845Y-79399500D01*
X155578842Y-79399500D01*
X155421158Y-79399500D01*
X155421155Y-79399500D01*
X155266510Y-79430261D01*
X155266498Y-79430264D01*
X155120827Y-79490602D01*
X155120814Y-79490609D01*
X154989711Y-79578210D01*
X154989707Y-79578213D01*
X154878213Y-79689707D01*
X154878210Y-79689711D01*
X154790609Y-79820814D01*
X154790602Y-79820827D01*
X154730264Y-79966498D01*
X154730261Y-79966510D01*
X154699500Y-80121153D01*
X154699500Y-80278846D01*
X154730261Y-80433489D01*
X154730264Y-80433501D01*
X154790602Y-80579172D01*
X154790609Y-80579185D01*
X154878602Y-80710874D01*
X154899480Y-80777551D01*
X154899500Y-80779765D01*
X154899500Y-81949830D01*
X154879815Y-82016869D01*
X154863181Y-82037511D01*
X154484267Y-82416425D01*
X154422944Y-82449910D01*
X154420778Y-82450361D01*
X154265436Y-82481261D01*
X154265426Y-82481264D01*
X154119755Y-82541602D01*
X154119742Y-82541609D01*
X153988639Y-82629210D01*
X153988635Y-82629213D01*
X153877141Y-82740707D01*
X153877138Y-82740711D01*
X153789537Y-82871814D01*
X153789530Y-82871827D01*
X153729192Y-83017498D01*
X153729189Y-83017510D01*
X153698428Y-83172153D01*
X153698428Y-83329846D01*
X153729189Y-83484489D01*
X153729192Y-83484501D01*
X153773127Y-83590571D01*
X153780596Y-83660041D01*
X153749320Y-83722520D01*
X153720567Y-83745410D01*
X153682341Y-83767479D01*
X153323217Y-84126603D01*
X153323214Y-84126605D01*
X153323215Y-84126606D01*
X153218478Y-84231342D01*
X153195492Y-84271158D01*
X153178551Y-84300501D01*
X153139423Y-84368272D01*
X153098499Y-84521000D01*
X153098499Y-84521002D01*
X153098499Y-84689103D01*
X153098500Y-84689116D01*
X153098500Y-87562216D01*
X153098499Y-87562234D01*
X153098499Y-87727940D01*
X153098498Y-87727940D01*
X153098499Y-87727943D01*
X153139423Y-87880671D01*
X153139424Y-87880672D01*
X153155274Y-87908127D01*
X153155275Y-87908128D01*
X153218475Y-88017595D01*
X153218481Y-88017603D01*
X153337349Y-88136471D01*
X153337355Y-88136476D01*
X156488698Y-91287819D01*
X156522183Y-91349142D01*
X156517199Y-91418834D01*
X156475327Y-91474767D01*
X156409863Y-91499184D01*
X156401017Y-91499500D01*
X152079521Y-91499500D01*
X152012482Y-91479815D01*
X151966727Y-91427011D01*
X151964960Y-91422952D01*
X151923073Y-91321827D01*
X151923066Y-91321814D01*
X151835465Y-91190711D01*
X151835462Y-91190707D01*
X151723968Y-91079213D01*
X151723964Y-91079210D01*
X151592861Y-90991609D01*
X151592848Y-90991602D01*
X151447177Y-90931264D01*
X151447165Y-90931261D01*
X151292521Y-90900500D01*
X151292518Y-90900500D01*
X151134834Y-90900500D01*
X151134831Y-90900500D01*
X150980186Y-90931261D01*
X150980174Y-90931264D01*
X150834503Y-90991602D01*
X150834485Y-90991612D01*
X150719887Y-91068184D01*
X150653210Y-91089062D01*
X150585830Y-91070577D01*
X150563316Y-91052763D01*
X150186819Y-90676266D01*
X150153334Y-90614943D01*
X150150500Y-90588585D01*
X150150500Y-88139060D01*
X150150501Y-88139047D01*
X150150501Y-87970944D01*
X150139601Y-87930264D01*
X150109577Y-87818216D01*
X150075618Y-87759397D01*
X150030524Y-87681290D01*
X150030518Y-87681282D01*
X149575219Y-87225983D01*
X149111415Y-86762180D01*
X149077931Y-86700858D01*
X149082915Y-86631167D01*
X149124787Y-86575233D01*
X149190251Y-86550816D01*
X149199097Y-86550500D01*
X149913331Y-86550500D01*
X149913347Y-86550501D01*
X149920943Y-86550501D01*
X150079054Y-86550501D01*
X150079057Y-86550501D01*
X150231785Y-86509577D01*
X150294211Y-86473535D01*
X150368716Y-86430520D01*
X150480520Y-86318716D01*
X150480520Y-86318714D01*
X150490724Y-86308511D01*
X150490727Y-86308506D01*
X151930520Y-84868716D01*
X152009577Y-84731784D01*
X152009577Y-84731782D01*
X152013641Y-84724744D01*
X152015379Y-84725747D01*
X152033584Y-84698493D01*
X152041475Y-84690602D01*
X152071789Y-84660289D01*
X152159394Y-84529179D01*
X152219737Y-84383497D01*
X152250500Y-84228842D01*
X152250500Y-84071158D01*
X152250500Y-84071155D01*
X152250499Y-84071153D01*
X152245389Y-84045463D01*
X152219737Y-83916503D01*
X152219735Y-83916498D01*
X152159397Y-83770827D01*
X152159390Y-83770814D01*
X152071789Y-83639711D01*
X152071786Y-83639707D01*
X151960292Y-83528213D01*
X151960288Y-83528210D01*
X151829185Y-83440609D01*
X151829172Y-83440602D01*
X151683501Y-83380264D01*
X151683489Y-83380261D01*
X151528845Y-83349500D01*
X151528842Y-83349500D01*
X151371158Y-83349500D01*
X151371155Y-83349500D01*
X151216510Y-83380261D01*
X151216498Y-83380264D01*
X151070827Y-83440602D01*
X151070814Y-83440609D01*
X150939711Y-83528210D01*
X150939707Y-83528213D01*
X150828213Y-83639707D01*
X150828206Y-83639716D01*
X150827597Y-83640628D01*
X150827155Y-83640997D01*
X150824347Y-83644419D01*
X150823697Y-83643886D01*
X150773982Y-83685429D01*
X150704656Y-83694132D01*
X150641631Y-83663973D01*
X150604916Y-83604527D01*
X150600500Y-83571730D01*
X150600500Y-83421155D01*
X150600499Y-83421153D01*
X150582012Y-83328213D01*
X150569737Y-83266503D01*
X150566226Y-83258027D01*
X150509397Y-83120827D01*
X150509390Y-83120814D01*
X150496398Y-83101370D01*
X150475520Y-83034692D01*
X150475500Y-83032479D01*
X150475500Y-82090854D01*
X150495185Y-82023815D01*
X150547989Y-81978060D01*
X150617147Y-81968116D01*
X150680703Y-81997141D01*
X150702602Y-82021963D01*
X150728210Y-82060288D01*
X150728213Y-82060292D01*
X150839707Y-82171786D01*
X150839711Y-82171789D01*
X150970814Y-82259390D01*
X150970827Y-82259397D01*
X151116498Y-82319735D01*
X151116503Y-82319737D01*
X151271153Y-82350499D01*
X151271156Y-82350500D01*
X151271158Y-82350500D01*
X151428844Y-82350500D01*
X151428845Y-82350499D01*
X151583497Y-82319737D01*
X151729179Y-82259394D01*
X151860289Y-82171789D01*
X151971789Y-82060289D01*
X152059394Y-81929179D01*
X152119737Y-81783497D01*
X152150500Y-81628842D01*
X152150500Y-81471158D01*
X152150500Y-81471155D01*
X152150499Y-81471153D01*
X152119737Y-81316503D01*
X152112694Y-81299500D01*
X152059397Y-81170827D01*
X152059390Y-81170814D01*
X151971789Y-81039711D01*
X151971786Y-81039707D01*
X151860292Y-80928213D01*
X151860288Y-80928210D01*
X151729185Y-80840609D01*
X151729172Y-80840602D01*
X151583501Y-80780264D01*
X151583489Y-80780261D01*
X151428845Y-80749500D01*
X151428842Y-80749500D01*
X151271158Y-80749500D01*
X151271155Y-80749500D01*
X151116510Y-80780261D01*
X151116498Y-80780264D01*
X150970827Y-80840602D01*
X150970814Y-80840609D01*
X150839711Y-80928210D01*
X150839707Y-80928213D01*
X150728213Y-81039707D01*
X150728208Y-81039713D01*
X150702601Y-81078037D01*
X150648989Y-81122841D01*
X150579664Y-81131548D01*
X150516636Y-81101393D01*
X150479918Y-81041949D01*
X150475500Y-81009145D01*
X150475500Y-79727162D01*
X150495185Y-79660123D01*
X150511814Y-79639486D01*
X151268320Y-78882980D01*
X151329642Y-78849496D01*
X151399334Y-78854480D01*
X151455267Y-78896352D01*
X151479684Y-78961816D01*
X151480000Y-78970662D01*
X151480000Y-79041844D01*
X151486401Y-79101372D01*
X151486403Y-79101379D01*
X151536645Y-79236086D01*
X151536649Y-79236093D01*
X151622809Y-79351187D01*
X151622812Y-79351190D01*
X151737906Y-79437350D01*
X151737913Y-79437354D01*
X151872620Y-79487596D01*
X151872627Y-79487598D01*
X151932155Y-79493999D01*
X151932172Y-79494000D01*
X152746000Y-79494000D01*
X153246000Y-79494000D01*
X154059828Y-79494000D01*
X154059844Y-79493999D01*
X154119372Y-79487598D01*
X154119379Y-79487596D01*
X154254086Y-79437354D01*
X154254093Y-79437350D01*
X154369187Y-79351190D01*
X154369190Y-79351187D01*
X154455350Y-79236093D01*
X154455354Y-79236086D01*
X154505596Y-79101379D01*
X154505598Y-79101372D01*
X154511999Y-79041844D01*
X154512000Y-79041827D01*
X154512000Y-78736000D01*
X153246000Y-78736000D01*
X153246000Y-79494000D01*
X152746000Y-79494000D01*
X152746000Y-78236000D01*
X153246000Y-78236000D01*
X154512000Y-78236000D01*
X154512000Y-77930172D01*
X154511999Y-77930155D01*
X154505598Y-77870627D01*
X154505596Y-77870620D01*
X154455354Y-77735913D01*
X154455350Y-77735906D01*
X154369190Y-77620812D01*
X154369187Y-77620809D01*
X154254093Y-77534649D01*
X154254086Y-77534645D01*
X154119379Y-77484403D01*
X154119372Y-77484401D01*
X154059844Y-77478000D01*
X153246000Y-77478000D01*
X153246000Y-78236000D01*
X152746000Y-78236000D01*
X152746000Y-77456662D01*
X152754644Y-77427221D01*
X152761168Y-77397235D01*
X152764922Y-77392219D01*
X152765685Y-77389623D01*
X152782319Y-77368981D01*
X152906482Y-77244818D01*
X152967805Y-77211333D01*
X152994163Y-77208499D01*
X154059871Y-77208499D01*
X154059872Y-77208499D01*
X154119483Y-77202091D01*
X154254331Y-77151796D01*
X154369546Y-77065546D01*
X154455796Y-76950331D01*
X154455797Y-76950326D01*
X154460047Y-76942546D01*
X154462720Y-76944006D01*
X154495500Y-76900226D01*
X154560967Y-76875815D01*
X154569802Y-76875500D01*
X157959501Y-76875500D01*
X158026540Y-76895185D01*
X158072295Y-76947989D01*
X158083501Y-76999500D01*
X158083501Y-78076676D01*
X158089908Y-78136283D01*
X158140202Y-78271128D01*
X158140206Y-78271135D01*
X158226452Y-78386344D01*
X158226455Y-78386347D01*
X158341664Y-78472593D01*
X158341671Y-78472597D01*
X158476517Y-78522891D01*
X158476516Y-78522891D01*
X158483444Y-78523635D01*
X158536127Y-78529300D01*
X160663872Y-78529299D01*
X160723483Y-78522891D01*
X160858331Y-78472596D01*
X160973546Y-78386346D01*
X161059796Y-78271131D01*
X161110091Y-78136283D01*
X161116500Y-78076673D01*
X161116499Y-74323328D01*
X161110091Y-74263717D01*
X161066105Y-74145785D01*
X161059797Y-74128871D01*
X161059793Y-74128864D01*
X160973547Y-74013655D01*
X160973544Y-74013652D01*
X160858335Y-73927406D01*
X160858328Y-73927402D01*
X160723482Y-73877108D01*
X160723483Y-73877108D01*
X160663883Y-73870701D01*
X160663881Y-73870700D01*
X160663873Y-73870700D01*
X160663865Y-73870700D01*
X158736982Y-73870700D01*
X158669943Y-73851015D01*
X158649301Y-73834381D01*
X158286819Y-73471899D01*
X158253334Y-73410576D01*
X158250500Y-73384218D01*
X158250500Y-72318620D01*
X158268960Y-72253526D01*
X158354814Y-72114334D01*
X158409999Y-71947797D01*
X158420500Y-71845009D01*
X158420499Y-70449983D01*
X158999500Y-70449983D01*
X158999500Y-71850001D01*
X158999501Y-71850018D01*
X159010000Y-71952796D01*
X159010001Y-71952799D01*
X159065185Y-72119331D01*
X159065187Y-72119336D01*
X159100069Y-72175888D01*
X159157288Y-72268656D01*
X159281344Y-72392712D01*
X159430666Y-72484814D01*
X159597203Y-72539999D01*
X159699991Y-72550500D01*
X160543836Y-72550499D01*
X160610875Y-72570183D01*
X160631517Y-72586818D01*
X161914486Y-73869787D01*
X161947971Y-73931110D01*
X161948422Y-73933276D01*
X161984104Y-74112659D01*
X161984106Y-74112667D01*
X162051983Y-74276540D01*
X162051990Y-74276553D01*
X162150535Y-74424034D01*
X162150538Y-74424038D01*
X162275961Y-74549461D01*
X162275965Y-74549464D01*
X162423446Y-74648009D01*
X162423459Y-74648016D01*
X162506505Y-74682414D01*
X162587334Y-74715894D01*
X162587336Y-74715894D01*
X162587341Y-74715896D01*
X162761304Y-74750499D01*
X162761307Y-74750500D01*
X162761309Y-74750500D01*
X162938693Y-74750500D01*
X162938694Y-74750499D01*
X162996682Y-74738964D01*
X163112658Y-74715896D01*
X163112661Y-74715894D01*
X163112666Y-74715894D01*
X163276547Y-74648013D01*
X163424035Y-74549464D01*
X163549464Y-74424035D01*
X163648013Y-74276547D01*
X163715894Y-74112666D01*
X163715894Y-74112661D01*
X163715896Y-74112658D01*
X163739828Y-73992342D01*
X163750500Y-73938691D01*
X163750500Y-73761309D01*
X163750500Y-73761306D01*
X163750499Y-73761304D01*
X163715896Y-73587341D01*
X163715893Y-73587332D01*
X163648016Y-73423459D01*
X163648009Y-73423446D01*
X163549464Y-73275965D01*
X163549461Y-73275961D01*
X163424038Y-73150538D01*
X163424034Y-73150535D01*
X163276553Y-73051990D01*
X163276540Y-73051983D01*
X163112667Y-72984106D01*
X163112659Y-72984104D01*
X162933276Y-72948422D01*
X162871365Y-72916037D01*
X162869787Y-72914486D01*
X162366736Y-72411435D01*
X162333251Y-72350112D01*
X162338235Y-72280420D01*
X162348872Y-72258667D01*
X162434814Y-72119334D01*
X162489999Y-71952797D01*
X162500500Y-71850009D01*
X162500500Y-71849986D01*
X163000001Y-71849986D01*
X163010494Y-71952697D01*
X163065641Y-72119119D01*
X163065643Y-72119124D01*
X163157684Y-72268345D01*
X163281654Y-72392315D01*
X163430875Y-72484356D01*
X163430880Y-72484358D01*
X163597302Y-72539505D01*
X163597309Y-72539506D01*
X163700019Y-72549999D01*
X164499999Y-72549999D01*
X165000000Y-72549999D01*
X165799972Y-72549999D01*
X165799986Y-72549998D01*
X165902697Y-72539505D01*
X166069119Y-72484358D01*
X166069124Y-72484356D01*
X166218345Y-72392315D01*
X166342315Y-72268345D01*
X166434356Y-72119124D01*
X166434358Y-72119119D01*
X166489505Y-71952697D01*
X166489506Y-71952690D01*
X166499999Y-71849986D01*
X166500000Y-71849973D01*
X166500000Y-71400000D01*
X165000000Y-71400000D01*
X165000000Y-72549999D01*
X164499999Y-72549999D01*
X164500000Y-72549998D01*
X164500000Y-71400000D01*
X163000001Y-71400000D01*
X163000001Y-71849986D01*
X162500500Y-71849986D01*
X162500499Y-71145782D01*
X162500499Y-70450013D01*
X163000000Y-70450013D01*
X163000000Y-70900000D01*
X164500000Y-70900000D01*
X165000000Y-70900000D01*
X166499999Y-70900000D01*
X166499999Y-70450028D01*
X166499998Y-70450013D01*
X166489505Y-70347302D01*
X166434358Y-70180880D01*
X166434356Y-70180875D01*
X166342315Y-70031654D01*
X166218345Y-69907684D01*
X166069124Y-69815643D01*
X166069119Y-69815641D01*
X165902697Y-69760494D01*
X165902690Y-69760493D01*
X165799986Y-69750000D01*
X165000000Y-69750000D01*
X165000000Y-70900000D01*
X164500000Y-70900000D01*
X164500000Y-69750000D01*
X163700028Y-69750000D01*
X163700012Y-69750001D01*
X163597302Y-69760494D01*
X163430880Y-69815641D01*
X163430875Y-69815643D01*
X163281654Y-69907684D01*
X163157684Y-70031654D01*
X163065643Y-70180875D01*
X163065641Y-70180880D01*
X163010494Y-70347302D01*
X163010493Y-70347309D01*
X163000000Y-70450013D01*
X162500499Y-70450013D01*
X162500499Y-70449998D01*
X162500498Y-70449981D01*
X162489999Y-70347203D01*
X162489998Y-70347200D01*
X162470381Y-70288000D01*
X162434814Y-70180666D01*
X162342712Y-70031344D01*
X162314403Y-70003035D01*
X162280918Y-69941712D01*
X162285902Y-69872020D01*
X162314399Y-69827678D01*
X163063572Y-69078504D01*
X163124893Y-69045021D01*
X163163850Y-69042829D01*
X163189991Y-69045500D01*
X164130008Y-69045499D01*
X164130016Y-69045498D01*
X164130019Y-69045498D01*
X164186302Y-69039748D01*
X164232797Y-69034999D01*
X164399334Y-68979814D01*
X164548656Y-68887712D01*
X164672712Y-68763656D01*
X164764814Y-68614334D01*
X164819999Y-68447797D01*
X164830500Y-68345009D01*
X164830500Y-68344986D01*
X165570001Y-68344986D01*
X165580494Y-68447697D01*
X165635641Y-68614119D01*
X165635643Y-68614124D01*
X165727684Y-68763345D01*
X165851654Y-68887315D01*
X166000875Y-68979356D01*
X166000880Y-68979358D01*
X166167302Y-69034505D01*
X166167309Y-69034506D01*
X166270019Y-69044999D01*
X166489999Y-69044999D01*
X166490000Y-69044998D01*
X166490000Y-67600000D01*
X165570001Y-67600000D01*
X165570001Y-68344986D01*
X164830500Y-68344986D01*
X164830499Y-67337059D01*
X164830499Y-66355013D01*
X165570000Y-66355013D01*
X165570000Y-67100000D01*
X166490000Y-67100000D01*
X166490000Y-65655000D01*
X166270029Y-65655000D01*
X166270012Y-65655001D01*
X166167302Y-65665494D01*
X166000880Y-65720641D01*
X166000875Y-65720643D01*
X165851654Y-65812684D01*
X165727684Y-65936654D01*
X165635643Y-66085875D01*
X165635641Y-66085880D01*
X165580494Y-66252302D01*
X165580493Y-66252309D01*
X165570000Y-66355013D01*
X164830499Y-66355013D01*
X164830499Y-66354998D01*
X164830498Y-66354981D01*
X164819999Y-66252203D01*
X164819998Y-66252200D01*
X164764814Y-66085666D01*
X164672712Y-65936344D01*
X164548656Y-65812288D01*
X164399334Y-65720186D01*
X164232797Y-65665001D01*
X164232795Y-65665000D01*
X164130010Y-65654500D01*
X163189998Y-65654500D01*
X163189980Y-65654501D01*
X163087203Y-65665000D01*
X163087200Y-65665001D01*
X162920668Y-65720185D01*
X162920663Y-65720187D01*
X162771342Y-65812289D01*
X162647289Y-65936342D01*
X162555187Y-66085663D01*
X162555185Y-66085668D01*
X162555115Y-66085880D01*
X162500001Y-66252203D01*
X162500001Y-66252204D01*
X162500000Y-66252204D01*
X162489500Y-66354983D01*
X162489500Y-67337059D01*
X162469815Y-67404098D01*
X162453181Y-67424740D01*
X160164739Y-69713181D01*
X160103416Y-69746666D01*
X160077058Y-69749500D01*
X159699998Y-69749500D01*
X159699980Y-69749501D01*
X159597203Y-69760000D01*
X159597200Y-69760001D01*
X159430668Y-69815185D01*
X159430663Y-69815187D01*
X159281342Y-69907289D01*
X159157289Y-70031342D01*
X159065187Y-70180663D01*
X159065185Y-70180668D01*
X159065115Y-70180880D01*
X159010001Y-70347203D01*
X159010001Y-70347204D01*
X159010000Y-70347204D01*
X158999500Y-70449983D01*
X158420499Y-70449983D01*
X158420499Y-69854992D01*
X158417537Y-69826000D01*
X158409999Y-69752203D01*
X158409998Y-69752200D01*
X158408164Y-69746666D01*
X158354814Y-69585666D01*
X158262712Y-69436344D01*
X158138656Y-69312288D01*
X158034266Y-69247900D01*
X157989336Y-69220187D01*
X157989331Y-69220185D01*
X157987862Y-69219698D01*
X157822797Y-69165001D01*
X157822795Y-69165000D01*
X157720016Y-69154500D01*
X157720009Y-69154500D01*
X156962161Y-69154500D01*
X156912099Y-69143945D01*
X156902233Y-69139591D01*
X156895914Y-69135369D01*
X156842944Y-69113428D01*
X156841630Y-69112848D01*
X156815983Y-69091194D01*
X156789835Y-69070123D01*
X156789369Y-69068724D01*
X156788244Y-69067774D01*
X156778373Y-69035684D01*
X156767771Y-69003828D01*
X156768135Y-69002400D01*
X156767702Y-69000992D01*
X156776750Y-68968647D01*
X156785051Y-68936129D01*
X156786296Y-68934525D01*
X156786526Y-68933706D01*
X156787842Y-68932534D01*
X156804007Y-68911726D01*
X157057416Y-68658318D01*
X157118739Y-68624833D01*
X157145097Y-68621999D01*
X157715371Y-68621999D01*
X157715372Y-68621999D01*
X157774983Y-68615591D01*
X157909831Y-68565296D01*
X158025046Y-68479046D01*
X158033995Y-68467090D01*
X158089927Y-68425220D01*
X158159618Y-68420234D01*
X158220942Y-68453719D01*
X158236448Y-68474630D01*
X158237221Y-68474114D01*
X158328210Y-68610288D01*
X158328213Y-68610292D01*
X158439707Y-68721786D01*
X158439711Y-68721789D01*
X158570814Y-68809390D01*
X158570827Y-68809397D01*
X158716498Y-68869735D01*
X158716503Y-68869737D01*
X158871153Y-68900499D01*
X158871156Y-68900500D01*
X158871158Y-68900500D01*
X159028844Y-68900500D01*
X159028845Y-68900499D01*
X159183497Y-68869737D01*
X159329179Y-68809394D01*
X159460289Y-68721789D01*
X159571789Y-68610289D01*
X159659394Y-68479179D01*
X159719737Y-68333497D01*
X159750500Y-68178842D01*
X159750500Y-68021158D01*
X159750500Y-68021155D01*
X159750499Y-68021153D01*
X159732204Y-67929179D01*
X159719737Y-67866503D01*
X159719735Y-67866498D01*
X159659397Y-67720827D01*
X159659390Y-67720814D01*
X159571789Y-67589711D01*
X159571786Y-67589707D01*
X159460292Y-67478213D01*
X159460288Y-67478210D01*
X159329185Y-67390609D01*
X159329172Y-67390602D01*
X159183501Y-67330264D01*
X159183491Y-67330261D01*
X159028149Y-67299361D01*
X159011392Y-67290595D01*
X158992914Y-67286576D01*
X158967877Y-67267833D01*
X158966238Y-67266976D01*
X158964660Y-67265425D01*
X158887590Y-67188355D01*
X158887588Y-67188352D01*
X158768717Y-67069481D01*
X158768716Y-67069480D01*
X158681904Y-67019360D01*
X158681904Y-67019359D01*
X158681900Y-67019358D01*
X158631785Y-66990423D01*
X158479057Y-66949499D01*
X158320943Y-66949499D01*
X158313347Y-66949499D01*
X158313331Y-66949500D01*
X158276959Y-66949500D01*
X158209920Y-66929815D01*
X158164165Y-66877011D01*
X158160777Y-66868833D01*
X158111297Y-66736171D01*
X158111293Y-66736164D01*
X158025047Y-66620955D01*
X158025044Y-66620952D01*
X157909835Y-66534706D01*
X157909828Y-66534702D01*
X157774986Y-66484410D01*
X157774985Y-66484409D01*
X157774983Y-66484409D01*
X157715373Y-66478000D01*
X157715363Y-66478000D01*
X156984629Y-66478000D01*
X156984623Y-66478001D01*
X156925016Y-66484408D01*
X156790171Y-66534702D01*
X156790164Y-66534706D01*
X156667855Y-66626268D01*
X156667001Y-66625128D01*
X156614001Y-66654069D01*
X156544309Y-66649085D01*
X156508299Y-66625942D01*
X156507788Y-66626625D01*
X156385593Y-66535149D01*
X156385586Y-66535145D01*
X156250879Y-66484903D01*
X156250872Y-66484901D01*
X156191344Y-66478500D01*
X156076000Y-66478500D01*
X156076000Y-67426000D01*
X156056315Y-67493039D01*
X156003511Y-67538794D01*
X155952000Y-67550000D01*
X155826000Y-67550000D01*
X155826000Y-67676000D01*
X155806315Y-67743039D01*
X155753511Y-67788794D01*
X155702000Y-67800000D01*
X155008500Y-67800000D01*
X155008500Y-68169344D01*
X155014901Y-68228872D01*
X155014903Y-68228879D01*
X155065145Y-68363586D01*
X155065149Y-68363593D01*
X155151309Y-68478687D01*
X155151312Y-68478690D01*
X155214822Y-68526234D01*
X155256693Y-68582168D01*
X155261677Y-68651859D01*
X155228191Y-68713182D01*
X155166868Y-68746666D01*
X155140511Y-68749500D01*
X154324500Y-68749500D01*
X154257461Y-68729815D01*
X154211706Y-68677011D01*
X154200500Y-68625500D01*
X154200500Y-68120945D01*
X154200500Y-68120943D01*
X154159577Y-67968216D01*
X154100851Y-67866498D01*
X154080524Y-67831290D01*
X154080518Y-67831282D01*
X153968717Y-67719481D01*
X153968709Y-67719475D01*
X153831790Y-67640426D01*
X153831786Y-67640424D01*
X153831784Y-67640423D01*
X153679057Y-67599500D01*
X153679056Y-67599500D01*
X153097956Y-67599500D01*
X153030917Y-67579815D01*
X152985162Y-67527011D01*
X152976339Y-67499691D01*
X152969738Y-67466510D01*
X152969737Y-67466503D01*
X152969735Y-67466498D01*
X152909397Y-67320827D01*
X152909390Y-67320814D01*
X152821789Y-67189711D01*
X152821786Y-67189707D01*
X152710292Y-67078213D01*
X152710288Y-67078210D01*
X152638815Y-67030453D01*
X152579185Y-66990609D01*
X152579172Y-66990602D01*
X152434445Y-66930655D01*
X155008500Y-66930655D01*
X155008500Y-67300000D01*
X155576000Y-67300000D01*
X155576000Y-66478500D01*
X155460655Y-66478500D01*
X155401127Y-66484901D01*
X155401120Y-66484903D01*
X155266413Y-66535145D01*
X155266406Y-66535149D01*
X155151312Y-66621309D01*
X155151309Y-66621312D01*
X155065149Y-66736406D01*
X155065145Y-66736413D01*
X155014903Y-66871120D01*
X155014901Y-66871127D01*
X155008500Y-66930655D01*
X152434445Y-66930655D01*
X152433501Y-66930264D01*
X152433489Y-66930261D01*
X152278845Y-66899500D01*
X152278842Y-66899500D01*
X152121158Y-66899500D01*
X152121155Y-66899500D01*
X151966510Y-66930261D01*
X151966498Y-66930264D01*
X151820827Y-66990602D01*
X151820814Y-66990609D01*
X151689711Y-67078210D01*
X151689707Y-67078213D01*
X151578213Y-67189707D01*
X151578210Y-67189711D01*
X151490609Y-67320814D01*
X151490602Y-67320827D01*
X151430264Y-67466498D01*
X151430261Y-67466510D01*
X151423661Y-67499691D01*
X151391276Y-67561602D01*
X151330561Y-67596176D01*
X151302044Y-67599500D01*
X149329766Y-67599500D01*
X149262727Y-67579815D01*
X149260875Y-67578602D01*
X149129185Y-67490609D01*
X149129172Y-67490602D01*
X148983501Y-67430264D01*
X148983489Y-67430261D01*
X148828845Y-67399500D01*
X148828842Y-67399500D01*
X148671158Y-67399500D01*
X148671155Y-67399500D01*
X148516510Y-67430261D01*
X148516498Y-67430264D01*
X148370827Y-67490602D01*
X148370814Y-67490609D01*
X148239711Y-67578210D01*
X148239707Y-67578213D01*
X148128213Y-67689707D01*
X148128210Y-67689711D01*
X148040609Y-67820814D01*
X148040602Y-67820827D01*
X147980264Y-67966498D01*
X147980261Y-67966510D01*
X147949500Y-68121153D01*
X147949500Y-68278846D01*
X147980261Y-68433489D01*
X147980264Y-68433501D01*
X148040602Y-68579172D01*
X148040609Y-68579185D01*
X148128210Y-68710288D01*
X148128213Y-68710292D01*
X148239707Y-68821786D01*
X148239711Y-68821789D01*
X148370814Y-68909390D01*
X148370827Y-68909397D01*
X148513203Y-68968370D01*
X148516503Y-68969737D01*
X148616545Y-68989636D01*
X148661193Y-68998518D01*
X148723104Y-69030903D01*
X148757678Y-69091618D01*
X148753939Y-69161388D01*
X148750000Y-69167639D01*
X148750000Y-69750000D01*
X149638138Y-69750000D01*
X149679005Y-69762000D01*
X149900000Y-69762000D01*
X150400000Y-69762000D01*
X151274138Y-69762000D01*
X151341177Y-69781685D01*
X151349014Y-69788000D01*
X151500000Y-69788000D01*
X151500000Y-69220500D01*
X151130655Y-69220500D01*
X151071124Y-69226901D01*
X151071122Y-69226902D01*
X151028186Y-69242916D01*
X150958494Y-69247900D01*
X150941521Y-69242916D01*
X150828879Y-69200903D01*
X150828872Y-69200901D01*
X150769344Y-69194500D01*
X150400000Y-69194500D01*
X150400000Y-69762000D01*
X149900000Y-69762000D01*
X149900000Y-69194500D01*
X149530655Y-69194500D01*
X149471127Y-69200901D01*
X149471116Y-69200904D01*
X149384417Y-69233240D01*
X149357304Y-69235178D01*
X149330671Y-69240620D01*
X149318711Y-69237938D01*
X149314725Y-69238224D01*
X149311062Y-69236224D01*
X149297752Y-69233240D01*
X149178879Y-69188903D01*
X149178872Y-69188901D01*
X149119344Y-69182500D01*
X149093232Y-69182500D01*
X149026193Y-69162815D01*
X148980438Y-69110011D01*
X148970494Y-69040853D01*
X148999519Y-68977297D01*
X149045780Y-68943939D01*
X149129172Y-68909397D01*
X149129172Y-68909396D01*
X149129179Y-68909394D01*
X149142491Y-68900499D01*
X149260875Y-68821398D01*
X149267073Y-68819457D01*
X149271724Y-68814923D01*
X149300007Y-68809144D01*
X149327553Y-68800520D01*
X149329766Y-68800500D01*
X151581991Y-68800500D01*
X151643990Y-68817112D01*
X151719273Y-68860577D01*
X151872000Y-68901501D01*
X151872002Y-68901501D01*
X152037711Y-68901501D01*
X152037727Y-68901500D01*
X152362274Y-68901500D01*
X152362290Y-68901501D01*
X152369886Y-68901501D01*
X152527997Y-68901501D01*
X152528000Y-68901501D01*
X152680728Y-68860577D01*
X152756009Y-68817112D01*
X152771498Y-68812962D01*
X152783075Y-68805523D01*
X152818010Y-68800500D01*
X152875500Y-68800500D01*
X152942539Y-68820185D01*
X152988294Y-68872989D01*
X152999500Y-68924500D01*
X152999500Y-69422306D01*
X152979815Y-69489345D01*
X152927011Y-69535100D01*
X152857853Y-69545044D01*
X152794297Y-69516019D01*
X152766671Y-69481738D01*
X152764854Y-69478412D01*
X152678690Y-69363312D01*
X152678687Y-69363309D01*
X152563593Y-69277149D01*
X152563586Y-69277145D01*
X152428879Y-69226903D01*
X152428872Y-69226901D01*
X152369344Y-69220500D01*
X152000000Y-69220500D01*
X152000000Y-69914000D01*
X151980315Y-69981039D01*
X151927511Y-70026794D01*
X151876000Y-70038000D01*
X151750000Y-70038000D01*
X151750000Y-70164000D01*
X151730315Y-70231039D01*
X151677511Y-70276794D01*
X151626000Y-70288000D01*
X150625862Y-70288000D01*
X150558823Y-70268315D01*
X150550986Y-70262000D01*
X149011862Y-70262000D01*
X148970995Y-70250000D01*
X147399862Y-70250000D01*
X147332823Y-70230315D01*
X147312181Y-70213681D01*
X147298500Y-70200000D01*
X145574000Y-70200000D01*
X145506961Y-70180315D01*
X145461206Y-70127511D01*
X145450000Y-70076000D01*
X145450000Y-69950000D01*
X145324000Y-69950000D01*
X145256961Y-69930315D01*
X145211206Y-69877511D01*
X145200000Y-69826000D01*
X145200000Y-69700000D01*
X145700000Y-69700000D01*
X146700000Y-69700000D01*
X147200000Y-69700000D01*
X148050138Y-69700000D01*
X148117177Y-69719685D01*
X148137819Y-69736319D01*
X148151500Y-69750000D01*
X148250000Y-69750000D01*
X148250000Y-69182500D01*
X147880655Y-69182500D01*
X147813413Y-69189731D01*
X147813248Y-69188198D01*
X147752316Y-69184921D01*
X147750260Y-69184174D01*
X147628882Y-69138903D01*
X147628872Y-69138901D01*
X147569344Y-69132500D01*
X147200000Y-69132500D01*
X147200000Y-69700000D01*
X146700000Y-69700000D01*
X146700000Y-69132500D01*
X146330655Y-69132500D01*
X146271127Y-69138901D01*
X146271119Y-69138903D01*
X146243333Y-69149267D01*
X146173641Y-69154251D01*
X146156667Y-69149267D01*
X146128880Y-69138903D01*
X146128872Y-69138901D01*
X146069344Y-69132500D01*
X145700000Y-69132500D01*
X145700000Y-69700000D01*
X145200000Y-69700000D01*
X145200000Y-69132500D01*
X144827351Y-69132500D01*
X144827351Y-69131588D01*
X144763109Y-69116389D01*
X144714608Y-69066095D01*
X144700500Y-69008652D01*
X144700500Y-68129765D01*
X144720185Y-68062726D01*
X144721398Y-68060874D01*
X144747936Y-68021158D01*
X144809394Y-67929179D01*
X144869737Y-67783497D01*
X144900500Y-67628842D01*
X144900500Y-67471158D01*
X144900500Y-67471155D01*
X144900499Y-67471153D01*
X144886246Y-67399500D01*
X144869737Y-67316503D01*
X144857341Y-67286576D01*
X144809397Y-67170827D01*
X144809390Y-67170814D01*
X144721789Y-67039711D01*
X144721786Y-67039707D01*
X144610292Y-66928213D01*
X144610288Y-66928210D01*
X144479185Y-66840609D01*
X144479172Y-66840602D01*
X144333501Y-66780264D01*
X144333489Y-66780261D01*
X144178845Y-66749500D01*
X144178842Y-66749500D01*
X144021158Y-66749500D01*
X144021155Y-66749500D01*
X143866510Y-66780261D01*
X143866498Y-66780264D01*
X143720827Y-66840602D01*
X143720814Y-66840609D01*
X143589711Y-66928210D01*
X143589707Y-66928213D01*
X143478213Y-67039707D01*
X143478210Y-67039711D01*
X143390609Y-67170814D01*
X143390602Y-67170827D01*
X143330264Y-67316498D01*
X143330261Y-67316510D01*
X143299500Y-67471153D01*
X143299500Y-67628846D01*
X143330261Y-67783489D01*
X143330264Y-67783501D01*
X143390602Y-67929172D01*
X143390609Y-67929185D01*
X143478602Y-68060874D01*
X143499480Y-68127551D01*
X143499500Y-68129765D01*
X143499500Y-81600846D01*
X143479815Y-81667885D01*
X143427011Y-81713640D01*
X143357853Y-81723584D01*
X143294297Y-81694559D01*
X143287819Y-81688527D01*
X139420445Y-77821153D01*
X140849500Y-77821153D01*
X140849500Y-77978846D01*
X140880261Y-78133489D01*
X140880264Y-78133501D01*
X140940602Y-78279172D01*
X140940609Y-78279185D01*
X141028210Y-78410288D01*
X141028213Y-78410292D01*
X141139707Y-78521786D01*
X141139711Y-78521789D01*
X141270814Y-78609390D01*
X141270827Y-78609397D01*
X141416498Y-78669735D01*
X141416503Y-78669737D01*
X141571153Y-78700499D01*
X141571156Y-78700500D01*
X141571158Y-78700500D01*
X141728844Y-78700500D01*
X141728845Y-78700499D01*
X141883497Y-78669737D01*
X142029179Y-78609394D01*
X142160289Y-78521789D01*
X142271789Y-78410289D01*
X142359394Y-78279179D01*
X142419737Y-78133497D01*
X142450500Y-77978842D01*
X142450500Y-77821158D01*
X142450500Y-77821155D01*
X142450499Y-77821153D01*
X142444422Y-77790602D01*
X142419737Y-77666503D01*
X142419735Y-77666498D01*
X142359397Y-77520827D01*
X142359390Y-77520814D01*
X142271789Y-77389711D01*
X142271786Y-77389707D01*
X142160292Y-77278213D01*
X142160288Y-77278210D01*
X142029185Y-77190609D01*
X142029172Y-77190602D01*
X141883501Y-77130264D01*
X141883489Y-77130261D01*
X141728845Y-77099500D01*
X141728842Y-77099500D01*
X141571158Y-77099500D01*
X141571155Y-77099500D01*
X141416510Y-77130261D01*
X141416498Y-77130264D01*
X141270827Y-77190602D01*
X141270814Y-77190609D01*
X141139711Y-77278210D01*
X141139707Y-77278213D01*
X141028213Y-77389707D01*
X141028210Y-77389711D01*
X140940609Y-77520814D01*
X140940602Y-77520827D01*
X140880264Y-77666498D01*
X140880261Y-77666510D01*
X140849500Y-77821153D01*
X139420445Y-77821153D01*
X138336819Y-76737527D01*
X138303334Y-76676204D01*
X138300500Y-76649846D01*
X138300500Y-70779765D01*
X138320185Y-70712726D01*
X138321398Y-70710874D01*
X138357954Y-70656165D01*
X138409394Y-70579179D01*
X138469737Y-70433497D01*
X138500500Y-70278842D01*
X138500500Y-70121158D01*
X138500500Y-70121155D01*
X138500499Y-70121153D01*
X138482634Y-70031342D01*
X138469737Y-69966503D01*
X138469735Y-69966498D01*
X138409397Y-69820827D01*
X138409390Y-69820814D01*
X138321789Y-69689711D01*
X138321786Y-69689707D01*
X138210292Y-69578213D01*
X138210288Y-69578210D01*
X138079185Y-69490609D01*
X138079172Y-69490602D01*
X137933501Y-69430264D01*
X137933489Y-69430261D01*
X137778845Y-69399500D01*
X137778842Y-69399500D01*
X137621158Y-69399500D01*
X137621155Y-69399500D01*
X137466510Y-69430261D01*
X137466498Y-69430264D01*
X137363330Y-69472998D01*
X137293861Y-69480467D01*
X137231382Y-69449192D01*
X137228197Y-69446118D01*
X137210292Y-69428213D01*
X137210288Y-69428210D01*
X137079185Y-69340609D01*
X137079172Y-69340602D01*
X136933501Y-69280264D01*
X136933489Y-69280261D01*
X136778845Y-69249500D01*
X136778842Y-69249500D01*
X136621158Y-69249500D01*
X136621155Y-69249500D01*
X136466510Y-69280261D01*
X136466498Y-69280264D01*
X136320827Y-69340602D01*
X136320814Y-69340609D01*
X136189125Y-69428602D01*
X136122447Y-69449480D01*
X136120234Y-69449500D01*
X134679057Y-69449500D01*
X134520942Y-69449500D01*
X134368215Y-69490423D01*
X134368214Y-69490423D01*
X134368212Y-69490424D01*
X134368209Y-69490425D01*
X134318096Y-69519359D01*
X134318095Y-69519360D01*
X134274689Y-69544420D01*
X134231285Y-69569479D01*
X134231282Y-69569481D01*
X132919481Y-70881282D01*
X132919479Y-70881285D01*
X132887025Y-70937499D01*
X132836458Y-70985715D01*
X132779637Y-70999500D01*
X132721155Y-70999500D01*
X132566510Y-71030261D01*
X132566498Y-71030264D01*
X132420827Y-71090602D01*
X132420814Y-71090609D01*
X132289711Y-71178210D01*
X132289707Y-71178213D01*
X132178213Y-71289707D01*
X132178210Y-71289711D01*
X132090609Y-71420814D01*
X132090602Y-71420827D01*
X132030264Y-71566498D01*
X132030261Y-71566510D01*
X131999500Y-71721153D01*
X131999500Y-71878846D01*
X132030261Y-72033489D01*
X132030264Y-72033501D01*
X132090602Y-72179172D01*
X132090609Y-72179185D01*
X132178602Y-72310874D01*
X132199480Y-72377551D01*
X132199500Y-72379765D01*
X132199500Y-73113273D01*
X132199499Y-73113291D01*
X132199499Y-73278997D01*
X132199498Y-73278997D01*
X132199499Y-73279000D01*
X132240423Y-73431728D01*
X132240424Y-73431730D01*
X132240423Y-73431730D01*
X132255665Y-73458128D01*
X132255666Y-73458129D01*
X132296690Y-73529185D01*
X132319479Y-73568657D01*
X132319481Y-73568660D01*
X132438349Y-73687528D01*
X132438355Y-73687533D01*
X142021220Y-83270398D01*
X142030986Y-83288284D01*
X142044778Y-83303290D01*
X142047391Y-83318326D01*
X142054705Y-83331721D01*
X142053251Y-83352047D01*
X142056741Y-83372128D01*
X142050348Y-83392634D01*
X142049721Y-83401413D01*
X142047792Y-83406269D01*
X142043448Y-83416566D01*
X142040606Y-83420821D01*
X141983267Y-83559249D01*
X141983115Y-83559611D01*
X141961227Y-83586416D01*
X141939582Y-83613277D01*
X141939187Y-83613408D01*
X141938924Y-83613731D01*
X141906052Y-83624436D01*
X141873288Y-83635342D01*
X141872884Y-83635239D01*
X141872489Y-83635368D01*
X141839057Y-83626605D01*
X141805589Y-83618063D01*
X141805141Y-83617715D01*
X141804903Y-83617653D01*
X141804508Y-83617223D01*
X141781181Y-83599102D01*
X141760292Y-83578213D01*
X141760288Y-83578210D01*
X141629185Y-83490609D01*
X141629172Y-83490602D01*
X141483501Y-83430264D01*
X141483489Y-83430261D01*
X141328845Y-83399500D01*
X141328842Y-83399500D01*
X141171158Y-83399500D01*
X141171155Y-83399500D01*
X141016510Y-83430261D01*
X141016498Y-83430264D01*
X140870827Y-83490602D01*
X140870816Y-83490608D01*
X140757059Y-83566618D01*
X140690382Y-83587495D01*
X140623002Y-83569010D01*
X140600488Y-83551196D01*
X139236819Y-82187527D01*
X139203334Y-82126204D01*
X139200500Y-82099846D01*
X139200500Y-82021155D01*
X139200499Y-82021153D01*
X139186312Y-81949830D01*
X139169737Y-81866503D01*
X139150812Y-81820814D01*
X139109397Y-81720827D01*
X139109390Y-81720814D01*
X139021789Y-81589711D01*
X139021786Y-81589707D01*
X138910292Y-81478213D01*
X138910288Y-81478210D01*
X138779185Y-81390609D01*
X138779172Y-81390602D01*
X138633501Y-81330264D01*
X138633489Y-81330261D01*
X138478845Y-81299500D01*
X138478842Y-81299500D01*
X138321158Y-81299500D01*
X138321155Y-81299500D01*
X138166510Y-81330261D01*
X138166498Y-81330264D01*
X138020827Y-81390602D01*
X138020814Y-81390609D01*
X137889711Y-81478210D01*
X137889707Y-81478213D01*
X137849884Y-81518037D01*
X137788561Y-81551522D01*
X137718869Y-81546538D01*
X137693312Y-81533458D01*
X137629185Y-81490609D01*
X137629172Y-81490602D01*
X137483501Y-81430264D01*
X137483489Y-81430261D01*
X137328845Y-81399500D01*
X137328842Y-81399500D01*
X137171158Y-81399500D01*
X137171155Y-81399500D01*
X137016510Y-81430261D01*
X137016498Y-81430264D01*
X136870827Y-81490602D01*
X136870814Y-81490609D01*
X136739711Y-81578210D01*
X136739707Y-81578213D01*
X136628213Y-81689707D01*
X136628210Y-81689711D01*
X136540609Y-81820814D01*
X136540602Y-81820827D01*
X136480264Y-81966498D01*
X136480261Y-81966510D01*
X136449500Y-82121153D01*
X136449500Y-82278846D01*
X136480261Y-82433489D01*
X136480264Y-82433501D01*
X136540602Y-82579172D01*
X136540609Y-82579185D01*
X136628602Y-82710874D01*
X136649480Y-82777551D01*
X136649500Y-82779765D01*
X136649500Y-85213330D01*
X136649499Y-85213348D01*
X136649499Y-85379054D01*
X136649498Y-85379054D01*
X136649499Y-85379057D01*
X136690423Y-85531785D01*
X136694417Y-85538702D01*
X136694419Y-85538712D01*
X136694422Y-85538711D01*
X136769477Y-85668712D01*
X136769481Y-85668717D01*
X136888349Y-85787585D01*
X136888355Y-85787590D01*
X139451615Y-88350850D01*
X139485100Y-88412173D01*
X139480116Y-88481865D01*
X139438244Y-88537798D01*
X139411387Y-88553092D01*
X139320824Y-88590604D01*
X139320814Y-88590609D01*
X139189711Y-88678210D01*
X139189707Y-88678213D01*
X139078213Y-88789707D01*
X139078210Y-88789711D01*
X138990609Y-88920814D01*
X138990602Y-88920827D01*
X138930264Y-89066498D01*
X138930261Y-89066510D01*
X138899500Y-89221153D01*
X138899500Y-89378846D01*
X138930261Y-89533489D01*
X138930264Y-89533501D01*
X138990602Y-89679172D01*
X138990609Y-89679185D01*
X139078210Y-89810288D01*
X139078213Y-89810292D01*
X139189707Y-89921786D01*
X139189711Y-89921789D01*
X139320814Y-90009390D01*
X139320827Y-90009397D01*
X139443691Y-90060288D01*
X139466503Y-90069737D01*
X139621153Y-90100499D01*
X139621156Y-90100500D01*
X139621158Y-90100500D01*
X139778844Y-90100500D01*
X139778845Y-90100499D01*
X139933497Y-90069737D01*
X140079179Y-90009394D01*
X140210289Y-89921789D01*
X140321789Y-89810289D01*
X140409394Y-89679179D01*
X140469737Y-89533497D01*
X140500500Y-89378842D01*
X140500500Y-89221158D01*
X140496031Y-89198690D01*
X140502260Y-89129099D01*
X140545123Y-89073922D01*
X140611013Y-89050678D01*
X140617649Y-89050500D01*
X140628844Y-89050500D01*
X140628845Y-89050499D01*
X140783497Y-89019737D01*
X140908134Y-88968111D01*
X140929172Y-88959397D01*
X140929172Y-88959396D01*
X140929179Y-88959394D01*
X141060289Y-88871789D01*
X141171789Y-88760289D01*
X141259394Y-88629179D01*
X141262719Y-88621153D01*
X141300366Y-88530263D01*
X141319737Y-88483497D01*
X141350500Y-88328842D01*
X141350500Y-88171158D01*
X141350500Y-88171155D01*
X141350499Y-88171153D01*
X141332012Y-88078213D01*
X141319737Y-88016503D01*
X141315772Y-88006930D01*
X141259397Y-87870827D01*
X141259390Y-87870814D01*
X141171789Y-87739711D01*
X141171786Y-87739707D01*
X141060292Y-87628213D01*
X141060288Y-87628210D01*
X140929185Y-87540609D01*
X140929172Y-87540602D01*
X140783501Y-87480264D01*
X140783489Y-87480261D01*
X140628845Y-87449500D01*
X140628842Y-87449500D01*
X140471158Y-87449500D01*
X140471153Y-87449500D01*
X140350642Y-87473471D01*
X140281050Y-87467244D01*
X140238770Y-87439535D01*
X139708971Y-86909736D01*
X139675486Y-86848413D01*
X139680470Y-86778721D01*
X139722342Y-86722788D01*
X139787806Y-86698371D01*
X139815075Y-86700077D01*
X139815093Y-86699903D01*
X139819971Y-86700383D01*
X139820844Y-86700438D01*
X139821155Y-86700500D01*
X139821158Y-86700500D01*
X139978844Y-86700500D01*
X139978845Y-86700499D01*
X140133497Y-86669737D01*
X140279179Y-86609394D01*
X140410289Y-86521789D01*
X140521789Y-86410289D01*
X140609394Y-86279179D01*
X140612719Y-86271153D01*
X140645465Y-86192096D01*
X140669737Y-86133497D01*
X140700500Y-85978842D01*
X140700500Y-85821158D01*
X140700500Y-85821155D01*
X140700499Y-85821153D01*
X140692417Y-85780521D01*
X140669737Y-85666503D01*
X140662515Y-85649069D01*
X140655046Y-85579601D01*
X140686320Y-85517122D01*
X140746408Y-85481468D01*
X140816233Y-85483961D01*
X140864757Y-85513935D01*
X146738641Y-91387819D01*
X146772126Y-91449142D01*
X146767142Y-91518834D01*
X146725270Y-91574767D01*
X146659806Y-91599184D01*
X146650960Y-91599500D01*
X146621155Y-91599500D01*
X146466510Y-91630261D01*
X146466498Y-91630264D01*
X146320827Y-91690602D01*
X146320814Y-91690609D01*
X146189711Y-91778210D01*
X146101364Y-91866557D01*
X146040040Y-91900041D01*
X145970349Y-91895057D01*
X145914415Y-91853185D01*
X145910581Y-91847766D01*
X145871789Y-91789711D01*
X145871786Y-91789707D01*
X145760292Y-91678213D01*
X145760288Y-91678210D01*
X145629185Y-91590609D01*
X145629172Y-91590602D01*
X145483501Y-91530264D01*
X145483489Y-91530261D01*
X145328845Y-91499500D01*
X145328842Y-91499500D01*
X145171158Y-91499500D01*
X145171155Y-91499500D01*
X145016510Y-91530261D01*
X145016498Y-91530264D01*
X144865193Y-91592937D01*
X144864671Y-91591678D01*
X144803046Y-91604498D01*
X144744126Y-91584002D01*
X144679185Y-91540609D01*
X144679172Y-91540602D01*
X144533501Y-91480264D01*
X144533489Y-91480261D01*
X144378845Y-91449500D01*
X144378842Y-91449500D01*
X144221158Y-91449500D01*
X144221155Y-91449500D01*
X144066510Y-91480261D01*
X144066498Y-91480264D01*
X143920827Y-91540602D01*
X143920814Y-91540609D01*
X143789711Y-91628210D01*
X143789707Y-91628213D01*
X143688181Y-91729740D01*
X143626858Y-91763225D01*
X143557166Y-91758241D01*
X143512819Y-91729740D01*
X143410292Y-91627213D01*
X143410288Y-91627210D01*
X143279185Y-91539609D01*
X143279172Y-91539602D01*
X143133501Y-91479264D01*
X143133489Y-91479261D01*
X142978845Y-91448500D01*
X142978842Y-91448500D01*
X142821158Y-91448500D01*
X142821155Y-91448500D01*
X142666510Y-91479261D01*
X142666498Y-91479264D01*
X142520827Y-91539602D01*
X142520814Y-91539609D01*
X142389125Y-91627602D01*
X142322447Y-91648480D01*
X142320234Y-91648500D01*
X142190033Y-91648500D01*
X142031918Y-91648500D01*
X141879191Y-91689423D01*
X141879190Y-91689423D01*
X141879188Y-91689424D01*
X141879185Y-91689425D01*
X141841673Y-91711083D01*
X141841663Y-91711089D01*
X141836737Y-91713934D01*
X141742260Y-91768480D01*
X141698293Y-91812446D01*
X141689663Y-91818548D01*
X141666203Y-91826577D01*
X141644439Y-91838462D01*
X141633722Y-91837695D01*
X141623559Y-91841174D01*
X141599482Y-91835245D01*
X141574747Y-91833476D01*
X141558475Y-91825148D01*
X141555715Y-91824469D01*
X141554367Y-91823046D01*
X141549191Y-91820397D01*
X141435438Y-91744389D01*
X141435425Y-91744382D01*
X141289754Y-91684044D01*
X141289744Y-91684041D01*
X141249927Y-91676121D01*
X141188016Y-91643736D01*
X141153442Y-91583020D01*
X141157183Y-91513250D01*
X141171018Y-91485612D01*
X141174592Y-91480264D01*
X141209394Y-91428179D01*
X141269737Y-91282497D01*
X141300500Y-91127842D01*
X141300500Y-90970158D01*
X141300500Y-90970155D01*
X141300499Y-90970153D01*
X141270987Y-90821789D01*
X141269737Y-90815503D01*
X141226158Y-90710292D01*
X141209397Y-90669827D01*
X141209390Y-90669814D01*
X141121789Y-90538711D01*
X141121786Y-90538707D01*
X141010292Y-90427213D01*
X141010288Y-90427210D01*
X140879185Y-90339609D01*
X140879172Y-90339602D01*
X140733501Y-90279264D01*
X140733489Y-90279261D01*
X140578845Y-90248500D01*
X140578842Y-90248500D01*
X140421158Y-90248500D01*
X140421155Y-90248500D01*
X140266510Y-90279261D01*
X140266498Y-90279264D01*
X140120827Y-90339602D01*
X140120814Y-90339609D01*
X139989711Y-90427210D01*
X139989707Y-90427213D01*
X139878213Y-90538707D01*
X139878210Y-90538711D01*
X139790609Y-90669814D01*
X139790602Y-90669827D01*
X139730264Y-90815498D01*
X139730261Y-90815510D01*
X139699500Y-90970153D01*
X139699500Y-91127846D01*
X139730261Y-91282489D01*
X139730264Y-91282501D01*
X139790602Y-91428172D01*
X139790609Y-91428185D01*
X139878210Y-91559288D01*
X139878213Y-91559292D01*
X139989707Y-91670786D01*
X139989711Y-91670789D01*
X140120814Y-91758390D01*
X140120827Y-91758397D01*
X140244333Y-91809554D01*
X140266503Y-91818737D01*
X140306325Y-91826658D01*
X140368235Y-91859042D01*
X140402809Y-91919757D01*
X140399070Y-91989527D01*
X140385235Y-92017166D01*
X140346862Y-92074594D01*
X140346855Y-92074607D01*
X140286517Y-92220278D01*
X140286514Y-92220288D01*
X140255614Y-92375630D01*
X140223229Y-92437541D01*
X140221678Y-92439119D01*
X139847617Y-92813181D01*
X139786294Y-92846666D01*
X139759936Y-92849500D01*
X139317848Y-92849500D01*
X139250809Y-92829815D01*
X139205054Y-92777011D01*
X139196231Y-92749692D01*
X139169738Y-92616508D01*
X139169737Y-92616507D01*
X139169737Y-92616503D01*
X139150953Y-92571153D01*
X139109397Y-92470827D01*
X139109390Y-92470814D01*
X139021789Y-92339711D01*
X139021786Y-92339707D01*
X138910292Y-92228213D01*
X138910288Y-92228210D01*
X138779185Y-92140609D01*
X138779172Y-92140602D01*
X138633501Y-92080264D01*
X138633489Y-92080261D01*
X138478845Y-92049500D01*
X138478842Y-92049500D01*
X138321158Y-92049500D01*
X138321155Y-92049500D01*
X138166510Y-92080261D01*
X138166498Y-92080264D01*
X138020827Y-92140602D01*
X138020814Y-92140609D01*
X137889711Y-92228210D01*
X137889707Y-92228213D01*
X137778213Y-92339707D01*
X137778210Y-92339711D01*
X137690609Y-92470814D01*
X137690602Y-92470827D01*
X137630264Y-92616498D01*
X137630261Y-92616508D01*
X137603769Y-92749692D01*
X137589054Y-92777822D01*
X137575865Y-92806703D01*
X137572975Y-92808559D01*
X137571384Y-92811603D01*
X137543791Y-92827315D01*
X137517087Y-92844477D01*
X137512493Y-92845137D01*
X137510668Y-92846177D01*
X137482152Y-92849500D01*
X137429766Y-92849500D01*
X137362727Y-92829815D01*
X137360875Y-92828602D01*
X137229185Y-92740609D01*
X137229172Y-92740602D01*
X137083501Y-92680264D01*
X137083489Y-92680261D01*
X136928845Y-92649500D01*
X136928842Y-92649500D01*
X136771158Y-92649500D01*
X136771155Y-92649500D01*
X136616510Y-92680261D01*
X136616498Y-92680264D01*
X136470827Y-92740602D01*
X136470814Y-92740609D01*
X136339711Y-92828210D01*
X136339707Y-92828213D01*
X136228213Y-92939707D01*
X136228210Y-92939711D01*
X136140609Y-93070814D01*
X136140602Y-93070827D01*
X136080264Y-93216498D01*
X136080261Y-93216510D01*
X136049500Y-93371153D01*
X136049500Y-93492281D01*
X136029815Y-93559320D01*
X135987338Y-93598517D01*
X135987651Y-93598986D01*
X135984678Y-93600972D01*
X135983958Y-93601637D01*
X135982585Y-93602370D01*
X135851476Y-93689975D01*
X135851472Y-93689978D01*
X135739978Y-93801472D01*
X135739975Y-93801476D01*
X135652374Y-93932579D01*
X135652367Y-93932592D01*
X135592029Y-94078263D01*
X135592026Y-94078275D01*
X135561265Y-94232918D01*
X135561265Y-94390611D01*
X135592026Y-94545254D01*
X135592029Y-94545266D01*
X135652367Y-94690937D01*
X135652374Y-94690950D01*
X135739975Y-94822053D01*
X135739978Y-94822057D01*
X135851472Y-94933551D01*
X135851476Y-94933554D01*
X135982579Y-95021155D01*
X135982592Y-95021162D01*
X136084855Y-95063520D01*
X136128268Y-95081502D01*
X136282918Y-95112264D01*
X136282921Y-95112265D01*
X136282923Y-95112265D01*
X136334259Y-95112265D01*
X136401298Y-95131950D01*
X136447053Y-95184754D01*
X136448820Y-95188813D01*
X136491120Y-95290937D01*
X136491127Y-95290950D01*
X136579119Y-95422638D01*
X136599997Y-95489315D01*
X136600017Y-95491529D01*
X136600017Y-95529515D01*
X136600016Y-95529515D01*
X136624741Y-95621789D01*
X136640941Y-95682246D01*
X136658273Y-95712265D01*
X136691237Y-95769361D01*
X136719997Y-95819176D01*
X136838867Y-95938046D01*
X136838873Y-95938051D01*
X138081249Y-97180428D01*
X138114734Y-97241751D01*
X138115185Y-97292300D01*
X138099500Y-97371153D01*
X138099500Y-97528846D01*
X138130261Y-97683489D01*
X138130264Y-97683501D01*
X138190602Y-97829172D01*
X138190609Y-97829185D01*
X138278210Y-97960288D01*
X138278213Y-97960292D01*
X138389707Y-98071786D01*
X138389711Y-98071789D01*
X138520814Y-98159390D01*
X138520827Y-98159397D01*
X138641974Y-98209577D01*
X138666503Y-98219737D01*
X138821153Y-98250499D01*
X138821156Y-98250500D01*
X138821158Y-98250500D01*
X138978844Y-98250500D01*
X138978845Y-98250499D01*
X139133497Y-98219737D01*
X139279179Y-98159394D01*
X139322386Y-98130524D01*
X139410875Y-98071398D01*
X139477553Y-98050520D01*
X139479766Y-98050500D01*
X142513331Y-98050500D01*
X142513347Y-98050501D01*
X142520943Y-98050501D01*
X142679054Y-98050501D01*
X142679057Y-98050501D01*
X142831785Y-98009577D01*
X142881904Y-97980639D01*
X142968716Y-97930520D01*
X143080520Y-97818716D01*
X143080520Y-97818714D01*
X143090728Y-97808507D01*
X143090730Y-97808504D01*
X144078081Y-96821153D01*
X147699500Y-96821153D01*
X147699500Y-96978846D01*
X147730261Y-97133489D01*
X147730264Y-97133501D01*
X147790602Y-97279172D01*
X147790609Y-97279185D01*
X147878210Y-97410288D01*
X147878213Y-97410292D01*
X147989707Y-97521786D01*
X147989711Y-97521789D01*
X148120814Y-97609390D01*
X148120827Y-97609397D01*
X148266498Y-97669735D01*
X148266503Y-97669737D01*
X148421153Y-97700499D01*
X148421156Y-97700500D01*
X148421158Y-97700500D01*
X148578844Y-97700500D01*
X148578845Y-97700499D01*
X148733497Y-97669737D01*
X148874727Y-97611237D01*
X148944196Y-97603769D01*
X148991070Y-97622697D01*
X149120814Y-97709390D01*
X149120827Y-97709397D01*
X149266498Y-97769735D01*
X149266503Y-97769737D01*
X149421153Y-97800499D01*
X149421156Y-97800500D01*
X149421158Y-97800500D01*
X149578844Y-97800500D01*
X149578845Y-97800499D01*
X149733497Y-97769737D01*
X149879179Y-97709394D01*
X150010289Y-97621789D01*
X150121789Y-97510289D01*
X150209394Y-97379179D01*
X150212719Y-97371153D01*
X150249943Y-97281284D01*
X150269737Y-97233497D01*
X150300500Y-97078842D01*
X150300500Y-96921158D01*
X150300500Y-96921155D01*
X150300499Y-96921153D01*
X150288865Y-96862666D01*
X150269737Y-96766503D01*
X150228314Y-96666498D01*
X150209397Y-96620827D01*
X150209390Y-96620814D01*
X150121789Y-96489711D01*
X150121786Y-96489707D01*
X150010292Y-96378213D01*
X150010288Y-96378210D01*
X149879185Y-96290609D01*
X149879172Y-96290602D01*
X149733501Y-96230264D01*
X149733489Y-96230261D01*
X149578845Y-96199500D01*
X149578842Y-96199500D01*
X149421158Y-96199500D01*
X149421155Y-96199500D01*
X149266510Y-96230261D01*
X149266498Y-96230264D01*
X149125273Y-96288761D01*
X149055804Y-96296230D01*
X149008930Y-96277302D01*
X148879185Y-96190609D01*
X148879172Y-96190602D01*
X148733501Y-96130264D01*
X148733489Y-96130261D01*
X148578845Y-96099500D01*
X148578842Y-96099500D01*
X148421158Y-96099500D01*
X148421155Y-96099500D01*
X148266510Y-96130261D01*
X148266498Y-96130264D01*
X148120827Y-96190602D01*
X148120814Y-96190609D01*
X147989711Y-96278210D01*
X147989707Y-96278213D01*
X147878213Y-96389707D01*
X147878210Y-96389711D01*
X147790609Y-96520814D01*
X147790602Y-96520827D01*
X147730264Y-96666498D01*
X147730261Y-96666510D01*
X147699500Y-96821153D01*
X144078081Y-96821153D01*
X144758506Y-96140728D01*
X144758511Y-96140724D01*
X144768714Y-96130520D01*
X144768716Y-96130520D01*
X144880520Y-96018716D01*
X144955949Y-95888067D01*
X144975648Y-95862395D01*
X145030738Y-95807306D01*
X145118343Y-95676196D01*
X145120292Y-95671490D01*
X145164127Y-95617086D01*
X145230419Y-95595016D01*
X145298120Y-95612290D01*
X145337957Y-95650046D01*
X145378210Y-95710288D01*
X145378213Y-95710292D01*
X145489707Y-95821786D01*
X145489711Y-95821789D01*
X145620814Y-95909390D01*
X145620827Y-95909397D01*
X145766498Y-95969735D01*
X145766503Y-95969737D01*
X145921153Y-96000499D01*
X145921156Y-96000500D01*
X145921158Y-96000500D01*
X146078844Y-96000500D01*
X146078845Y-96000499D01*
X146233497Y-95969737D01*
X146379179Y-95909394D01*
X146510289Y-95821789D01*
X146621789Y-95710289D01*
X146709394Y-95579179D01*
X146769737Y-95433497D01*
X146800500Y-95278842D01*
X146800500Y-95121158D01*
X146800500Y-95121155D01*
X146800499Y-95121153D01*
X146792611Y-95081500D01*
X146769737Y-94966503D01*
X146769735Y-94966498D01*
X146709397Y-94820827D01*
X146709390Y-94820814D01*
X146621789Y-94689711D01*
X146621786Y-94689707D01*
X146510292Y-94578213D01*
X146510288Y-94578210D01*
X146379185Y-94490609D01*
X146379172Y-94490602D01*
X146233501Y-94430264D01*
X146233489Y-94430261D01*
X146078845Y-94399500D01*
X146078842Y-94399500D01*
X145921158Y-94399500D01*
X145921155Y-94399500D01*
X145766510Y-94430261D01*
X145766498Y-94430264D01*
X145620827Y-94490602D01*
X145620814Y-94490609D01*
X145489711Y-94578210D01*
X145489707Y-94578213D01*
X145378213Y-94689707D01*
X145378210Y-94689711D01*
X145290609Y-94820814D01*
X145290601Y-94820828D01*
X145288652Y-94825536D01*
X145244809Y-94879938D01*
X145178514Y-94902000D01*
X145110816Y-94884718D01*
X145070991Y-94846970D01*
X145030738Y-94786728D01*
X145030735Y-94786724D01*
X144919241Y-94675230D01*
X144919237Y-94675227D01*
X144788134Y-94587626D01*
X144788121Y-94587619D01*
X144642450Y-94527281D01*
X144642438Y-94527278D01*
X144487794Y-94496517D01*
X144487791Y-94496517D01*
X144330107Y-94496517D01*
X144330104Y-94496517D01*
X144175459Y-94527278D01*
X144175447Y-94527281D01*
X144029776Y-94587619D01*
X144029763Y-94587626D01*
X143898663Y-94675225D01*
X143898657Y-94675229D01*
X143855399Y-94718487D01*
X143794076Y-94751971D01*
X143743527Y-94752421D01*
X143728843Y-94749500D01*
X143728842Y-94749500D01*
X143571158Y-94749500D01*
X143571155Y-94749500D01*
X143416510Y-94780261D01*
X143416498Y-94780264D01*
X143270827Y-94840602D01*
X143270814Y-94840609D01*
X143139711Y-94928210D01*
X143139707Y-94928213D01*
X143028213Y-95039707D01*
X143028210Y-95039711D01*
X142940609Y-95170814D01*
X142940602Y-95170827D01*
X142880264Y-95316498D01*
X142880261Y-95316508D01*
X142849361Y-95471850D01*
X142840595Y-95488607D01*
X142836576Y-95507084D01*
X142817831Y-95532125D01*
X142816976Y-95533761D01*
X142815426Y-95535339D01*
X142687582Y-95663182D01*
X142626262Y-95696666D01*
X142599903Y-95699500D01*
X142179057Y-95699500D01*
X142020943Y-95699500D01*
X141868215Y-95740423D01*
X141868214Y-95740423D01*
X141868212Y-95740424D01*
X141868209Y-95740425D01*
X141818096Y-95769359D01*
X141818095Y-95769360D01*
X141774689Y-95794420D01*
X141731285Y-95819479D01*
X141731282Y-95819481D01*
X141673512Y-95877252D01*
X141619480Y-95931284D01*
X141619478Y-95931286D01*
X141524800Y-96025965D01*
X141437584Y-96113181D01*
X141376261Y-96146666D01*
X141349903Y-96149500D01*
X138800155Y-96149500D01*
X138733116Y-96129815D01*
X138712474Y-96113181D01*
X137962735Y-95363443D01*
X137956550Y-95352116D01*
X137946718Y-95343753D01*
X137940124Y-95322035D01*
X137929250Y-95302120D01*
X137929699Y-95287693D01*
X137926421Y-95276896D01*
X137930725Y-95254728D01*
X137931124Y-95241917D01*
X137933090Y-95234985D01*
X137970255Y-95145262D01*
X137997716Y-95007204D01*
X137999074Y-95002420D01*
X138015149Y-94976895D01*
X138029134Y-94950162D01*
X138033583Y-94947628D01*
X138036310Y-94943299D01*
X138063626Y-94930520D01*
X138089850Y-94915588D01*
X138097438Y-94914703D01*
X138099597Y-94913694D01*
X138102617Y-94914100D01*
X138118366Y-94912265D01*
X139325500Y-94912265D01*
X139392539Y-94931950D01*
X139438294Y-94984754D01*
X139449500Y-95036265D01*
X139449500Y-95078846D01*
X139480261Y-95233489D01*
X139480264Y-95233501D01*
X139540602Y-95379172D01*
X139540609Y-95379185D01*
X139628210Y-95510288D01*
X139628213Y-95510292D01*
X139739707Y-95621786D01*
X139739711Y-95621789D01*
X139870814Y-95709390D01*
X139870827Y-95709397D01*
X140015590Y-95769359D01*
X140016503Y-95769737D01*
X140171153Y-95800499D01*
X140171156Y-95800500D01*
X140171158Y-95800500D01*
X140328844Y-95800500D01*
X140328845Y-95800499D01*
X140483497Y-95769737D01*
X140629179Y-95709394D01*
X140760289Y-95621789D01*
X140871789Y-95510289D01*
X140959394Y-95379179D01*
X141019737Y-95233497D01*
X141050500Y-95078842D01*
X141050500Y-94921158D01*
X141050500Y-94921155D01*
X141050499Y-94921153D01*
X141046689Y-94902000D01*
X141019737Y-94766503D01*
X140987929Y-94689711D01*
X140959397Y-94620827D01*
X140959390Y-94620814D01*
X140868405Y-94484646D01*
X140870362Y-94483338D01*
X140847128Y-94428634D01*
X140858918Y-94359766D01*
X140882610Y-94326599D01*
X142287010Y-92922200D01*
X142348329Y-92888718D01*
X142418021Y-92893702D01*
X142443578Y-92906782D01*
X142520814Y-92958390D01*
X142520827Y-92958397D01*
X142643954Y-93009397D01*
X142666503Y-93018737D01*
X142821153Y-93049499D01*
X142821156Y-93049500D01*
X142821158Y-93049500D01*
X142978844Y-93049500D01*
X142978845Y-93049499D01*
X143133497Y-93018737D01*
X143276765Y-92959394D01*
X143279172Y-92958397D01*
X143279172Y-92958396D01*
X143279179Y-92958394D01*
X143410289Y-92870789D01*
X143459562Y-92821516D01*
X143511819Y-92769260D01*
X143573142Y-92735775D01*
X143642834Y-92740759D01*
X143687181Y-92769260D01*
X143789707Y-92871786D01*
X143789711Y-92871789D01*
X143920814Y-92959390D01*
X143920827Y-92959397D01*
X144064084Y-93018735D01*
X144066503Y-93019737D01*
X144216126Y-93049499D01*
X144221153Y-93050499D01*
X144221156Y-93050500D01*
X144221158Y-93050500D01*
X144378844Y-93050500D01*
X144378845Y-93050499D01*
X144533497Y-93019737D01*
X144596335Y-92993709D01*
X144684808Y-92957063D01*
X144685332Y-92958329D01*
X144746910Y-92945497D01*
X144805871Y-92965996D01*
X144870821Y-93009394D01*
X144870823Y-93009395D01*
X144870827Y-93009397D01*
X144970060Y-93050500D01*
X145016503Y-93069737D01*
X145171153Y-93100499D01*
X145171156Y-93100500D01*
X145171158Y-93100500D01*
X145328844Y-93100500D01*
X145328845Y-93100499D01*
X145483497Y-93069737D01*
X145629179Y-93009394D01*
X145760289Y-92921789D01*
X145848636Y-92833441D01*
X145909957Y-92799958D01*
X145979649Y-92804942D01*
X146035583Y-92846813D01*
X146039418Y-92852232D01*
X146078213Y-92910292D01*
X146189707Y-93021786D01*
X146189711Y-93021789D01*
X146320814Y-93109390D01*
X146320827Y-93109397D01*
X146466498Y-93169735D01*
X146466503Y-93169737D01*
X146621153Y-93200499D01*
X146621156Y-93200500D01*
X146621158Y-93200500D01*
X146778844Y-93200500D01*
X146778845Y-93200499D01*
X146933497Y-93169737D01*
X147079179Y-93109394D01*
X147210289Y-93021789D01*
X147321789Y-92910289D01*
X147409394Y-92779179D01*
X147469737Y-92633497D01*
X147500500Y-92478842D01*
X147500500Y-92449040D01*
X147520185Y-92382001D01*
X147572989Y-92336246D01*
X147642147Y-92326302D01*
X147705703Y-92355327D01*
X147712181Y-92361359D01*
X150271908Y-94921086D01*
X150305393Y-94982409D01*
X150300409Y-95052101D01*
X150280086Y-95087424D01*
X150278216Y-95089702D01*
X150190609Y-95220814D01*
X150190602Y-95220827D01*
X150130264Y-95366498D01*
X150130261Y-95366510D01*
X150099500Y-95521153D01*
X150099500Y-95678846D01*
X150130261Y-95833489D01*
X150130264Y-95833501D01*
X150190602Y-95979172D01*
X150190609Y-95979185D01*
X150278210Y-96110288D01*
X150278213Y-96110292D01*
X150389707Y-96221786D01*
X150389711Y-96221789D01*
X150520814Y-96309390D01*
X150520827Y-96309397D01*
X150666498Y-96369735D01*
X150666503Y-96369737D01*
X150821153Y-96400499D01*
X150821156Y-96400500D01*
X150821158Y-96400500D01*
X150978844Y-96400500D01*
X150978845Y-96400499D01*
X151133497Y-96369737D01*
X151279179Y-96309394D01*
X151410289Y-96221789D01*
X151410292Y-96221785D01*
X151412560Y-96219925D01*
X151413985Y-96219319D01*
X151415354Y-96218405D01*
X151415527Y-96218664D01*
X151476868Y-96192607D01*
X151545736Y-96204393D01*
X151578913Y-96228091D01*
X153365196Y-98014374D01*
X153365206Y-98014385D01*
X153369536Y-98018715D01*
X153369537Y-98018716D01*
X153481341Y-98130520D01*
X153481343Y-98130521D01*
X153481347Y-98130524D01*
X153531350Y-98159393D01*
X153531355Y-98159395D01*
X153618266Y-98209574D01*
X153618267Y-98209574D01*
X153618272Y-98209577D01*
X153771000Y-98250500D01*
X153771002Y-98250500D01*
X167705425Y-98250500D01*
X167772464Y-98270185D01*
X167818219Y-98322989D01*
X167829424Y-98373910D01*
X167847740Y-102224910D01*
X167828374Y-102292043D01*
X167775788Y-102338048D01*
X167723741Y-102349500D01*
X123674500Y-102349500D01*
X123607461Y-102329815D01*
X123561706Y-102277011D01*
X123550500Y-102225500D01*
X123550500Y-100493713D01*
X123949500Y-100493713D01*
X123949500Y-100706286D01*
X123982753Y-100916239D01*
X124048444Y-101118414D01*
X124144951Y-101307820D01*
X124269890Y-101479786D01*
X124420213Y-101630109D01*
X124592179Y-101755048D01*
X124592181Y-101755049D01*
X124592184Y-101755051D01*
X124781588Y-101851557D01*
X124983757Y-101917246D01*
X125193713Y-101950500D01*
X125193714Y-101950500D01*
X125406286Y-101950500D01*
X125406287Y-101950500D01*
X125616243Y-101917246D01*
X125818412Y-101851557D01*
X126007816Y-101755051D01*
X126029789Y-101739086D01*
X126179786Y-101630109D01*
X126179788Y-101630106D01*
X126179792Y-101630104D01*
X126330104Y-101479792D01*
X126330106Y-101479788D01*
X126330109Y-101479786D01*
X126455048Y-101307820D01*
X126455047Y-101307820D01*
X126455051Y-101307816D01*
X126551557Y-101118412D01*
X126617246Y-100916243D01*
X126650500Y-100706287D01*
X126650500Y-100493713D01*
X126617246Y-100283757D01*
X126551557Y-100081588D01*
X126455051Y-99892184D01*
X126455049Y-99892181D01*
X126455048Y-99892179D01*
X126330109Y-99720213D01*
X126179786Y-99569890D01*
X126007820Y-99444951D01*
X125818414Y-99348444D01*
X125818413Y-99348443D01*
X125818412Y-99348443D01*
X125616243Y-99282754D01*
X125616241Y-99282753D01*
X125616240Y-99282753D01*
X125454957Y-99257208D01*
X125406287Y-99249500D01*
X125193713Y-99249500D01*
X125145042Y-99257208D01*
X124983760Y-99282753D01*
X124781585Y-99348444D01*
X124592179Y-99444951D01*
X124420213Y-99569890D01*
X124269890Y-99720213D01*
X124144951Y-99892179D01*
X124048444Y-100081585D01*
X123982753Y-100283760D01*
X123949500Y-100493713D01*
X123550500Y-100493713D01*
X123550500Y-88621153D01*
X135899500Y-88621153D01*
X135899500Y-88778846D01*
X135930261Y-88933489D01*
X135930264Y-88933501D01*
X135990602Y-89079172D01*
X135990609Y-89079185D01*
X136078210Y-89210288D01*
X136078213Y-89210292D01*
X136189707Y-89321786D01*
X136189711Y-89321789D01*
X136320814Y-89409390D01*
X136320827Y-89409397D01*
X136462580Y-89468112D01*
X136466503Y-89469737D01*
X136594081Y-89495114D01*
X136621153Y-89500499D01*
X136621156Y-89500500D01*
X136621158Y-89500500D01*
X136778844Y-89500500D01*
X136778845Y-89500499D01*
X136933497Y-89469737D01*
X137079179Y-89409394D01*
X137210289Y-89321789D01*
X137321789Y-89210289D01*
X137409394Y-89079179D01*
X137469737Y-88933497D01*
X137500500Y-88778842D01*
X137500500Y-88621158D01*
X137500500Y-88621155D01*
X137500499Y-88621153D01*
X137486920Y-88552886D01*
X137469737Y-88466503D01*
X137467163Y-88460289D01*
X137409397Y-88320827D01*
X137409390Y-88320814D01*
X137321789Y-88189711D01*
X137321786Y-88189707D01*
X137210292Y-88078213D01*
X137210288Y-88078210D01*
X137079185Y-87990609D01*
X137079172Y-87990602D01*
X136933501Y-87930264D01*
X136933489Y-87930261D01*
X136778845Y-87899500D01*
X136778842Y-87899500D01*
X136621158Y-87899500D01*
X136621155Y-87899500D01*
X136466510Y-87930261D01*
X136466498Y-87930264D01*
X136320827Y-87990602D01*
X136320814Y-87990609D01*
X136189711Y-88078210D01*
X136189707Y-88078213D01*
X136078213Y-88189707D01*
X136078210Y-88189711D01*
X135990609Y-88320814D01*
X135990602Y-88320827D01*
X135930264Y-88466498D01*
X135930261Y-88466510D01*
X135899500Y-88621153D01*
X123550500Y-88621153D01*
X123550500Y-85221153D01*
X130049500Y-85221153D01*
X130049500Y-85378846D01*
X130080261Y-85533489D01*
X130080264Y-85533501D01*
X130140602Y-85679172D01*
X130140609Y-85679185D01*
X130228210Y-85810288D01*
X130228213Y-85810292D01*
X130318037Y-85900116D01*
X130351522Y-85961439D01*
X130346538Y-86031131D01*
X130333458Y-86056688D01*
X130290609Y-86120814D01*
X130290602Y-86120827D01*
X130230264Y-86266498D01*
X130230261Y-86266510D01*
X130199500Y-86421153D01*
X130199500Y-86578846D01*
X130230261Y-86733489D01*
X130230264Y-86733501D01*
X130290602Y-86879172D01*
X130290609Y-86879185D01*
X130378210Y-87010288D01*
X130378213Y-87010292D01*
X130489707Y-87121786D01*
X130489711Y-87121789D01*
X130620814Y-87209390D01*
X130620827Y-87209397D01*
X130766498Y-87269735D01*
X130766503Y-87269737D01*
X130849459Y-87286238D01*
X130921153Y-87300499D01*
X130921156Y-87300500D01*
X130921158Y-87300500D01*
X131078844Y-87300500D01*
X131078845Y-87300499D01*
X131233497Y-87269737D01*
X131351592Y-87220821D01*
X131379172Y-87209397D01*
X131379172Y-87209396D01*
X131379179Y-87209394D01*
X131510289Y-87121789D01*
X131621789Y-87010289D01*
X131709394Y-86879179D01*
X131769737Y-86733497D01*
X131800500Y-86578842D01*
X131800500Y-86421158D01*
X131800500Y-86421155D01*
X131800499Y-86421153D01*
X131798338Y-86410288D01*
X131769737Y-86266503D01*
X131738916Y-86192093D01*
X131709397Y-86120827D01*
X131709390Y-86120814D01*
X131621789Y-85989711D01*
X131621786Y-85989707D01*
X131531962Y-85899883D01*
X131498477Y-85838560D01*
X131503461Y-85768868D01*
X131516536Y-85743319D01*
X131559394Y-85679179D01*
X131563728Y-85668717D01*
X131619735Y-85533501D01*
X131619737Y-85533497D01*
X131650500Y-85378842D01*
X131650500Y-85221158D01*
X131650500Y-85221155D01*
X131650499Y-85221153D01*
X131630326Y-85119737D01*
X131619737Y-85066503D01*
X131613425Y-85051265D01*
X131559397Y-84920827D01*
X131559390Y-84920814D01*
X131471789Y-84789711D01*
X131471786Y-84789707D01*
X131360292Y-84678213D01*
X131360288Y-84678210D01*
X131229185Y-84590609D01*
X131229172Y-84590602D01*
X131083501Y-84530264D01*
X131083489Y-84530261D01*
X130928845Y-84499500D01*
X130928842Y-84499500D01*
X130771158Y-84499500D01*
X130771155Y-84499500D01*
X130616510Y-84530261D01*
X130616498Y-84530264D01*
X130470827Y-84590602D01*
X130470814Y-84590609D01*
X130339711Y-84678210D01*
X130339707Y-84678213D01*
X130228213Y-84789707D01*
X130228210Y-84789711D01*
X130140609Y-84920814D01*
X130140602Y-84920827D01*
X130080264Y-85066498D01*
X130080261Y-85066510D01*
X130049500Y-85221153D01*
X123550500Y-85221153D01*
X123550500Y-81121153D01*
X132149500Y-81121153D01*
X132149500Y-81278846D01*
X132180261Y-81433489D01*
X132180264Y-81433501D01*
X132240602Y-81579172D01*
X132240609Y-81579185D01*
X132328210Y-81710288D01*
X132328213Y-81710292D01*
X132439707Y-81821786D01*
X132439711Y-81821789D01*
X132570814Y-81909390D01*
X132570827Y-81909397D01*
X132716498Y-81969735D01*
X132716503Y-81969737D01*
X132871153Y-82000499D01*
X132871156Y-82000500D01*
X132871158Y-82000500D01*
X133028844Y-82000500D01*
X133028845Y-82000499D01*
X133183497Y-81969737D01*
X133329179Y-81909394D01*
X133460289Y-81821789D01*
X133571789Y-81710289D01*
X133659394Y-81579179D01*
X133719737Y-81433497D01*
X133750500Y-81278842D01*
X133750500Y-81121158D01*
X133750500Y-81121155D01*
X133750499Y-81121153D01*
X133719738Y-80966510D01*
X133719737Y-80966503D01*
X133703876Y-80928210D01*
X133659397Y-80820827D01*
X133659390Y-80820814D01*
X133571789Y-80689711D01*
X133571786Y-80689707D01*
X133460292Y-80578213D01*
X133460288Y-80578210D01*
X133329185Y-80490609D01*
X133329172Y-80490602D01*
X133183501Y-80430264D01*
X133183489Y-80430261D01*
X133028845Y-80399500D01*
X133028842Y-80399500D01*
X132871158Y-80399500D01*
X132871155Y-80399500D01*
X132716510Y-80430261D01*
X132716498Y-80430264D01*
X132570827Y-80490602D01*
X132570814Y-80490609D01*
X132439711Y-80578210D01*
X132439707Y-80578213D01*
X132328213Y-80689707D01*
X132328210Y-80689711D01*
X132240609Y-80820814D01*
X132240602Y-80820827D01*
X132180264Y-80966498D01*
X132180261Y-80966510D01*
X132149500Y-81121153D01*
X123550500Y-81121153D01*
X123550500Y-78421153D01*
X132449500Y-78421153D01*
X132449500Y-78578846D01*
X132480261Y-78733489D01*
X132480264Y-78733501D01*
X132540602Y-78879172D01*
X132540609Y-78879185D01*
X132628210Y-79010288D01*
X132628213Y-79010292D01*
X132739707Y-79121786D01*
X132739711Y-79121789D01*
X132870814Y-79209390D01*
X132870827Y-79209397D01*
X133016498Y-79269735D01*
X133016503Y-79269737D01*
X133171153Y-79300499D01*
X133171156Y-79300500D01*
X133171158Y-79300500D01*
X133328844Y-79300500D01*
X133328845Y-79300499D01*
X133483497Y-79269737D01*
X133629179Y-79209394D01*
X133760289Y-79121789D01*
X133871789Y-79010289D01*
X133959394Y-78879179D01*
X134019737Y-78733497D01*
X134050500Y-78578842D01*
X134050500Y-78421158D01*
X134050500Y-78421155D01*
X134050499Y-78421153D01*
X134043575Y-78386344D01*
X134019737Y-78266503D01*
X134015808Y-78257018D01*
X133959397Y-78120827D01*
X133959390Y-78120814D01*
X133871789Y-77989711D01*
X133871786Y-77989707D01*
X133760292Y-77878213D01*
X133760288Y-77878210D01*
X133629185Y-77790609D01*
X133629172Y-77790602D01*
X133483501Y-77730264D01*
X133483489Y-77730261D01*
X133328845Y-77699500D01*
X133328842Y-77699500D01*
X133171158Y-77699500D01*
X133171155Y-77699500D01*
X133016510Y-77730261D01*
X133016498Y-77730264D01*
X132870827Y-77790602D01*
X132870814Y-77790609D01*
X132739711Y-77878210D01*
X132739707Y-77878213D01*
X132628213Y-77989707D01*
X132628210Y-77989711D01*
X132540609Y-78120814D01*
X132540602Y-78120827D01*
X132480264Y-78266498D01*
X132480261Y-78266510D01*
X132449500Y-78421153D01*
X123550500Y-78421153D01*
X123550500Y-75671153D01*
X130499500Y-75671153D01*
X130499500Y-75828846D01*
X130530261Y-75983489D01*
X130530264Y-75983501D01*
X130590602Y-76129172D01*
X130590609Y-76129185D01*
X130678210Y-76260288D01*
X130678213Y-76260292D01*
X130789707Y-76371786D01*
X130789711Y-76371789D01*
X130920814Y-76459390D01*
X130920827Y-76459397D01*
X131066498Y-76519735D01*
X131066503Y-76519737D01*
X131221153Y-76550499D01*
X131221156Y-76550500D01*
X131221158Y-76550500D01*
X131378844Y-76550500D01*
X131378845Y-76550499D01*
X131533497Y-76519737D01*
X131679179Y-76459394D01*
X131810289Y-76371789D01*
X131921789Y-76260289D01*
X132009394Y-76129179D01*
X132069737Y-75983497D01*
X132100500Y-75828842D01*
X132100500Y-75671158D01*
X132100500Y-75671155D01*
X132100499Y-75671153D01*
X132090486Y-75620814D01*
X132069737Y-75516503D01*
X132062805Y-75499767D01*
X132009397Y-75370827D01*
X132009390Y-75370814D01*
X131921789Y-75239711D01*
X131921786Y-75239707D01*
X131810292Y-75128213D01*
X131810288Y-75128210D01*
X131679185Y-75040609D01*
X131679172Y-75040602D01*
X131533501Y-74980264D01*
X131533489Y-74980261D01*
X131378845Y-74949500D01*
X131378842Y-74949500D01*
X131221158Y-74949500D01*
X131221155Y-74949500D01*
X131066510Y-74980261D01*
X131066498Y-74980264D01*
X130920827Y-75040602D01*
X130920814Y-75040609D01*
X130789711Y-75128210D01*
X130789707Y-75128213D01*
X130678213Y-75239707D01*
X130678210Y-75239711D01*
X130590609Y-75370814D01*
X130590602Y-75370827D01*
X130530264Y-75516498D01*
X130530261Y-75516510D01*
X130499500Y-75671153D01*
X123550500Y-75671153D01*
X123550500Y-64873920D01*
X133099499Y-64873920D01*
X133128340Y-65018907D01*
X133128343Y-65018917D01*
X133184912Y-65155488D01*
X133184919Y-65155501D01*
X133267048Y-65278415D01*
X133267051Y-65278419D01*
X133371580Y-65382948D01*
X133371584Y-65382951D01*
X133494498Y-65465080D01*
X133494511Y-65465087D01*
X133631082Y-65521656D01*
X133631087Y-65521658D01*
X133631091Y-65521658D01*
X133631092Y-65521659D01*
X133776079Y-65550500D01*
X133776082Y-65550500D01*
X133923920Y-65550500D01*
X134021462Y-65531096D01*
X134068913Y-65521658D01*
X134205495Y-65465084D01*
X134328416Y-65382951D01*
X134432951Y-65278416D01*
X134515084Y-65155495D01*
X134571658Y-65018913D01*
X134600500Y-64873920D01*
X137499499Y-64873920D01*
X137528340Y-65018907D01*
X137528343Y-65018917D01*
X137584912Y-65155488D01*
X137584919Y-65155501D01*
X137667048Y-65278415D01*
X137667051Y-65278419D01*
X137771580Y-65382948D01*
X137771584Y-65382951D01*
X137894498Y-65465080D01*
X137894511Y-65465087D01*
X138031082Y-65521656D01*
X138031087Y-65521658D01*
X138031091Y-65521658D01*
X138031092Y-65521659D01*
X138176079Y-65550500D01*
X138176082Y-65550500D01*
X138323920Y-65550500D01*
X138421462Y-65531096D01*
X138468913Y-65521658D01*
X138605495Y-65465084D01*
X138728416Y-65382951D01*
X138832951Y-65278416D01*
X138915084Y-65155495D01*
X138971658Y-65018913D01*
X139000500Y-64873918D01*
X139000500Y-64726082D01*
X139000500Y-64726079D01*
X138971659Y-64581092D01*
X138971658Y-64581091D01*
X138971658Y-64581087D01*
X138971656Y-64581082D01*
X138915087Y-64444511D01*
X138915080Y-64444498D01*
X138832951Y-64321584D01*
X138832948Y-64321580D01*
X138728419Y-64217051D01*
X138728415Y-64217048D01*
X138605501Y-64134919D01*
X138605488Y-64134912D01*
X138468917Y-64078343D01*
X138468907Y-64078340D01*
X138323920Y-64049500D01*
X138323918Y-64049500D01*
X138176082Y-64049500D01*
X138176080Y-64049500D01*
X138031092Y-64078340D01*
X138031082Y-64078343D01*
X137894511Y-64134912D01*
X137894498Y-64134919D01*
X137771584Y-64217048D01*
X137771580Y-64217051D01*
X137667051Y-64321580D01*
X137667048Y-64321584D01*
X137584919Y-64444498D01*
X137584912Y-64444511D01*
X137528343Y-64581082D01*
X137528340Y-64581092D01*
X137499500Y-64726079D01*
X137499500Y-64726082D01*
X137499500Y-64873918D01*
X137499500Y-64873920D01*
X137499499Y-64873920D01*
X134600500Y-64873920D01*
X134600500Y-64873918D01*
X134600500Y-64726082D01*
X134600500Y-64726079D01*
X134571659Y-64581092D01*
X134571658Y-64581091D01*
X134571658Y-64581087D01*
X134571656Y-64581082D01*
X134515087Y-64444511D01*
X134515080Y-64444498D01*
X134432951Y-64321584D01*
X134432948Y-64321580D01*
X134328419Y-64217051D01*
X134328415Y-64217048D01*
X134205501Y-64134919D01*
X134205488Y-64134912D01*
X134068917Y-64078343D01*
X134068907Y-64078340D01*
X133923920Y-64049500D01*
X133923918Y-64049500D01*
X133776082Y-64049500D01*
X133776080Y-64049500D01*
X133631092Y-64078340D01*
X133631082Y-64078343D01*
X133494511Y-64134912D01*
X133494498Y-64134919D01*
X133371584Y-64217048D01*
X133371580Y-64217051D01*
X133267051Y-64321580D01*
X133267048Y-64321584D01*
X133184919Y-64444498D01*
X133184912Y-64444511D01*
X133128343Y-64581082D01*
X133128340Y-64581092D01*
X133099500Y-64726079D01*
X133099500Y-64726082D01*
X133099500Y-64873918D01*
X133099500Y-64873920D01*
X133099499Y-64873920D01*
X123550500Y-64873920D01*
X123550500Y-63409029D01*
X123570185Y-63341990D01*
X123622989Y-63296235D01*
X123692147Y-63286291D01*
X123755703Y-63315316D01*
X123768786Y-63328493D01*
X123769893Y-63329789D01*
X123920213Y-63480109D01*
X124092179Y-63605048D01*
X124092181Y-63605049D01*
X124092184Y-63605051D01*
X124281588Y-63701557D01*
X124483757Y-63767246D01*
X124693713Y-63800500D01*
X124693714Y-63800500D01*
X124906286Y-63800500D01*
X124906287Y-63800500D01*
X125116243Y-63767246D01*
X125318412Y-63701557D01*
X125507816Y-63605051D01*
X125529789Y-63589086D01*
X125679786Y-63480109D01*
X125679788Y-63480106D01*
X125679792Y-63480104D01*
X125830104Y-63329792D01*
X125830106Y-63329788D01*
X125830109Y-63329786D01*
X125955048Y-63157820D01*
X125955047Y-63157820D01*
X125955051Y-63157816D01*
X126051557Y-62968412D01*
X126117246Y-62766243D01*
X126150500Y-62556287D01*
X126150500Y-62343713D01*
X126117246Y-62133757D01*
X126051557Y-61931588D01*
X125955051Y-61742184D01*
X125955049Y-61742181D01*
X125955048Y-61742179D01*
X125830109Y-61570213D01*
X125679786Y-61419890D01*
X125507820Y-61294951D01*
X125318414Y-61198444D01*
X125318413Y-61198443D01*
X125318412Y-61198443D01*
X125116243Y-61132754D01*
X125116241Y-61132753D01*
X125116240Y-61132753D01*
X124954957Y-61107208D01*
X124906287Y-61099500D01*
X124693713Y-61099500D01*
X124645042Y-61107208D01*
X124483760Y-61132753D01*
X124281585Y-61198444D01*
X124092179Y-61294951D01*
X123920213Y-61419890D01*
X123769892Y-61570211D01*
X123768778Y-61571516D01*
X123768231Y-61571872D01*
X123766451Y-61573653D01*
X123766076Y-61573278D01*
X123710266Y-61609700D01*
X123640398Y-61610188D01*
X123581357Y-61572826D01*
X123551888Y-61509474D01*
X123550500Y-61490970D01*
X123550500Y-60724754D01*
X123570185Y-60657715D01*
X123622989Y-60611960D01*
X123674636Y-60600754D01*
X167526729Y-60649861D01*
G37*
%TD.AperFunction*%
%TA.AperFunction,Conductor*%
G36*
X150666062Y-93289540D02*
G01*
X150718161Y-93303501D01*
X150718162Y-93303501D01*
X150883872Y-93303501D01*
X150883888Y-93303500D01*
X151025500Y-93303500D01*
X151092539Y-93323185D01*
X151138294Y-93375989D01*
X151149500Y-93427500D01*
X151149500Y-93579846D01*
X151180261Y-93734489D01*
X151180264Y-93734501D01*
X151222050Y-93835383D01*
X151229519Y-93904853D01*
X151198243Y-93967332D01*
X151138154Y-94002984D01*
X151068329Y-94000489D01*
X151019808Y-93970516D01*
X150546288Y-93496996D01*
X150512803Y-93435673D01*
X150517787Y-93365981D01*
X150559659Y-93310048D01*
X150625123Y-93285631D01*
X150666062Y-93289540D01*
G37*
%TD.AperFunction*%
%TA.AperFunction,Conductor*%
G36*
X146221886Y-72270599D02*
G01*
X146226356Y-72270280D01*
X146243328Y-72275263D01*
X146271017Y-72285591D01*
X146330627Y-72292000D01*
X147569372Y-72291999D01*
X147622025Y-72286339D01*
X147636697Y-72284762D01*
X147636866Y-72286339D01*
X147697626Y-72289591D01*
X147699710Y-72290346D01*
X147734419Y-72303292D01*
X147821017Y-72335591D01*
X147821016Y-72335591D01*
X147827944Y-72336335D01*
X147880627Y-72342000D01*
X149119372Y-72341999D01*
X149178983Y-72335591D01*
X149265581Y-72303291D01*
X149335271Y-72298308D01*
X149352241Y-72303290D01*
X149471017Y-72347591D01*
X149530627Y-72354000D01*
X150125500Y-72353999D01*
X150192539Y-72373683D01*
X150238294Y-72426487D01*
X150249500Y-72477999D01*
X150249500Y-74277918D01*
X150249500Y-74277920D01*
X150249499Y-74277920D01*
X150278340Y-74422907D01*
X150278343Y-74422917D01*
X150334912Y-74559488D01*
X150334916Y-74559495D01*
X150352578Y-74585928D01*
X150352579Y-74585931D01*
X150417046Y-74682414D01*
X150417052Y-74682421D01*
X151443181Y-75708548D01*
X151476666Y-75769871D01*
X151479500Y-75796229D01*
X151479500Y-76709835D01*
X151459815Y-76776874D01*
X151443181Y-76797516D01*
X150012181Y-78228517D01*
X149950858Y-78262002D01*
X149881166Y-78257018D01*
X149825233Y-78215146D01*
X149800816Y-78149682D01*
X149800500Y-78140836D01*
X149800500Y-77529765D01*
X149820185Y-77462726D01*
X149821398Y-77460874D01*
X149909390Y-77329185D01*
X149909390Y-77329184D01*
X149909394Y-77329179D01*
X149969737Y-77183497D01*
X150000500Y-77028842D01*
X150000500Y-76871158D01*
X150000500Y-76871155D01*
X150000499Y-76871153D01*
X149986445Y-76800499D01*
X149969737Y-76716503D01*
X149942127Y-76649846D01*
X149909397Y-76570827D01*
X149909390Y-76570814D01*
X149821789Y-76439711D01*
X149821786Y-76439707D01*
X149710292Y-76328213D01*
X149710288Y-76328210D01*
X149579185Y-76240609D01*
X149579172Y-76240602D01*
X149433501Y-76180264D01*
X149433489Y-76180261D01*
X149278845Y-76149500D01*
X149278842Y-76149500D01*
X149121158Y-76149500D01*
X149121155Y-76149500D01*
X148966510Y-76180261D01*
X148966498Y-76180264D01*
X148820827Y-76240602D01*
X148820814Y-76240609D01*
X148726715Y-76303485D01*
X148660037Y-76324363D01*
X148592657Y-76305878D01*
X148570143Y-76288064D01*
X148460292Y-76178213D01*
X148460288Y-76178210D01*
X148329185Y-76090609D01*
X148329172Y-76090602D01*
X148183501Y-76030264D01*
X148183489Y-76030261D01*
X148028845Y-75999500D01*
X148028842Y-75999500D01*
X147871158Y-75999500D01*
X147871155Y-75999500D01*
X147716510Y-76030261D01*
X147716498Y-76030264D01*
X147570827Y-76090602D01*
X147570814Y-76090609D01*
X147439711Y-76178210D01*
X147439707Y-76178213D01*
X147328213Y-76289707D01*
X147328210Y-76289711D01*
X147240609Y-76420814D01*
X147240602Y-76420827D01*
X147180264Y-76566498D01*
X147180261Y-76566510D01*
X147149500Y-76721153D01*
X147149500Y-76878846D01*
X147180261Y-77033489D01*
X147180264Y-77033501D01*
X147240602Y-77179172D01*
X147240609Y-77179185D01*
X147328602Y-77310874D01*
X147349480Y-77377551D01*
X147349500Y-77379765D01*
X147349500Y-82792098D01*
X147329815Y-82859137D01*
X147277011Y-82904892D01*
X147249692Y-82913715D01*
X147166508Y-82930261D01*
X147166498Y-82930264D01*
X147020827Y-82990602D01*
X147020814Y-82990609D01*
X146889711Y-83078210D01*
X146889707Y-83078213D01*
X146778213Y-83189707D01*
X146778210Y-83189711D01*
X146690609Y-83320814D01*
X146690602Y-83320827D01*
X146630264Y-83466498D01*
X146630261Y-83466510D01*
X146599500Y-83621153D01*
X146599500Y-83778846D01*
X146630261Y-83933489D01*
X146630264Y-83933501D01*
X146690602Y-84079172D01*
X146690609Y-84079185D01*
X146778210Y-84210288D01*
X146778213Y-84210292D01*
X146889707Y-84321786D01*
X146889711Y-84321789D01*
X147020814Y-84409390D01*
X147020827Y-84409397D01*
X147094013Y-84439711D01*
X147166503Y-84469737D01*
X147316131Y-84499500D01*
X147321153Y-84500499D01*
X147321156Y-84500500D01*
X147389241Y-84500500D01*
X147456280Y-84520185D01*
X147502035Y-84572989D01*
X147511979Y-84642147D01*
X147492343Y-84693391D01*
X147440609Y-84770815D01*
X147440602Y-84770827D01*
X147380264Y-84916498D01*
X147380261Y-84916510D01*
X147349500Y-85071153D01*
X147349500Y-85225500D01*
X147348489Y-85228941D01*
X147349306Y-85232434D01*
X147338718Y-85262216D01*
X147329815Y-85292539D01*
X147327104Y-85294887D01*
X147325903Y-85298268D01*
X147300893Y-85317599D01*
X147277011Y-85338294D01*
X147272626Y-85339449D01*
X147270623Y-85340998D01*
X147257028Y-85343559D01*
X147236256Y-85349033D01*
X147230892Y-85349500D01*
X147121158Y-85349500D01*
X147035729Y-85366492D01*
X147028959Y-85367082D01*
X147001102Y-85361471D01*
X146972802Y-85358938D01*
X146965824Y-85354365D01*
X146960465Y-85353286D01*
X146952721Y-85345778D01*
X146930522Y-85331230D01*
X146198803Y-84599511D01*
X146165318Y-84538188D01*
X146170302Y-84468496D01*
X146183382Y-84442939D01*
X146259390Y-84329185D01*
X146259390Y-84329184D01*
X146259394Y-84329179D01*
X146319737Y-84183497D01*
X146350500Y-84028842D01*
X146350500Y-83871158D01*
X146350500Y-83871155D01*
X146350499Y-83871153D01*
X146332137Y-83778842D01*
X146319737Y-83716503D01*
X146310471Y-83694132D01*
X146259397Y-83570827D01*
X146259390Y-83570814D01*
X146171789Y-83439711D01*
X146171786Y-83439707D01*
X146060292Y-83328213D01*
X146060288Y-83328210D01*
X145929185Y-83240609D01*
X145929172Y-83240602D01*
X145783501Y-83180264D01*
X145783491Y-83180261D01*
X145628151Y-83149362D01*
X145566241Y-83116977D01*
X145564662Y-83115426D01*
X144736819Y-82287583D01*
X144703334Y-82226260D01*
X144700500Y-82199902D01*
X144700500Y-76302190D01*
X144720185Y-76235151D01*
X144772989Y-76189396D01*
X144842147Y-76179452D01*
X144905703Y-76208477D01*
X144939061Y-76254738D01*
X144990602Y-76379172D01*
X144990609Y-76379185D01*
X145078210Y-76510288D01*
X145078213Y-76510292D01*
X145189707Y-76621786D01*
X145189711Y-76621789D01*
X145320814Y-76709390D01*
X145320827Y-76709397D01*
X145466498Y-76769735D01*
X145466503Y-76769737D01*
X145606157Y-76797516D01*
X145621153Y-76800499D01*
X145621156Y-76800500D01*
X145621158Y-76800500D01*
X145778844Y-76800500D01*
X145778845Y-76800499D01*
X145933497Y-76769737D01*
X146062028Y-76716498D01*
X146079172Y-76709397D01*
X146079172Y-76709396D01*
X146079179Y-76709394D01*
X146210289Y-76621789D01*
X146321789Y-76510289D01*
X146409394Y-76379179D01*
X146469737Y-76233497D01*
X146500500Y-76078842D01*
X146500500Y-75921158D01*
X146500500Y-75921155D01*
X146500499Y-75921153D01*
X146469738Y-75766510D01*
X146469737Y-75766503D01*
X146460775Y-75744867D01*
X146409397Y-75620827D01*
X146409390Y-75620814D01*
X146321789Y-75489711D01*
X146321786Y-75489707D01*
X146210292Y-75378213D01*
X146210288Y-75378210D01*
X146079185Y-75290609D01*
X146079172Y-75290602D01*
X145933501Y-75230264D01*
X145933489Y-75230261D01*
X145778845Y-75199500D01*
X145778842Y-75199500D01*
X145621158Y-75199500D01*
X145621155Y-75199500D01*
X145466510Y-75230261D01*
X145466498Y-75230264D01*
X145320827Y-75290602D01*
X145320814Y-75290609D01*
X145189711Y-75378210D01*
X145189707Y-75378213D01*
X145078213Y-75489707D01*
X145078210Y-75489711D01*
X144990609Y-75620814D01*
X144990602Y-75620827D01*
X144939061Y-75745261D01*
X144895220Y-75799665D01*
X144828926Y-75821730D01*
X144761227Y-75804451D01*
X144713616Y-75753314D01*
X144700500Y-75697809D01*
X144700500Y-72415849D01*
X144720185Y-72348810D01*
X144772989Y-72303055D01*
X144827306Y-72292759D01*
X144827306Y-72292000D01*
X144830626Y-72291999D01*
X144830627Y-72292000D01*
X146069372Y-72291999D01*
X146128983Y-72285591D01*
X146156665Y-72275265D01*
X146183024Y-72273380D01*
X146208846Y-72267763D01*
X146221886Y-72270599D01*
G37*
%TD.AperFunction*%
%TA.AperFunction,Conductor*%
G36*
X155480506Y-70489721D02*
G01*
X155481646Y-70489558D01*
X155512477Y-70503638D01*
X155543516Y-70517149D01*
X155544527Y-70518274D01*
X155545202Y-70518583D01*
X155567101Y-70543405D01*
X155644860Y-70659781D01*
X155644863Y-70659784D01*
X156043181Y-71058101D01*
X156076666Y-71119424D01*
X156079500Y-71145782D01*
X156079500Y-71845001D01*
X156079501Y-71845019D01*
X156090000Y-71947796D01*
X156090001Y-71947799D01*
X156145185Y-72114331D01*
X156145187Y-72114336D01*
X156160843Y-72139719D01*
X156231039Y-72253526D01*
X156249500Y-72318620D01*
X156249500Y-73889240D01*
X156229815Y-73956279D01*
X156177011Y-74002034D01*
X156107853Y-74011978D01*
X156056610Y-73992342D01*
X155979190Y-73940612D01*
X155979172Y-73940602D01*
X155833501Y-73880264D01*
X155833491Y-73880261D01*
X155678149Y-73849361D01*
X155616238Y-73816976D01*
X155614660Y-73815425D01*
X155351590Y-73552355D01*
X155351588Y-73552352D01*
X155232717Y-73433481D01*
X155232716Y-73433480D01*
X155125509Y-73371584D01*
X155125509Y-73371583D01*
X155125506Y-73371583D01*
X155095785Y-73354423D01*
X154943057Y-73313499D01*
X154784943Y-73313499D01*
X154777347Y-73313499D01*
X154777331Y-73313500D01*
X154597775Y-73313500D01*
X154530736Y-73293815D01*
X154484981Y-73241011D01*
X154481593Y-73232833D01*
X154455797Y-73163671D01*
X154455793Y-73163664D01*
X154369547Y-73048455D01*
X154369544Y-73048452D01*
X154254335Y-72962206D01*
X154254328Y-72962202D01*
X154119482Y-72911908D01*
X154119483Y-72911908D01*
X154059883Y-72905501D01*
X154059881Y-72905500D01*
X154059873Y-72905500D01*
X154059864Y-72905500D01*
X151932129Y-72905500D01*
X151932123Y-72905501D01*
X151887753Y-72910271D01*
X151872347Y-72907491D01*
X151856853Y-72909719D01*
X151838667Y-72901413D01*
X151818994Y-72897864D01*
X151807537Y-72887197D01*
X151793297Y-72880694D01*
X151782488Y-72863875D01*
X151767857Y-72850253D01*
X151763480Y-72834297D01*
X151755523Y-72821916D01*
X151750500Y-72786981D01*
X151750500Y-72674229D01*
X151770185Y-72607190D01*
X151786819Y-72586548D01*
X151957049Y-72416318D01*
X152018372Y-72382833D01*
X152044730Y-72379999D01*
X152369371Y-72379999D01*
X152369372Y-72379999D01*
X152428983Y-72373591D01*
X152563831Y-72323296D01*
X152679046Y-72237046D01*
X152765296Y-72121831D01*
X152766229Y-72119331D01*
X152802600Y-72021814D01*
X152844471Y-71965880D01*
X152909935Y-71941462D01*
X152978208Y-71956313D01*
X153027614Y-72005718D01*
X153036488Y-72026141D01*
X153065642Y-72114121D01*
X153065643Y-72114124D01*
X153157684Y-72263345D01*
X153281654Y-72387315D01*
X153430875Y-72479356D01*
X153430880Y-72479358D01*
X153597302Y-72534505D01*
X153597309Y-72534506D01*
X153700019Y-72544999D01*
X153919999Y-72544999D01*
X154420000Y-72544999D01*
X154639972Y-72544999D01*
X154639986Y-72544998D01*
X154742697Y-72534505D01*
X154909119Y-72479358D01*
X154909124Y-72479356D01*
X155058345Y-72387315D01*
X155182315Y-72263345D01*
X155274356Y-72114124D01*
X155274358Y-72114119D01*
X155329505Y-71947697D01*
X155329506Y-71947690D01*
X155339999Y-71844986D01*
X155340000Y-71844973D01*
X155340000Y-71100000D01*
X154420000Y-71100000D01*
X154420000Y-72544999D01*
X153919999Y-72544999D01*
X153920000Y-72544998D01*
X153920000Y-71100000D01*
X153000000Y-71100000D01*
X152992065Y-71107935D01*
X152930742Y-71141420D01*
X152861050Y-71136434D01*
X152805117Y-71094562D01*
X152788203Y-71063585D01*
X152765298Y-71002173D01*
X152765293Y-71002164D01*
X152673732Y-70879855D01*
X152674871Y-70879001D01*
X152645931Y-70826001D01*
X152650915Y-70756309D01*
X152667435Y-70725864D01*
X152776837Y-70578082D01*
X152798153Y-70561945D01*
X152817064Y-70543033D01*
X152825589Y-70541177D01*
X152832546Y-70535912D01*
X152859205Y-70533862D01*
X152885336Y-70528176D01*
X152893511Y-70531224D01*
X152902210Y-70530556D01*
X152925744Y-70543244D01*
X152950802Y-70552588D01*
X152963525Y-70563613D01*
X152963711Y-70563713D01*
X152963775Y-70563829D01*
X152964180Y-70564180D01*
X153000000Y-70600000D01*
X155339999Y-70600000D01*
X155345110Y-70594888D01*
X155349542Y-70579795D01*
X155358504Y-70547129D01*
X155359360Y-70546359D01*
X155359684Y-70545257D01*
X155385268Y-70523088D01*
X155410483Y-70500439D01*
X155411619Y-70500254D01*
X155412488Y-70499502D01*
X155446019Y-70494680D01*
X155479453Y-70489263D01*
X155480506Y-70489721D01*
G37*
%TD.AperFunction*%
%TD*%
%TA.AperFunction,Conductor*%
%TO.N,/drv8302/H1_LOW*%
G36*
X189393325Y-70119685D02*
G01*
X189439080Y-70172489D01*
X189450276Y-70222468D01*
X189452778Y-70425013D01*
X189499043Y-74172531D01*
X189480187Y-74239809D01*
X189427952Y-74286212D01*
X189373145Y-74298047D01*
X187955215Y-74276233D01*
X187888486Y-74255520D01*
X187843549Y-74202018D01*
X187834670Y-74132715D01*
X187864669Y-74069613D01*
X187918119Y-74034542D01*
X187994117Y-74009359D01*
X187994124Y-74009356D01*
X188143345Y-73917315D01*
X188267315Y-73793345D01*
X188359356Y-73644124D01*
X188359358Y-73644119D01*
X188414505Y-73477697D01*
X188414506Y-73477690D01*
X188424999Y-73374986D01*
X188425000Y-73374973D01*
X188425000Y-72150000D01*
X187436500Y-72150000D01*
X187369461Y-72130315D01*
X187323706Y-72077511D01*
X187312500Y-72026000D01*
X187312500Y-71774000D01*
X187332185Y-71706961D01*
X187384989Y-71661206D01*
X187436500Y-71650000D01*
X188424999Y-71650000D01*
X188424999Y-70425028D01*
X188424998Y-70425013D01*
X188414505Y-70322302D01*
X188394856Y-70263004D01*
X188392454Y-70193176D01*
X188428186Y-70133134D01*
X188490706Y-70101941D01*
X188512562Y-70100000D01*
X189326286Y-70100000D01*
X189393325Y-70119685D01*
G37*
%TD.AperFunction*%
%TD*%
%TA.AperFunction,Conductor*%
%TO.N,/drv8302/H2_LOW*%
G36*
X189243325Y-83219685D02*
G01*
X189289080Y-83272489D01*
X189300277Y-83322469D01*
X189348450Y-87224469D01*
X189329594Y-87291747D01*
X189277359Y-87338150D01*
X189224459Y-87350000D01*
X187710023Y-87350000D01*
X187642984Y-87330315D01*
X187597229Y-87277511D01*
X187587285Y-87208353D01*
X187613976Y-87149906D01*
X187612839Y-87149007D01*
X187617315Y-87143346D01*
X187709356Y-86994124D01*
X187709358Y-86994119D01*
X187764505Y-86827697D01*
X187764506Y-86827690D01*
X187774999Y-86724986D01*
X187775000Y-86724973D01*
X187775000Y-85500000D01*
X186786500Y-85500000D01*
X186719461Y-85480315D01*
X186673706Y-85427511D01*
X186662500Y-85376000D01*
X186662500Y-85124000D01*
X186682185Y-85056961D01*
X186734989Y-85011206D01*
X186786500Y-85000000D01*
X187774999Y-85000000D01*
X187774999Y-83775028D01*
X187774998Y-83775013D01*
X187764505Y-83672302D01*
X187709358Y-83505880D01*
X187709356Y-83505875D01*
X187637326Y-83389097D01*
X187618886Y-83321705D01*
X187639808Y-83255041D01*
X187693450Y-83210271D01*
X187742865Y-83200000D01*
X189176286Y-83200000D01*
X189243325Y-83219685D01*
G37*
%TD.AperFunction*%
%TD*%
%TA.AperFunction,Conductor*%
%TO.N,GND*%
G36*
X189344542Y-96619685D02*
G01*
X189390297Y-96672489D01*
X189401494Y-96722488D01*
X189448469Y-100574488D01*
X189429603Y-100641762D01*
X189377361Y-100688158D01*
X189324478Y-100700000D01*
X186124000Y-100700000D01*
X186056961Y-100680315D01*
X186011206Y-100627511D01*
X186000000Y-100576000D01*
X186000000Y-96724000D01*
X186019685Y-96656961D01*
X186072489Y-96611206D01*
X186124000Y-96600000D01*
X189277503Y-96600000D01*
X189344542Y-96619685D01*
G37*
%TD.AperFunction*%
%TD*%
M02*
