%TF.GenerationSoftware,KiCad,Pcbnew,9.0.2*%
%TF.CreationDate,2025-10-22T09:47:40+03:00*%
%TF.ProjectId,aair_gimb_pcb,61616972-5f67-4696-9d62-5f7063622e6b,rev?*%
%TF.SameCoordinates,Original*%
%TF.FileFunction,Paste,Top*%
%TF.FilePolarity,Positive*%
%FSLAX46Y46*%
G04 Gerber Fmt 4.6, Leading zero omitted, Abs format (unit mm)*
G04 Created by KiCad (PCBNEW 9.0.2) date 2025-10-22 09:47:40*
%MOMM*%
%LPD*%
G01*
G04 APERTURE LIST*
G04 Aperture macros list*
%AMRoundRect*
0 Rectangle with rounded corners*
0 $1 Rounding radius*
0 $2 $3 $4 $5 $6 $7 $8 $9 X,Y pos of 4 corners*
0 Add a 4 corners polygon primitive as box body*
4,1,4,$2,$3,$4,$5,$6,$7,$8,$9,$2,$3,0*
0 Add four circle primitives for the rounded corners*
1,1,$1+$1,$2,$3*
1,1,$1+$1,$4,$5*
1,1,$1+$1,$6,$7*
1,1,$1+$1,$8,$9*
0 Add four rect primitives between the rounded corners*
20,1,$1+$1,$2,$3,$4,$5,0*
20,1,$1+$1,$4,$5,$6,$7,0*
20,1,$1+$1,$6,$7,$8,$9,0*
20,1,$1+$1,$8,$9,$2,$3,0*%
G04 Aperture macros list end*
%ADD10R,1.143000X0.635000*%
%ADD11RoundRect,0.150000X-0.150000X-0.700000X0.150000X-0.700000X0.150000X0.700000X-0.150000X0.700000X0*%
%ADD12RoundRect,0.250000X-0.250000X-1.150000X0.250000X-1.150000X0.250000X1.150000X-0.250000X1.150000X0*%
%ADD13R,1.270000X0.610000*%
%ADD14R,3.810000X3.910000*%
%ADD15R,1.020000X0.610000*%
%ADD16R,0.635000X1.143000*%
%ADD17RoundRect,0.200000X0.200000X0.275000X-0.200000X0.275000X-0.200000X-0.275000X0.200000X-0.275000X0*%
%ADD18R,2.200000X1.500000*%
%ADD19RoundRect,0.200000X-0.200000X-0.275000X0.200000X-0.275000X0.200000X0.275000X-0.200000X0.275000X0*%
%ADD20RoundRect,0.150000X-0.512500X-0.150000X0.512500X-0.150000X0.512500X0.150000X-0.512500X0.150000X0*%
%ADD21RoundRect,0.200000X0.275000X-0.200000X0.275000X0.200000X-0.275000X0.200000X-0.275000X-0.200000X0*%
%ADD22R,5.000000X4.000000*%
%ADD23R,1.524000X2.032000*%
%ADD24RoundRect,0.250000X0.650000X-1.000000X0.650000X1.000000X-0.650000X1.000000X-0.650000X-1.000000X0*%
%ADD25R,0.500000X2.000000*%
%ADD26R,2.000000X1.700000*%
%ADD27RoundRect,0.075000X-0.700000X-0.075000X0.700000X-0.075000X0.700000X0.075000X-0.700000X0.075000X0*%
%ADD28RoundRect,0.075000X-0.075000X-0.700000X0.075000X-0.700000X0.075000X0.700000X-0.075000X0.700000X0*%
%ADD29R,0.900000X1.000000*%
%ADD30RoundRect,0.150000X0.700000X-0.150000X0.700000X0.150000X-0.700000X0.150000X-0.700000X-0.150000X0*%
%ADD31RoundRect,0.250000X1.150000X-0.250000X1.150000X0.250000X-1.150000X0.250000X-1.150000X-0.250000X0*%
%ADD32R,0.960000X1.030000*%
%ADD33R,1.550000X0.300000*%
%ADD34RoundRect,0.250000X-0.325000X-0.650000X0.325000X-0.650000X0.325000X0.650000X-0.325000X0.650000X0*%
%ADD35RoundRect,0.250000X0.650000X-0.325000X0.650000X0.325000X-0.650000X0.325000X-0.650000X-0.325000X0*%
%ADD36RoundRect,0.150000X0.150000X0.700000X-0.150000X0.700000X-0.150000X-0.700000X0.150000X-0.700000X0*%
%ADD37RoundRect,0.250000X0.250000X1.150000X-0.250000X1.150000X-0.250000X-1.150000X0.250000X-1.150000X0*%
%ADD38RoundRect,0.218750X0.256250X-0.218750X0.256250X0.218750X-0.256250X0.218750X-0.256250X-0.218750X0*%
%ADD39R,1.198880X1.800860*%
G04 APERTURE END LIST*
D10*
%TO.C,R5*%
X152900000Y-81938000D03*
X152900000Y-83462000D03*
%TD*%
D11*
%TO.C,J5*%
X155325000Y-65800000D03*
X156575000Y-65800000D03*
X157825000Y-65800000D03*
X159075000Y-65800000D03*
X160325000Y-65800000D03*
X161575000Y-65800000D03*
D12*
X153475000Y-62450000D03*
X163425000Y-62450000D03*
%TD*%
D13*
%TO.C,Q1*%
X193940000Y-95545000D03*
X193940000Y-94275000D03*
X193940000Y-93005000D03*
X193940000Y-91735000D03*
D14*
X190580000Y-93640000D03*
D15*
X188475000Y-95545000D03*
X188475000Y-94275000D03*
X188475000Y-93005000D03*
X188475000Y-91735000D03*
%TD*%
D16*
%TO.C,R9*%
X168000000Y-94162000D03*
X169524000Y-94162000D03*
%TD*%
D17*
%TO.C,R17*%
X187975000Y-76480000D03*
X186325000Y-76480000D03*
%TD*%
D18*
%TO.C,L1*%
X160100500Y-79852780D03*
X160100500Y-73452780D03*
%TD*%
D17*
%TO.C,R15*%
X187825000Y-89830000D03*
X186175000Y-89830000D03*
%TD*%
D19*
%TO.C,R2*%
X146000000Y-99750000D03*
X147650000Y-99750000D03*
%TD*%
D10*
%TO.C,R7*%
X167400000Y-83474000D03*
X167400000Y-81950000D03*
%TD*%
D20*
%TO.C,U4*%
X135062500Y-71487500D03*
X135062500Y-72437500D03*
X135062500Y-73387500D03*
X137337500Y-73387500D03*
X137337500Y-72437500D03*
X137337500Y-71487500D03*
%TD*%
D19*
%TO.C,R12*%
X192470000Y-76430000D03*
X194120000Y-76430000D03*
%TD*%
D21*
%TO.C,R20*%
X177900000Y-78500000D03*
X177900000Y-76850000D03*
%TD*%
D13*
%TO.C,Q5*%
X193865000Y-69020000D03*
X193865000Y-67750000D03*
X193865000Y-66480000D03*
X193865000Y-65210000D03*
D14*
X190505000Y-67115000D03*
D15*
X188400000Y-69020000D03*
X188400000Y-67750000D03*
X188400000Y-66480000D03*
X188400000Y-65210000D03*
%TD*%
D10*
%TO.C,C12*%
X149650000Y-80976000D03*
X149650000Y-82500000D03*
%TD*%
D22*
%TO.C,B*%
X199900000Y-82880000D03*
%TD*%
D11*
%TO.C,J2*%
X145525000Y-65900000D03*
X146775000Y-65900000D03*
X148025000Y-65900000D03*
X149275000Y-65900000D03*
D12*
X143675000Y-62550000D03*
X151125000Y-62550000D03*
%TD*%
D10*
%TO.C,C4*%
X149350000Y-98288000D03*
X149350000Y-99812000D03*
%TD*%
%TO.C,C20*%
X167300000Y-86500000D03*
X167300000Y-84976000D03*
%TD*%
D23*
%TO.C,C17*%
X157899000Y-98300000D03*
X161201000Y-98300000D03*
%TD*%
D16*
%TO.C,C5*%
X151326000Y-97850000D03*
X152850000Y-97850000D03*
%TD*%
%TO.C,R26*%
X134526000Y-78200000D03*
X136050000Y-78200000D03*
%TD*%
D10*
%TO.C,C19*%
X166800000Y-89074000D03*
X166800000Y-87550000D03*
%TD*%
D24*
%TO.C,D3*%
X165750000Y-78700000D03*
X165750000Y-74700000D03*
%TD*%
D16*
%TO.C,R3*%
X152326000Y-78600000D03*
X153850000Y-78600000D03*
%TD*%
%TO.C,R4*%
X153850000Y-76100000D03*
X152326000Y-76100000D03*
%TD*%
D13*
%TO.C,Q6*%
X188565000Y-70935000D03*
X188565000Y-72205000D03*
X188565000Y-73475000D03*
X188565000Y-74745000D03*
D14*
X191925000Y-72840000D03*
D15*
X194030000Y-70935000D03*
X194030000Y-72205000D03*
X194030000Y-73475000D03*
X194030000Y-74745000D03*
%TD*%
D16*
%TO.C,C7*%
X153912000Y-80400000D03*
X152388000Y-80400000D03*
%TD*%
D25*
%TO.C,J3*%
X137650000Y-67500000D03*
X136850000Y-67500000D03*
X136050000Y-67500000D03*
X135250000Y-67500000D03*
X134450000Y-67500000D03*
D26*
X140500000Y-67400000D03*
X140500000Y-61950000D03*
X131600000Y-67400000D03*
X131600000Y-61950000D03*
%TD*%
D16*
%TO.C,C21*%
X170262000Y-90450000D03*
X168738000Y-90450000D03*
%TD*%
D19*
%TO.C,R14*%
X184725000Y-101550000D03*
X186375000Y-101550000D03*
%TD*%
D10*
%TO.C,C24*%
X166474000Y-95912000D03*
X166474000Y-97436000D03*
%TD*%
%TO.C,C9*%
X133250000Y-90288000D03*
X133250000Y-91812000D03*
%TD*%
D16*
%TO.C,R10*%
X167950000Y-96162000D03*
X169474000Y-96162000D03*
%TD*%
D27*
%TO.C,U2*%
X138275000Y-84300000D03*
X138275000Y-84800000D03*
X138275000Y-85300000D03*
X138275000Y-85800000D03*
X138275000Y-86300000D03*
X138275000Y-86800000D03*
X138275000Y-87300000D03*
X138275000Y-87800000D03*
X138275000Y-88300000D03*
X138275000Y-88800000D03*
X138275000Y-89300000D03*
X138275000Y-89800000D03*
X138275000Y-90300000D03*
X138275000Y-90800000D03*
X138275000Y-91300000D03*
X138275000Y-91800000D03*
D28*
X140200000Y-93725000D03*
X140700000Y-93725000D03*
X141200000Y-93725000D03*
X141700000Y-93725000D03*
X142200000Y-93725000D03*
X142700000Y-93725000D03*
X143200000Y-93725000D03*
X143700000Y-93725000D03*
X144200000Y-93725000D03*
X144700000Y-93725000D03*
X145200000Y-93725000D03*
X145700000Y-93725000D03*
X146200000Y-93725000D03*
X146700000Y-93725000D03*
X147200000Y-93725000D03*
X147700000Y-93725000D03*
D27*
X149625000Y-91800000D03*
X149625000Y-91300000D03*
X149625000Y-90800000D03*
X149625000Y-90300000D03*
X149625000Y-89800000D03*
X149625000Y-89300000D03*
X149625000Y-88800000D03*
X149625000Y-88300000D03*
X149625000Y-87800000D03*
X149625000Y-87300000D03*
X149625000Y-86800000D03*
X149625000Y-86300000D03*
X149625000Y-85800000D03*
X149625000Y-85300000D03*
X149625000Y-84800000D03*
X149625000Y-84300000D03*
D28*
X147700000Y-82375000D03*
X147200000Y-82375000D03*
X146700000Y-82375000D03*
X146200000Y-82375000D03*
X145700000Y-82375000D03*
X145200000Y-82375000D03*
X144700000Y-82375000D03*
X144200000Y-82375000D03*
X143700000Y-82375000D03*
X143200000Y-82375000D03*
X142700000Y-82375000D03*
X142200000Y-82375000D03*
X141700000Y-82375000D03*
X141200000Y-82375000D03*
X140700000Y-82375000D03*
X140200000Y-82375000D03*
%TD*%
D16*
%TO.C,R1*%
X145076000Y-79600000D03*
X146600000Y-79600000D03*
%TD*%
D13*
%TO.C,Q2*%
X188600000Y-97410000D03*
X188600000Y-98680000D03*
X188600000Y-99950000D03*
X188600000Y-101220000D03*
D14*
X191960000Y-99315000D03*
D15*
X194065000Y-97410000D03*
X194065000Y-98680000D03*
X194065000Y-99950000D03*
X194065000Y-101220000D03*
%TD*%
D29*
%TO.C,B1*%
X129200000Y-73450000D03*
X125100000Y-73450000D03*
X129200000Y-71850000D03*
X125100000Y-71850000D03*
%TD*%
D16*
%TO.C,R25*%
X131550000Y-79150000D03*
X130026000Y-79150000D03*
%TD*%
D10*
%TO.C,C2*%
X153750000Y-94526000D03*
X153750000Y-96050000D03*
%TD*%
D16*
%TO.C,R6*%
X150712000Y-79300000D03*
X149188000Y-79300000D03*
%TD*%
D30*
%TO.C,J1*%
X128900000Y-86625000D03*
X128900000Y-85375000D03*
X128900000Y-84125000D03*
X128900000Y-82875000D03*
D31*
X125550000Y-88475000D03*
X125550000Y-81025000D03*
%TD*%
D19*
%TO.C,R13*%
X192505000Y-89780000D03*
X194155000Y-89780000D03*
%TD*%
D16*
%TO.C,R11*%
X167950000Y-97712000D03*
X169474000Y-97712000D03*
%TD*%
%TO.C,C6*%
X151376000Y-100050000D03*
X152900000Y-100050000D03*
%TD*%
D32*
%TO.C,U1*%
X158500000Y-85700000D03*
X158500000Y-86970000D03*
X158500000Y-88240000D03*
X158500000Y-89510000D03*
X158500000Y-90780000D03*
X159703400Y-85700000D03*
X159703400Y-86970000D03*
X159703400Y-88240000D03*
X159703400Y-89510000D03*
X159703400Y-90780000D03*
X160906800Y-85700000D03*
X160906800Y-86970000D03*
X160906800Y-88240000D03*
X160906800Y-89510000D03*
X160906800Y-90780000D03*
D33*
X155953400Y-81490000D03*
X155953400Y-81990000D03*
X155953400Y-82490000D03*
X155953400Y-82990000D03*
X155953400Y-83490000D03*
X155953400Y-83990000D03*
X155953400Y-84490000D03*
X155953400Y-84990000D03*
X155953400Y-85490000D03*
X155953400Y-85990000D03*
X155953400Y-86490000D03*
X155953400Y-86990000D03*
X155953400Y-87490000D03*
X155953400Y-87990000D03*
X155953400Y-88490000D03*
X155953400Y-88990000D03*
X155953400Y-89490000D03*
X155953400Y-89990000D03*
X155953400Y-90490000D03*
X155953400Y-90990000D03*
X155953400Y-91490000D03*
X155953400Y-91990000D03*
X155953400Y-92490000D03*
X155953400Y-92990000D03*
X155953400Y-93490000D03*
X155953400Y-93990000D03*
X155953400Y-94490000D03*
X155953400Y-94990000D03*
X163453400Y-94990000D03*
X163453400Y-94490000D03*
X163453400Y-93990000D03*
X163453400Y-93490000D03*
X163453400Y-92990000D03*
X163453400Y-92490000D03*
X163453400Y-91990000D03*
X163453400Y-91490000D03*
X163453400Y-90990000D03*
X163453400Y-90490000D03*
X163453400Y-89990000D03*
X163453400Y-89490000D03*
X163453400Y-88990000D03*
X163453400Y-88490000D03*
X163453400Y-87990000D03*
X163453400Y-87490000D03*
X163453400Y-86990000D03*
X163453400Y-86490000D03*
X163453400Y-85990000D03*
X163453400Y-85490000D03*
X163453400Y-84990000D03*
X163453400Y-84490000D03*
X163453400Y-83990000D03*
X163453400Y-83490000D03*
X163453400Y-82990000D03*
X163453400Y-82490000D03*
X163453400Y-81990000D03*
X163453400Y-81490000D03*
%TD*%
D10*
%TO.C,C23*%
X166524000Y-92650000D03*
X166524000Y-94174000D03*
%TD*%
D16*
%TO.C,R22*%
X136112000Y-82100000D03*
X134588000Y-82100000D03*
%TD*%
D13*
%TO.C,Q3*%
X193880000Y-82020000D03*
X193880000Y-80750000D03*
X193880000Y-79480000D03*
X193880000Y-78210000D03*
D14*
X190520000Y-80115000D03*
D15*
X188415000Y-82020000D03*
X188415000Y-80750000D03*
X188415000Y-79480000D03*
X188415000Y-78210000D03*
%TD*%
D10*
%TO.C,C10*%
X135400000Y-90238000D03*
X135400000Y-91762000D03*
%TD*%
D34*
%TO.C,C25*%
X158075000Y-100850000D03*
X161025000Y-100850000D03*
%TD*%
D16*
%TO.C,R21*%
X138226000Y-77750000D03*
X139750000Y-77750000D03*
%TD*%
D10*
%TO.C,C11*%
X147250000Y-96824000D03*
X147250000Y-95300000D03*
%TD*%
%TO.C,C18*%
X165650000Y-83712000D03*
X165650000Y-82188000D03*
%TD*%
D22*
%TO.C,C*%
X199950000Y-89830000D03*
%TD*%
D10*
%TO.C,C8*%
X152950000Y-86662000D03*
X152950000Y-85138000D03*
%TD*%
D21*
%TO.C,R18*%
X180800000Y-89275000D03*
X180800000Y-87625000D03*
%TD*%
D29*
%TO.C,NR1*%
X129150000Y-77300000D03*
X125050000Y-77300000D03*
X129150000Y-75700000D03*
X125050000Y-75700000D03*
%TD*%
D19*
%TO.C,R16*%
X192515000Y-63240000D03*
X194165000Y-63240000D03*
%TD*%
D21*
%TO.C,R19*%
X184850000Y-99605000D03*
X184850000Y-97955000D03*
%TD*%
D16*
%TO.C,R24*%
X139050000Y-79774000D03*
X140574000Y-79774000D03*
%TD*%
%TO.C,C1*%
X153700000Y-88100000D03*
X152176000Y-88100000D03*
%TD*%
D35*
%TO.C,C26*%
X165050000Y-101725000D03*
X165050000Y-98775000D03*
%TD*%
D36*
%TO.C,J6*%
X137225000Y-97200000D03*
X135975000Y-97200000D03*
X134725000Y-97200000D03*
X133475000Y-97200000D03*
X132225000Y-97200000D03*
X130975000Y-97200000D03*
D37*
X139075000Y-100550000D03*
X129125000Y-100550000D03*
%TD*%
D10*
%TO.C,C3*%
X149500000Y-95712000D03*
X149500000Y-94188000D03*
%TD*%
D13*
%TO.C,Q4*%
X188520000Y-84085000D03*
X188520000Y-85355000D03*
X188520000Y-86625000D03*
X188520000Y-87895000D03*
D14*
X191880000Y-85990000D03*
D15*
X193985000Y-84085000D03*
X193985000Y-85355000D03*
X193985000Y-86625000D03*
X193985000Y-87895000D03*
%TD*%
D16*
%TO.C,R8*%
X168050000Y-92612000D03*
X169574000Y-92612000D03*
%TD*%
%TO.C,R23*%
X134476000Y-76400000D03*
X136000000Y-76400000D03*
%TD*%
D38*
%TO.C,D2*%
X144550000Y-99800000D03*
X144550000Y-98225000D03*
%TD*%
D39*
%TO.C,X2*%
X132950320Y-84600080D03*
X135449680Y-88399920D03*
X132950320Y-88399920D03*
X135449680Y-84600080D03*
%TD*%
M02*
