%TF.GenerationSoftware,KiCad,Pcbnew,9.0.2*%
%TF.CreationDate,2025-10-22T09:47:40+03:00*%
%TF.ProjectId,aair_gimb_pcb,61616972-5f67-4696-9d62-5f7063622e6b,rev?*%
%TF.SameCoordinates,Original*%
%TF.FileFunction,Legend,Top*%
%TF.FilePolarity,Positive*%
%FSLAX46Y46*%
G04 Gerber Fmt 4.6, Leading zero omitted, Abs format (unit mm)*
G04 Created by KiCad (PCBNEW 9.0.2) date 2025-10-22 09:47:40*
%MOMM*%
%LPD*%
G01*
G04 APERTURE LIST*
%ADD10C,0.250000*%
%ADD11C,0.114300*%
%ADD12C,0.150000*%
%ADD13C,0.304800*%
%ADD14C,0.190500*%
%ADD15C,0.127000*%
%ADD16C,0.120000*%
%ADD17C,0.119380*%
%ADD18C,0.200660*%
G04 APERTURE END LIST*
D10*
X126035901Y-69990809D02*
X126178758Y-70038428D01*
X126178758Y-70038428D02*
X126226377Y-70086047D01*
X126226377Y-70086047D02*
X126273996Y-70181285D01*
X126273996Y-70181285D02*
X126273996Y-70324142D01*
X126273996Y-70324142D02*
X126226377Y-70419380D01*
X126226377Y-70419380D02*
X126178758Y-70467000D01*
X126178758Y-70467000D02*
X126083520Y-70514619D01*
X126083520Y-70514619D02*
X125702568Y-70514619D01*
X125702568Y-70514619D02*
X125702568Y-69514619D01*
X125702568Y-69514619D02*
X126035901Y-69514619D01*
X126035901Y-69514619D02*
X126131139Y-69562238D01*
X126131139Y-69562238D02*
X126178758Y-69609857D01*
X126178758Y-69609857D02*
X126226377Y-69705095D01*
X126226377Y-69705095D02*
X126226377Y-69800333D01*
X126226377Y-69800333D02*
X126178758Y-69895571D01*
X126178758Y-69895571D02*
X126131139Y-69943190D01*
X126131139Y-69943190D02*
X126035901Y-69990809D01*
X126035901Y-69990809D02*
X125702568Y-69990809D01*
X126893044Y-69514619D02*
X127083520Y-69514619D01*
X127083520Y-69514619D02*
X127178758Y-69562238D01*
X127178758Y-69562238D02*
X127273996Y-69657476D01*
X127273996Y-69657476D02*
X127321615Y-69847952D01*
X127321615Y-69847952D02*
X127321615Y-70181285D01*
X127321615Y-70181285D02*
X127273996Y-70371761D01*
X127273996Y-70371761D02*
X127178758Y-70467000D01*
X127178758Y-70467000D02*
X127083520Y-70514619D01*
X127083520Y-70514619D02*
X126893044Y-70514619D01*
X126893044Y-70514619D02*
X126797806Y-70467000D01*
X126797806Y-70467000D02*
X126702568Y-70371761D01*
X126702568Y-70371761D02*
X126654949Y-70181285D01*
X126654949Y-70181285D02*
X126654949Y-69847952D01*
X126654949Y-69847952D02*
X126702568Y-69657476D01*
X126702568Y-69657476D02*
X126797806Y-69562238D01*
X126797806Y-69562238D02*
X126893044Y-69514619D01*
X127940663Y-69514619D02*
X128131139Y-69514619D01*
X128131139Y-69514619D02*
X128226377Y-69562238D01*
X128226377Y-69562238D02*
X128321615Y-69657476D01*
X128321615Y-69657476D02*
X128369234Y-69847952D01*
X128369234Y-69847952D02*
X128369234Y-70181285D01*
X128369234Y-70181285D02*
X128321615Y-70371761D01*
X128321615Y-70371761D02*
X128226377Y-70467000D01*
X128226377Y-70467000D02*
X128131139Y-70514619D01*
X128131139Y-70514619D02*
X127940663Y-70514619D01*
X127940663Y-70514619D02*
X127845425Y-70467000D01*
X127845425Y-70467000D02*
X127750187Y-70371761D01*
X127750187Y-70371761D02*
X127702568Y-70181285D01*
X127702568Y-70181285D02*
X127702568Y-69847952D01*
X127702568Y-69847952D02*
X127750187Y-69657476D01*
X127750187Y-69657476D02*
X127845425Y-69562238D01*
X127845425Y-69562238D02*
X127940663Y-69514619D01*
X128654949Y-69514619D02*
X129226377Y-69514619D01*
X128940663Y-70514619D02*
X128940663Y-69514619D01*
D11*
X152823800Y-83025541D02*
X152671400Y-82787265D01*
X152562543Y-83025541D02*
X152562543Y-82525161D01*
X152562543Y-82525161D02*
X152736714Y-82525161D01*
X152736714Y-82525161D02*
X152780257Y-82548989D01*
X152780257Y-82548989D02*
X152802028Y-82572816D01*
X152802028Y-82572816D02*
X152823800Y-82620472D01*
X152823800Y-82620472D02*
X152823800Y-82691954D01*
X152823800Y-82691954D02*
X152802028Y-82739610D01*
X152802028Y-82739610D02*
X152780257Y-82763437D01*
X152780257Y-82763437D02*
X152736714Y-82787265D01*
X152736714Y-82787265D02*
X152562543Y-82787265D01*
X153237457Y-82525161D02*
X153019743Y-82525161D01*
X153019743Y-82525161D02*
X152997971Y-82763437D01*
X152997971Y-82763437D02*
X153019743Y-82739610D01*
X153019743Y-82739610D02*
X153063286Y-82715782D01*
X153063286Y-82715782D02*
X153172143Y-82715782D01*
X153172143Y-82715782D02*
X153215686Y-82739610D01*
X153215686Y-82739610D02*
X153237457Y-82763437D01*
X153237457Y-82763437D02*
X153259228Y-82811093D01*
X153259228Y-82811093D02*
X153259228Y-82930231D01*
X153259228Y-82930231D02*
X153237457Y-82977886D01*
X153237457Y-82977886D02*
X153215686Y-83001714D01*
X153215686Y-83001714D02*
X153172143Y-83025541D01*
X153172143Y-83025541D02*
X153063286Y-83025541D01*
X153063286Y-83025541D02*
X153019743Y-83001714D01*
X153019743Y-83001714D02*
X152997971Y-82977886D01*
X170622541Y-94262199D02*
X170384265Y-94414599D01*
X170622541Y-94523456D02*
X170122161Y-94523456D01*
X170122161Y-94523456D02*
X170122161Y-94349285D01*
X170122161Y-94349285D02*
X170145989Y-94305742D01*
X170145989Y-94305742D02*
X170169816Y-94283971D01*
X170169816Y-94283971D02*
X170217472Y-94262199D01*
X170217472Y-94262199D02*
X170288954Y-94262199D01*
X170288954Y-94262199D02*
X170336610Y-94283971D01*
X170336610Y-94283971D02*
X170360437Y-94305742D01*
X170360437Y-94305742D02*
X170384265Y-94349285D01*
X170384265Y-94349285D02*
X170384265Y-94523456D01*
X170622541Y-94044485D02*
X170622541Y-93957399D01*
X170622541Y-93957399D02*
X170598714Y-93913856D01*
X170598714Y-93913856D02*
X170574886Y-93892085D01*
X170574886Y-93892085D02*
X170503403Y-93848542D01*
X170503403Y-93848542D02*
X170408093Y-93826771D01*
X170408093Y-93826771D02*
X170217472Y-93826771D01*
X170217472Y-93826771D02*
X170169816Y-93848542D01*
X170169816Y-93848542D02*
X170145989Y-93870314D01*
X170145989Y-93870314D02*
X170122161Y-93913856D01*
X170122161Y-93913856D02*
X170122161Y-94000942D01*
X170122161Y-94000942D02*
X170145989Y-94044485D01*
X170145989Y-94044485D02*
X170169816Y-94066256D01*
X170169816Y-94066256D02*
X170217472Y-94088028D01*
X170217472Y-94088028D02*
X170336610Y-94088028D01*
X170336610Y-94088028D02*
X170384265Y-94066256D01*
X170384265Y-94066256D02*
X170408093Y-94044485D01*
X170408093Y-94044485D02*
X170431920Y-94000942D01*
X170431920Y-94000942D02*
X170431920Y-93913856D01*
X170431920Y-93913856D02*
X170408093Y-93870314D01*
X170408093Y-93870314D02*
X170384265Y-93848542D01*
X170384265Y-93848542D02*
X170336610Y-93826771D01*
X167347800Y-81302541D02*
X167195400Y-81064265D01*
X167086543Y-81302541D02*
X167086543Y-80802161D01*
X167086543Y-80802161D02*
X167260714Y-80802161D01*
X167260714Y-80802161D02*
X167304257Y-80825989D01*
X167304257Y-80825989D02*
X167326028Y-80849816D01*
X167326028Y-80849816D02*
X167347800Y-80897472D01*
X167347800Y-80897472D02*
X167347800Y-80968954D01*
X167347800Y-80968954D02*
X167326028Y-81016610D01*
X167326028Y-81016610D02*
X167304257Y-81040437D01*
X167304257Y-81040437D02*
X167260714Y-81064265D01*
X167260714Y-81064265D02*
X167086543Y-81064265D01*
X167500200Y-80802161D02*
X167805000Y-80802161D01*
X167805000Y-80802161D02*
X167609057Y-81302541D01*
D12*
X135438095Y-69704819D02*
X135438095Y-70514342D01*
X135438095Y-70514342D02*
X135485714Y-70609580D01*
X135485714Y-70609580D02*
X135533333Y-70657200D01*
X135533333Y-70657200D02*
X135628571Y-70704819D01*
X135628571Y-70704819D02*
X135819047Y-70704819D01*
X135819047Y-70704819D02*
X135914285Y-70657200D01*
X135914285Y-70657200D02*
X135961904Y-70609580D01*
X135961904Y-70609580D02*
X136009523Y-70514342D01*
X136009523Y-70514342D02*
X136009523Y-69704819D01*
X136914285Y-70038152D02*
X136914285Y-70704819D01*
X136676190Y-69657200D02*
X136438095Y-70371485D01*
X136438095Y-70371485D02*
X137057142Y-70371485D01*
X176924819Y-78317857D02*
X176448628Y-78651190D01*
X176924819Y-78889285D02*
X175924819Y-78889285D01*
X175924819Y-78889285D02*
X175924819Y-78508333D01*
X175924819Y-78508333D02*
X175972438Y-78413095D01*
X175972438Y-78413095D02*
X176020057Y-78365476D01*
X176020057Y-78365476D02*
X176115295Y-78317857D01*
X176115295Y-78317857D02*
X176258152Y-78317857D01*
X176258152Y-78317857D02*
X176353390Y-78365476D01*
X176353390Y-78365476D02*
X176401009Y-78413095D01*
X176401009Y-78413095D02*
X176448628Y-78508333D01*
X176448628Y-78508333D02*
X176448628Y-78889285D01*
X176020057Y-77936904D02*
X175972438Y-77889285D01*
X175972438Y-77889285D02*
X175924819Y-77794047D01*
X175924819Y-77794047D02*
X175924819Y-77555952D01*
X175924819Y-77555952D02*
X175972438Y-77460714D01*
X175972438Y-77460714D02*
X176020057Y-77413095D01*
X176020057Y-77413095D02*
X176115295Y-77365476D01*
X176115295Y-77365476D02*
X176210533Y-77365476D01*
X176210533Y-77365476D02*
X176353390Y-77413095D01*
X176353390Y-77413095D02*
X176924819Y-77984523D01*
X176924819Y-77984523D02*
X176924819Y-77365476D01*
X175924819Y-76746428D02*
X175924819Y-76651190D01*
X175924819Y-76651190D02*
X175972438Y-76555952D01*
X175972438Y-76555952D02*
X176020057Y-76508333D01*
X176020057Y-76508333D02*
X176115295Y-76460714D01*
X176115295Y-76460714D02*
X176305771Y-76413095D01*
X176305771Y-76413095D02*
X176543866Y-76413095D01*
X176543866Y-76413095D02*
X176734342Y-76460714D01*
X176734342Y-76460714D02*
X176829580Y-76508333D01*
X176829580Y-76508333D02*
X176877200Y-76555952D01*
X176877200Y-76555952D02*
X176924819Y-76651190D01*
X176924819Y-76651190D02*
X176924819Y-76746428D01*
X176924819Y-76746428D02*
X176877200Y-76841666D01*
X176877200Y-76841666D02*
X176829580Y-76889285D01*
X176829580Y-76889285D02*
X176734342Y-76936904D01*
X176734342Y-76936904D02*
X176543866Y-76984523D01*
X176543866Y-76984523D02*
X176305771Y-76984523D01*
X176305771Y-76984523D02*
X176115295Y-76936904D01*
X176115295Y-76936904D02*
X176020057Y-76889285D01*
X176020057Y-76889285D02*
X175972438Y-76841666D01*
X175972438Y-76841666D02*
X175924819Y-76746428D01*
D11*
X150973685Y-82031914D02*
X150997876Y-82053686D01*
X150997876Y-82053686D02*
X151022066Y-82119000D01*
X151022066Y-82119000D02*
X151022066Y-82162543D01*
X151022066Y-82162543D02*
X150997876Y-82227857D01*
X150997876Y-82227857D02*
X150949495Y-82271400D01*
X150949495Y-82271400D02*
X150901114Y-82293171D01*
X150901114Y-82293171D02*
X150804352Y-82314943D01*
X150804352Y-82314943D02*
X150731780Y-82314943D01*
X150731780Y-82314943D02*
X150635018Y-82293171D01*
X150635018Y-82293171D02*
X150586637Y-82271400D01*
X150586637Y-82271400D02*
X150538256Y-82227857D01*
X150538256Y-82227857D02*
X150514066Y-82162543D01*
X150514066Y-82162543D02*
X150514066Y-82119000D01*
X150514066Y-82119000D02*
X150538256Y-82053686D01*
X150538256Y-82053686D02*
X150562447Y-82031914D01*
X151022066Y-81596486D02*
X151022066Y-81857743D01*
X151022066Y-81727114D02*
X150514066Y-81727114D01*
X150514066Y-81727114D02*
X150586637Y-81770657D01*
X150586637Y-81770657D02*
X150635018Y-81814200D01*
X150635018Y-81814200D02*
X150659209Y-81857743D01*
X150562447Y-81422314D02*
X150538256Y-81400542D01*
X150538256Y-81400542D02*
X150514066Y-81357000D01*
X150514066Y-81357000D02*
X150514066Y-81248142D01*
X150514066Y-81248142D02*
X150538256Y-81204600D01*
X150538256Y-81204600D02*
X150562447Y-81182828D01*
X150562447Y-81182828D02*
X150610828Y-81161057D01*
X150610828Y-81161057D02*
X150659209Y-81161057D01*
X150659209Y-81161057D02*
X150731780Y-81182828D01*
X150731780Y-81182828D02*
X151022066Y-81444085D01*
X151022066Y-81444085D02*
X151022066Y-81161057D01*
D13*
X195990895Y-83091142D02*
X196063467Y-82873428D01*
X196063467Y-82873428D02*
X196136038Y-82800857D01*
X196136038Y-82800857D02*
X196281181Y-82728285D01*
X196281181Y-82728285D02*
X196498895Y-82728285D01*
X196498895Y-82728285D02*
X196644038Y-82800857D01*
X196644038Y-82800857D02*
X196716610Y-82873428D01*
X196716610Y-82873428D02*
X196789181Y-83018571D01*
X196789181Y-83018571D02*
X196789181Y-83599142D01*
X196789181Y-83599142D02*
X195265181Y-83599142D01*
X195265181Y-83599142D02*
X195265181Y-83091142D01*
X195265181Y-83091142D02*
X195337752Y-82946000D01*
X195337752Y-82946000D02*
X195410324Y-82873428D01*
X195410324Y-82873428D02*
X195555467Y-82800857D01*
X195555467Y-82800857D02*
X195700610Y-82800857D01*
X195700610Y-82800857D02*
X195845752Y-82873428D01*
X195845752Y-82873428D02*
X195918324Y-82946000D01*
X195918324Y-82946000D02*
X195990895Y-83091142D01*
X195990895Y-83091142D02*
X195990895Y-83599142D01*
D11*
X149273800Y-99227886D02*
X149252028Y-99251714D01*
X149252028Y-99251714D02*
X149186714Y-99275541D01*
X149186714Y-99275541D02*
X149143171Y-99275541D01*
X149143171Y-99275541D02*
X149077857Y-99251714D01*
X149077857Y-99251714D02*
X149034314Y-99204058D01*
X149034314Y-99204058D02*
X149012543Y-99156403D01*
X149012543Y-99156403D02*
X148990771Y-99061093D01*
X148990771Y-99061093D02*
X148990771Y-98989610D01*
X148990771Y-98989610D02*
X149012543Y-98894299D01*
X149012543Y-98894299D02*
X149034314Y-98846644D01*
X149034314Y-98846644D02*
X149077857Y-98798989D01*
X149077857Y-98798989D02*
X149143171Y-98775161D01*
X149143171Y-98775161D02*
X149186714Y-98775161D01*
X149186714Y-98775161D02*
X149252028Y-98798989D01*
X149252028Y-98798989D02*
X149273800Y-98822816D01*
X149665686Y-98941954D02*
X149665686Y-99275541D01*
X149556828Y-98751334D02*
X149447971Y-99108748D01*
X149447971Y-99108748D02*
X149731000Y-99108748D01*
X167030085Y-84280886D02*
X167008313Y-84304714D01*
X167008313Y-84304714D02*
X166942999Y-84328541D01*
X166942999Y-84328541D02*
X166899456Y-84328541D01*
X166899456Y-84328541D02*
X166834142Y-84304714D01*
X166834142Y-84304714D02*
X166790599Y-84257058D01*
X166790599Y-84257058D02*
X166768828Y-84209403D01*
X166768828Y-84209403D02*
X166747056Y-84114093D01*
X166747056Y-84114093D02*
X166747056Y-84042610D01*
X166747056Y-84042610D02*
X166768828Y-83947299D01*
X166768828Y-83947299D02*
X166790599Y-83899644D01*
X166790599Y-83899644D02*
X166834142Y-83851989D01*
X166834142Y-83851989D02*
X166899456Y-83828161D01*
X166899456Y-83828161D02*
X166942999Y-83828161D01*
X166942999Y-83828161D02*
X167008313Y-83851989D01*
X167008313Y-83851989D02*
X167030085Y-83875816D01*
X167204256Y-83875816D02*
X167226028Y-83851989D01*
X167226028Y-83851989D02*
X167269571Y-83828161D01*
X167269571Y-83828161D02*
X167378428Y-83828161D01*
X167378428Y-83828161D02*
X167421971Y-83851989D01*
X167421971Y-83851989D02*
X167443742Y-83875816D01*
X167443742Y-83875816D02*
X167465513Y-83923472D01*
X167465513Y-83923472D02*
X167465513Y-83971127D01*
X167465513Y-83971127D02*
X167443742Y-84042610D01*
X167443742Y-84042610D02*
X167182485Y-84328541D01*
X167182485Y-84328541D02*
X167465513Y-84328541D01*
X167748542Y-83828161D02*
X167792085Y-83828161D01*
X167792085Y-83828161D02*
X167835628Y-83851989D01*
X167835628Y-83851989D02*
X167857400Y-83875816D01*
X167857400Y-83875816D02*
X167879171Y-83923472D01*
X167879171Y-83923472D02*
X167900942Y-84018782D01*
X167900942Y-84018782D02*
X167900942Y-84137920D01*
X167900942Y-84137920D02*
X167879171Y-84233231D01*
X167879171Y-84233231D02*
X167857400Y-84280886D01*
X167857400Y-84280886D02*
X167835628Y-84304714D01*
X167835628Y-84304714D02*
X167792085Y-84328541D01*
X167792085Y-84328541D02*
X167748542Y-84328541D01*
X167748542Y-84328541D02*
X167705000Y-84304714D01*
X167705000Y-84304714D02*
X167683228Y-84280886D01*
X167683228Y-84280886D02*
X167661457Y-84233231D01*
X167661457Y-84233231D02*
X167639685Y-84137920D01*
X167639685Y-84137920D02*
X167639685Y-84018782D01*
X167639685Y-84018782D02*
X167661457Y-83923472D01*
X167661457Y-83923472D02*
X167683228Y-83875816D01*
X167683228Y-83875816D02*
X167705000Y-83851989D01*
X167705000Y-83851989D02*
X167748542Y-83828161D01*
X152011800Y-98030685D02*
X151990028Y-98054876D01*
X151990028Y-98054876D02*
X151924714Y-98079066D01*
X151924714Y-98079066D02*
X151881171Y-98079066D01*
X151881171Y-98079066D02*
X151815857Y-98054876D01*
X151815857Y-98054876D02*
X151772314Y-98006495D01*
X151772314Y-98006495D02*
X151750543Y-97958114D01*
X151750543Y-97958114D02*
X151728771Y-97861352D01*
X151728771Y-97861352D02*
X151728771Y-97788780D01*
X151728771Y-97788780D02*
X151750543Y-97692018D01*
X151750543Y-97692018D02*
X151772314Y-97643637D01*
X151772314Y-97643637D02*
X151815857Y-97595256D01*
X151815857Y-97595256D02*
X151881171Y-97571066D01*
X151881171Y-97571066D02*
X151924714Y-97571066D01*
X151924714Y-97571066D02*
X151990028Y-97595256D01*
X151990028Y-97595256D02*
X152011800Y-97619447D01*
X152425457Y-97571066D02*
X152207743Y-97571066D01*
X152207743Y-97571066D02*
X152185971Y-97812971D01*
X152185971Y-97812971D02*
X152207743Y-97788780D01*
X152207743Y-97788780D02*
X152251286Y-97764590D01*
X152251286Y-97764590D02*
X152360143Y-97764590D01*
X152360143Y-97764590D02*
X152403686Y-97788780D01*
X152403686Y-97788780D02*
X152425457Y-97812971D01*
X152425457Y-97812971D02*
X152447228Y-97861352D01*
X152447228Y-97861352D02*
X152447228Y-97982304D01*
X152447228Y-97982304D02*
X152425457Y-98030685D01*
X152425457Y-98030685D02*
X152403686Y-98054876D01*
X152403686Y-98054876D02*
X152360143Y-98079066D01*
X152360143Y-98079066D02*
X152251286Y-98079066D01*
X152251286Y-98079066D02*
X152207743Y-98054876D01*
X152207743Y-98054876D02*
X152185971Y-98030685D01*
X137148541Y-78517914D02*
X136910265Y-78670314D01*
X137148541Y-78779171D02*
X136648161Y-78779171D01*
X136648161Y-78779171D02*
X136648161Y-78605000D01*
X136648161Y-78605000D02*
X136671989Y-78561457D01*
X136671989Y-78561457D02*
X136695816Y-78539686D01*
X136695816Y-78539686D02*
X136743472Y-78517914D01*
X136743472Y-78517914D02*
X136814954Y-78517914D01*
X136814954Y-78517914D02*
X136862610Y-78539686D01*
X136862610Y-78539686D02*
X136886437Y-78561457D01*
X136886437Y-78561457D02*
X136910265Y-78605000D01*
X136910265Y-78605000D02*
X136910265Y-78779171D01*
X136695816Y-78343743D02*
X136671989Y-78321971D01*
X136671989Y-78321971D02*
X136648161Y-78278429D01*
X136648161Y-78278429D02*
X136648161Y-78169571D01*
X136648161Y-78169571D02*
X136671989Y-78126029D01*
X136671989Y-78126029D02*
X136695816Y-78104257D01*
X136695816Y-78104257D02*
X136743472Y-78082486D01*
X136743472Y-78082486D02*
X136791127Y-78082486D01*
X136791127Y-78082486D02*
X136862610Y-78104257D01*
X136862610Y-78104257D02*
X137148541Y-78365514D01*
X137148541Y-78365514D02*
X137148541Y-78082486D01*
X136648161Y-77690600D02*
X136648161Y-77777685D01*
X136648161Y-77777685D02*
X136671989Y-77821228D01*
X136671989Y-77821228D02*
X136695816Y-77843000D01*
X136695816Y-77843000D02*
X136767299Y-77886542D01*
X136767299Y-77886542D02*
X136862610Y-77908314D01*
X136862610Y-77908314D02*
X137053231Y-77908314D01*
X137053231Y-77908314D02*
X137100886Y-77886542D01*
X137100886Y-77886542D02*
X137124714Y-77864771D01*
X137124714Y-77864771D02*
X137148541Y-77821228D01*
X137148541Y-77821228D02*
X137148541Y-77734142D01*
X137148541Y-77734142D02*
X137124714Y-77690600D01*
X137124714Y-77690600D02*
X137100886Y-77668828D01*
X137100886Y-77668828D02*
X137053231Y-77647057D01*
X137053231Y-77647057D02*
X136934093Y-77647057D01*
X136934093Y-77647057D02*
X136886437Y-77668828D01*
X136886437Y-77668828D02*
X136862610Y-77690600D01*
X136862610Y-77690600D02*
X136838782Y-77734142D01*
X136838782Y-77734142D02*
X136838782Y-77821228D01*
X136838782Y-77821228D02*
X136862610Y-77864771D01*
X136862610Y-77864771D02*
X136886437Y-77886542D01*
X136886437Y-77886542D02*
X136934093Y-77908314D01*
X166530085Y-86854886D02*
X166508313Y-86878714D01*
X166508313Y-86878714D02*
X166442999Y-86902541D01*
X166442999Y-86902541D02*
X166399456Y-86902541D01*
X166399456Y-86902541D02*
X166334142Y-86878714D01*
X166334142Y-86878714D02*
X166290599Y-86831058D01*
X166290599Y-86831058D02*
X166268828Y-86783403D01*
X166268828Y-86783403D02*
X166247056Y-86688093D01*
X166247056Y-86688093D02*
X166247056Y-86616610D01*
X166247056Y-86616610D02*
X166268828Y-86521299D01*
X166268828Y-86521299D02*
X166290599Y-86473644D01*
X166290599Y-86473644D02*
X166334142Y-86425989D01*
X166334142Y-86425989D02*
X166399456Y-86402161D01*
X166399456Y-86402161D02*
X166442999Y-86402161D01*
X166442999Y-86402161D02*
X166508313Y-86425989D01*
X166508313Y-86425989D02*
X166530085Y-86449816D01*
X166965513Y-86902541D02*
X166704256Y-86902541D01*
X166834885Y-86902541D02*
X166834885Y-86402161D01*
X166834885Y-86402161D02*
X166791342Y-86473644D01*
X166791342Y-86473644D02*
X166747799Y-86521299D01*
X166747799Y-86521299D02*
X166704256Y-86545127D01*
X167183228Y-86902541D02*
X167270314Y-86902541D01*
X167270314Y-86902541D02*
X167313857Y-86878714D01*
X167313857Y-86878714D02*
X167335628Y-86854886D01*
X167335628Y-86854886D02*
X167379171Y-86783403D01*
X167379171Y-86783403D02*
X167400942Y-86688093D01*
X167400942Y-86688093D02*
X167400942Y-86497472D01*
X167400942Y-86497472D02*
X167379171Y-86449816D01*
X167379171Y-86449816D02*
X167357400Y-86425989D01*
X167357400Y-86425989D02*
X167313857Y-86402161D01*
X167313857Y-86402161D02*
X167226771Y-86402161D01*
X167226771Y-86402161D02*
X167183228Y-86425989D01*
X167183228Y-86425989D02*
X167161457Y-86449816D01*
X167161457Y-86449816D02*
X167139685Y-86497472D01*
X167139685Y-86497472D02*
X167139685Y-86616610D01*
X167139685Y-86616610D02*
X167161457Y-86664265D01*
X167161457Y-86664265D02*
X167183228Y-86688093D01*
X167183228Y-86688093D02*
X167226771Y-86711920D01*
X167226771Y-86711920D02*
X167313857Y-86711920D01*
X167313857Y-86711920D02*
X167357400Y-86688093D01*
X167357400Y-86688093D02*
X167379171Y-86664265D01*
X167379171Y-86664265D02*
X167400942Y-86616610D01*
D12*
X135816666Y-61954819D02*
X135816666Y-62669104D01*
X135816666Y-62669104D02*
X135769047Y-62811961D01*
X135769047Y-62811961D02*
X135673809Y-62907200D01*
X135673809Y-62907200D02*
X135530952Y-62954819D01*
X135530952Y-62954819D02*
X135435714Y-62954819D01*
X136197619Y-61954819D02*
X136816666Y-61954819D01*
X136816666Y-61954819D02*
X136483333Y-62335771D01*
X136483333Y-62335771D02*
X136626190Y-62335771D01*
X136626190Y-62335771D02*
X136721428Y-62383390D01*
X136721428Y-62383390D02*
X136769047Y-62431009D01*
X136769047Y-62431009D02*
X136816666Y-62526247D01*
X136816666Y-62526247D02*
X136816666Y-62764342D01*
X136816666Y-62764342D02*
X136769047Y-62859580D01*
X136769047Y-62859580D02*
X136721428Y-62907200D01*
X136721428Y-62907200D02*
X136626190Y-62954819D01*
X136626190Y-62954819D02*
X136340476Y-62954819D01*
X136340476Y-62954819D02*
X136245238Y-62907200D01*
X136245238Y-62907200D02*
X136197619Y-62859580D01*
D11*
X168042886Y-90719914D02*
X168066714Y-90741686D01*
X168066714Y-90741686D02*
X168090541Y-90807000D01*
X168090541Y-90807000D02*
X168090541Y-90850543D01*
X168090541Y-90850543D02*
X168066714Y-90915857D01*
X168066714Y-90915857D02*
X168019058Y-90959400D01*
X168019058Y-90959400D02*
X167971403Y-90981171D01*
X167971403Y-90981171D02*
X167876093Y-91002943D01*
X167876093Y-91002943D02*
X167804610Y-91002943D01*
X167804610Y-91002943D02*
X167709299Y-90981171D01*
X167709299Y-90981171D02*
X167661644Y-90959400D01*
X167661644Y-90959400D02*
X167613989Y-90915857D01*
X167613989Y-90915857D02*
X167590161Y-90850543D01*
X167590161Y-90850543D02*
X167590161Y-90807000D01*
X167590161Y-90807000D02*
X167613989Y-90741686D01*
X167613989Y-90741686D02*
X167637816Y-90719914D01*
X167637816Y-90545743D02*
X167613989Y-90523971D01*
X167613989Y-90523971D02*
X167590161Y-90480429D01*
X167590161Y-90480429D02*
X167590161Y-90371571D01*
X167590161Y-90371571D02*
X167613989Y-90328029D01*
X167613989Y-90328029D02*
X167637816Y-90306257D01*
X167637816Y-90306257D02*
X167685472Y-90284486D01*
X167685472Y-90284486D02*
X167733127Y-90284486D01*
X167733127Y-90284486D02*
X167804610Y-90306257D01*
X167804610Y-90306257D02*
X168090541Y-90567514D01*
X168090541Y-90567514D02*
X168090541Y-90284486D01*
X168090541Y-89849057D02*
X168090541Y-90110314D01*
X168090541Y-89979685D02*
X167590161Y-89979685D01*
X167590161Y-89979685D02*
X167661644Y-90023228D01*
X167661644Y-90023228D02*
X167709299Y-90066771D01*
X167709299Y-90066771D02*
X167733127Y-90110314D01*
X166156085Y-98486886D02*
X166134313Y-98510714D01*
X166134313Y-98510714D02*
X166068999Y-98534541D01*
X166068999Y-98534541D02*
X166025456Y-98534541D01*
X166025456Y-98534541D02*
X165960142Y-98510714D01*
X165960142Y-98510714D02*
X165916599Y-98463058D01*
X165916599Y-98463058D02*
X165894828Y-98415403D01*
X165894828Y-98415403D02*
X165873056Y-98320093D01*
X165873056Y-98320093D02*
X165873056Y-98248610D01*
X165873056Y-98248610D02*
X165894828Y-98153299D01*
X165894828Y-98153299D02*
X165916599Y-98105644D01*
X165916599Y-98105644D02*
X165960142Y-98057989D01*
X165960142Y-98057989D02*
X166025456Y-98034161D01*
X166025456Y-98034161D02*
X166068999Y-98034161D01*
X166068999Y-98034161D02*
X166134313Y-98057989D01*
X166134313Y-98057989D02*
X166156085Y-98081816D01*
X166330256Y-98081816D02*
X166352028Y-98057989D01*
X166352028Y-98057989D02*
X166395571Y-98034161D01*
X166395571Y-98034161D02*
X166504428Y-98034161D01*
X166504428Y-98034161D02*
X166547971Y-98057989D01*
X166547971Y-98057989D02*
X166569742Y-98081816D01*
X166569742Y-98081816D02*
X166591513Y-98129472D01*
X166591513Y-98129472D02*
X166591513Y-98177127D01*
X166591513Y-98177127D02*
X166569742Y-98248610D01*
X166569742Y-98248610D02*
X166308485Y-98534541D01*
X166308485Y-98534541D02*
X166591513Y-98534541D01*
X166983400Y-98200954D02*
X166983400Y-98534541D01*
X166874542Y-98010334D02*
X166765685Y-98367748D01*
X166765685Y-98367748D02*
X167048714Y-98367748D01*
X134573685Y-91126199D02*
X134597876Y-91147971D01*
X134597876Y-91147971D02*
X134622066Y-91213285D01*
X134622066Y-91213285D02*
X134622066Y-91256828D01*
X134622066Y-91256828D02*
X134597876Y-91322142D01*
X134597876Y-91322142D02*
X134549495Y-91365685D01*
X134549495Y-91365685D02*
X134501114Y-91387456D01*
X134501114Y-91387456D02*
X134404352Y-91409228D01*
X134404352Y-91409228D02*
X134331780Y-91409228D01*
X134331780Y-91409228D02*
X134235018Y-91387456D01*
X134235018Y-91387456D02*
X134186637Y-91365685D01*
X134186637Y-91365685D02*
X134138256Y-91322142D01*
X134138256Y-91322142D02*
X134114066Y-91256828D01*
X134114066Y-91256828D02*
X134114066Y-91213285D01*
X134114066Y-91213285D02*
X134138256Y-91147971D01*
X134138256Y-91147971D02*
X134162447Y-91126199D01*
X134622066Y-90908485D02*
X134622066Y-90821399D01*
X134622066Y-90821399D02*
X134597876Y-90777856D01*
X134597876Y-90777856D02*
X134573685Y-90756085D01*
X134573685Y-90756085D02*
X134501114Y-90712542D01*
X134501114Y-90712542D02*
X134404352Y-90690771D01*
X134404352Y-90690771D02*
X134210828Y-90690771D01*
X134210828Y-90690771D02*
X134162447Y-90712542D01*
X134162447Y-90712542D02*
X134138256Y-90734314D01*
X134138256Y-90734314D02*
X134114066Y-90777856D01*
X134114066Y-90777856D02*
X134114066Y-90864942D01*
X134114066Y-90864942D02*
X134138256Y-90908485D01*
X134138256Y-90908485D02*
X134162447Y-90930256D01*
X134162447Y-90930256D02*
X134210828Y-90952028D01*
X134210828Y-90952028D02*
X134331780Y-90952028D01*
X134331780Y-90952028D02*
X134380161Y-90930256D01*
X134380161Y-90930256D02*
X134404352Y-90908485D01*
X134404352Y-90908485D02*
X134428542Y-90864942D01*
X134428542Y-90864942D02*
X134428542Y-90777856D01*
X134428542Y-90777856D02*
X134404352Y-90734314D01*
X134404352Y-90734314D02*
X134380161Y-90712542D01*
X134380161Y-90712542D02*
X134331780Y-90690771D01*
X170572541Y-96479914D02*
X170334265Y-96632314D01*
X170572541Y-96741171D02*
X170072161Y-96741171D01*
X170072161Y-96741171D02*
X170072161Y-96567000D01*
X170072161Y-96567000D02*
X170095989Y-96523457D01*
X170095989Y-96523457D02*
X170119816Y-96501686D01*
X170119816Y-96501686D02*
X170167472Y-96479914D01*
X170167472Y-96479914D02*
X170238954Y-96479914D01*
X170238954Y-96479914D02*
X170286610Y-96501686D01*
X170286610Y-96501686D02*
X170310437Y-96523457D01*
X170310437Y-96523457D02*
X170334265Y-96567000D01*
X170334265Y-96567000D02*
X170334265Y-96741171D01*
X170572541Y-96044486D02*
X170572541Y-96305743D01*
X170572541Y-96175114D02*
X170072161Y-96175114D01*
X170072161Y-96175114D02*
X170143644Y-96218657D01*
X170143644Y-96218657D02*
X170191299Y-96262200D01*
X170191299Y-96262200D02*
X170215127Y-96305743D01*
X170072161Y-95761457D02*
X170072161Y-95717914D01*
X170072161Y-95717914D02*
X170095989Y-95674371D01*
X170095989Y-95674371D02*
X170119816Y-95652600D01*
X170119816Y-95652600D02*
X170167472Y-95630828D01*
X170167472Y-95630828D02*
X170262782Y-95609057D01*
X170262782Y-95609057D02*
X170381920Y-95609057D01*
X170381920Y-95609057D02*
X170477231Y-95630828D01*
X170477231Y-95630828D02*
X170524886Y-95652600D01*
X170524886Y-95652600D02*
X170548714Y-95674371D01*
X170548714Y-95674371D02*
X170572541Y-95717914D01*
X170572541Y-95717914D02*
X170572541Y-95761457D01*
X170572541Y-95761457D02*
X170548714Y-95805000D01*
X170548714Y-95805000D02*
X170524886Y-95826771D01*
X170524886Y-95826771D02*
X170477231Y-95848542D01*
X170477231Y-95848542D02*
X170381920Y-95870314D01*
X170381920Y-95870314D02*
X170262782Y-95870314D01*
X170262782Y-95870314D02*
X170167472Y-95848542D01*
X170167472Y-95848542D02*
X170119816Y-95826771D01*
X170119816Y-95826771D02*
X170095989Y-95805000D01*
X170095989Y-95805000D02*
X170072161Y-95761457D01*
D12*
X146588095Y-91154819D02*
X146588095Y-91964342D01*
X146588095Y-91964342D02*
X146635714Y-92059580D01*
X146635714Y-92059580D02*
X146683333Y-92107200D01*
X146683333Y-92107200D02*
X146778571Y-92154819D01*
X146778571Y-92154819D02*
X146969047Y-92154819D01*
X146969047Y-92154819D02*
X147064285Y-92107200D01*
X147064285Y-92107200D02*
X147111904Y-92059580D01*
X147111904Y-92059580D02*
X147159523Y-91964342D01*
X147159523Y-91964342D02*
X147159523Y-91154819D01*
X147588095Y-91250057D02*
X147635714Y-91202438D01*
X147635714Y-91202438D02*
X147730952Y-91154819D01*
X147730952Y-91154819D02*
X147969047Y-91154819D01*
X147969047Y-91154819D02*
X148064285Y-91202438D01*
X148064285Y-91202438D02*
X148111904Y-91250057D01*
X148111904Y-91250057D02*
X148159523Y-91345295D01*
X148159523Y-91345295D02*
X148159523Y-91440533D01*
X148159523Y-91440533D02*
X148111904Y-91583390D01*
X148111904Y-91583390D02*
X147540476Y-92154819D01*
X147540476Y-92154819D02*
X148159523Y-92154819D01*
D11*
X129378541Y-79419914D02*
X129140265Y-79572314D01*
X129378541Y-79681171D02*
X128878161Y-79681171D01*
X128878161Y-79681171D02*
X128878161Y-79507000D01*
X128878161Y-79507000D02*
X128901989Y-79463457D01*
X128901989Y-79463457D02*
X128925816Y-79441686D01*
X128925816Y-79441686D02*
X128973472Y-79419914D01*
X128973472Y-79419914D02*
X129044954Y-79419914D01*
X129044954Y-79419914D02*
X129092610Y-79441686D01*
X129092610Y-79441686D02*
X129116437Y-79463457D01*
X129116437Y-79463457D02*
X129140265Y-79507000D01*
X129140265Y-79507000D02*
X129140265Y-79681171D01*
X128925816Y-79245743D02*
X128901989Y-79223971D01*
X128901989Y-79223971D02*
X128878161Y-79180429D01*
X128878161Y-79180429D02*
X128878161Y-79071571D01*
X128878161Y-79071571D02*
X128901989Y-79028029D01*
X128901989Y-79028029D02*
X128925816Y-79006257D01*
X128925816Y-79006257D02*
X128973472Y-78984486D01*
X128973472Y-78984486D02*
X129021127Y-78984486D01*
X129021127Y-78984486D02*
X129092610Y-79006257D01*
X129092610Y-79006257D02*
X129378541Y-79267514D01*
X129378541Y-79267514D02*
X129378541Y-78984486D01*
X128878161Y-78570828D02*
X128878161Y-78788542D01*
X128878161Y-78788542D02*
X129116437Y-78810314D01*
X129116437Y-78810314D02*
X129092610Y-78788542D01*
X129092610Y-78788542D02*
X129068782Y-78745000D01*
X129068782Y-78745000D02*
X129068782Y-78636142D01*
X129068782Y-78636142D02*
X129092610Y-78592600D01*
X129092610Y-78592600D02*
X129116437Y-78570828D01*
X129116437Y-78570828D02*
X129164093Y-78549057D01*
X129164093Y-78549057D02*
X129283231Y-78549057D01*
X129283231Y-78549057D02*
X129330886Y-78570828D01*
X129330886Y-78570828D02*
X129354714Y-78592600D01*
X129354714Y-78592600D02*
X129378541Y-78636142D01*
X129378541Y-78636142D02*
X129378541Y-78745000D01*
X129378541Y-78745000D02*
X129354714Y-78788542D01*
X129354714Y-78788542D02*
X129330886Y-78810314D01*
X153649800Y-97100886D02*
X153628028Y-97124714D01*
X153628028Y-97124714D02*
X153562714Y-97148541D01*
X153562714Y-97148541D02*
X153519171Y-97148541D01*
X153519171Y-97148541D02*
X153453857Y-97124714D01*
X153453857Y-97124714D02*
X153410314Y-97077058D01*
X153410314Y-97077058D02*
X153388543Y-97029403D01*
X153388543Y-97029403D02*
X153366771Y-96934093D01*
X153366771Y-96934093D02*
X153366771Y-96862610D01*
X153366771Y-96862610D02*
X153388543Y-96767299D01*
X153388543Y-96767299D02*
X153410314Y-96719644D01*
X153410314Y-96719644D02*
X153453857Y-96671989D01*
X153453857Y-96671989D02*
X153519171Y-96648161D01*
X153519171Y-96648161D02*
X153562714Y-96648161D01*
X153562714Y-96648161D02*
X153628028Y-96671989D01*
X153628028Y-96671989D02*
X153649800Y-96695816D01*
X153823971Y-96695816D02*
X153845743Y-96671989D01*
X153845743Y-96671989D02*
X153889286Y-96648161D01*
X153889286Y-96648161D02*
X153998143Y-96648161D01*
X153998143Y-96648161D02*
X154041686Y-96671989D01*
X154041686Y-96671989D02*
X154063457Y-96695816D01*
X154063457Y-96695816D02*
X154085228Y-96743472D01*
X154085228Y-96743472D02*
X154085228Y-96791127D01*
X154085228Y-96791127D02*
X154063457Y-96862610D01*
X154063457Y-96862610D02*
X153802200Y-97148541D01*
X153802200Y-97148541D02*
X154085228Y-97148541D01*
D13*
X196453752Y-76312857D02*
X196453752Y-75587143D01*
X196889181Y-76458000D02*
X195365181Y-75950000D01*
X195365181Y-75950000D02*
X196889181Y-75442000D01*
D11*
X170572541Y-98029914D02*
X170334265Y-98182314D01*
X170572541Y-98291171D02*
X170072161Y-98291171D01*
X170072161Y-98291171D02*
X170072161Y-98117000D01*
X170072161Y-98117000D02*
X170095989Y-98073457D01*
X170095989Y-98073457D02*
X170119816Y-98051686D01*
X170119816Y-98051686D02*
X170167472Y-98029914D01*
X170167472Y-98029914D02*
X170238954Y-98029914D01*
X170238954Y-98029914D02*
X170286610Y-98051686D01*
X170286610Y-98051686D02*
X170310437Y-98073457D01*
X170310437Y-98073457D02*
X170334265Y-98117000D01*
X170334265Y-98117000D02*
X170334265Y-98291171D01*
X170572541Y-97594486D02*
X170572541Y-97855743D01*
X170572541Y-97725114D02*
X170072161Y-97725114D01*
X170072161Y-97725114D02*
X170143644Y-97768657D01*
X170143644Y-97768657D02*
X170191299Y-97812200D01*
X170191299Y-97812200D02*
X170215127Y-97855743D01*
X170572541Y-97159057D02*
X170572541Y-97420314D01*
X170572541Y-97289685D02*
X170072161Y-97289685D01*
X170072161Y-97289685D02*
X170143644Y-97333228D01*
X170143644Y-97333228D02*
X170191299Y-97376771D01*
X170191299Y-97376771D02*
X170215127Y-97420314D01*
X153950886Y-100150199D02*
X153974714Y-100171971D01*
X153974714Y-100171971D02*
X153998541Y-100237285D01*
X153998541Y-100237285D02*
X153998541Y-100280828D01*
X153998541Y-100280828D02*
X153974714Y-100346142D01*
X153974714Y-100346142D02*
X153927058Y-100389685D01*
X153927058Y-100389685D02*
X153879403Y-100411456D01*
X153879403Y-100411456D02*
X153784093Y-100433228D01*
X153784093Y-100433228D02*
X153712610Y-100433228D01*
X153712610Y-100433228D02*
X153617299Y-100411456D01*
X153617299Y-100411456D02*
X153569644Y-100389685D01*
X153569644Y-100389685D02*
X153521989Y-100346142D01*
X153521989Y-100346142D02*
X153498161Y-100280828D01*
X153498161Y-100280828D02*
X153498161Y-100237285D01*
X153498161Y-100237285D02*
X153521989Y-100171971D01*
X153521989Y-100171971D02*
X153545816Y-100150199D01*
X153498161Y-99758314D02*
X153498161Y-99845399D01*
X153498161Y-99845399D02*
X153521989Y-99888942D01*
X153521989Y-99888942D02*
X153545816Y-99910714D01*
X153545816Y-99910714D02*
X153617299Y-99954256D01*
X153617299Y-99954256D02*
X153712610Y-99976028D01*
X153712610Y-99976028D02*
X153903231Y-99976028D01*
X153903231Y-99976028D02*
X153950886Y-99954256D01*
X153950886Y-99954256D02*
X153974714Y-99932485D01*
X153974714Y-99932485D02*
X153998541Y-99888942D01*
X153998541Y-99888942D02*
X153998541Y-99801856D01*
X153998541Y-99801856D02*
X153974714Y-99758314D01*
X153974714Y-99758314D02*
X153950886Y-99736542D01*
X153950886Y-99736542D02*
X153903231Y-99714771D01*
X153903231Y-99714771D02*
X153784093Y-99714771D01*
X153784093Y-99714771D02*
X153736437Y-99736542D01*
X153736437Y-99736542D02*
X153712610Y-99758314D01*
X153712610Y-99758314D02*
X153688782Y-99801856D01*
X153688782Y-99801856D02*
X153688782Y-99888942D01*
X153688782Y-99888942D02*
X153712610Y-99932485D01*
X153712610Y-99932485D02*
X153736437Y-99954256D01*
X153736437Y-99954256D02*
X153784093Y-99976028D01*
X166206085Y-95224886D02*
X166184313Y-95248714D01*
X166184313Y-95248714D02*
X166118999Y-95272541D01*
X166118999Y-95272541D02*
X166075456Y-95272541D01*
X166075456Y-95272541D02*
X166010142Y-95248714D01*
X166010142Y-95248714D02*
X165966599Y-95201058D01*
X165966599Y-95201058D02*
X165944828Y-95153403D01*
X165944828Y-95153403D02*
X165923056Y-95058093D01*
X165923056Y-95058093D02*
X165923056Y-94986610D01*
X165923056Y-94986610D02*
X165944828Y-94891299D01*
X165944828Y-94891299D02*
X165966599Y-94843644D01*
X165966599Y-94843644D02*
X166010142Y-94795989D01*
X166010142Y-94795989D02*
X166075456Y-94772161D01*
X166075456Y-94772161D02*
X166118999Y-94772161D01*
X166118999Y-94772161D02*
X166184313Y-94795989D01*
X166184313Y-94795989D02*
X166206085Y-94819816D01*
X166380256Y-94819816D02*
X166402028Y-94795989D01*
X166402028Y-94795989D02*
X166445571Y-94772161D01*
X166445571Y-94772161D02*
X166554428Y-94772161D01*
X166554428Y-94772161D02*
X166597971Y-94795989D01*
X166597971Y-94795989D02*
X166619742Y-94819816D01*
X166619742Y-94819816D02*
X166641513Y-94867472D01*
X166641513Y-94867472D02*
X166641513Y-94915127D01*
X166641513Y-94915127D02*
X166619742Y-94986610D01*
X166619742Y-94986610D02*
X166358485Y-95272541D01*
X166358485Y-95272541D02*
X166641513Y-95272541D01*
X166793914Y-94772161D02*
X167076942Y-94772161D01*
X167076942Y-94772161D02*
X166924542Y-94962782D01*
X166924542Y-94962782D02*
X166989857Y-94962782D01*
X166989857Y-94962782D02*
X167033400Y-94986610D01*
X167033400Y-94986610D02*
X167055171Y-95010437D01*
X167055171Y-95010437D02*
X167076942Y-95058093D01*
X167076942Y-95058093D02*
X167076942Y-95177231D01*
X167076942Y-95177231D02*
X167055171Y-95224886D01*
X167055171Y-95224886D02*
X167033400Y-95248714D01*
X167033400Y-95248714D02*
X166989857Y-95272541D01*
X166989857Y-95272541D02*
X166859228Y-95272541D01*
X166859228Y-95272541D02*
X166815685Y-95248714D01*
X166815685Y-95248714D02*
X166793914Y-95224886D01*
X133940541Y-82369914D02*
X133702265Y-82522314D01*
X133940541Y-82631171D02*
X133440161Y-82631171D01*
X133440161Y-82631171D02*
X133440161Y-82457000D01*
X133440161Y-82457000D02*
X133463989Y-82413457D01*
X133463989Y-82413457D02*
X133487816Y-82391686D01*
X133487816Y-82391686D02*
X133535472Y-82369914D01*
X133535472Y-82369914D02*
X133606954Y-82369914D01*
X133606954Y-82369914D02*
X133654610Y-82391686D01*
X133654610Y-82391686D02*
X133678437Y-82413457D01*
X133678437Y-82413457D02*
X133702265Y-82457000D01*
X133702265Y-82457000D02*
X133702265Y-82631171D01*
X133487816Y-82195743D02*
X133463989Y-82173971D01*
X133463989Y-82173971D02*
X133440161Y-82130429D01*
X133440161Y-82130429D02*
X133440161Y-82021571D01*
X133440161Y-82021571D02*
X133463989Y-81978029D01*
X133463989Y-81978029D02*
X133487816Y-81956257D01*
X133487816Y-81956257D02*
X133535472Y-81934486D01*
X133535472Y-81934486D02*
X133583127Y-81934486D01*
X133583127Y-81934486D02*
X133654610Y-81956257D01*
X133654610Y-81956257D02*
X133940541Y-82217514D01*
X133940541Y-82217514D02*
X133940541Y-81934486D01*
X133487816Y-81760314D02*
X133463989Y-81738542D01*
X133463989Y-81738542D02*
X133440161Y-81695000D01*
X133440161Y-81695000D02*
X133440161Y-81586142D01*
X133440161Y-81586142D02*
X133463989Y-81542600D01*
X133463989Y-81542600D02*
X133487816Y-81520828D01*
X133487816Y-81520828D02*
X133535472Y-81499057D01*
X133535472Y-81499057D02*
X133583127Y-81499057D01*
X133583127Y-81499057D02*
X133654610Y-81520828D01*
X133654610Y-81520828D02*
X133940541Y-81782085D01*
X133940541Y-81782085D02*
X133940541Y-81499057D01*
X136723685Y-91293914D02*
X136747876Y-91315686D01*
X136747876Y-91315686D02*
X136772066Y-91381000D01*
X136772066Y-91381000D02*
X136772066Y-91424543D01*
X136772066Y-91424543D02*
X136747876Y-91489857D01*
X136747876Y-91489857D02*
X136699495Y-91533400D01*
X136699495Y-91533400D02*
X136651114Y-91555171D01*
X136651114Y-91555171D02*
X136554352Y-91576943D01*
X136554352Y-91576943D02*
X136481780Y-91576943D01*
X136481780Y-91576943D02*
X136385018Y-91555171D01*
X136385018Y-91555171D02*
X136336637Y-91533400D01*
X136336637Y-91533400D02*
X136288256Y-91489857D01*
X136288256Y-91489857D02*
X136264066Y-91424543D01*
X136264066Y-91424543D02*
X136264066Y-91381000D01*
X136264066Y-91381000D02*
X136288256Y-91315686D01*
X136288256Y-91315686D02*
X136312447Y-91293914D01*
X136772066Y-90858486D02*
X136772066Y-91119743D01*
X136772066Y-90989114D02*
X136264066Y-90989114D01*
X136264066Y-90989114D02*
X136336637Y-91032657D01*
X136336637Y-91032657D02*
X136385018Y-91076200D01*
X136385018Y-91076200D02*
X136409209Y-91119743D01*
X136264066Y-90575457D02*
X136264066Y-90531914D01*
X136264066Y-90531914D02*
X136288256Y-90488371D01*
X136288256Y-90488371D02*
X136312447Y-90466600D01*
X136312447Y-90466600D02*
X136360828Y-90444828D01*
X136360828Y-90444828D02*
X136457590Y-90423057D01*
X136457590Y-90423057D02*
X136578542Y-90423057D01*
X136578542Y-90423057D02*
X136675304Y-90444828D01*
X136675304Y-90444828D02*
X136723685Y-90466600D01*
X136723685Y-90466600D02*
X136747876Y-90488371D01*
X136747876Y-90488371D02*
X136772066Y-90531914D01*
X136772066Y-90531914D02*
X136772066Y-90575457D01*
X136772066Y-90575457D02*
X136747876Y-90619000D01*
X136747876Y-90619000D02*
X136723685Y-90640771D01*
X136723685Y-90640771D02*
X136675304Y-90662542D01*
X136675304Y-90662542D02*
X136578542Y-90684314D01*
X136578542Y-90684314D02*
X136457590Y-90684314D01*
X136457590Y-90684314D02*
X136360828Y-90662542D01*
X136360828Y-90662542D02*
X136312447Y-90640771D01*
X136312447Y-90640771D02*
X136288256Y-90619000D01*
X136288256Y-90619000D02*
X136264066Y-90575457D01*
X140848541Y-78067914D02*
X140610265Y-78220314D01*
X140848541Y-78329171D02*
X140348161Y-78329171D01*
X140348161Y-78329171D02*
X140348161Y-78155000D01*
X140348161Y-78155000D02*
X140371989Y-78111457D01*
X140371989Y-78111457D02*
X140395816Y-78089686D01*
X140395816Y-78089686D02*
X140443472Y-78067914D01*
X140443472Y-78067914D02*
X140514954Y-78067914D01*
X140514954Y-78067914D02*
X140562610Y-78089686D01*
X140562610Y-78089686D02*
X140586437Y-78111457D01*
X140586437Y-78111457D02*
X140610265Y-78155000D01*
X140610265Y-78155000D02*
X140610265Y-78329171D01*
X140395816Y-77893743D02*
X140371989Y-77871971D01*
X140371989Y-77871971D02*
X140348161Y-77828429D01*
X140348161Y-77828429D02*
X140348161Y-77719571D01*
X140348161Y-77719571D02*
X140371989Y-77676029D01*
X140371989Y-77676029D02*
X140395816Y-77654257D01*
X140395816Y-77654257D02*
X140443472Y-77632486D01*
X140443472Y-77632486D02*
X140491127Y-77632486D01*
X140491127Y-77632486D02*
X140562610Y-77654257D01*
X140562610Y-77654257D02*
X140848541Y-77915514D01*
X140848541Y-77915514D02*
X140848541Y-77632486D01*
X140848541Y-77197057D02*
X140848541Y-77458314D01*
X140848541Y-77327685D02*
X140348161Y-77327685D01*
X140348161Y-77327685D02*
X140419644Y-77371228D01*
X140419644Y-77371228D02*
X140467299Y-77414771D01*
X140467299Y-77414771D02*
X140491127Y-77458314D01*
X146287685Y-96355914D02*
X146311876Y-96377686D01*
X146311876Y-96377686D02*
X146336066Y-96443000D01*
X146336066Y-96443000D02*
X146336066Y-96486543D01*
X146336066Y-96486543D02*
X146311876Y-96551857D01*
X146311876Y-96551857D02*
X146263495Y-96595400D01*
X146263495Y-96595400D02*
X146215114Y-96617171D01*
X146215114Y-96617171D02*
X146118352Y-96638943D01*
X146118352Y-96638943D02*
X146045780Y-96638943D01*
X146045780Y-96638943D02*
X145949018Y-96617171D01*
X145949018Y-96617171D02*
X145900637Y-96595400D01*
X145900637Y-96595400D02*
X145852256Y-96551857D01*
X145852256Y-96551857D02*
X145828066Y-96486543D01*
X145828066Y-96486543D02*
X145828066Y-96443000D01*
X145828066Y-96443000D02*
X145852256Y-96377686D01*
X145852256Y-96377686D02*
X145876447Y-96355914D01*
X146336066Y-95920486D02*
X146336066Y-96181743D01*
X146336066Y-96051114D02*
X145828066Y-96051114D01*
X145828066Y-96051114D02*
X145900637Y-96094657D01*
X145900637Y-96094657D02*
X145949018Y-96138200D01*
X145949018Y-96138200D02*
X145973209Y-96181743D01*
X146336066Y-95485057D02*
X146336066Y-95746314D01*
X146336066Y-95615685D02*
X145828066Y-95615685D01*
X145828066Y-95615685D02*
X145900637Y-95659228D01*
X145900637Y-95659228D02*
X145949018Y-95702771D01*
X145949018Y-95702771D02*
X145973209Y-95746314D01*
X165380085Y-81492886D02*
X165358313Y-81516714D01*
X165358313Y-81516714D02*
X165292999Y-81540541D01*
X165292999Y-81540541D02*
X165249456Y-81540541D01*
X165249456Y-81540541D02*
X165184142Y-81516714D01*
X165184142Y-81516714D02*
X165140599Y-81469058D01*
X165140599Y-81469058D02*
X165118828Y-81421403D01*
X165118828Y-81421403D02*
X165097056Y-81326093D01*
X165097056Y-81326093D02*
X165097056Y-81254610D01*
X165097056Y-81254610D02*
X165118828Y-81159299D01*
X165118828Y-81159299D02*
X165140599Y-81111644D01*
X165140599Y-81111644D02*
X165184142Y-81063989D01*
X165184142Y-81063989D02*
X165249456Y-81040161D01*
X165249456Y-81040161D02*
X165292999Y-81040161D01*
X165292999Y-81040161D02*
X165358313Y-81063989D01*
X165358313Y-81063989D02*
X165380085Y-81087816D01*
X165815513Y-81540541D02*
X165554256Y-81540541D01*
X165684885Y-81540541D02*
X165684885Y-81040161D01*
X165684885Y-81040161D02*
X165641342Y-81111644D01*
X165641342Y-81111644D02*
X165597799Y-81159299D01*
X165597799Y-81159299D02*
X165554256Y-81183127D01*
X166076771Y-81254610D02*
X166033228Y-81230782D01*
X166033228Y-81230782D02*
X166011457Y-81206954D01*
X166011457Y-81206954D02*
X165989685Y-81159299D01*
X165989685Y-81159299D02*
X165989685Y-81135472D01*
X165989685Y-81135472D02*
X166011457Y-81087816D01*
X166011457Y-81087816D02*
X166033228Y-81063989D01*
X166033228Y-81063989D02*
X166076771Y-81040161D01*
X166076771Y-81040161D02*
X166163857Y-81040161D01*
X166163857Y-81040161D02*
X166207400Y-81063989D01*
X166207400Y-81063989D02*
X166229171Y-81087816D01*
X166229171Y-81087816D02*
X166250942Y-81135472D01*
X166250942Y-81135472D02*
X166250942Y-81159299D01*
X166250942Y-81159299D02*
X166229171Y-81206954D01*
X166229171Y-81206954D02*
X166207400Y-81230782D01*
X166207400Y-81230782D02*
X166163857Y-81254610D01*
X166163857Y-81254610D02*
X166076771Y-81254610D01*
X166076771Y-81254610D02*
X166033228Y-81278437D01*
X166033228Y-81278437D02*
X166011457Y-81302265D01*
X166011457Y-81302265D02*
X165989685Y-81349920D01*
X165989685Y-81349920D02*
X165989685Y-81445231D01*
X165989685Y-81445231D02*
X166011457Y-81492886D01*
X166011457Y-81492886D02*
X166033228Y-81516714D01*
X166033228Y-81516714D02*
X166076771Y-81540541D01*
X166076771Y-81540541D02*
X166163857Y-81540541D01*
X166163857Y-81540541D02*
X166207400Y-81516714D01*
X166207400Y-81516714D02*
X166229171Y-81492886D01*
X166229171Y-81492886D02*
X166250942Y-81445231D01*
X166250942Y-81445231D02*
X166250942Y-81349920D01*
X166250942Y-81349920D02*
X166229171Y-81302265D01*
X166229171Y-81302265D02*
X166207400Y-81278437D01*
X166207400Y-81278437D02*
X166163857Y-81254610D01*
D13*
X196744038Y-89228285D02*
X196816610Y-89300857D01*
X196816610Y-89300857D02*
X196889181Y-89518571D01*
X196889181Y-89518571D02*
X196889181Y-89663714D01*
X196889181Y-89663714D02*
X196816610Y-89881428D01*
X196816610Y-89881428D02*
X196671467Y-90026571D01*
X196671467Y-90026571D02*
X196526324Y-90099142D01*
X196526324Y-90099142D02*
X196236038Y-90171714D01*
X196236038Y-90171714D02*
X196018324Y-90171714D01*
X196018324Y-90171714D02*
X195728038Y-90099142D01*
X195728038Y-90099142D02*
X195582895Y-90026571D01*
X195582895Y-90026571D02*
X195437752Y-89881428D01*
X195437752Y-89881428D02*
X195365181Y-89663714D01*
X195365181Y-89663714D02*
X195365181Y-89518571D01*
X195365181Y-89518571D02*
X195437752Y-89300857D01*
X195437752Y-89300857D02*
X195510324Y-89228285D01*
D11*
X152873800Y-86077886D02*
X152852028Y-86101714D01*
X152852028Y-86101714D02*
X152786714Y-86125541D01*
X152786714Y-86125541D02*
X152743171Y-86125541D01*
X152743171Y-86125541D02*
X152677857Y-86101714D01*
X152677857Y-86101714D02*
X152634314Y-86054058D01*
X152634314Y-86054058D02*
X152612543Y-86006403D01*
X152612543Y-86006403D02*
X152590771Y-85911093D01*
X152590771Y-85911093D02*
X152590771Y-85839610D01*
X152590771Y-85839610D02*
X152612543Y-85744299D01*
X152612543Y-85744299D02*
X152634314Y-85696644D01*
X152634314Y-85696644D02*
X152677857Y-85648989D01*
X152677857Y-85648989D02*
X152743171Y-85625161D01*
X152743171Y-85625161D02*
X152786714Y-85625161D01*
X152786714Y-85625161D02*
X152852028Y-85648989D01*
X152852028Y-85648989D02*
X152873800Y-85672816D01*
X153135057Y-85839610D02*
X153091514Y-85815782D01*
X153091514Y-85815782D02*
X153069743Y-85791954D01*
X153069743Y-85791954D02*
X153047971Y-85744299D01*
X153047971Y-85744299D02*
X153047971Y-85720472D01*
X153047971Y-85720472D02*
X153069743Y-85672816D01*
X153069743Y-85672816D02*
X153091514Y-85648989D01*
X153091514Y-85648989D02*
X153135057Y-85625161D01*
X153135057Y-85625161D02*
X153222143Y-85625161D01*
X153222143Y-85625161D02*
X153265686Y-85648989D01*
X153265686Y-85648989D02*
X153287457Y-85672816D01*
X153287457Y-85672816D02*
X153309228Y-85720472D01*
X153309228Y-85720472D02*
X153309228Y-85744299D01*
X153309228Y-85744299D02*
X153287457Y-85791954D01*
X153287457Y-85791954D02*
X153265686Y-85815782D01*
X153265686Y-85815782D02*
X153222143Y-85839610D01*
X153222143Y-85839610D02*
X153135057Y-85839610D01*
X153135057Y-85839610D02*
X153091514Y-85863437D01*
X153091514Y-85863437D02*
X153069743Y-85887265D01*
X153069743Y-85887265D02*
X153047971Y-85934920D01*
X153047971Y-85934920D02*
X153047971Y-86030231D01*
X153047971Y-86030231D02*
X153069743Y-86077886D01*
X153069743Y-86077886D02*
X153091514Y-86101714D01*
X153091514Y-86101714D02*
X153135057Y-86125541D01*
X153135057Y-86125541D02*
X153222143Y-86125541D01*
X153222143Y-86125541D02*
X153265686Y-86101714D01*
X153265686Y-86101714D02*
X153287457Y-86077886D01*
X153287457Y-86077886D02*
X153309228Y-86030231D01*
X153309228Y-86030231D02*
X153309228Y-85934920D01*
X153309228Y-85934920D02*
X153287457Y-85887265D01*
X153287457Y-85887265D02*
X153265686Y-85863437D01*
X153265686Y-85863437D02*
X153222143Y-85839610D01*
D12*
X179824819Y-89092857D02*
X179348628Y-89426190D01*
X179824819Y-89664285D02*
X178824819Y-89664285D01*
X178824819Y-89664285D02*
X178824819Y-89283333D01*
X178824819Y-89283333D02*
X178872438Y-89188095D01*
X178872438Y-89188095D02*
X178920057Y-89140476D01*
X178920057Y-89140476D02*
X179015295Y-89092857D01*
X179015295Y-89092857D02*
X179158152Y-89092857D01*
X179158152Y-89092857D02*
X179253390Y-89140476D01*
X179253390Y-89140476D02*
X179301009Y-89188095D01*
X179301009Y-89188095D02*
X179348628Y-89283333D01*
X179348628Y-89283333D02*
X179348628Y-89664285D01*
X179824819Y-88140476D02*
X179824819Y-88711904D01*
X179824819Y-88426190D02*
X178824819Y-88426190D01*
X178824819Y-88426190D02*
X178967676Y-88521428D01*
X178967676Y-88521428D02*
X179062914Y-88616666D01*
X179062914Y-88616666D02*
X179110533Y-88711904D01*
X179253390Y-87569047D02*
X179205771Y-87664285D01*
X179205771Y-87664285D02*
X179158152Y-87711904D01*
X179158152Y-87711904D02*
X179062914Y-87759523D01*
X179062914Y-87759523D02*
X179015295Y-87759523D01*
X179015295Y-87759523D02*
X178920057Y-87711904D01*
X178920057Y-87711904D02*
X178872438Y-87664285D01*
X178872438Y-87664285D02*
X178824819Y-87569047D01*
X178824819Y-87569047D02*
X178824819Y-87378571D01*
X178824819Y-87378571D02*
X178872438Y-87283333D01*
X178872438Y-87283333D02*
X178920057Y-87235714D01*
X178920057Y-87235714D02*
X179015295Y-87188095D01*
X179015295Y-87188095D02*
X179062914Y-87188095D01*
X179062914Y-87188095D02*
X179158152Y-87235714D01*
X179158152Y-87235714D02*
X179205771Y-87283333D01*
X179205771Y-87283333D02*
X179253390Y-87378571D01*
X179253390Y-87378571D02*
X179253390Y-87569047D01*
X179253390Y-87569047D02*
X179301009Y-87664285D01*
X179301009Y-87664285D02*
X179348628Y-87711904D01*
X179348628Y-87711904D02*
X179443866Y-87759523D01*
X179443866Y-87759523D02*
X179634342Y-87759523D01*
X179634342Y-87759523D02*
X179729580Y-87711904D01*
X179729580Y-87711904D02*
X179777200Y-87664285D01*
X179777200Y-87664285D02*
X179824819Y-87569047D01*
X179824819Y-87569047D02*
X179824819Y-87378571D01*
X179824819Y-87378571D02*
X179777200Y-87283333D01*
X179777200Y-87283333D02*
X179729580Y-87235714D01*
X179729580Y-87235714D02*
X179634342Y-87188095D01*
X179634342Y-87188095D02*
X179443866Y-87188095D01*
X179443866Y-87188095D02*
X179348628Y-87235714D01*
X179348628Y-87235714D02*
X179301009Y-87283333D01*
X179301009Y-87283333D02*
X179253390Y-87378571D01*
X125838095Y-79404819D02*
X125838095Y-78404819D01*
X125838095Y-78404819D02*
X126409523Y-79404819D01*
X126409523Y-79404819D02*
X126409523Y-78404819D01*
X127457142Y-79404819D02*
X127123809Y-78928628D01*
X126885714Y-79404819D02*
X126885714Y-78404819D01*
X126885714Y-78404819D02*
X127266666Y-78404819D01*
X127266666Y-78404819D02*
X127361904Y-78452438D01*
X127361904Y-78452438D02*
X127409523Y-78500057D01*
X127409523Y-78500057D02*
X127457142Y-78595295D01*
X127457142Y-78595295D02*
X127457142Y-78738152D01*
X127457142Y-78738152D02*
X127409523Y-78833390D01*
X127409523Y-78833390D02*
X127361904Y-78881009D01*
X127361904Y-78881009D02*
X127266666Y-78928628D01*
X127266666Y-78928628D02*
X126885714Y-78928628D01*
X128409523Y-79404819D02*
X127838095Y-79404819D01*
X128123809Y-79404819D02*
X128123809Y-78404819D01*
X128123809Y-78404819D02*
X128028571Y-78547676D01*
X128028571Y-78547676D02*
X127933333Y-78642914D01*
X127933333Y-78642914D02*
X127838095Y-78690533D01*
X183874819Y-99422857D02*
X183398628Y-99756190D01*
X183874819Y-99994285D02*
X182874819Y-99994285D01*
X182874819Y-99994285D02*
X182874819Y-99613333D01*
X182874819Y-99613333D02*
X182922438Y-99518095D01*
X182922438Y-99518095D02*
X182970057Y-99470476D01*
X182970057Y-99470476D02*
X183065295Y-99422857D01*
X183065295Y-99422857D02*
X183208152Y-99422857D01*
X183208152Y-99422857D02*
X183303390Y-99470476D01*
X183303390Y-99470476D02*
X183351009Y-99518095D01*
X183351009Y-99518095D02*
X183398628Y-99613333D01*
X183398628Y-99613333D02*
X183398628Y-99994285D01*
X183874819Y-98470476D02*
X183874819Y-99041904D01*
X183874819Y-98756190D02*
X182874819Y-98756190D01*
X182874819Y-98756190D02*
X183017676Y-98851428D01*
X183017676Y-98851428D02*
X183112914Y-98946666D01*
X183112914Y-98946666D02*
X183160533Y-99041904D01*
X183874819Y-97994285D02*
X183874819Y-97803809D01*
X183874819Y-97803809D02*
X183827200Y-97708571D01*
X183827200Y-97708571D02*
X183779580Y-97660952D01*
X183779580Y-97660952D02*
X183636723Y-97565714D01*
X183636723Y-97565714D02*
X183446247Y-97518095D01*
X183446247Y-97518095D02*
X183065295Y-97518095D01*
X183065295Y-97518095D02*
X182970057Y-97565714D01*
X182970057Y-97565714D02*
X182922438Y-97613333D01*
X182922438Y-97613333D02*
X182874819Y-97708571D01*
X182874819Y-97708571D02*
X182874819Y-97899047D01*
X182874819Y-97899047D02*
X182922438Y-97994285D01*
X182922438Y-97994285D02*
X182970057Y-98041904D01*
X182970057Y-98041904D02*
X183065295Y-98089523D01*
X183065295Y-98089523D02*
X183303390Y-98089523D01*
X183303390Y-98089523D02*
X183398628Y-98041904D01*
X183398628Y-98041904D02*
X183446247Y-97994285D01*
X183446247Y-97994285D02*
X183493866Y-97899047D01*
X183493866Y-97899047D02*
X183493866Y-97708571D01*
X183493866Y-97708571D02*
X183446247Y-97613333D01*
X183446247Y-97613333D02*
X183398628Y-97565714D01*
X183398628Y-97565714D02*
X183303390Y-97518095D01*
D11*
X141672541Y-80091914D02*
X141434265Y-80244314D01*
X141672541Y-80353171D02*
X141172161Y-80353171D01*
X141172161Y-80353171D02*
X141172161Y-80179000D01*
X141172161Y-80179000D02*
X141195989Y-80135457D01*
X141195989Y-80135457D02*
X141219816Y-80113686D01*
X141219816Y-80113686D02*
X141267472Y-80091914D01*
X141267472Y-80091914D02*
X141338954Y-80091914D01*
X141338954Y-80091914D02*
X141386610Y-80113686D01*
X141386610Y-80113686D02*
X141410437Y-80135457D01*
X141410437Y-80135457D02*
X141434265Y-80179000D01*
X141434265Y-80179000D02*
X141434265Y-80353171D01*
X141219816Y-79917743D02*
X141195989Y-79895971D01*
X141195989Y-79895971D02*
X141172161Y-79852429D01*
X141172161Y-79852429D02*
X141172161Y-79743571D01*
X141172161Y-79743571D02*
X141195989Y-79700029D01*
X141195989Y-79700029D02*
X141219816Y-79678257D01*
X141219816Y-79678257D02*
X141267472Y-79656486D01*
X141267472Y-79656486D02*
X141315127Y-79656486D01*
X141315127Y-79656486D02*
X141386610Y-79678257D01*
X141386610Y-79678257D02*
X141672541Y-79939514D01*
X141672541Y-79939514D02*
X141672541Y-79656486D01*
X141338954Y-79264600D02*
X141672541Y-79264600D01*
X141148334Y-79373457D02*
X141505748Y-79482314D01*
X141505748Y-79482314D02*
X141505748Y-79199285D01*
X151480886Y-88152199D02*
X151504714Y-88173971D01*
X151504714Y-88173971D02*
X151528541Y-88239285D01*
X151528541Y-88239285D02*
X151528541Y-88282828D01*
X151528541Y-88282828D02*
X151504714Y-88348142D01*
X151504714Y-88348142D02*
X151457058Y-88391685D01*
X151457058Y-88391685D02*
X151409403Y-88413456D01*
X151409403Y-88413456D02*
X151314093Y-88435228D01*
X151314093Y-88435228D02*
X151242610Y-88435228D01*
X151242610Y-88435228D02*
X151147299Y-88413456D01*
X151147299Y-88413456D02*
X151099644Y-88391685D01*
X151099644Y-88391685D02*
X151051989Y-88348142D01*
X151051989Y-88348142D02*
X151028161Y-88282828D01*
X151028161Y-88282828D02*
X151028161Y-88239285D01*
X151028161Y-88239285D02*
X151051989Y-88173971D01*
X151051989Y-88173971D02*
X151075816Y-88152199D01*
X151528541Y-87716771D02*
X151528541Y-87978028D01*
X151528541Y-87847399D02*
X151028161Y-87847399D01*
X151028161Y-87847399D02*
X151099644Y-87890942D01*
X151099644Y-87890942D02*
X151147299Y-87934485D01*
X151147299Y-87934485D02*
X151171127Y-87978028D01*
D12*
X167509580Y-101342857D02*
X167557200Y-101390476D01*
X167557200Y-101390476D02*
X167604819Y-101533333D01*
X167604819Y-101533333D02*
X167604819Y-101628571D01*
X167604819Y-101628571D02*
X167557200Y-101771428D01*
X167557200Y-101771428D02*
X167461961Y-101866666D01*
X167461961Y-101866666D02*
X167366723Y-101914285D01*
X167366723Y-101914285D02*
X167176247Y-101961904D01*
X167176247Y-101961904D02*
X167033390Y-101961904D01*
X167033390Y-101961904D02*
X166842914Y-101914285D01*
X166842914Y-101914285D02*
X166747676Y-101866666D01*
X166747676Y-101866666D02*
X166652438Y-101771428D01*
X166652438Y-101771428D02*
X166604819Y-101628571D01*
X166604819Y-101628571D02*
X166604819Y-101533333D01*
X166604819Y-101533333D02*
X166652438Y-101390476D01*
X166652438Y-101390476D02*
X166700057Y-101342857D01*
X166700057Y-100961904D02*
X166652438Y-100914285D01*
X166652438Y-100914285D02*
X166604819Y-100819047D01*
X166604819Y-100819047D02*
X166604819Y-100580952D01*
X166604819Y-100580952D02*
X166652438Y-100485714D01*
X166652438Y-100485714D02*
X166700057Y-100438095D01*
X166700057Y-100438095D02*
X166795295Y-100390476D01*
X166795295Y-100390476D02*
X166890533Y-100390476D01*
X166890533Y-100390476D02*
X167033390Y-100438095D01*
X167033390Y-100438095D02*
X167604819Y-101009523D01*
X167604819Y-101009523D02*
X167604819Y-100390476D01*
X166604819Y-99533333D02*
X166604819Y-99723809D01*
X166604819Y-99723809D02*
X166652438Y-99819047D01*
X166652438Y-99819047D02*
X166700057Y-99866666D01*
X166700057Y-99866666D02*
X166842914Y-99961904D01*
X166842914Y-99961904D02*
X167033390Y-100009523D01*
X167033390Y-100009523D02*
X167414342Y-100009523D01*
X167414342Y-100009523D02*
X167509580Y-99961904D01*
X167509580Y-99961904D02*
X167557200Y-99914285D01*
X167557200Y-99914285D02*
X167604819Y-99819047D01*
X167604819Y-99819047D02*
X167604819Y-99628571D01*
X167604819Y-99628571D02*
X167557200Y-99533333D01*
X167557200Y-99533333D02*
X167509580Y-99485714D01*
X167509580Y-99485714D02*
X167414342Y-99438095D01*
X167414342Y-99438095D02*
X167176247Y-99438095D01*
X167176247Y-99438095D02*
X167081009Y-99485714D01*
X167081009Y-99485714D02*
X167033390Y-99533333D01*
X167033390Y-99533333D02*
X166985771Y-99628571D01*
X166985771Y-99628571D02*
X166985771Y-99819047D01*
X166985771Y-99819047D02*
X167033390Y-99914285D01*
X167033390Y-99914285D02*
X167081009Y-99961904D01*
X167081009Y-99961904D02*
X167176247Y-100009523D01*
X168628571Y-71839700D02*
X169771429Y-71839700D01*
X169200000Y-72411128D02*
X169200000Y-71268271D01*
X179628571Y-71839700D02*
X180771429Y-71839700D01*
D11*
X149447800Y-93492886D02*
X149426028Y-93516714D01*
X149426028Y-93516714D02*
X149360714Y-93540541D01*
X149360714Y-93540541D02*
X149317171Y-93540541D01*
X149317171Y-93540541D02*
X149251857Y-93516714D01*
X149251857Y-93516714D02*
X149208314Y-93469058D01*
X149208314Y-93469058D02*
X149186543Y-93421403D01*
X149186543Y-93421403D02*
X149164771Y-93326093D01*
X149164771Y-93326093D02*
X149164771Y-93254610D01*
X149164771Y-93254610D02*
X149186543Y-93159299D01*
X149186543Y-93159299D02*
X149208314Y-93111644D01*
X149208314Y-93111644D02*
X149251857Y-93063989D01*
X149251857Y-93063989D02*
X149317171Y-93040161D01*
X149317171Y-93040161D02*
X149360714Y-93040161D01*
X149360714Y-93040161D02*
X149426028Y-93063989D01*
X149426028Y-93063989D02*
X149447800Y-93087816D01*
X149600200Y-93040161D02*
X149883228Y-93040161D01*
X149883228Y-93040161D02*
X149730828Y-93230782D01*
X149730828Y-93230782D02*
X149796143Y-93230782D01*
X149796143Y-93230782D02*
X149839686Y-93254610D01*
X149839686Y-93254610D02*
X149861457Y-93278437D01*
X149861457Y-93278437D02*
X149883228Y-93326093D01*
X149883228Y-93326093D02*
X149883228Y-93445231D01*
X149883228Y-93445231D02*
X149861457Y-93492886D01*
X149861457Y-93492886D02*
X149839686Y-93516714D01*
X149839686Y-93516714D02*
X149796143Y-93540541D01*
X149796143Y-93540541D02*
X149665514Y-93540541D01*
X149665514Y-93540541D02*
X149621971Y-93516714D01*
X149621971Y-93516714D02*
X149600200Y-93492886D01*
X170672541Y-92712199D02*
X170434265Y-92864599D01*
X170672541Y-92973456D02*
X170172161Y-92973456D01*
X170172161Y-92973456D02*
X170172161Y-92799285D01*
X170172161Y-92799285D02*
X170195989Y-92755742D01*
X170195989Y-92755742D02*
X170219816Y-92733971D01*
X170219816Y-92733971D02*
X170267472Y-92712199D01*
X170267472Y-92712199D02*
X170338954Y-92712199D01*
X170338954Y-92712199D02*
X170386610Y-92733971D01*
X170386610Y-92733971D02*
X170410437Y-92755742D01*
X170410437Y-92755742D02*
X170434265Y-92799285D01*
X170434265Y-92799285D02*
X170434265Y-92973456D01*
X170386610Y-92450942D02*
X170362782Y-92494485D01*
X170362782Y-92494485D02*
X170338954Y-92516256D01*
X170338954Y-92516256D02*
X170291299Y-92538028D01*
X170291299Y-92538028D02*
X170267472Y-92538028D01*
X170267472Y-92538028D02*
X170219816Y-92516256D01*
X170219816Y-92516256D02*
X170195989Y-92494485D01*
X170195989Y-92494485D02*
X170172161Y-92450942D01*
X170172161Y-92450942D02*
X170172161Y-92363856D01*
X170172161Y-92363856D02*
X170195989Y-92320314D01*
X170195989Y-92320314D02*
X170219816Y-92298542D01*
X170219816Y-92298542D02*
X170267472Y-92276771D01*
X170267472Y-92276771D02*
X170291299Y-92276771D01*
X170291299Y-92276771D02*
X170338954Y-92298542D01*
X170338954Y-92298542D02*
X170362782Y-92320314D01*
X170362782Y-92320314D02*
X170386610Y-92363856D01*
X170386610Y-92363856D02*
X170386610Y-92450942D01*
X170386610Y-92450942D02*
X170410437Y-92494485D01*
X170410437Y-92494485D02*
X170434265Y-92516256D01*
X170434265Y-92516256D02*
X170481920Y-92538028D01*
X170481920Y-92538028D02*
X170577231Y-92538028D01*
X170577231Y-92538028D02*
X170624886Y-92516256D01*
X170624886Y-92516256D02*
X170648714Y-92494485D01*
X170648714Y-92494485D02*
X170672541Y-92450942D01*
X170672541Y-92450942D02*
X170672541Y-92363856D01*
X170672541Y-92363856D02*
X170648714Y-92320314D01*
X170648714Y-92320314D02*
X170624886Y-92298542D01*
X170624886Y-92298542D02*
X170577231Y-92276771D01*
X170577231Y-92276771D02*
X170481920Y-92276771D01*
X170481920Y-92276771D02*
X170434265Y-92298542D01*
X170434265Y-92298542D02*
X170410437Y-92320314D01*
X170410437Y-92320314D02*
X170386610Y-92363856D01*
X137098541Y-76717914D02*
X136860265Y-76870314D01*
X137098541Y-76979171D02*
X136598161Y-76979171D01*
X136598161Y-76979171D02*
X136598161Y-76805000D01*
X136598161Y-76805000D02*
X136621989Y-76761457D01*
X136621989Y-76761457D02*
X136645816Y-76739686D01*
X136645816Y-76739686D02*
X136693472Y-76717914D01*
X136693472Y-76717914D02*
X136764954Y-76717914D01*
X136764954Y-76717914D02*
X136812610Y-76739686D01*
X136812610Y-76739686D02*
X136836437Y-76761457D01*
X136836437Y-76761457D02*
X136860265Y-76805000D01*
X136860265Y-76805000D02*
X136860265Y-76979171D01*
X136645816Y-76543743D02*
X136621989Y-76521971D01*
X136621989Y-76521971D02*
X136598161Y-76478429D01*
X136598161Y-76478429D02*
X136598161Y-76369571D01*
X136598161Y-76369571D02*
X136621989Y-76326029D01*
X136621989Y-76326029D02*
X136645816Y-76304257D01*
X136645816Y-76304257D02*
X136693472Y-76282486D01*
X136693472Y-76282486D02*
X136741127Y-76282486D01*
X136741127Y-76282486D02*
X136812610Y-76304257D01*
X136812610Y-76304257D02*
X137098541Y-76565514D01*
X137098541Y-76565514D02*
X137098541Y-76282486D01*
X136598161Y-76130085D02*
X136598161Y-75847057D01*
X136598161Y-75847057D02*
X136788782Y-75999457D01*
X136788782Y-75999457D02*
X136788782Y-75934142D01*
X136788782Y-75934142D02*
X136812610Y-75890600D01*
X136812610Y-75890600D02*
X136836437Y-75868828D01*
X136836437Y-75868828D02*
X136884093Y-75847057D01*
X136884093Y-75847057D02*
X137003231Y-75847057D01*
X137003231Y-75847057D02*
X137050886Y-75868828D01*
X137050886Y-75868828D02*
X137074714Y-75890600D01*
X137074714Y-75890600D02*
X137098541Y-75934142D01*
X137098541Y-75934142D02*
X137098541Y-76064771D01*
X137098541Y-76064771D02*
X137074714Y-76108314D01*
X137074714Y-76108314D02*
X137050886Y-76130085D01*
D14*
X133980609Y-87166856D02*
X134742609Y-86658856D01*
X133980609Y-86658856D02*
X134742609Y-87166856D01*
X134053181Y-86404857D02*
X134016895Y-86368571D01*
X134016895Y-86368571D02*
X133980609Y-86296000D01*
X133980609Y-86296000D02*
X133980609Y-86114571D01*
X133980609Y-86114571D02*
X134016895Y-86042000D01*
X134016895Y-86042000D02*
X134053181Y-86005714D01*
X134053181Y-86005714D02*
X134125752Y-85969428D01*
X134125752Y-85969428D02*
X134198324Y-85969428D01*
X134198324Y-85969428D02*
X134307181Y-86005714D01*
X134307181Y-86005714D02*
X134742609Y-86441142D01*
X134742609Y-86441142D02*
X134742609Y-85969428D01*
D15*
%TO.C,R5*%
X152201500Y-81493500D02*
X152201500Y-82199620D01*
X152201500Y-83906500D02*
X152201500Y-83200380D01*
X153598500Y-81493500D02*
X152201500Y-81493500D01*
X153598500Y-82199620D02*
X153598500Y-81493500D01*
X153598500Y-83906500D02*
X152201500Y-83906500D01*
X153598500Y-83906500D02*
X153598500Y-83200380D01*
D16*
%TO.C,J5*%
X152965000Y-64110000D02*
X152965000Y-65710000D01*
X152965000Y-65710000D02*
X154765000Y-65710000D01*
X154235000Y-61240000D02*
X162665000Y-61240000D01*
X154765000Y-65710000D02*
X154765000Y-66650000D01*
X163935000Y-64110000D02*
X163935000Y-65710000D01*
X163935000Y-65710000D02*
X162135000Y-65710000D01*
%TO.C,Q1*%
X194215000Y-91070000D02*
X188325000Y-91070000D01*
X194215000Y-96210000D02*
X188325000Y-96210000D01*
X195175000Y-95805000D02*
X194845000Y-95565000D01*
X195175000Y-95325000D01*
X195175000Y-95805000D01*
G36*
X195175000Y-95805000D02*
G01*
X194845000Y-95565000D01*
X195175000Y-95325000D01*
X195175000Y-95805000D01*
G37*
D15*
%TO.C,R9*%
X167555500Y-93463500D02*
X167555500Y-94860500D01*
X167555500Y-94860500D02*
X168261620Y-94860500D01*
X168261620Y-93463500D02*
X167555500Y-93463500D01*
X169968500Y-93463500D02*
X169262380Y-93463500D01*
X169968500Y-93463500D02*
X169968500Y-94860500D01*
X169968500Y-94860500D02*
X169262380Y-94860500D01*
D16*
%TO.C,R17*%
X187387258Y-75957500D02*
X186912742Y-75957500D01*
X187387258Y-77002500D02*
X186912742Y-77002500D01*
%TO.C,L1*%
X156400500Y-72952780D02*
X158700500Y-72952780D01*
X156400500Y-80352780D02*
X156400500Y-72952780D01*
X158700500Y-80352780D02*
X156400500Y-80352780D01*
X161500500Y-72952780D02*
X163800500Y-72952780D01*
X163800500Y-72952780D02*
X163800500Y-80352780D01*
X163800500Y-80352780D02*
X161500500Y-80352780D01*
%TO.C,R15*%
X187237258Y-89307500D02*
X186762742Y-89307500D01*
X187237258Y-90352500D02*
X186762742Y-90352500D01*
%TO.C,R2*%
X146587742Y-99227500D02*
X147062258Y-99227500D01*
X146587742Y-100272500D02*
X147062258Y-100272500D01*
D15*
%TO.C,R7*%
X166701500Y-81505500D02*
X166701500Y-82211620D01*
X166701500Y-81505500D02*
X168098500Y-81505500D01*
X166701500Y-83212380D02*
X166701500Y-83918500D01*
X166701500Y-83918500D02*
X168098500Y-83918500D01*
X168098500Y-81505500D02*
X168098500Y-82211620D01*
X168098500Y-83918500D02*
X168098500Y-83212380D01*
D16*
%TO.C,U4*%
X136200000Y-70877500D02*
X135400000Y-70877500D01*
X136200000Y-70877500D02*
X137000000Y-70877500D01*
X136200000Y-73997500D02*
X135400000Y-73997500D01*
X136200000Y-73997500D02*
X137000000Y-73997500D01*
X134900000Y-70927500D02*
X134660000Y-70597500D01*
X135140000Y-70597500D01*
X134900000Y-70927500D01*
G36*
X134900000Y-70927500D02*
G01*
X134660000Y-70597500D01*
X135140000Y-70597500D01*
X134900000Y-70927500D01*
G37*
%TO.C,R12*%
X193057742Y-75907500D02*
X193532258Y-75907500D01*
X193057742Y-76952500D02*
X193532258Y-76952500D01*
%TO.C,R20*%
X177377500Y-77912258D02*
X177377500Y-77437742D01*
X178422500Y-77912258D02*
X178422500Y-77437742D01*
%TO.C,Q5*%
X194140000Y-64545000D02*
X188250000Y-64545000D01*
X194140000Y-69685000D02*
X188250000Y-69685000D01*
X195100000Y-69280000D02*
X194770000Y-69040000D01*
X195100000Y-68800000D01*
X195100000Y-69280000D01*
G36*
X195100000Y-69280000D02*
G01*
X194770000Y-69040000D01*
X195100000Y-68800000D01*
X195100000Y-69280000D01*
G37*
D17*
%TO.C,C12*%
X148999760Y-81237620D02*
X148999760Y-80539120D01*
X148999760Y-82238380D02*
X148999760Y-82936880D01*
X149015000Y-80539120D02*
X150285000Y-80539120D01*
X150285000Y-82936880D02*
X149015000Y-82936880D01*
X150300240Y-80539120D02*
X150300240Y-81237620D01*
X150300240Y-82238380D02*
X150300240Y-82936880D01*
D12*
%TO.C,B*%
X197100000Y-80580000D02*
X202700000Y-80580000D01*
X197100000Y-85180000D02*
X197100000Y-80580000D01*
X202700000Y-80580000D02*
X202700000Y-85180000D01*
X202700000Y-85180000D02*
X197100000Y-85180000D01*
D16*
%TO.C,J2*%
X143165000Y-64210000D02*
X143165000Y-65810000D01*
X143165000Y-65810000D02*
X144965000Y-65810000D01*
X144435000Y-61340000D02*
X150365000Y-61340000D01*
X144965000Y-65810000D02*
X144965000Y-66750000D01*
X151635000Y-64210000D02*
X151635000Y-65810000D01*
X151635000Y-65810000D02*
X149835000Y-65810000D01*
D15*
%TO.C,C4*%
X148651500Y-97843500D02*
X148651500Y-98549620D01*
X148651500Y-100256500D02*
X148651500Y-99550380D01*
X150048500Y-97843500D02*
X148651500Y-97843500D01*
X150048500Y-98549620D02*
X150048500Y-97843500D01*
X150048500Y-100256500D02*
X148651500Y-100256500D01*
X150048500Y-100256500D02*
X150048500Y-99550380D01*
%TO.C,C20*%
X166601500Y-84531500D02*
X166601500Y-85237620D01*
X166601500Y-84531500D02*
X167998500Y-84531500D01*
X166601500Y-86238380D02*
X166601500Y-86944500D01*
X166601500Y-86944500D02*
X167998500Y-86944500D01*
X167998500Y-84531500D02*
X167998500Y-85237620D01*
X167998500Y-86944500D02*
X167998500Y-86238380D01*
%TO.C,C17*%
X157010000Y-97157000D02*
X157010000Y-99443000D01*
X157010000Y-99443000D02*
X158661000Y-99443000D01*
X158661000Y-97157000D02*
X157010000Y-97157000D01*
X160439000Y-97157000D02*
X162090000Y-97157000D01*
X162090000Y-97157000D02*
X162090000Y-99443000D01*
X162090000Y-99443000D02*
X160439000Y-99443000D01*
D17*
%TO.C,C5*%
X150889120Y-97199760D02*
X151587620Y-97199760D01*
X150889120Y-98485000D02*
X150889120Y-97215000D01*
X151587620Y-98500240D02*
X150889120Y-98500240D01*
X152588380Y-97199760D02*
X153286880Y-97199760D01*
X152588380Y-98500240D02*
X153286880Y-98500240D01*
X153286880Y-97215000D02*
X153286880Y-98485000D01*
D15*
%TO.C,R26*%
X134081500Y-77501500D02*
X134081500Y-78898500D01*
X134081500Y-78898500D02*
X134787620Y-78898500D01*
X134787620Y-77501500D02*
X134081500Y-77501500D01*
X136494500Y-77501500D02*
X135788380Y-77501500D01*
X136494500Y-77501500D02*
X136494500Y-78898500D01*
X136494500Y-78898500D02*
X135788380Y-78898500D01*
%TO.C,C19*%
X166101500Y-87105500D02*
X166101500Y-87811620D01*
X166101500Y-87105500D02*
X167498500Y-87105500D01*
X166101500Y-88812380D02*
X166101500Y-89518500D01*
X166101500Y-89518500D02*
X167498500Y-89518500D01*
X167498500Y-87105500D02*
X167498500Y-87811620D01*
X167498500Y-89518500D02*
X167498500Y-88812380D01*
D16*
%TO.C,D3*%
X164100000Y-80210000D02*
X164100000Y-74700000D01*
X164100000Y-80210000D02*
X167400000Y-80210000D01*
X167400000Y-80210000D02*
X167400000Y-74700000D01*
D15*
%TO.C,R3*%
X151881500Y-77901500D02*
X151881500Y-79298500D01*
X151881500Y-79298500D02*
X152587620Y-79298500D01*
X152587620Y-77901500D02*
X151881500Y-77901500D01*
X154294500Y-77901500D02*
X153588380Y-77901500D01*
X154294500Y-77901500D02*
X154294500Y-79298500D01*
X154294500Y-79298500D02*
X153588380Y-79298500D01*
%TO.C,R4*%
X151881500Y-75401500D02*
X152587620Y-75401500D01*
X151881500Y-76798500D02*
X151881500Y-75401500D01*
X151881500Y-76798500D02*
X152587620Y-76798500D01*
X153588380Y-76798500D02*
X154294500Y-76798500D01*
X154294500Y-75401500D02*
X153588380Y-75401500D01*
X154294500Y-76798500D02*
X154294500Y-75401500D01*
D16*
%TO.C,Q6*%
X188290000Y-70270000D02*
X194180000Y-70270000D01*
X188290000Y-75410000D02*
X194180000Y-75410000D01*
X187660000Y-70915000D02*
X187330000Y-71155000D01*
X187330000Y-70675000D01*
X187660000Y-70915000D01*
G36*
X187660000Y-70915000D02*
G01*
X187330000Y-71155000D01*
X187330000Y-70675000D01*
X187660000Y-70915000D01*
G37*
D15*
%TO.C,C7*%
X151943500Y-79701500D02*
X152649620Y-79701500D01*
X151943500Y-81098500D02*
X151943500Y-79701500D01*
X151943500Y-81098500D02*
X152649620Y-81098500D01*
X153650380Y-81098500D02*
X154356500Y-81098500D01*
X154356500Y-79701500D02*
X153650380Y-79701500D01*
X154356500Y-81098500D02*
X154356500Y-79701500D01*
D16*
%TO.C,J3*%
X132140000Y-58890000D02*
X132140000Y-60840000D01*
X132140000Y-58890000D02*
X139960000Y-58890000D01*
X132140000Y-63060000D02*
X132140000Y-66290000D01*
X133940000Y-68210000D02*
X132860000Y-68210000D01*
X138160000Y-68210000D02*
X138160000Y-68640000D01*
X139240000Y-68210000D02*
X138160000Y-68210000D01*
X139960000Y-58890000D02*
X139960000Y-60840000D01*
X139960000Y-63060000D02*
X139960000Y-66290000D01*
D15*
%TO.C,C21*%
X168293500Y-89751500D02*
X168999620Y-89751500D01*
X168293500Y-91148500D02*
X168293500Y-89751500D01*
X168293500Y-91148500D02*
X168999620Y-91148500D01*
X170000380Y-91148500D02*
X170706500Y-91148500D01*
X170706500Y-89751500D02*
X170000380Y-89751500D01*
X170706500Y-91148500D02*
X170706500Y-89751500D01*
D16*
%TO.C,R14*%
X185312742Y-101027500D02*
X185787258Y-101027500D01*
X185312742Y-102072500D02*
X185787258Y-102072500D01*
D15*
%TO.C,C24*%
X165775500Y-95467500D02*
X165775500Y-96173620D01*
X165775500Y-97880500D02*
X165775500Y-97174380D01*
X167172500Y-95467500D02*
X165775500Y-95467500D01*
X167172500Y-96173620D02*
X167172500Y-95467500D01*
X167172500Y-97880500D02*
X165775500Y-97880500D01*
X167172500Y-97880500D02*
X167172500Y-97174380D01*
D17*
%TO.C,C9*%
X132599760Y-90549620D02*
X132599760Y-89851120D01*
X132599760Y-91550380D02*
X132599760Y-92248880D01*
X132615000Y-89851120D02*
X133885000Y-89851120D01*
X133885000Y-92248880D02*
X132615000Y-92248880D01*
X133900240Y-89851120D02*
X133900240Y-90549620D01*
X133900240Y-91550380D02*
X133900240Y-92248880D01*
D15*
%TO.C,R10*%
X167505500Y-95463500D02*
X167505500Y-96860500D01*
X167505500Y-96860500D02*
X168211620Y-96860500D01*
X168211620Y-95463500D02*
X167505500Y-95463500D01*
X169918500Y-95463500D02*
X169212380Y-95463500D01*
X169918500Y-95463500D02*
X169918500Y-96860500D01*
X169918500Y-96860500D02*
X169212380Y-96860500D01*
D16*
%TO.C,U2*%
X138840000Y-82940000D02*
X138840000Y-83890000D01*
X138840000Y-93160000D02*
X138840000Y-92210000D01*
X139790000Y-82940000D02*
X138840000Y-82940000D01*
X139790000Y-93160000D02*
X138840000Y-93160000D01*
X148110000Y-82940000D02*
X149060000Y-82940000D01*
X148110000Y-93160000D02*
X149060000Y-93160000D01*
X149060000Y-82940000D02*
X149060000Y-83890000D01*
X149060000Y-93160000D02*
X149060000Y-92210000D01*
X138225000Y-83890000D02*
X137885000Y-83420000D01*
X138565000Y-83420000D01*
X138225000Y-83890000D01*
G36*
X138225000Y-83890000D02*
G01*
X137885000Y-83420000D01*
X138565000Y-83420000D01*
X138225000Y-83890000D01*
G37*
D15*
%TO.C,R1*%
X144631500Y-78901500D02*
X144631500Y-80298500D01*
X144631500Y-80298500D02*
X145337620Y-80298500D01*
X145337620Y-78901500D02*
X144631500Y-78901500D01*
X147044500Y-78901500D02*
X146338380Y-78901500D01*
X147044500Y-78901500D02*
X147044500Y-80298500D01*
X147044500Y-80298500D02*
X146338380Y-80298500D01*
D16*
%TO.C,Q2*%
X188325000Y-96745000D02*
X194215000Y-96745000D01*
X188325000Y-101885000D02*
X194215000Y-101885000D01*
X187695000Y-97390000D02*
X187365000Y-97630000D01*
X187365000Y-97150000D01*
X187695000Y-97390000D01*
G36*
X187695000Y-97390000D02*
G01*
X187365000Y-97630000D01*
X187365000Y-97150000D01*
X187695000Y-97390000D01*
G37*
%TO.C,B1*%
X124950000Y-72600000D02*
X124950000Y-72700000D01*
X124950000Y-74200000D02*
X129350000Y-74200000D01*
X129350000Y-71100000D02*
X124950000Y-71100000D01*
X129350000Y-72600000D02*
X129350000Y-72700000D01*
D15*
%TO.C,R25*%
X129581500Y-78451500D02*
X130287620Y-78451500D01*
X129581500Y-79848500D02*
X129581500Y-78451500D01*
X129581500Y-79848500D02*
X130287620Y-79848500D01*
X131288380Y-79848500D02*
X131994500Y-79848500D01*
X131994500Y-78451500D02*
X131288380Y-78451500D01*
X131994500Y-79848500D02*
X131994500Y-78451500D01*
%TO.C,C2*%
X153051500Y-94081500D02*
X153051500Y-94787620D01*
X153051500Y-96494500D02*
X153051500Y-95788380D01*
X154448500Y-94081500D02*
X153051500Y-94081500D01*
X154448500Y-94787620D02*
X154448500Y-94081500D01*
X154448500Y-96494500D02*
X153051500Y-96494500D01*
X154448500Y-96494500D02*
X154448500Y-95788380D01*
D12*
%TO.C,A*%
X197050000Y-73800000D02*
X202650000Y-73800000D01*
X197050000Y-78400000D02*
X197050000Y-73800000D01*
X202650000Y-73800000D02*
X202650000Y-78400000D01*
X202650000Y-78400000D02*
X197050000Y-78400000D01*
D15*
%TO.C,R6*%
X148743500Y-78601500D02*
X149449620Y-78601500D01*
X148743500Y-79998500D02*
X148743500Y-78601500D01*
X148743500Y-79998500D02*
X149449620Y-79998500D01*
X150450380Y-79998500D02*
X151156500Y-79998500D01*
X151156500Y-78601500D02*
X150450380Y-78601500D01*
X151156500Y-79998500D02*
X151156500Y-78601500D01*
D16*
%TO.C,J1*%
X124340000Y-87715000D02*
X124340000Y-81785000D01*
X127210000Y-80515000D02*
X128810000Y-80515000D01*
X127210000Y-88985000D02*
X128810000Y-88985000D01*
X128810000Y-80515000D02*
X128810000Y-82315000D01*
X128810000Y-87185000D02*
X129750000Y-87185000D01*
X128810000Y-88985000D02*
X128810000Y-87185000D01*
%TO.C,R13*%
X193092742Y-89257500D02*
X193567258Y-89257500D01*
X193092742Y-90302500D02*
X193567258Y-90302500D01*
D15*
%TO.C,R11*%
X167505500Y-97013500D02*
X167505500Y-98410500D01*
X167505500Y-98410500D02*
X168211620Y-98410500D01*
X168211620Y-97013500D02*
X167505500Y-97013500D01*
X169918500Y-97013500D02*
X169212380Y-97013500D01*
X169918500Y-97013500D02*
X169918500Y-98410500D01*
X169918500Y-98410500D02*
X169212380Y-98410500D01*
%TO.C,C6*%
X150931500Y-99351500D02*
X150931500Y-100748500D01*
X150931500Y-100748500D02*
X151637620Y-100748500D01*
X151637620Y-99351500D02*
X150931500Y-99351500D01*
X153344500Y-99351500D02*
X152638380Y-99351500D01*
X153344500Y-99351500D02*
X153344500Y-100748500D01*
X153344500Y-100748500D02*
X152638380Y-100748500D01*
D12*
%TO.C,U1*%
X156528400Y-81040000D02*
X162878400Y-81040000D01*
X156528400Y-95440000D02*
X162878400Y-95440000D01*
D16*
X155903400Y-81090000D02*
X155663400Y-80760000D01*
X156143400Y-80760000D01*
X155903400Y-81090000D01*
G36*
X155903400Y-81090000D02*
G01*
X155663400Y-80760000D01*
X156143400Y-80760000D01*
X155903400Y-81090000D01*
G37*
D15*
%TO.C,C23*%
X165825500Y-92205500D02*
X165825500Y-92911620D01*
X165825500Y-94618500D02*
X165825500Y-93912380D01*
X167222500Y-92205500D02*
X165825500Y-92205500D01*
X167222500Y-92911620D02*
X167222500Y-92205500D01*
X167222500Y-94618500D02*
X165825500Y-94618500D01*
X167222500Y-94618500D02*
X167222500Y-93912380D01*
%TO.C,R22*%
X134143500Y-81401500D02*
X134849620Y-81401500D01*
X134143500Y-82798500D02*
X134143500Y-81401500D01*
X134143500Y-82798500D02*
X134849620Y-82798500D01*
X135850380Y-82798500D02*
X136556500Y-82798500D01*
X136556500Y-81401500D02*
X135850380Y-81401500D01*
X136556500Y-82798500D02*
X136556500Y-81401500D01*
D16*
%TO.C,Q3*%
X194155000Y-77545000D02*
X188265000Y-77545000D01*
X194155000Y-82685000D02*
X188265000Y-82685000D01*
X195115000Y-82280000D02*
X194785000Y-82040000D01*
X195115000Y-81800000D01*
X195115000Y-82280000D01*
G36*
X195115000Y-82280000D02*
G01*
X194785000Y-82040000D01*
X195115000Y-81800000D01*
X195115000Y-82280000D01*
G37*
D17*
%TO.C,C10*%
X134749760Y-90499620D02*
X134749760Y-89801120D01*
X134749760Y-91500380D02*
X134749760Y-92198880D01*
X134765000Y-89801120D02*
X136035000Y-89801120D01*
X136035000Y-92198880D02*
X134765000Y-92198880D01*
X136050240Y-89801120D02*
X136050240Y-90499620D01*
X136050240Y-91500380D02*
X136050240Y-92198880D01*
D16*
%TO.C,C25*%
X158838748Y-99940000D02*
X160261252Y-99940000D01*
X158838748Y-101760000D02*
X160261252Y-101760000D01*
D15*
%TO.C,R21*%
X137781500Y-77051500D02*
X137781500Y-78448500D01*
X137781500Y-78448500D02*
X138487620Y-78448500D01*
X138487620Y-77051500D02*
X137781500Y-77051500D01*
X140194500Y-77051500D02*
X139488380Y-77051500D01*
X140194500Y-77051500D02*
X140194500Y-78448500D01*
X140194500Y-78448500D02*
X139488380Y-78448500D01*
D17*
%TO.C,C11*%
X146599760Y-95561620D02*
X146599760Y-94863120D01*
X146599760Y-97260880D02*
X146599760Y-96562380D01*
X146615000Y-94863120D02*
X147885000Y-94863120D01*
X147885000Y-97260880D02*
X146615000Y-97260880D01*
X147900240Y-95561620D02*
X147900240Y-94863120D01*
X147900240Y-96562380D02*
X147900240Y-97260880D01*
D15*
%TO.C,C18*%
X164951500Y-81743500D02*
X164951500Y-82449620D01*
X164951500Y-81743500D02*
X166348500Y-81743500D01*
X164951500Y-83450380D02*
X164951500Y-84156500D01*
X164951500Y-84156500D02*
X166348500Y-84156500D01*
X166348500Y-81743500D02*
X166348500Y-82449620D01*
X166348500Y-84156500D02*
X166348500Y-83450380D01*
D12*
%TO.C,C*%
X197150000Y-87530000D02*
X202750000Y-87530000D01*
X197150000Y-92130000D02*
X197150000Y-87530000D01*
X202750000Y-87530000D02*
X202750000Y-92130000D01*
X202750000Y-92130000D02*
X197150000Y-92130000D01*
D15*
%TO.C,C8*%
X152251500Y-84693500D02*
X152251500Y-85399620D01*
X152251500Y-84693500D02*
X153648500Y-84693500D01*
X152251500Y-86400380D02*
X152251500Y-87106500D01*
X152251500Y-87106500D02*
X153648500Y-87106500D01*
X153648500Y-84693500D02*
X153648500Y-85399620D01*
X153648500Y-87106500D02*
X153648500Y-86400380D01*
D16*
%TO.C,R18*%
X180277500Y-88687258D02*
X180277500Y-88212742D01*
X181322500Y-88687258D02*
X181322500Y-88212742D01*
%TO.C,NR1*%
X124900000Y-76450000D02*
X124900000Y-76550000D01*
X124900000Y-78050000D02*
X129300000Y-78050000D01*
X129300000Y-74950000D02*
X124900000Y-74950000D01*
X129300000Y-76450000D02*
X129300000Y-76550000D01*
%TO.C,R16*%
X193102742Y-62717500D02*
X193577258Y-62717500D01*
X193102742Y-63762500D02*
X193577258Y-63762500D01*
%TO.C,R19*%
X184327500Y-99017258D02*
X184327500Y-98542742D01*
X185372500Y-99017258D02*
X185372500Y-98542742D01*
D15*
%TO.C,R24*%
X138605500Y-79075500D02*
X138605500Y-80472500D01*
X138605500Y-80472500D02*
X139311620Y-80472500D01*
X139311620Y-79075500D02*
X138605500Y-79075500D01*
X141018500Y-79075500D02*
X140312380Y-79075500D01*
X141018500Y-79075500D02*
X141018500Y-80472500D01*
X141018500Y-80472500D02*
X140312380Y-80472500D01*
%TO.C,C1*%
X151731500Y-87401500D02*
X152437620Y-87401500D01*
X151731500Y-88798500D02*
X151731500Y-87401500D01*
X151731500Y-88798500D02*
X152437620Y-88798500D01*
X153438380Y-88798500D02*
X154144500Y-88798500D01*
X154144500Y-87401500D02*
X153438380Y-87401500D01*
X154144500Y-88798500D02*
X154144500Y-87401500D01*
D16*
%TO.C,C26*%
X164140000Y-100961252D02*
X164140000Y-99538748D01*
X165960000Y-100961252D02*
X165960000Y-99538748D01*
%TO.C,J6*%
X128615000Y-97290000D02*
X130415000Y-97290000D01*
X128615000Y-98890000D02*
X128615000Y-97290000D01*
X137785000Y-97290000D02*
X137785000Y-96350000D01*
X138315000Y-101760000D02*
X129885000Y-101760000D01*
X139585000Y-97290000D02*
X137785000Y-97290000D01*
X139585000Y-98890000D02*
X139585000Y-97290000D01*
%TO.C,xt30*%
X169050000Y-60615000D02*
X169640000Y-60615000D01*
X169050000Y-62835000D02*
X169640000Y-62835000D01*
X169640000Y-58515000D02*
X169640000Y-60615000D01*
X169640000Y-58515000D02*
X179760000Y-58515000D01*
X169640000Y-62835000D02*
X169640000Y-67735000D01*
X169640000Y-67735000D02*
X179760000Y-67735000D01*
X179760000Y-58515000D02*
X179760000Y-60615000D01*
X179760000Y-60615000D02*
X180350000Y-60615000D01*
X179760000Y-62835000D02*
X179760000Y-67735000D01*
X179760000Y-62835000D02*
X180350000Y-62835000D01*
X169050000Y-62835000D02*
G75*
G02*
X169050000Y-60615000I0J1110000D01*
G01*
X180350000Y-60615000D02*
G75*
G02*
X180350000Y-62835000I0J-1110000D01*
G01*
D15*
%TO.C,C3*%
X148801500Y-93743500D02*
X148801500Y-94449620D01*
X148801500Y-93743500D02*
X150198500Y-93743500D01*
X148801500Y-95450380D02*
X148801500Y-96156500D01*
X148801500Y-96156500D02*
X150198500Y-96156500D01*
X150198500Y-93743500D02*
X150198500Y-94449620D01*
X150198500Y-96156500D02*
X150198500Y-95450380D01*
D16*
%TO.C,Q4*%
X188245000Y-83420000D02*
X194135000Y-83420000D01*
X188245000Y-88560000D02*
X194135000Y-88560000D01*
X187615000Y-84065000D02*
X187285000Y-84305000D01*
X187285000Y-83825000D01*
X187615000Y-84065000D01*
G36*
X187615000Y-84065000D02*
G01*
X187285000Y-84305000D01*
X187285000Y-83825000D01*
X187615000Y-84065000D01*
G37*
D15*
%TO.C,R8*%
X167605500Y-91913500D02*
X167605500Y-93310500D01*
X167605500Y-93310500D02*
X168311620Y-93310500D01*
X168311620Y-91913500D02*
X167605500Y-91913500D01*
X170018500Y-91913500D02*
X169312380Y-91913500D01*
X170018500Y-91913500D02*
X170018500Y-93310500D01*
X170018500Y-93310500D02*
X169312380Y-93310500D01*
%TO.C,R23*%
X134031500Y-75701500D02*
X134031500Y-77098500D01*
X134031500Y-77098500D02*
X134737620Y-77098500D01*
X134737620Y-75701500D02*
X134031500Y-75701500D01*
X136444500Y-75701500D02*
X135738380Y-75701500D01*
X136444500Y-75701500D02*
X136444500Y-77098500D01*
X136444500Y-77098500D02*
X135738380Y-77098500D01*
D16*
%TO.C,D2*%
X143815000Y-98212500D02*
X143815000Y-100497500D01*
X143815000Y-100497500D02*
X145285000Y-100497500D01*
X145285000Y-100497500D02*
X145285000Y-98212500D01*
D18*
%TO.C,X2*%
X132599800Y-84000640D02*
X135800200Y-84000640D01*
X132599800Y-88999360D02*
X132599800Y-84000640D01*
X135800200Y-84000640D02*
X135800200Y-88999360D01*
X135800200Y-88999360D02*
X132599800Y-88999360D01*
%TD*%
M02*
