%TF.GenerationSoftware,KiCad,Pcbnew,9.0.2*%
%TF.CreationDate,2025-10-22T09:47:40+03:00*%
%TF.ProjectId,aair_gimb_pcb,61616972-5f67-4696-9d62-5f7063622e6b,rev?*%
%TF.SameCoordinates,Original*%
%TF.FileFunction,Paste,Bot*%
%TF.FilePolarity,Positive*%
%FSLAX46Y46*%
G04 Gerber Fmt 4.6, Leading zero omitted, Abs format (unit mm)*
G04 Created by KiCad (PCBNEW 9.0.2) date 2025-10-22 09:47:40*
%MOMM*%
%LPD*%
G01*
G04 APERTURE LIST*
G04 Aperture macros list*
%AMRoundRect*
0 Rectangle with rounded corners*
0 $1 Rounding radius*
0 $2 $3 $4 $5 $6 $7 $8 $9 X,Y pos of 4 corners*
0 Add a 4 corners polygon primitive as box body*
4,1,4,$2,$3,$4,$5,$6,$7,$8,$9,$2,$3,0*
0 Add four circle primitives for the rounded corners*
1,1,$1+$1,$2,$3*
1,1,$1+$1,$4,$5*
1,1,$1+$1,$6,$7*
1,1,$1+$1,$8,$9*
0 Add four rect primitives between the rounded corners*
20,1,$1+$1,$2,$3,$4,$5,0*
20,1,$1+$1,$4,$5,$6,$7,0*
20,1,$1+$1,$6,$7,$8,$9,0*
20,1,$1+$1,$8,$9,$2,$3,0*%
G04 Aperture macros list end*
%ADD10RoundRect,0.250000X0.325000X0.650000X-0.325000X0.650000X-0.325000X-0.650000X0.325000X-0.650000X0*%
%ADD11RoundRect,0.250000X0.650000X-0.325000X0.650000X0.325000X-0.650000X0.325000X-0.650000X-0.325000X0*%
%ADD12R,0.635000X1.143000*%
%ADD13RoundRect,0.250000X0.362500X1.425000X-0.362500X1.425000X-0.362500X-1.425000X0.362500X-1.425000X0*%
%ADD14R,1.143000X0.635000*%
%ADD15RoundRect,0.250000X-1.000000X-0.650000X1.000000X-0.650000X1.000000X0.650000X-1.000000X0.650000X0*%
%ADD16RoundRect,0.250000X-0.420000X-0.945000X0.420000X-0.945000X0.420000X0.945000X-0.420000X0.945000X0*%
%ADD17R,2.032000X1.016000*%
%ADD18R,2.032000X3.657600*%
%ADD19RoundRect,0.250000X-0.325000X-0.650000X0.325000X-0.650000X0.325000X0.650000X-0.325000X0.650000X0*%
%ADD20RoundRect,0.250000X0.420000X0.945000X-0.420000X0.945000X-0.420000X-0.945000X0.420000X-0.945000X0*%
G04 APERTURE END LIST*
D10*
%TO.C,C33*%
X171575000Y-82750000D03*
X168625000Y-82750000D03*
%TD*%
D11*
%TO.C,C36*%
X174000000Y-80150000D03*
X174000000Y-77200000D03*
%TD*%
D12*
%TO.C,C29*%
X157350000Y-67550000D03*
X155826000Y-67550000D03*
%TD*%
D13*
%TO.C,R28*%
X186662500Y-85250000D03*
X180737500Y-85250000D03*
%TD*%
D14*
%TO.C,C16*%
X145450000Y-69950000D03*
X145450000Y-71474000D03*
%TD*%
D15*
%TO.C,D1*%
X160750000Y-71150000D03*
X164750000Y-71150000D03*
%TD*%
D16*
%TO.C,C22*%
X163660000Y-67350000D03*
X166740000Y-67350000D03*
%TD*%
D14*
%TO.C,C13*%
X150150000Y-70012000D03*
X150150000Y-71536000D03*
%TD*%
D17*
%TO.C,U3*%
X152996000Y-78486000D03*
X152996000Y-76200000D03*
D18*
X159600000Y-76200000D03*
D17*
X152996000Y-73914000D03*
%TD*%
D10*
%TO.C,C31*%
X171575000Y-77850000D03*
X168625000Y-77850000D03*
%TD*%
%TO.C,C35*%
X172725000Y-87450000D03*
X169775000Y-87450000D03*
%TD*%
D19*
%TO.C,C27*%
X168675000Y-75200000D03*
X171625000Y-75200000D03*
%TD*%
D14*
%TO.C,C14*%
X146950000Y-69950000D03*
X146950000Y-71474000D03*
%TD*%
D20*
%TO.C,C30*%
X157250000Y-70850000D03*
X154170000Y-70850000D03*
%TD*%
D13*
%TO.C,R27*%
X187312500Y-71900000D03*
X181387500Y-71900000D03*
%TD*%
D14*
%TO.C,C28*%
X148500000Y-70000000D03*
X148500000Y-71524000D03*
%TD*%
%TO.C,C15*%
X151750000Y-70038000D03*
X151750000Y-71562000D03*
%TD*%
D10*
%TO.C,C34*%
X173075000Y-85100000D03*
X170125000Y-85100000D03*
%TD*%
%TO.C,C32*%
X171575000Y-80300000D03*
X168625000Y-80300000D03*
%TD*%
M02*
