%TF.GenerationSoftware,KiCad,Pcbnew,9.0.2*%
%TF.CreationDate,2025-10-22T09:47:40+03:00*%
%TF.ProjectId,aair_gimb_pcb,61616972-5f67-4696-9d62-5f7063622e6b,rev?*%
%TF.SameCoordinates,Original*%
%TF.FileFunction,Copper,L2,Inr*%
%TF.FilePolarity,Positive*%
%FSLAX46Y46*%
G04 Gerber Fmt 4.6, Leading zero omitted, Abs format (unit mm)*
G04 Created by KiCad (PCBNEW 9.0.2) date 2025-10-22 09:47:40*
%MOMM*%
%LPD*%
G01*
G04 APERTURE LIST*
G04 Aperture macros list*
%AMRoundRect*
0 Rectangle with rounded corners*
0 $1 Rounding radius*
0 $2 $3 $4 $5 $6 $7 $8 $9 X,Y pos of 4 corners*
0 Add a 4 corners polygon primitive as box body*
4,1,4,$2,$3,$4,$5,$6,$7,$8,$9,$2,$3,0*
0 Add four circle primitives for the rounded corners*
1,1,$1+$1,$2,$3*
1,1,$1+$1,$4,$5*
1,1,$1+$1,$6,$7*
1,1,$1+$1,$8,$9*
0 Add four rect primitives between the rounded corners*
20,1,$1+$1,$2,$3,$4,$5,0*
20,1,$1+$1,$4,$5,$6,$7,0*
20,1,$1+$1,$6,$7,$8,$9,0*
20,1,$1+$1,$8,$9,$2,$3,0*%
G04 Aperture macros list end*
%TA.AperFunction,ComponentPad*%
%ADD10C,1.400000*%
%TD*%
%TA.AperFunction,ComponentPad*%
%ADD11RoundRect,0.770000X-0.980000X-0.980000X0.980000X-0.980000X0.980000X0.980000X-0.980000X0.980000X0*%
%TD*%
%TA.AperFunction,ComponentPad*%
%ADD12C,3.500000*%
%TD*%
%TA.AperFunction,ViaPad*%
%ADD13C,0.600000*%
%TD*%
%TA.AperFunction,ViaPad*%
%ADD14C,0.800000*%
%TD*%
%TA.AperFunction,ViaPad*%
%ADD15C,1.524000*%
%TD*%
%TA.AperFunction,Conductor*%
%ADD16C,0.600000*%
%TD*%
%TA.AperFunction,Conductor*%
%ADD17C,1.000000*%
%TD*%
%TA.AperFunction,Conductor*%
%ADD18C,0.200000*%
%TD*%
G04 APERTURE END LIST*
D10*
%TO.N,*%
%TO.C,xt30*%
X169200000Y-61725000D03*
X180200000Y-61725000D03*
D11*
%TO.N,V_SUPPLY*%
X177200000Y-71725000D03*
D12*
%TO.N,GND*%
X172200000Y-71725000D03*
%TD*%
D13*
%TO.N,V_SUPPLY*%
X163600000Y-96600000D03*
D14*
X161500000Y-82000000D03*
D13*
%TO.N,Net-(U1-GVDD)*%
X157250000Y-87600000D03*
X149500000Y-97000000D03*
%TO.N,Net-(U1-DVDD)*%
X157600000Y-84350000D03*
X157224403Y-93703105D03*
X150900000Y-95600000D03*
%TO.N,VCC*%
X154250000Y-92700000D03*
X151450000Y-84150000D03*
%TO.N,GND*%
X151325000Y-85975000D03*
D14*
X158350000Y-84950000D03*
D13*
X132800000Y-76900000D03*
X154600000Y-87390000D03*
X161650000Y-67650000D03*
X167100000Y-76950000D03*
D14*
X161200000Y-84950000D03*
D13*
X147350000Y-78500000D03*
D15*
X186750000Y-98660000D03*
D13*
X151150000Y-86800000D03*
X173575000Y-76775000D03*
X142050000Y-70550000D03*
X143150000Y-90350000D03*
X150684372Y-93300000D03*
D15*
X186785000Y-97385000D03*
D13*
X171200000Y-92100000D03*
X172750000Y-92000000D03*
X174000000Y-77200000D03*
X159650000Y-67350000D03*
X140750000Y-78650000D03*
D15*
X186750000Y-99930000D03*
X188150000Y-98660000D03*
D13*
X133950000Y-94750000D03*
D15*
X188150000Y-99930000D03*
D13*
X145450000Y-79150000D03*
X161581383Y-93737011D03*
X137000000Y-78400000D03*
D15*
X188185000Y-97385000D03*
D13*
X133300000Y-99850000D03*
D14*
X159450000Y-86650000D03*
D13*
%TO.N,/drv8302/H2_VS*%
X132950000Y-81200000D03*
X160850000Y-92650000D03*
X176450000Y-88550000D03*
X190450000Y-88900000D03*
%TO.N,/drv8302/H1_VS*%
X190450000Y-75600000D03*
X141650000Y-77900000D03*
X168560659Y-84950000D03*
%TO.N,/drv8302/H3_VS*%
X191550000Y-96900000D03*
X138400000Y-82100000D03*
X181800000Y-97100000D03*
%TO.N,LED_STATUS*%
X138400000Y-92850000D03*
X139700000Y-89300000D03*
%TO.N,USB_CONN_D-*%
X133600000Y-73150000D03*
X136700000Y-70050000D03*
D14*
%TO.N,+5V*%
X162850000Y-73850000D03*
D13*
X145700000Y-76000000D03*
X155600000Y-74650000D03*
%TO.N,SWCLK*%
X147400000Y-83700000D03*
X147950000Y-76800000D03*
%TO.N,+3.3V*%
X144800000Y-86350000D03*
X138150000Y-83100000D03*
X148750000Y-68200000D03*
X149800000Y-83500000D03*
X158950000Y-68100000D03*
X148500000Y-96900000D03*
X141250000Y-84200000D03*
%TO.N,SWDIO*%
X149200000Y-76950000D03*
X148150000Y-85150000D03*
%TO.N,NRST*%
X131300000Y-75750000D03*
X139900000Y-85900000D03*
X152200000Y-67700000D03*
%TO.N,Net-(U1-RT_CLK)*%
X157350000Y-82050000D03*
X151350000Y-81550000D03*
%TO.N,/Stm32f405/SENS2*%
X140550000Y-88250000D03*
X137250000Y-82200000D03*
%TO.N,/Stm32f405/SENS3*%
X136700000Y-88700000D03*
X133250000Y-78500000D03*
%TO.N,/Stm32f405/FAULT*%
X146000000Y-95200000D03*
X157550000Y-83251000D03*
%TO.N,/drv8302/M_L2*%
X189250000Y-89900000D03*
X162100000Y-88950000D03*
%TO.N,/Stm32f405/DC_CAL*%
X157398398Y-86813883D03*
X146700000Y-92400000D03*
%TO.N,/drv8302/M_H3*%
X191100000Y-89850000D03*
X162100000Y-90200000D03*
%TO.N,/Stm32f405/GAIN*%
X145250000Y-92300000D03*
X154500000Y-86049000D03*
%TO.N,/drv8302/M_H2*%
X162049592Y-87950000D03*
X191200000Y-76450000D03*
%TO.N,/Stm32f405/Current_ADC_2*%
X151950000Y-93501000D03*
X140500000Y-91049000D03*
%TO.N,/drv8302/M_H1*%
X162100000Y-85400000D03*
X190800000Y-63300000D03*
%TO.N,/Stm32f405/EN_GATE*%
X157398398Y-88386116D03*
X140250000Y-95000000D03*
%TO.N,/Stm32f405/M_PWM*%
X154300000Y-84849000D03*
X144300000Y-92250000D03*
%TO.N,/drv8302/H2_LOW*%
X165250000Y-89500000D03*
X178050000Y-87050000D03*
X179200000Y-88550000D03*
D15*
X188100000Y-86580000D03*
D13*
X171950000Y-92600000D03*
D15*
X186685000Y-84035000D03*
X188135000Y-84035000D03*
X186650000Y-86580000D03*
X188100000Y-85310000D03*
X186650000Y-85310000D03*
D13*
%TO.N,Net-(U1-VSENSE)*%
X155500000Y-80200000D03*
X154498928Y-83251000D03*
%TO.N,/drv8302/M_L1*%
X162008402Y-86650000D03*
X189600000Y-76500000D03*
%TO.N,/Stm32f405/L2*%
X148349265Y-91299265D03*
X158350000Y-92258817D03*
%TO.N,/drv8302/M_L3*%
X161750000Y-92100000D03*
X183450000Y-101450000D03*
D15*
%TO.N,/drv8302/H1_LOW*%
X188565000Y-72205000D03*
D13*
X178049265Y-75849265D03*
X177704897Y-74048454D03*
X165400000Y-87050000D03*
X170500000Y-92950000D03*
D15*
X187150000Y-73480000D03*
X188565000Y-73475000D03*
X188600000Y-70930000D03*
X187150000Y-72210000D03*
X187185000Y-70935000D03*
D13*
%TO.N,/Stm32f405/L1*%
X157250057Y-90350000D03*
X151213676Y-91701000D03*
%TO.N,I2C_SCL*%
X131000000Y-86500000D03*
X142900000Y-84850000D03*
%TO.N,SPI1_MOSI*%
X144408949Y-95297017D03*
X138900000Y-97450000D03*
%TO.N,SPI1_SCK*%
X142900000Y-92249000D03*
X136361765Y-94311765D03*
%TO.N,USB_D-*%
X132800000Y-71800000D03*
X147000000Y-87150000D03*
%TO.N,USB_D+*%
X137700000Y-70200000D03*
X147200000Y-86150000D03*
%TO.N,UART_RX*%
X145550000Y-83950000D03*
X144100000Y-67550000D03*
%TO.N,SPI1_MISO*%
X137200518Y-94911765D03*
X143650000Y-95550000D03*
%TO.N,SPI1_CS*%
X141056253Y-92453780D03*
X136850000Y-93450000D03*
%TO.N,I2C_SDA*%
X130850000Y-85300000D03*
X142750000Y-83800000D03*
%TO.N,/Stm32f405/H1*%
X148300000Y-88150000D03*
X157398291Y-89549999D03*
%TO.N,/Stm32f405/H3*%
X157848664Y-93202807D03*
X148250000Y-86900000D03*
%TO.N,Net-(Q4-G)*%
X187000000Y-89000000D03*
X178400000Y-89300000D03*
%TO.N,Net-(Q6-G)*%
X177450000Y-79950000D03*
X185750000Y-74950000D03*
%TD*%
D16*
%TO.N,V_SUPPLY*%
X161897001Y-81602999D02*
X161900000Y-81602999D01*
X161900000Y-81602999D02*
X162410516Y-81092483D01*
D17*
X162410516Y-81092483D02*
X167832517Y-81092483D01*
X167832517Y-81092483D02*
X177200000Y-71725000D01*
D16*
X161500000Y-82000000D02*
X161897001Y-81602999D01*
D18*
%TO.N,Net-(U1-GVDD)*%
X159650000Y-89599592D02*
X159650000Y-93650000D01*
X159650000Y-93650000D02*
X156300000Y-97000000D01*
X157650408Y-87600000D02*
X159650000Y-89599592D01*
X156300000Y-97000000D02*
X149500000Y-97000000D01*
X157250000Y-87600000D02*
X157650408Y-87600000D01*
%TO.N,GND*%
X144902057Y-93702000D02*
X143501000Y-92300943D01*
X143501000Y-90701000D02*
X143150000Y-90350000D01*
X150282372Y-93702000D02*
X144902057Y-93702000D01*
X143501000Y-92300943D02*
X143501000Y-90701000D01*
X150684372Y-93300000D02*
X150282372Y-93702000D01*
%TO.N,/drv8302/H2_VS*%
X151601057Y-82651000D02*
X148950057Y-80000000D01*
X160400000Y-84100000D02*
X158951000Y-82651000D01*
X134150000Y-80000000D02*
X132950000Y-81200000D01*
X160850000Y-92650000D02*
X160950000Y-92550000D01*
X160950000Y-88050000D02*
X160400000Y-87500000D01*
X148950057Y-80000000D02*
X134150000Y-80000000D01*
X158951000Y-82651000D02*
X151601057Y-82651000D01*
X160950000Y-92550000D02*
X160950000Y-88050000D01*
X160400000Y-87500000D02*
X160400000Y-84100000D01*
%TO.N,/drv8302/H1_VS*%
X168560659Y-84950000D02*
X162500000Y-84950000D01*
X155450000Y-77900000D02*
X141650000Y-77900000D01*
X162500000Y-84950000D02*
X155450000Y-77900000D01*
%TO.N,+5V*%
X145700000Y-76000000D02*
X154250000Y-76000000D01*
X154250000Y-76000000D02*
X155600000Y-74650000D01*
%TO.N,+3.3V*%
X139250000Y-84200000D02*
X141250000Y-84200000D01*
X138150000Y-83100000D02*
X139250000Y-84200000D01*
%TO.N,Net-(U1-RT_CLK)*%
X156850000Y-81550000D02*
X157350000Y-82050000D01*
X151350000Y-81550000D02*
X156850000Y-81550000D01*
%TO.N,/Stm32f405/FAULT*%
X157550000Y-83251000D02*
X158601000Y-83251000D01*
X159000000Y-86108636D02*
X158749000Y-86359636D01*
X160150000Y-94050000D02*
X156600000Y-97600000D01*
X158601000Y-83251000D02*
X158640364Y-83290364D01*
X159000000Y-87191364D02*
X159000000Y-87350000D01*
X159051000Y-84949000D02*
X159051000Y-85240364D01*
X158640364Y-83290364D02*
X158940364Y-83290364D01*
X159350000Y-83700000D02*
X159350000Y-84650000D01*
X147400000Y-97600000D02*
X146700000Y-96900000D01*
X158749000Y-86359636D02*
X158749000Y-86940364D01*
X159350000Y-84650000D02*
X159051000Y-84949000D01*
X160150000Y-88500000D02*
X160150000Y-94050000D01*
X146700000Y-95900000D02*
X146000000Y-95200000D01*
X158940364Y-83290364D02*
X159350000Y-83700000D01*
X159051000Y-85240364D02*
X159000000Y-85291364D01*
X159000000Y-85291364D02*
X159000000Y-86108636D01*
X156600000Y-97600000D02*
X147400000Y-97600000D01*
X158749000Y-86940364D02*
X159000000Y-87191364D01*
X146700000Y-96900000D02*
X146700000Y-95900000D01*
X159000000Y-87350000D02*
X160150000Y-88500000D01*
%TO.N,/drv8302/M_L2*%
X162100000Y-88950000D02*
X162200000Y-88850000D01*
X162200000Y-88850000D02*
X167000000Y-88850000D01*
X167000000Y-88850000D02*
X168050000Y-89900000D01*
X168050000Y-89900000D02*
X189250000Y-89900000D01*
%TO.N,/Stm32f405/DC_CAL*%
X157398398Y-86813883D02*
X157236117Y-86813883D01*
X149651000Y-90849000D02*
X149651000Y-93066100D01*
X155650000Y-88400000D02*
X152100000Y-88400000D01*
X149651000Y-93066100D02*
X149416100Y-93301000D01*
X157051000Y-86999000D02*
X157001057Y-86999000D01*
X147350000Y-93050000D02*
X146700000Y-92400000D01*
X147641450Y-92858550D02*
X147350000Y-93150000D01*
X147350000Y-93150000D02*
X147350000Y-93050000D01*
X156649000Y-87401000D02*
X155650000Y-88400000D01*
X152100000Y-88400000D02*
X149651000Y-90849000D01*
X149416100Y-93301000D02*
X148083900Y-93301000D01*
X148083900Y-93301000D02*
X147641450Y-92858550D01*
X156649000Y-87351057D02*
X156649000Y-87401000D01*
X157001057Y-86999000D02*
X156649000Y-87351057D01*
X157236117Y-86813883D02*
X157051000Y-86999000D01*
%TO.N,/drv8302/M_H3*%
X162700928Y-90501000D02*
X190449000Y-90501000D01*
X162100000Y-90200000D02*
X162399928Y-90200000D01*
X190449000Y-90501000D02*
X191100000Y-89850000D01*
X162399928Y-90200000D02*
X162700928Y-90501000D01*
%TO.N,/Stm32f405/GAIN*%
X146900000Y-91550000D02*
X146000000Y-91550000D01*
X149250000Y-92900000D02*
X148250000Y-92900000D01*
X154499000Y-86050000D02*
X153600000Y-86050000D01*
X149250000Y-90400000D02*
X149250000Y-92900000D01*
X146000000Y-91550000D02*
X145250000Y-92300000D01*
X153600000Y-86050000D02*
X149250000Y-90400000D01*
X148250000Y-92900000D02*
X146900000Y-91550000D01*
X154500000Y-86049000D02*
X154499000Y-86050000D01*
%TO.N,/drv8302/M_H2*%
X179800000Y-87850000D02*
X191200000Y-76450000D01*
X162149592Y-87850000D02*
X179800000Y-87850000D01*
X162049592Y-87950000D02*
X162149592Y-87850000D01*
%TO.N,/drv8302/M_H1*%
X162350000Y-85400000D02*
X162500000Y-85550000D01*
X162100000Y-85400000D02*
X162350000Y-85400000D01*
X175700000Y-85550000D02*
X175700000Y-77350000D01*
X181600000Y-71450000D02*
X181600000Y-67000000D01*
X162500000Y-85550000D02*
X175700000Y-85550000D01*
X185300000Y-63300000D02*
X190800000Y-63300000D01*
X175700000Y-77350000D02*
X181600000Y-71450000D01*
X181600000Y-67000000D02*
X185300000Y-63300000D01*
%TO.N,/Stm32f405/EN_GATE*%
X158950000Y-92950000D02*
X157000000Y-94900000D01*
X158950000Y-90250000D02*
X158950000Y-92950000D01*
X140750000Y-94500000D02*
X140250000Y-95000000D01*
X157000000Y-94900000D02*
X149850000Y-94900000D01*
X149450000Y-94500000D02*
X140750000Y-94500000D01*
X149850000Y-94900000D02*
X149450000Y-94500000D01*
X157398398Y-88386116D02*
X157398398Y-88698398D01*
X157398398Y-88698398D02*
X158950000Y-90250000D01*
%TO.N,/Stm32f405/M_PWM*%
X153550000Y-84700000D02*
X153550000Y-85250000D01*
X147675000Y-91125000D02*
X147699000Y-91149000D01*
X153550000Y-85250000D02*
X147675000Y-91125000D01*
X147699000Y-91149000D02*
X145401000Y-91149000D01*
X154300000Y-84849000D02*
X153699000Y-84849000D01*
X145401000Y-91149000D02*
X144300000Y-92250000D01*
X153699000Y-84849000D02*
X153550000Y-84700000D01*
%TO.N,/drv8302/H2_LOW*%
X179200000Y-88550000D02*
X184680000Y-88550000D01*
X184680000Y-88550000D02*
X186650000Y-86580000D01*
%TO.N,/drv8302/M_L1*%
X162250000Y-86450000D02*
X179650000Y-86450000D01*
X162008402Y-86650000D02*
X162050000Y-86650000D01*
X179650000Y-86450000D02*
X189600000Y-76500000D01*
X162050000Y-86650000D02*
X162250000Y-86450000D01*
%TO.N,/drv8302/M_L3*%
X161750000Y-92100000D02*
X161770878Y-92100000D01*
X162150000Y-91720878D02*
X162150000Y-91600000D01*
X161770878Y-92100000D02*
X162150000Y-91720878D01*
X180250000Y-91150000D02*
X183450000Y-94350000D01*
X183450000Y-94350000D02*
X183450000Y-101450000D01*
X162600000Y-91150000D02*
X180250000Y-91150000D01*
X162150000Y-91600000D02*
X162600000Y-91150000D01*
%TO.N,/drv8302/H1_LOW*%
X181500000Y-75200000D02*
X181500000Y-73800000D01*
X180125735Y-75849265D02*
X180775000Y-75200000D01*
X180775000Y-75200000D02*
X181500000Y-75200000D01*
X181500000Y-73800000D02*
X181820000Y-73480000D01*
X178049265Y-75849265D02*
X180125735Y-75849265D01*
X181820000Y-73480000D02*
X187150000Y-73480000D01*
%TO.N,/Stm32f405/L1*%
X152282667Y-90350000D02*
X151213676Y-91418991D01*
X157250057Y-90350000D02*
X152282667Y-90350000D01*
X151213676Y-91418991D02*
X151213676Y-91701000D01*
%TO.N,I2C_SCL*%
X141250000Y-86500000D02*
X142900000Y-84850000D01*
X141250000Y-86500000D02*
X131000000Y-86500000D01*
%TO.N,I2C_SDA*%
X130850000Y-85300000D02*
X141250000Y-85300000D01*
X141250000Y-85300000D02*
X142750000Y-83800000D01*
%TO.N,Net-(Q4-G)*%
X178400000Y-89300000D02*
X186700000Y-89300000D01*
X186700000Y-89300000D02*
X187000000Y-89000000D01*
%TO.N,Net-(Q6-G)*%
X182800000Y-77900000D02*
X185750000Y-74950000D01*
X180075000Y-77900000D02*
X182800000Y-77900000D01*
X177450000Y-79950000D02*
X178025000Y-79950000D01*
X178025000Y-79950000D02*
X180075000Y-77900000D01*
%TD*%
%TA.AperFunction,Conductor*%
%TO.N,GND*%
G36*
X167526729Y-60649861D02*
G01*
X167593743Y-60669621D01*
X167639439Y-60722476D01*
X167650586Y-60773271D01*
X167740689Y-79717437D01*
X167721323Y-79784570D01*
X167704371Y-79805708D01*
X167454416Y-80055664D01*
X167393093Y-80089149D01*
X167366735Y-80091983D01*
X162311973Y-80091983D01*
X162118686Y-80130430D01*
X162118676Y-80130433D01*
X161936608Y-80205847D01*
X161936595Y-80205854D01*
X161772734Y-80315343D01*
X161772730Y-80315346D01*
X161633379Y-80454697D01*
X161633376Y-80454701D01*
X161523887Y-80618562D01*
X161523880Y-80618575D01*
X161448466Y-80800643D01*
X161448463Y-80800653D01*
X161426244Y-80912355D01*
X161417456Y-80929154D01*
X161413411Y-80947678D01*
X161398094Y-80966168D01*
X161393859Y-80974266D01*
X161392237Y-80975915D01*
X161387381Y-80980762D01*
X161386712Y-80981210D01*
X161250003Y-81117917D01*
X161248697Y-81119222D01*
X161248508Y-81119324D01*
X161208540Y-81146031D01*
X161073455Y-81201985D01*
X160925965Y-81300535D01*
X160925961Y-81300538D01*
X160800538Y-81425961D01*
X160800535Y-81425965D01*
X160701990Y-81573446D01*
X160701983Y-81573459D01*
X160634106Y-81737332D01*
X160634103Y-81737341D01*
X160599499Y-81911307D01*
X160599288Y-81913454D01*
X160598863Y-81914504D01*
X160598311Y-81917283D01*
X160597783Y-81917178D01*
X160573121Y-81978238D01*
X160516083Y-82018592D01*
X160446282Y-82021702D01*
X160388205Y-81988969D01*
X155937590Y-77538355D01*
X155937588Y-77538352D01*
X155818717Y-77419481D01*
X155818709Y-77419475D01*
X155723781Y-77364669D01*
X155723779Y-77364668D01*
X155681790Y-77340425D01*
X155681789Y-77340424D01*
X155669263Y-77337067D01*
X155529057Y-77299499D01*
X155370943Y-77299499D01*
X155363347Y-77299499D01*
X155363331Y-77299500D01*
X150097757Y-77299500D01*
X150030718Y-77279815D01*
X149984963Y-77227011D01*
X149975019Y-77157853D01*
X149976140Y-77151308D01*
X150000500Y-77028844D01*
X150000500Y-76871155D01*
X149976140Y-76748692D01*
X149982367Y-76679100D01*
X150025230Y-76623923D01*
X150091120Y-76600678D01*
X150097757Y-76600500D01*
X154163331Y-76600500D01*
X154163347Y-76600501D01*
X154170943Y-76600501D01*
X154329054Y-76600501D01*
X154329057Y-76600501D01*
X154481785Y-76559577D01*
X154531904Y-76530639D01*
X154618716Y-76480520D01*
X154730520Y-76368716D01*
X154730520Y-76368714D01*
X154740728Y-76358507D01*
X154740729Y-76358504D01*
X155614662Y-75484572D01*
X155675983Y-75451089D01*
X155678150Y-75450638D01*
X155736085Y-75439113D01*
X155833497Y-75419737D01*
X155951592Y-75370821D01*
X155979172Y-75359397D01*
X155979172Y-75359396D01*
X155979179Y-75359394D01*
X156110289Y-75271789D01*
X156221789Y-75160289D01*
X156309394Y-75029179D01*
X156369737Y-74883497D01*
X156400500Y-74728842D01*
X156400500Y-74571158D01*
X156400500Y-74571155D01*
X156400499Y-74571153D01*
X156396184Y-74549461D01*
X156369737Y-74416503D01*
X156369735Y-74416498D01*
X156309397Y-74270827D01*
X156309390Y-74270814D01*
X156221789Y-74139711D01*
X156221786Y-74139707D01*
X156110292Y-74028213D01*
X156110288Y-74028210D01*
X155979185Y-73940609D01*
X155979172Y-73940602D01*
X155833501Y-73880264D01*
X155833489Y-73880261D01*
X155816261Y-73876834D01*
X155678845Y-73849500D01*
X155678842Y-73849500D01*
X155521158Y-73849500D01*
X155521155Y-73849500D01*
X155366510Y-73880261D01*
X155366498Y-73880264D01*
X155220827Y-73940602D01*
X155220814Y-73940609D01*
X155089711Y-74028210D01*
X155089707Y-74028213D01*
X154978213Y-74139707D01*
X154978210Y-74139711D01*
X154890609Y-74270814D01*
X154890602Y-74270827D01*
X154830264Y-74416498D01*
X154830261Y-74416508D01*
X154799361Y-74571850D01*
X154766976Y-74633761D01*
X154765425Y-74635339D01*
X154037584Y-75363181D01*
X153976261Y-75396666D01*
X153949903Y-75399500D01*
X146279766Y-75399500D01*
X146212727Y-75379815D01*
X146210875Y-75378602D01*
X146079185Y-75290609D01*
X146079172Y-75290602D01*
X145933501Y-75230264D01*
X145933489Y-75230261D01*
X145778845Y-75199500D01*
X145778842Y-75199500D01*
X145621158Y-75199500D01*
X145621155Y-75199500D01*
X145466510Y-75230261D01*
X145466498Y-75230264D01*
X145320827Y-75290602D01*
X145320814Y-75290609D01*
X145189711Y-75378210D01*
X145189707Y-75378213D01*
X145078213Y-75489707D01*
X145078210Y-75489711D01*
X144990609Y-75620814D01*
X144990602Y-75620827D01*
X144930264Y-75766498D01*
X144930261Y-75766510D01*
X144899500Y-75921153D01*
X144899500Y-76078846D01*
X144930261Y-76233489D01*
X144930264Y-76233501D01*
X144990602Y-76379172D01*
X144990609Y-76379185D01*
X145078210Y-76510288D01*
X145078213Y-76510292D01*
X145189707Y-76621786D01*
X145189711Y-76621789D01*
X145320814Y-76709390D01*
X145320827Y-76709397D01*
X145415695Y-76748692D01*
X145466503Y-76769737D01*
X145621153Y-76800499D01*
X145621156Y-76800500D01*
X145621158Y-76800500D01*
X145778844Y-76800500D01*
X145778845Y-76800499D01*
X145933497Y-76769737D01*
X146079179Y-76709394D01*
X146133663Y-76672989D01*
X146210875Y-76621398D01*
X146277553Y-76600520D01*
X146279766Y-76600500D01*
X147025500Y-76600500D01*
X147092539Y-76620185D01*
X147138294Y-76672989D01*
X147149500Y-76724500D01*
X147149500Y-76878846D01*
X147180261Y-77033489D01*
X147180263Y-77033497D01*
X147219427Y-77128047D01*
X147226896Y-77197517D01*
X147195621Y-77259996D01*
X147135532Y-77295648D01*
X147104866Y-77299500D01*
X142229766Y-77299500D01*
X142162727Y-77279815D01*
X142160875Y-77278602D01*
X142029185Y-77190609D01*
X142029172Y-77190602D01*
X141883501Y-77130264D01*
X141883489Y-77130261D01*
X141728845Y-77099500D01*
X141728842Y-77099500D01*
X141571158Y-77099500D01*
X141571155Y-77099500D01*
X141416510Y-77130261D01*
X141416498Y-77130264D01*
X141270827Y-77190602D01*
X141270814Y-77190609D01*
X141139711Y-77278210D01*
X141139707Y-77278213D01*
X141028213Y-77389707D01*
X141028210Y-77389711D01*
X140940609Y-77520814D01*
X140940602Y-77520827D01*
X140880264Y-77666498D01*
X140880261Y-77666510D01*
X140849500Y-77821153D01*
X140849500Y-77978846D01*
X140880261Y-78133489D01*
X140880264Y-78133501D01*
X140940602Y-78279172D01*
X140940609Y-78279185D01*
X141028210Y-78410288D01*
X141028213Y-78410292D01*
X141139707Y-78521786D01*
X141139711Y-78521789D01*
X141270814Y-78609390D01*
X141270827Y-78609397D01*
X141416498Y-78669735D01*
X141416503Y-78669737D01*
X141571153Y-78700499D01*
X141571156Y-78700500D01*
X141571158Y-78700500D01*
X141728844Y-78700500D01*
X141728845Y-78700499D01*
X141883497Y-78669737D01*
X142029179Y-78609394D01*
X142029185Y-78609390D01*
X142160875Y-78521398D01*
X142227553Y-78500520D01*
X142229766Y-78500500D01*
X155149903Y-78500500D01*
X155216942Y-78520185D01*
X155237584Y-78536819D01*
X155971320Y-79270556D01*
X156004805Y-79331879D01*
X155999821Y-79401571D01*
X155957949Y-79457504D01*
X155892485Y-79481921D01*
X155836187Y-79472798D01*
X155733501Y-79430264D01*
X155733489Y-79430261D01*
X155578845Y-79399500D01*
X155578842Y-79399500D01*
X155421158Y-79399500D01*
X155421155Y-79399500D01*
X155266510Y-79430261D01*
X155266498Y-79430264D01*
X155120827Y-79490602D01*
X155120814Y-79490609D01*
X154989711Y-79578210D01*
X154989707Y-79578213D01*
X154878213Y-79689707D01*
X154878210Y-79689711D01*
X154790609Y-79820814D01*
X154790602Y-79820827D01*
X154730264Y-79966498D01*
X154730261Y-79966510D01*
X154699500Y-80121153D01*
X154699500Y-80278846D01*
X154730261Y-80433489D01*
X154730264Y-80433501D01*
X154790602Y-80579172D01*
X154790609Y-80579185D01*
X154878210Y-80710288D01*
X154878213Y-80710292D01*
X154905740Y-80737819D01*
X154939225Y-80799142D01*
X154934241Y-80868834D01*
X154892369Y-80924767D01*
X154826905Y-80949184D01*
X154818059Y-80949500D01*
X151929766Y-80949500D01*
X151862727Y-80929815D01*
X151860875Y-80928602D01*
X151729185Y-80840609D01*
X151729172Y-80840602D01*
X151583501Y-80780264D01*
X151583489Y-80780261D01*
X151428845Y-80749500D01*
X151428842Y-80749500D01*
X151271158Y-80749500D01*
X151271155Y-80749500D01*
X151116510Y-80780261D01*
X151116498Y-80780264D01*
X150970827Y-80840602D01*
X150970816Y-80840608D01*
X150857059Y-80916618D01*
X150790382Y-80937495D01*
X150723002Y-80919010D01*
X150700488Y-80901196D01*
X149437647Y-79638355D01*
X149437645Y-79638352D01*
X149318774Y-79519481D01*
X149318773Y-79519480D01*
X149231961Y-79469360D01*
X149231961Y-79469359D01*
X149231957Y-79469358D01*
X149181842Y-79440423D01*
X149029114Y-79399499D01*
X148871000Y-79399499D01*
X148863404Y-79399499D01*
X148863388Y-79399500D01*
X134229057Y-79399500D01*
X134070942Y-79399500D01*
X133918215Y-79440423D01*
X133918214Y-79440423D01*
X133918212Y-79440424D01*
X133918209Y-79440425D01*
X133868096Y-79469359D01*
X133868095Y-79469360D01*
X133824689Y-79494420D01*
X133781285Y-79519479D01*
X133781282Y-79519481D01*
X132935339Y-80365425D01*
X132874016Y-80398910D01*
X132871850Y-80399361D01*
X132716508Y-80430261D01*
X132716498Y-80430264D01*
X132570827Y-80490602D01*
X132570814Y-80490609D01*
X132439711Y-80578210D01*
X132439707Y-80578213D01*
X132328213Y-80689707D01*
X132328210Y-80689711D01*
X132240609Y-80820814D01*
X132240602Y-80820827D01*
X132180264Y-80966498D01*
X132180261Y-80966510D01*
X132149500Y-81121153D01*
X132149500Y-81278846D01*
X132180261Y-81433489D01*
X132180264Y-81433501D01*
X132240602Y-81579172D01*
X132240609Y-81579185D01*
X132328210Y-81710288D01*
X132328213Y-81710292D01*
X132439707Y-81821786D01*
X132439711Y-81821789D01*
X132570814Y-81909390D01*
X132570827Y-81909397D01*
X132708683Y-81966498D01*
X132716503Y-81969737D01*
X132871153Y-82000499D01*
X132871156Y-82000500D01*
X132871158Y-82000500D01*
X133028844Y-82000500D01*
X133028845Y-82000499D01*
X133183497Y-81969737D01*
X133329179Y-81909394D01*
X133460289Y-81821789D01*
X133571789Y-81710289D01*
X133659394Y-81579179D01*
X133719737Y-81433497D01*
X133744799Y-81307503D01*
X133750638Y-81278150D01*
X133783023Y-81216239D01*
X133784518Y-81214716D01*
X134362416Y-80636819D01*
X134423739Y-80603334D01*
X134450097Y-80600500D01*
X148649960Y-80600500D01*
X148716999Y-80620185D01*
X148737641Y-80636819D01*
X151120535Y-83019713D01*
X151120537Y-83019716D01*
X151232341Y-83131520D01*
X151274357Y-83155777D01*
X151283812Y-83164188D01*
X151295886Y-83183524D01*
X151311613Y-83200018D01*
X151314036Y-83212589D01*
X151320819Y-83223452D01*
X151320522Y-83246242D01*
X151324837Y-83268625D01*
X151320077Y-83280513D01*
X151319911Y-83293316D01*
X151307340Y-83312327D01*
X151298869Y-83333489D01*
X151288438Y-83340916D01*
X151281376Y-83351598D01*
X151260522Y-83360796D01*
X151241955Y-83374018D01*
X151225591Y-83378455D01*
X151216507Y-83380261D01*
X151216498Y-83380264D01*
X151070827Y-83440602D01*
X151070814Y-83440609D01*
X150939711Y-83528210D01*
X150939707Y-83528213D01*
X150828213Y-83639707D01*
X150828206Y-83639716D01*
X150827597Y-83640628D01*
X150827155Y-83640997D01*
X150824347Y-83644419D01*
X150823697Y-83643886D01*
X150773982Y-83685429D01*
X150704656Y-83694132D01*
X150641631Y-83663973D01*
X150604916Y-83604527D01*
X150600500Y-83571730D01*
X150600500Y-83421155D01*
X150600499Y-83421153D01*
X150588493Y-83360796D01*
X150569737Y-83266503D01*
X150561345Y-83246242D01*
X150509397Y-83120827D01*
X150509390Y-83120814D01*
X150421789Y-82989711D01*
X150421786Y-82989707D01*
X150310292Y-82878213D01*
X150310288Y-82878210D01*
X150179185Y-82790609D01*
X150179172Y-82790602D01*
X150033501Y-82730264D01*
X150033489Y-82730261D01*
X149878845Y-82699500D01*
X149878842Y-82699500D01*
X149721158Y-82699500D01*
X149721155Y-82699500D01*
X149566510Y-82730261D01*
X149566498Y-82730264D01*
X149420827Y-82790602D01*
X149420814Y-82790609D01*
X149289711Y-82878210D01*
X149289707Y-82878213D01*
X149178213Y-82989707D01*
X149178210Y-82989711D01*
X149090609Y-83120814D01*
X149090602Y-83120827D01*
X149030264Y-83266498D01*
X149030261Y-83266510D01*
X148999500Y-83421153D01*
X148999500Y-83578846D01*
X149030261Y-83733489D01*
X149030264Y-83733501D01*
X149090602Y-83879172D01*
X149090609Y-83879185D01*
X149178210Y-84010288D01*
X149178213Y-84010292D01*
X149289707Y-84121786D01*
X149289711Y-84121789D01*
X149420814Y-84209390D01*
X149420827Y-84209397D01*
X149566498Y-84269735D01*
X149566503Y-84269737D01*
X149717312Y-84299735D01*
X149721153Y-84300499D01*
X149721156Y-84300500D01*
X149721158Y-84300500D01*
X149878844Y-84300500D01*
X149878845Y-84300499D01*
X150033497Y-84269737D01*
X150179179Y-84209394D01*
X150310289Y-84121789D01*
X150421789Y-84010289D01*
X150422397Y-84009378D01*
X150422839Y-84009008D01*
X150425653Y-84005581D01*
X150426303Y-84006114D01*
X150476010Y-83964573D01*
X150545334Y-83955866D01*
X150608362Y-83986020D01*
X150645082Y-84045463D01*
X150649500Y-84078269D01*
X150649500Y-84228846D01*
X150680261Y-84383489D01*
X150680264Y-84383501D01*
X150740602Y-84529172D01*
X150740609Y-84529185D01*
X150828210Y-84660288D01*
X150828213Y-84660292D01*
X150939707Y-84771786D01*
X150939711Y-84771789D01*
X151070814Y-84859390D01*
X151070827Y-84859397D01*
X151154271Y-84893960D01*
X151216503Y-84919737D01*
X151366131Y-84949500D01*
X151371153Y-84950499D01*
X151371156Y-84950500D01*
X151371158Y-84950500D01*
X151528844Y-84950500D01*
X151528845Y-84950499D01*
X151683497Y-84919737D01*
X151827011Y-84860292D01*
X151829172Y-84859397D01*
X151829172Y-84859396D01*
X151829179Y-84859394D01*
X151960289Y-84771789D01*
X152071789Y-84660289D01*
X152159394Y-84529179D01*
X152219737Y-84383497D01*
X152250500Y-84228842D01*
X152250500Y-84071158D01*
X152250500Y-84071155D01*
X152250499Y-84071153D01*
X152242434Y-84030607D01*
X152219737Y-83916503D01*
X152217271Y-83910549D01*
X152159397Y-83770827D01*
X152159390Y-83770814D01*
X152071789Y-83639711D01*
X152071786Y-83639707D01*
X151960292Y-83528213D01*
X151960288Y-83528210D01*
X151886045Y-83478602D01*
X151841240Y-83424990D01*
X151832533Y-83355665D01*
X151862688Y-83292637D01*
X151922131Y-83255918D01*
X151954936Y-83251500D01*
X153581080Y-83251500D01*
X153648119Y-83271185D01*
X153693874Y-83323989D01*
X153702697Y-83351308D01*
X153729189Y-83484491D01*
X153729192Y-83484501D01*
X153789530Y-83630172D01*
X153789537Y-83630185D01*
X153877138Y-83761288D01*
X153877141Y-83761292D01*
X153988635Y-83872786D01*
X153988643Y-83872792D01*
X154016301Y-83891273D01*
X154021828Y-83897886D01*
X154029632Y-83901554D01*
X154043895Y-83924291D01*
X154061107Y-83944885D01*
X154062181Y-83953439D01*
X154066762Y-83960741D01*
X154066469Y-83987579D01*
X154069814Y-84014210D01*
X154066094Y-84021985D01*
X154066000Y-84030607D01*
X154051241Y-84053028D01*
X154039660Y-84077237D01*
X154031321Y-84083294D01*
X154027586Y-84088969D01*
X154002096Y-84104522D01*
X153997688Y-84107725D01*
X153996260Y-84108358D01*
X153920821Y-84139606D01*
X153910965Y-84146191D01*
X153901215Y-84150516D01*
X153876719Y-84153765D01*
X153853140Y-84161146D01*
X153842266Y-84158335D01*
X153831952Y-84159704D01*
X153812880Y-84150741D01*
X153788940Y-84144554D01*
X153781785Y-84140423D01*
X153781784Y-84140422D01*
X153781783Y-84140422D01*
X153712243Y-84121789D01*
X153629057Y-84099499D01*
X153470943Y-84099499D01*
X153391010Y-84120917D01*
X153318216Y-84140422D01*
X153283862Y-84160257D01*
X153283861Y-84160256D01*
X153181287Y-84219477D01*
X153181282Y-84219481D01*
X153069481Y-84331282D01*
X153069479Y-84331285D01*
X153044420Y-84374689D01*
X153024384Y-84409394D01*
X153019361Y-84418094D01*
X153019359Y-84418096D01*
X152990425Y-84468209D01*
X152990424Y-84468210D01*
X152985576Y-84486303D01*
X152949499Y-84620943D01*
X152949499Y-84620945D01*
X152949499Y-84789046D01*
X152949500Y-84789059D01*
X152949500Y-84949902D01*
X152929815Y-85016941D01*
X152913181Y-85037583D01*
X147438584Y-90512181D01*
X147377261Y-90545666D01*
X147350903Y-90548500D01*
X145480057Y-90548500D01*
X145321943Y-90548500D01*
X145169215Y-90589423D01*
X145169214Y-90589423D01*
X145169212Y-90589424D01*
X145169209Y-90589425D01*
X145125489Y-90614668D01*
X145125487Y-90614669D01*
X145032290Y-90668475D01*
X145032282Y-90668481D01*
X144285339Y-91415425D01*
X144224016Y-91448910D01*
X144221850Y-91449361D01*
X144066508Y-91480261D01*
X144066498Y-91480264D01*
X143920827Y-91540602D01*
X143920814Y-91540609D01*
X143789711Y-91628210D01*
X143789707Y-91628213D01*
X143688181Y-91729740D01*
X143626858Y-91763225D01*
X143557166Y-91758241D01*
X143512819Y-91729740D01*
X143410292Y-91627213D01*
X143410288Y-91627210D01*
X143279185Y-91539609D01*
X143279172Y-91539602D01*
X143133501Y-91479264D01*
X143133489Y-91479261D01*
X142978845Y-91448500D01*
X142978842Y-91448500D01*
X142821158Y-91448500D01*
X142821155Y-91448500D01*
X142666510Y-91479261D01*
X142666498Y-91479264D01*
X142520827Y-91539602D01*
X142520814Y-91539609D01*
X142389711Y-91627210D01*
X142389707Y-91627213D01*
X142278213Y-91738707D01*
X142278210Y-91738711D01*
X142190609Y-91869814D01*
X142190602Y-91869827D01*
X142130264Y-92015498D01*
X142130261Y-92015510D01*
X142099500Y-92170153D01*
X142099500Y-92170158D01*
X142099500Y-92327842D01*
X142102235Y-92341594D01*
X142102246Y-92341656D01*
X142130261Y-92482491D01*
X142130264Y-92482501D01*
X142190602Y-92628172D01*
X142190609Y-92628185D01*
X142278210Y-92759288D01*
X142278213Y-92759292D01*
X142389707Y-92870786D01*
X142389711Y-92870789D01*
X142520814Y-92958390D01*
X142520827Y-92958397D01*
X142643954Y-93009397D01*
X142666503Y-93018737D01*
X142821153Y-93049499D01*
X142821156Y-93049500D01*
X142821158Y-93049500D01*
X142978844Y-93049500D01*
X142978845Y-93049499D01*
X143133497Y-93018737D01*
X143276765Y-92959394D01*
X143279172Y-92958397D01*
X143279172Y-92958396D01*
X143279179Y-92958394D01*
X143410289Y-92870789D01*
X143457457Y-92823621D01*
X143511819Y-92769260D01*
X143573142Y-92735775D01*
X143642834Y-92740759D01*
X143687181Y-92769260D01*
X143789707Y-92871786D01*
X143789711Y-92871789D01*
X143920814Y-92959390D01*
X143920827Y-92959397D01*
X144064084Y-93018735D01*
X144066503Y-93019737D01*
X144216126Y-93049499D01*
X144221153Y-93050499D01*
X144221156Y-93050500D01*
X144221158Y-93050500D01*
X144378844Y-93050500D01*
X144378845Y-93050499D01*
X144533497Y-93019737D01*
X144596330Y-92993711D01*
X144684808Y-92957063D01*
X144685332Y-92958329D01*
X144746910Y-92945497D01*
X144805871Y-92965996D01*
X144870821Y-93009394D01*
X144870823Y-93009395D01*
X144870827Y-93009397D01*
X144970060Y-93050500D01*
X145016503Y-93069737D01*
X145171153Y-93100499D01*
X145171156Y-93100500D01*
X145171158Y-93100500D01*
X145328844Y-93100500D01*
X145328845Y-93100499D01*
X145483497Y-93069737D01*
X145629179Y-93009394D01*
X145760289Y-92921789D01*
X145848636Y-92833441D01*
X145909957Y-92799958D01*
X145979649Y-92804942D01*
X146035583Y-92846813D01*
X146039418Y-92852232D01*
X146078213Y-92910292D01*
X146189707Y-93021786D01*
X146189711Y-93021789D01*
X146320814Y-93109390D01*
X146320827Y-93109397D01*
X146466498Y-93169735D01*
X146466503Y-93169737D01*
X146531147Y-93182595D01*
X146621849Y-93200638D01*
X146638605Y-93209402D01*
X146657085Y-93213423D01*
X146682123Y-93232167D01*
X146683760Y-93233023D01*
X146685339Y-93234574D01*
X146751508Y-93300743D01*
X146783601Y-93356328D01*
X146790421Y-93381780D01*
X146790422Y-93381782D01*
X146790423Y-93381785D01*
X146812335Y-93419737D01*
X146869480Y-93518716D01*
X146981284Y-93630520D01*
X147043775Y-93666599D01*
X147046391Y-93668109D01*
X147094610Y-93718672D01*
X147107837Y-93787279D01*
X147081874Y-93852145D01*
X147024962Y-93892677D01*
X146984398Y-93899500D01*
X140836670Y-93899500D01*
X140836654Y-93899499D01*
X140829058Y-93899499D01*
X140670943Y-93899499D01*
X140594579Y-93919961D01*
X140518214Y-93940423D01*
X140518209Y-93940426D01*
X140381290Y-94019475D01*
X140381286Y-94019478D01*
X140235337Y-94165427D01*
X140174014Y-94198911D01*
X140171848Y-94199362D01*
X140016508Y-94230261D01*
X140016498Y-94230264D01*
X139870827Y-94290602D01*
X139870814Y-94290609D01*
X139739711Y-94378210D01*
X139739707Y-94378213D01*
X139628213Y-94489707D01*
X139628210Y-94489711D01*
X139540609Y-94620814D01*
X139540602Y-94620827D01*
X139480264Y-94766498D01*
X139480261Y-94766510D01*
X139449500Y-94921153D01*
X139449500Y-95078846D01*
X139480261Y-95233489D01*
X139480264Y-95233501D01*
X139540602Y-95379172D01*
X139540609Y-95379185D01*
X139628210Y-95510288D01*
X139628213Y-95510292D01*
X139739707Y-95621786D01*
X139739711Y-95621789D01*
X139870814Y-95709390D01*
X139870827Y-95709397D01*
X139944095Y-95739745D01*
X140016503Y-95769737D01*
X140166116Y-95799497D01*
X140171153Y-95800499D01*
X140171156Y-95800500D01*
X140171158Y-95800500D01*
X140328844Y-95800500D01*
X140328845Y-95800499D01*
X140483497Y-95769737D01*
X140629179Y-95709394D01*
X140760289Y-95621789D01*
X140871789Y-95510289D01*
X140959394Y-95379179D01*
X141019737Y-95233497D01*
X141026339Y-95200309D01*
X141058724Y-95138398D01*
X141119439Y-95103824D01*
X141147956Y-95100500D01*
X142784155Y-95100500D01*
X142851194Y-95120185D01*
X142896949Y-95172989D01*
X142906893Y-95242147D01*
X142898716Y-95271952D01*
X142880264Y-95316498D01*
X142880261Y-95316510D01*
X142849500Y-95471153D01*
X142849500Y-95628846D01*
X142880261Y-95783489D01*
X142880264Y-95783501D01*
X142940602Y-95929172D01*
X142940609Y-95929185D01*
X143028210Y-96060288D01*
X143028213Y-96060292D01*
X143139707Y-96171786D01*
X143139711Y-96171789D01*
X143270814Y-96259390D01*
X143270827Y-96259397D01*
X143414323Y-96318834D01*
X143416503Y-96319737D01*
X143571153Y-96350499D01*
X143571156Y-96350500D01*
X143571158Y-96350500D01*
X143728844Y-96350500D01*
X143728845Y-96350499D01*
X143883497Y-96319737D01*
X144029179Y-96259394D01*
X144160289Y-96171789D01*
X144203546Y-96128531D01*
X144264868Y-96095046D01*
X144315423Y-96094596D01*
X144330104Y-96097517D01*
X144330107Y-96097517D01*
X144487793Y-96097517D01*
X144487794Y-96097516D01*
X144642446Y-96066754D01*
X144755115Y-96020084D01*
X144788121Y-96006414D01*
X144788121Y-96006413D01*
X144788128Y-96006411D01*
X144919238Y-95918806D01*
X145030738Y-95807306D01*
X145118343Y-95676196D01*
X145120292Y-95671490D01*
X145164127Y-95617086D01*
X145230419Y-95595016D01*
X145298120Y-95612290D01*
X145337957Y-95650046D01*
X145378210Y-95710288D01*
X145378213Y-95710292D01*
X145489707Y-95821786D01*
X145489711Y-95821789D01*
X145620814Y-95909390D01*
X145620827Y-95909397D01*
X145766498Y-95969735D01*
X145766503Y-95969737D01*
X145831147Y-95982595D01*
X145921849Y-96000638D01*
X145938605Y-96009402D01*
X145957085Y-96013423D01*
X145982123Y-96032167D01*
X145983760Y-96033023D01*
X145985339Y-96034574D01*
X146063181Y-96112416D01*
X146096666Y-96173739D01*
X146099500Y-96200097D01*
X146099500Y-96813330D01*
X146099499Y-96813348D01*
X146099499Y-96979054D01*
X146099498Y-96979054D01*
X146099533Y-96979185D01*
X146140423Y-97131785D01*
X146166219Y-97176465D01*
X146219477Y-97268712D01*
X146219481Y-97268717D01*
X146338349Y-97387585D01*
X146338355Y-97387590D01*
X146915139Y-97964374D01*
X146915149Y-97964385D01*
X146919479Y-97968715D01*
X146919480Y-97968716D01*
X147031284Y-98080520D01*
X147031286Y-98080521D01*
X147031290Y-98080524D01*
X147167892Y-98159390D01*
X147168216Y-98159577D01*
X147280019Y-98189534D01*
X147320942Y-98200500D01*
X147320943Y-98200500D01*
X156513331Y-98200500D01*
X156513347Y-98200501D01*
X156520943Y-98200501D01*
X156679054Y-98200501D01*
X156679057Y-98200501D01*
X156831785Y-98159577D01*
X156881904Y-98130639D01*
X156968716Y-98080520D01*
X157080520Y-97968716D01*
X157080520Y-97968714D01*
X157090728Y-97958507D01*
X157090730Y-97958504D01*
X158528081Y-96521153D01*
X162799500Y-96521153D01*
X162799500Y-96678846D01*
X162830261Y-96833489D01*
X162830264Y-96833501D01*
X162890602Y-96979172D01*
X162890609Y-96979185D01*
X162978210Y-97110288D01*
X162978213Y-97110292D01*
X163089707Y-97221786D01*
X163089711Y-97221789D01*
X163220814Y-97309390D01*
X163220827Y-97309397D01*
X163366498Y-97369735D01*
X163366503Y-97369737D01*
X163521153Y-97400499D01*
X163521156Y-97400500D01*
X163521158Y-97400500D01*
X163678844Y-97400500D01*
X163678845Y-97400499D01*
X163833497Y-97369737D01*
X163979179Y-97309394D01*
X164110289Y-97221789D01*
X164221789Y-97110289D01*
X164309394Y-96979179D01*
X164369737Y-96833497D01*
X164400500Y-96678842D01*
X164400500Y-96521158D01*
X164400500Y-96521155D01*
X164400499Y-96521153D01*
X164400432Y-96520814D01*
X164369737Y-96366503D01*
X164365678Y-96356703D01*
X164309397Y-96220827D01*
X164309390Y-96220814D01*
X164221789Y-96089711D01*
X164221786Y-96089707D01*
X164110292Y-95978213D01*
X164110288Y-95978210D01*
X163979185Y-95890609D01*
X163979172Y-95890602D01*
X163833501Y-95830264D01*
X163833489Y-95830261D01*
X163678845Y-95799500D01*
X163678842Y-95799500D01*
X163521158Y-95799500D01*
X163521155Y-95799500D01*
X163366510Y-95830261D01*
X163366498Y-95830264D01*
X163220827Y-95890602D01*
X163220814Y-95890609D01*
X163089711Y-95978210D01*
X163089707Y-95978213D01*
X162978213Y-96089707D01*
X162978210Y-96089711D01*
X162890609Y-96220814D01*
X162890602Y-96220827D01*
X162830264Y-96366498D01*
X162830261Y-96366510D01*
X162799500Y-96521153D01*
X158528081Y-96521153D01*
X160508506Y-94540728D01*
X160508511Y-94540724D01*
X160518714Y-94530520D01*
X160518716Y-94530520D01*
X160630520Y-94418716D01*
X160704483Y-94290608D01*
X160704484Y-94290607D01*
X160708106Y-94284332D01*
X160709577Y-94281785D01*
X160750500Y-94129057D01*
X160750500Y-93970943D01*
X160750500Y-93574500D01*
X160770185Y-93507461D01*
X160822989Y-93461706D01*
X160874500Y-93450500D01*
X160928844Y-93450500D01*
X160928845Y-93450499D01*
X161083497Y-93419737D01*
X161229179Y-93359394D01*
X161360289Y-93271789D01*
X161471789Y-93160289D01*
X161559394Y-93029179D01*
X161567589Y-93009394D01*
X161580987Y-92977048D01*
X161624827Y-92922644D01*
X161691121Y-92900579D01*
X161695548Y-92900500D01*
X161828844Y-92900500D01*
X161828845Y-92900499D01*
X161983497Y-92869737D01*
X162129179Y-92809394D01*
X162260289Y-92721789D01*
X162371789Y-92610289D01*
X162459394Y-92479179D01*
X162460754Y-92475897D01*
X162501587Y-92377315D01*
X162519737Y-92333497D01*
X162545453Y-92204213D01*
X162577837Y-92142303D01*
X162579332Y-92140781D01*
X162630520Y-92089594D01*
X162709577Y-91952662D01*
X162724038Y-91898690D01*
X162732055Y-91884804D01*
X162734981Y-91871356D01*
X162756133Y-91843102D01*
X162812418Y-91786818D01*
X162873741Y-91753334D01*
X162900098Y-91750500D01*
X167674510Y-91750500D01*
X167741549Y-91770185D01*
X167787304Y-91822989D01*
X167798508Y-91873907D01*
X167824168Y-97268717D01*
X167847740Y-102224910D01*
X167828374Y-102292043D01*
X167775788Y-102338048D01*
X167723741Y-102349500D01*
X123674500Y-102349500D01*
X123607461Y-102329815D01*
X123561706Y-102277011D01*
X123550500Y-102225500D01*
X123550500Y-100493713D01*
X123949500Y-100493713D01*
X123949500Y-100706286D01*
X123982753Y-100916239D01*
X124048444Y-101118414D01*
X124144951Y-101307820D01*
X124269890Y-101479786D01*
X124420213Y-101630109D01*
X124592179Y-101755048D01*
X124592181Y-101755049D01*
X124592184Y-101755051D01*
X124781588Y-101851557D01*
X124983757Y-101917246D01*
X125193713Y-101950500D01*
X125193714Y-101950500D01*
X125406286Y-101950500D01*
X125406287Y-101950500D01*
X125616243Y-101917246D01*
X125818412Y-101851557D01*
X126007816Y-101755051D01*
X126029789Y-101739086D01*
X126179786Y-101630109D01*
X126179788Y-101630106D01*
X126179792Y-101630104D01*
X126330104Y-101479792D01*
X126330106Y-101479788D01*
X126330109Y-101479786D01*
X126455048Y-101307820D01*
X126455047Y-101307820D01*
X126455051Y-101307816D01*
X126551557Y-101118412D01*
X126617246Y-100916243D01*
X126650500Y-100706287D01*
X126650500Y-100493713D01*
X126617246Y-100283757D01*
X126551557Y-100081588D01*
X126455051Y-99892184D01*
X126455049Y-99892181D01*
X126455048Y-99892179D01*
X126330109Y-99720213D01*
X126179786Y-99569890D01*
X126007820Y-99444951D01*
X125818414Y-99348444D01*
X125818413Y-99348443D01*
X125818412Y-99348443D01*
X125616243Y-99282754D01*
X125616241Y-99282753D01*
X125616240Y-99282753D01*
X125454957Y-99257208D01*
X125406287Y-99249500D01*
X125193713Y-99249500D01*
X125145042Y-99257208D01*
X124983760Y-99282753D01*
X124781585Y-99348444D01*
X124592179Y-99444951D01*
X124420213Y-99569890D01*
X124269890Y-99720213D01*
X124144951Y-99892179D01*
X124048444Y-100081585D01*
X123982753Y-100283760D01*
X123949500Y-100493713D01*
X123550500Y-100493713D01*
X123550500Y-97371153D01*
X138099500Y-97371153D01*
X138099500Y-97528846D01*
X138130261Y-97683489D01*
X138130264Y-97683501D01*
X138190602Y-97829172D01*
X138190609Y-97829185D01*
X138278210Y-97960288D01*
X138278213Y-97960292D01*
X138389707Y-98071786D01*
X138389711Y-98071789D01*
X138520814Y-98159390D01*
X138520827Y-98159397D01*
X138666498Y-98219735D01*
X138666503Y-98219737D01*
X138821153Y-98250499D01*
X138821156Y-98250500D01*
X138821158Y-98250500D01*
X138978844Y-98250500D01*
X138978845Y-98250499D01*
X139133497Y-98219737D01*
X139279179Y-98159394D01*
X139410289Y-98071789D01*
X139521789Y-97960289D01*
X139609394Y-97829179D01*
X139669737Y-97683497D01*
X139700500Y-97528842D01*
X139700500Y-97371158D01*
X139700500Y-97371155D01*
X139700499Y-97371153D01*
X139670788Y-97221789D01*
X139669737Y-97216503D01*
X139653153Y-97176465D01*
X139609397Y-97070827D01*
X139609390Y-97070814D01*
X139521789Y-96939711D01*
X139521786Y-96939707D01*
X139410292Y-96828213D01*
X139410288Y-96828210D01*
X139279185Y-96740609D01*
X139279172Y-96740602D01*
X139133501Y-96680264D01*
X139133489Y-96680261D01*
X138978845Y-96649500D01*
X138978842Y-96649500D01*
X138821158Y-96649500D01*
X138821155Y-96649500D01*
X138666510Y-96680261D01*
X138666498Y-96680264D01*
X138520827Y-96740602D01*
X138520814Y-96740609D01*
X138389711Y-96828210D01*
X138389707Y-96828213D01*
X138278213Y-96939707D01*
X138278210Y-96939711D01*
X138190609Y-97070814D01*
X138190602Y-97070827D01*
X138130264Y-97216498D01*
X138130261Y-97216510D01*
X138099500Y-97371153D01*
X123550500Y-97371153D01*
X123550500Y-94232918D01*
X135561265Y-94232918D01*
X135561265Y-94390611D01*
X135592026Y-94545254D01*
X135592029Y-94545266D01*
X135652367Y-94690937D01*
X135652374Y-94690950D01*
X135739975Y-94822053D01*
X135739978Y-94822057D01*
X135851472Y-94933551D01*
X135851476Y-94933554D01*
X135982579Y-95021155D01*
X135982592Y-95021162D01*
X136121846Y-95078842D01*
X136128268Y-95081502D01*
X136240488Y-95103824D01*
X136282918Y-95112264D01*
X136282921Y-95112265D01*
X136282923Y-95112265D01*
X136334259Y-95112265D01*
X136401298Y-95131950D01*
X136447053Y-95184754D01*
X136448820Y-95188813D01*
X136491120Y-95290937D01*
X136491127Y-95290950D01*
X136578728Y-95422053D01*
X136578731Y-95422057D01*
X136690225Y-95533551D01*
X136690229Y-95533554D01*
X136821332Y-95621155D01*
X136821345Y-95621162D01*
X136960599Y-95678842D01*
X136967021Y-95681502D01*
X137107243Y-95709394D01*
X137121671Y-95712264D01*
X137121674Y-95712265D01*
X137121676Y-95712265D01*
X137279362Y-95712265D01*
X137279363Y-95712264D01*
X137434015Y-95681502D01*
X137561139Y-95628846D01*
X137579690Y-95621162D01*
X137579690Y-95621161D01*
X137579697Y-95621159D01*
X137710807Y-95533554D01*
X137822307Y-95422054D01*
X137909912Y-95290944D01*
X137970255Y-95145262D01*
X138001018Y-94990607D01*
X138001018Y-94832923D01*
X138001018Y-94832920D01*
X138001017Y-94832918D01*
X137998856Y-94822053D01*
X137970255Y-94678268D01*
X137970253Y-94678263D01*
X137909915Y-94532592D01*
X137909908Y-94532579D01*
X137822307Y-94401476D01*
X137822304Y-94401472D01*
X137710810Y-94289978D01*
X137710806Y-94289975D01*
X137579703Y-94202374D01*
X137579694Y-94202369D01*
X137503669Y-94170879D01*
X137449266Y-94127038D01*
X137427201Y-94060744D01*
X137444480Y-93993045D01*
X137463440Y-93968637D01*
X137471789Y-93960289D01*
X137559394Y-93829179D01*
X137619737Y-93683497D01*
X137650500Y-93528842D01*
X137650500Y-93528835D01*
X137651097Y-93522782D01*
X137653130Y-93522982D01*
X137670185Y-93464902D01*
X137722989Y-93419147D01*
X137792147Y-93409203D01*
X137855703Y-93438228D01*
X137862181Y-93444260D01*
X137889707Y-93471786D01*
X137889711Y-93471789D01*
X138020814Y-93559390D01*
X138020827Y-93559397D01*
X138122805Y-93601637D01*
X138166503Y-93619737D01*
X138321153Y-93650499D01*
X138321156Y-93650500D01*
X138321158Y-93650500D01*
X138478844Y-93650500D01*
X138478845Y-93650499D01*
X138633497Y-93619737D01*
X138779179Y-93559394D01*
X138910289Y-93471789D01*
X139021789Y-93360289D01*
X139109394Y-93229179D01*
X139169737Y-93083497D01*
X139200500Y-92928842D01*
X139200500Y-92771158D01*
X139200500Y-92771155D01*
X139200499Y-92771153D01*
X139193462Y-92735775D01*
X139169737Y-92616503D01*
X139155037Y-92581014D01*
X139109397Y-92470827D01*
X139109390Y-92470814D01*
X139021789Y-92339711D01*
X139021786Y-92339707D01*
X138910292Y-92228213D01*
X138910288Y-92228210D01*
X138779185Y-92140609D01*
X138779172Y-92140602D01*
X138633501Y-92080264D01*
X138633489Y-92080261D01*
X138478845Y-92049500D01*
X138478842Y-92049500D01*
X138321158Y-92049500D01*
X138321155Y-92049500D01*
X138166510Y-92080261D01*
X138166498Y-92080264D01*
X138020827Y-92140602D01*
X138020814Y-92140609D01*
X137889711Y-92228210D01*
X137889707Y-92228213D01*
X137778213Y-92339707D01*
X137778210Y-92339711D01*
X137690609Y-92470814D01*
X137690602Y-92470827D01*
X137630264Y-92616498D01*
X137630261Y-92616510D01*
X137599500Y-92771153D01*
X137598903Y-92777218D01*
X137596869Y-92777017D01*
X137579815Y-92835098D01*
X137527011Y-92880853D01*
X137457853Y-92890797D01*
X137394297Y-92861772D01*
X137387819Y-92855740D01*
X137360292Y-92828213D01*
X137360288Y-92828210D01*
X137229185Y-92740609D01*
X137229172Y-92740602D01*
X137083501Y-92680264D01*
X137083489Y-92680261D01*
X136928845Y-92649500D01*
X136928842Y-92649500D01*
X136771158Y-92649500D01*
X136771155Y-92649500D01*
X136616510Y-92680261D01*
X136616498Y-92680264D01*
X136470827Y-92740602D01*
X136470814Y-92740609D01*
X136339711Y-92828210D01*
X136339707Y-92828213D01*
X136228213Y-92939707D01*
X136228210Y-92939711D01*
X136140609Y-93070814D01*
X136140602Y-93070827D01*
X136080264Y-93216498D01*
X136080261Y-93216510D01*
X136049500Y-93371153D01*
X136049500Y-93492281D01*
X136029815Y-93559320D01*
X135987338Y-93598517D01*
X135987651Y-93598986D01*
X135984678Y-93600972D01*
X135983958Y-93601637D01*
X135982585Y-93602370D01*
X135851476Y-93689975D01*
X135851472Y-93689978D01*
X135739978Y-93801472D01*
X135739975Y-93801476D01*
X135652374Y-93932579D01*
X135652367Y-93932592D01*
X135592029Y-94078263D01*
X135592026Y-94078275D01*
X135561265Y-94232918D01*
X123550500Y-94232918D01*
X123550500Y-90970153D01*
X139699500Y-90970153D01*
X139699500Y-91127846D01*
X139730261Y-91282489D01*
X139730264Y-91282501D01*
X139790602Y-91428172D01*
X139790609Y-91428185D01*
X139878210Y-91559288D01*
X139878213Y-91559292D01*
X139989707Y-91670786D01*
X139989711Y-91670789D01*
X140120814Y-91758390D01*
X140120827Y-91758397D01*
X140266498Y-91818735D01*
X140266503Y-91818737D01*
X140306325Y-91826658D01*
X140368235Y-91859042D01*
X140402809Y-91919757D01*
X140399070Y-91989527D01*
X140385235Y-92017166D01*
X140346862Y-92074594D01*
X140346855Y-92074607D01*
X140286517Y-92220278D01*
X140286514Y-92220290D01*
X140255753Y-92374933D01*
X140255753Y-92532626D01*
X140286514Y-92687269D01*
X140286517Y-92687281D01*
X140346855Y-92832952D01*
X140346862Y-92832965D01*
X140434463Y-92964068D01*
X140434466Y-92964072D01*
X140545960Y-93075566D01*
X140545964Y-93075569D01*
X140677067Y-93163170D01*
X140677080Y-93163177D01*
X140805839Y-93216510D01*
X140822756Y-93223517D01*
X140977406Y-93254279D01*
X140977409Y-93254280D01*
X140977411Y-93254280D01*
X141135097Y-93254280D01*
X141135098Y-93254279D01*
X141289750Y-93223517D01*
X141419585Y-93169738D01*
X141435425Y-93163177D01*
X141435425Y-93163176D01*
X141435432Y-93163174D01*
X141566542Y-93075569D01*
X141678042Y-92964069D01*
X141765647Y-92832959D01*
X141825990Y-92687277D01*
X141856753Y-92532622D01*
X141856753Y-92374938D01*
X141825990Y-92220283D01*
X141805226Y-92170153D01*
X141765650Y-92074607D01*
X141765643Y-92074594D01*
X141678042Y-91943491D01*
X141678039Y-91943487D01*
X141566545Y-91831993D01*
X141566541Y-91831990D01*
X141435438Y-91744389D01*
X141435425Y-91744382D01*
X141289754Y-91684044D01*
X141289744Y-91684041D01*
X141249927Y-91676121D01*
X141188016Y-91643736D01*
X141153442Y-91583020D01*
X141157183Y-91513250D01*
X141171018Y-91485612D01*
X141174592Y-91480264D01*
X141209394Y-91428179D01*
X141269737Y-91282497D01*
X141300500Y-91127842D01*
X141300500Y-90970158D01*
X141300500Y-90970155D01*
X141300499Y-90970153D01*
X141288413Y-90909394D01*
X141269737Y-90815503D01*
X141235474Y-90732784D01*
X141209397Y-90669827D01*
X141209390Y-90669814D01*
X141121789Y-90538711D01*
X141121786Y-90538707D01*
X141010292Y-90427213D01*
X141010288Y-90427210D01*
X140879185Y-90339609D01*
X140879172Y-90339602D01*
X140733501Y-90279264D01*
X140733489Y-90279261D01*
X140578845Y-90248500D01*
X140578842Y-90248500D01*
X140421158Y-90248500D01*
X140421155Y-90248500D01*
X140266510Y-90279261D01*
X140266498Y-90279264D01*
X140120827Y-90339602D01*
X140120814Y-90339609D01*
X139989711Y-90427210D01*
X139989707Y-90427213D01*
X139878213Y-90538707D01*
X139878210Y-90538711D01*
X139790609Y-90669814D01*
X139790602Y-90669827D01*
X139730264Y-90815498D01*
X139730261Y-90815510D01*
X139699500Y-90970153D01*
X123550500Y-90970153D01*
X123550500Y-88621153D01*
X135899500Y-88621153D01*
X135899500Y-88778846D01*
X135930261Y-88933489D01*
X135930264Y-88933501D01*
X135990602Y-89079172D01*
X135990609Y-89079185D01*
X136078210Y-89210288D01*
X136078213Y-89210292D01*
X136189707Y-89321786D01*
X136189711Y-89321789D01*
X136320814Y-89409390D01*
X136320827Y-89409397D01*
X136466498Y-89469735D01*
X136466503Y-89469737D01*
X136621153Y-89500499D01*
X136621156Y-89500500D01*
X136621158Y-89500500D01*
X136778844Y-89500500D01*
X136778845Y-89500499D01*
X136933497Y-89469737D01*
X137079179Y-89409394D01*
X137210289Y-89321789D01*
X137310925Y-89221153D01*
X138899500Y-89221153D01*
X138899500Y-89378846D01*
X138930261Y-89533489D01*
X138930264Y-89533501D01*
X138990602Y-89679172D01*
X138990609Y-89679185D01*
X139078210Y-89810288D01*
X139078213Y-89810292D01*
X139189707Y-89921786D01*
X139189711Y-89921789D01*
X139320814Y-90009390D01*
X139320827Y-90009397D01*
X139466498Y-90069735D01*
X139466503Y-90069737D01*
X139621153Y-90100499D01*
X139621156Y-90100500D01*
X139621158Y-90100500D01*
X139778844Y-90100500D01*
X139778845Y-90100499D01*
X139933497Y-90069737D01*
X140079179Y-90009394D01*
X140210289Y-89921789D01*
X140321789Y-89810289D01*
X140409394Y-89679179D01*
X140469737Y-89533497D01*
X140500500Y-89378842D01*
X140500500Y-89221158D01*
X140496031Y-89198690D01*
X140502260Y-89129099D01*
X140545123Y-89073922D01*
X140611013Y-89050678D01*
X140617649Y-89050500D01*
X140628844Y-89050500D01*
X140628845Y-89050499D01*
X140783497Y-89019737D01*
X140896166Y-88973067D01*
X140929172Y-88959397D01*
X140929172Y-88959396D01*
X140929179Y-88959394D01*
X141060289Y-88871789D01*
X141171789Y-88760289D01*
X141259394Y-88629179D01*
X141262719Y-88621153D01*
X141289701Y-88556011D01*
X141319737Y-88483497D01*
X141350500Y-88328842D01*
X141350500Y-88171158D01*
X141350500Y-88171155D01*
X141350499Y-88171153D01*
X141332012Y-88078213D01*
X141319737Y-88016503D01*
X141318533Y-88013596D01*
X141259397Y-87870827D01*
X141259390Y-87870814D01*
X141171789Y-87739711D01*
X141171786Y-87739707D01*
X141060292Y-87628213D01*
X141060288Y-87628210D01*
X140929185Y-87540609D01*
X140929172Y-87540602D01*
X140783501Y-87480264D01*
X140783489Y-87480261D01*
X140628845Y-87449500D01*
X140628842Y-87449500D01*
X140471158Y-87449500D01*
X140471155Y-87449500D01*
X140316510Y-87480261D01*
X140316498Y-87480264D01*
X140170827Y-87540602D01*
X140170814Y-87540609D01*
X140039711Y-87628210D01*
X140039707Y-87628213D01*
X139928213Y-87739707D01*
X139928210Y-87739711D01*
X139840609Y-87870814D01*
X139840602Y-87870827D01*
X139780264Y-88016498D01*
X139780261Y-88016510D01*
X139749500Y-88171153D01*
X139749500Y-88171158D01*
X139749500Y-88328842D01*
X139749501Y-88328846D01*
X139753969Y-88351310D01*
X139747740Y-88420901D01*
X139704877Y-88476078D01*
X139638987Y-88499322D01*
X139632351Y-88499500D01*
X139621155Y-88499500D01*
X139466510Y-88530261D01*
X139466498Y-88530264D01*
X139320827Y-88590602D01*
X139320814Y-88590609D01*
X139189711Y-88678210D01*
X139189707Y-88678213D01*
X139078213Y-88789707D01*
X139078210Y-88789711D01*
X138990609Y-88920814D01*
X138990602Y-88920827D01*
X138930264Y-89066498D01*
X138930261Y-89066510D01*
X138899500Y-89221153D01*
X137310925Y-89221153D01*
X137321789Y-89210289D01*
X137376039Y-89129099D01*
X137409390Y-89079185D01*
X137409390Y-89079184D01*
X137409394Y-89079179D01*
X137469737Y-88933497D01*
X137500500Y-88778842D01*
X137500500Y-88621158D01*
X137500500Y-88621155D01*
X137500499Y-88621153D01*
X137482204Y-88529179D01*
X137469737Y-88466503D01*
X137466645Y-88459037D01*
X137409397Y-88320827D01*
X137409390Y-88320814D01*
X137321789Y-88189711D01*
X137321786Y-88189707D01*
X137210292Y-88078213D01*
X137210288Y-88078210D01*
X137079185Y-87990609D01*
X137079172Y-87990602D01*
X136933501Y-87930264D01*
X136933489Y-87930261D01*
X136778845Y-87899500D01*
X136778842Y-87899500D01*
X136621158Y-87899500D01*
X136621155Y-87899500D01*
X136466510Y-87930261D01*
X136466498Y-87930264D01*
X136320827Y-87990602D01*
X136320814Y-87990609D01*
X136189711Y-88078210D01*
X136189707Y-88078213D01*
X136078213Y-88189707D01*
X136078210Y-88189711D01*
X135990609Y-88320814D01*
X135990602Y-88320827D01*
X135930264Y-88466498D01*
X135930261Y-88466510D01*
X135899500Y-88621153D01*
X123550500Y-88621153D01*
X123550500Y-85221153D01*
X130049500Y-85221153D01*
X130049500Y-85378846D01*
X130080261Y-85533489D01*
X130080264Y-85533501D01*
X130140602Y-85679172D01*
X130140609Y-85679185D01*
X130228210Y-85810288D01*
X130228213Y-85810292D01*
X130318037Y-85900116D01*
X130351522Y-85961439D01*
X130346538Y-86031131D01*
X130333458Y-86056688D01*
X130290609Y-86120814D01*
X130290602Y-86120827D01*
X130230264Y-86266498D01*
X130230261Y-86266510D01*
X130199500Y-86421153D01*
X130199500Y-86578846D01*
X130230261Y-86733489D01*
X130230264Y-86733501D01*
X130290602Y-86879172D01*
X130290609Y-86879185D01*
X130378210Y-87010288D01*
X130378213Y-87010292D01*
X130489707Y-87121786D01*
X130489711Y-87121789D01*
X130620814Y-87209390D01*
X130620827Y-87209397D01*
X130717646Y-87249500D01*
X130766503Y-87269737D01*
X130889672Y-87294237D01*
X130921153Y-87300499D01*
X130921156Y-87300500D01*
X130921158Y-87300500D01*
X131078844Y-87300500D01*
X131078845Y-87300499D01*
X131233497Y-87269737D01*
X131379179Y-87209394D01*
X131434920Y-87172149D01*
X131510875Y-87121398D01*
X131577553Y-87100520D01*
X131579766Y-87100500D01*
X141163331Y-87100500D01*
X141163347Y-87100501D01*
X141170943Y-87100501D01*
X141329054Y-87100501D01*
X141329057Y-87100501D01*
X141481785Y-87059577D01*
X141551233Y-87019481D01*
X141618716Y-86980520D01*
X141730520Y-86868716D01*
X141730520Y-86868714D01*
X141740724Y-86858511D01*
X141740727Y-86858506D01*
X142328081Y-86271153D01*
X143999500Y-86271153D01*
X143999500Y-86428846D01*
X144030261Y-86583489D01*
X144030264Y-86583501D01*
X144090602Y-86729172D01*
X144090609Y-86729185D01*
X144178210Y-86860288D01*
X144178213Y-86860292D01*
X144289707Y-86971786D01*
X144289711Y-86971789D01*
X144420814Y-87059390D01*
X144420827Y-87059397D01*
X144547947Y-87112051D01*
X144566503Y-87119737D01*
X144721153Y-87150499D01*
X144721156Y-87150500D01*
X144721158Y-87150500D01*
X144878844Y-87150500D01*
X144878845Y-87150499D01*
X145033497Y-87119737D01*
X145150790Y-87071153D01*
X146199500Y-87071153D01*
X146199500Y-87228846D01*
X146230261Y-87383489D01*
X146230264Y-87383501D01*
X146290602Y-87529172D01*
X146290609Y-87529185D01*
X146378210Y-87660288D01*
X146378213Y-87660292D01*
X146489707Y-87771786D01*
X146489711Y-87771789D01*
X146620814Y-87859390D01*
X146620827Y-87859397D01*
X146715594Y-87898650D01*
X146766503Y-87919737D01*
X146921153Y-87950499D01*
X146921156Y-87950500D01*
X146921158Y-87950500D01*
X147078844Y-87950500D01*
X147078845Y-87950499D01*
X147233497Y-87919737D01*
X147285933Y-87898017D01*
X147341880Y-87874844D01*
X147411349Y-87867375D01*
X147473828Y-87898650D01*
X147509480Y-87958739D01*
X147510949Y-88013596D01*
X147499500Y-88071153D01*
X147499500Y-88228846D01*
X147530261Y-88383489D01*
X147530264Y-88383501D01*
X147590602Y-88529172D01*
X147590609Y-88529185D01*
X147678210Y-88660288D01*
X147678213Y-88660292D01*
X147789707Y-88771786D01*
X147789711Y-88771789D01*
X147920814Y-88859390D01*
X147920827Y-88859397D01*
X148066498Y-88919735D01*
X148066503Y-88919737D01*
X148221153Y-88950499D01*
X148221156Y-88950500D01*
X148221158Y-88950500D01*
X148378844Y-88950500D01*
X148378845Y-88950499D01*
X148533497Y-88919737D01*
X148679179Y-88859394D01*
X148810289Y-88771789D01*
X148921789Y-88660289D01*
X149009394Y-88529179D01*
X149069737Y-88383497D01*
X149100500Y-88228842D01*
X149100500Y-88071158D01*
X149100500Y-88071155D01*
X149100499Y-88071153D01*
X149089050Y-88013596D01*
X149069737Y-87916503D01*
X149062342Y-87898650D01*
X149009397Y-87770827D01*
X149009390Y-87770814D01*
X148921789Y-87639711D01*
X148921786Y-87639707D01*
X148869759Y-87587680D01*
X148836274Y-87526357D01*
X148841258Y-87456665D01*
X148868002Y-87415054D01*
X148867928Y-87414993D01*
X148868454Y-87414351D01*
X148869764Y-87412313D01*
X148871789Y-87410289D01*
X148959394Y-87279179D01*
X149019737Y-87133497D01*
X149050500Y-86978842D01*
X149050500Y-86821158D01*
X149050500Y-86821155D01*
X149050499Y-86821153D01*
X149038015Y-86758394D01*
X149019737Y-86666503D01*
X149015189Y-86655523D01*
X148959397Y-86520827D01*
X148959390Y-86520814D01*
X148871789Y-86389711D01*
X148871786Y-86389707D01*
X148760292Y-86278213D01*
X148760288Y-86278210D01*
X148629185Y-86190609D01*
X148629172Y-86190602D01*
X148483501Y-86130264D01*
X148483495Y-86130262D01*
X148473489Y-86128272D01*
X148411579Y-86095884D01*
X148377007Y-86035167D01*
X148380749Y-85965398D01*
X148421617Y-85908727D01*
X148450225Y-85892097D01*
X148529179Y-85859394D01*
X148660289Y-85771789D01*
X148771789Y-85660289D01*
X148859394Y-85529179D01*
X148919737Y-85383497D01*
X148950500Y-85228842D01*
X148950500Y-85071158D01*
X148950500Y-85071155D01*
X148950499Y-85071153D01*
X148936597Y-85001264D01*
X148919737Y-84916503D01*
X148915811Y-84907025D01*
X148859397Y-84770827D01*
X148859390Y-84770814D01*
X148771789Y-84639711D01*
X148771786Y-84639707D01*
X148660292Y-84528213D01*
X148660288Y-84528210D01*
X148529185Y-84440609D01*
X148529172Y-84440602D01*
X148383501Y-84380264D01*
X148383489Y-84380261D01*
X148228845Y-84349500D01*
X148228842Y-84349500D01*
X148160759Y-84349500D01*
X148093720Y-84329815D01*
X148047965Y-84277011D01*
X148038021Y-84207853D01*
X148057657Y-84156609D01*
X148084455Y-84116503D01*
X148109394Y-84079179D01*
X148112719Y-84071153D01*
X148138306Y-84009379D01*
X148169737Y-83933497D01*
X148200500Y-83778842D01*
X148200500Y-83621158D01*
X148200500Y-83621155D01*
X148200499Y-83621153D01*
X148192276Y-83579815D01*
X148169737Y-83466503D01*
X148169735Y-83466498D01*
X148109397Y-83320827D01*
X148109390Y-83320814D01*
X148021789Y-83189711D01*
X148021786Y-83189707D01*
X147910292Y-83078213D01*
X147910288Y-83078210D01*
X147779185Y-82990609D01*
X147779172Y-82990602D01*
X147633501Y-82930264D01*
X147633489Y-82930261D01*
X147478845Y-82899500D01*
X147478842Y-82899500D01*
X147321158Y-82899500D01*
X147321155Y-82899500D01*
X147166510Y-82930261D01*
X147166498Y-82930264D01*
X147020827Y-82990602D01*
X147020814Y-82990609D01*
X146889711Y-83078210D01*
X146889707Y-83078213D01*
X146778213Y-83189707D01*
X146778210Y-83189711D01*
X146690609Y-83320814D01*
X146690602Y-83320827D01*
X146630264Y-83466498D01*
X146630261Y-83466510D01*
X146599500Y-83621153D01*
X146599500Y-83778846D01*
X146630261Y-83933489D01*
X146630264Y-83933501D01*
X146690602Y-84079172D01*
X146690609Y-84079185D01*
X146778210Y-84210288D01*
X146778213Y-84210292D01*
X146889707Y-84321786D01*
X146889711Y-84321789D01*
X147020814Y-84409390D01*
X147020827Y-84409397D01*
X147163442Y-84468469D01*
X147166503Y-84469737D01*
X147316131Y-84499500D01*
X147321153Y-84500499D01*
X147321156Y-84500500D01*
X147389241Y-84500500D01*
X147456280Y-84520185D01*
X147502035Y-84572989D01*
X147511979Y-84642147D01*
X147492343Y-84693391D01*
X147440609Y-84770815D01*
X147440602Y-84770827D01*
X147380264Y-84916498D01*
X147380261Y-84916510D01*
X147349500Y-85071153D01*
X147349500Y-85225500D01*
X147329815Y-85292539D01*
X147277011Y-85338294D01*
X147225500Y-85349500D01*
X147121155Y-85349500D01*
X146966510Y-85380261D01*
X146966498Y-85380264D01*
X146820827Y-85440602D01*
X146820814Y-85440609D01*
X146689711Y-85528210D01*
X146689707Y-85528213D01*
X146578213Y-85639707D01*
X146578210Y-85639711D01*
X146490609Y-85770814D01*
X146490602Y-85770827D01*
X146430264Y-85916498D01*
X146430261Y-85916510D01*
X146399500Y-86071153D01*
X146399500Y-86228846D01*
X146430260Y-86383488D01*
X146430261Y-86383489D01*
X146430263Y-86383497D01*
X146458354Y-86451316D01*
X146465822Y-86520784D01*
X146434546Y-86583263D01*
X146431474Y-86586446D01*
X146378214Y-86639706D01*
X146378210Y-86639711D01*
X146290609Y-86770814D01*
X146290602Y-86770827D01*
X146230264Y-86916498D01*
X146230261Y-86916510D01*
X146199500Y-87071153D01*
X145150790Y-87071153D01*
X145179172Y-87059397D01*
X145179172Y-87059396D01*
X145179179Y-87059394D01*
X145310289Y-86971789D01*
X145421789Y-86860289D01*
X145509394Y-86729179D01*
X145569737Y-86583497D01*
X145600500Y-86428842D01*
X145600500Y-86271158D01*
X145600500Y-86271155D01*
X145600499Y-86271153D01*
X145595905Y-86248058D01*
X145569737Y-86116503D01*
X145562694Y-86099500D01*
X145509397Y-85970827D01*
X145509390Y-85970814D01*
X145421789Y-85839711D01*
X145421786Y-85839707D01*
X145310292Y-85728213D01*
X145310288Y-85728210D01*
X145179185Y-85640609D01*
X145179172Y-85640602D01*
X145033501Y-85580264D01*
X145033489Y-85580261D01*
X144878845Y-85549500D01*
X144878842Y-85549500D01*
X144721158Y-85549500D01*
X144721155Y-85549500D01*
X144566510Y-85580261D01*
X144566498Y-85580264D01*
X144420827Y-85640602D01*
X144420814Y-85640609D01*
X144289711Y-85728210D01*
X144289707Y-85728213D01*
X144178213Y-85839707D01*
X144178210Y-85839711D01*
X144090609Y-85970814D01*
X144090602Y-85970827D01*
X144030264Y-86116498D01*
X144030261Y-86116510D01*
X143999500Y-86271153D01*
X142328081Y-86271153D01*
X142914662Y-85684572D01*
X142975983Y-85651089D01*
X142978150Y-85650638D01*
X143036085Y-85639113D01*
X143133497Y-85619737D01*
X143279179Y-85559394D01*
X143410289Y-85471789D01*
X143521789Y-85360289D01*
X143609394Y-85229179D01*
X143612719Y-85221153D01*
X143650259Y-85130521D01*
X143669737Y-85083497D01*
X143700500Y-84928842D01*
X143700500Y-84771158D01*
X143700500Y-84771155D01*
X143700499Y-84771153D01*
X143682471Y-84680520D01*
X143669737Y-84616503D01*
X143662527Y-84599097D01*
X143609397Y-84470827D01*
X143609390Y-84470814D01*
X143521789Y-84339711D01*
X143521786Y-84339707D01*
X143489237Y-84307158D01*
X143455752Y-84245835D01*
X143460736Y-84176143D01*
X143462344Y-84172056D01*
X143519737Y-84033497D01*
X143550500Y-83878842D01*
X143550500Y-83871153D01*
X144749500Y-83871153D01*
X144749500Y-84028846D01*
X144780261Y-84183489D01*
X144780264Y-84183501D01*
X144840602Y-84329172D01*
X144840609Y-84329185D01*
X144928210Y-84460288D01*
X144928213Y-84460292D01*
X145039707Y-84571786D01*
X145039711Y-84571789D01*
X145170814Y-84659390D01*
X145170827Y-84659397D01*
X145266883Y-84699184D01*
X145316503Y-84719737D01*
X145470927Y-84750454D01*
X145471153Y-84750499D01*
X145471156Y-84750500D01*
X145471158Y-84750500D01*
X145628844Y-84750500D01*
X145628845Y-84750499D01*
X145783497Y-84719737D01*
X145929179Y-84659394D01*
X146060289Y-84571789D01*
X146171789Y-84460289D01*
X146259394Y-84329179D01*
X146319737Y-84183497D01*
X146350500Y-84028842D01*
X146350500Y-83871158D01*
X146350500Y-83871155D01*
X146350499Y-83871153D01*
X146332137Y-83778842D01*
X146319737Y-83716503D01*
X146310471Y-83694132D01*
X146259397Y-83570827D01*
X146259390Y-83570814D01*
X146171789Y-83439711D01*
X146171786Y-83439707D01*
X146060292Y-83328213D01*
X146060288Y-83328210D01*
X145929185Y-83240609D01*
X145929172Y-83240602D01*
X145783501Y-83180264D01*
X145783489Y-83180261D01*
X145628845Y-83149500D01*
X145628842Y-83149500D01*
X145471158Y-83149500D01*
X145471155Y-83149500D01*
X145316510Y-83180261D01*
X145316498Y-83180264D01*
X145170827Y-83240602D01*
X145170814Y-83240609D01*
X145039711Y-83328210D01*
X145039707Y-83328213D01*
X144928213Y-83439707D01*
X144928210Y-83439711D01*
X144840609Y-83570814D01*
X144840602Y-83570827D01*
X144780264Y-83716498D01*
X144780261Y-83716510D01*
X144749500Y-83871153D01*
X143550500Y-83871153D01*
X143550500Y-83721158D01*
X143550500Y-83721155D01*
X143550499Y-83721153D01*
X143539125Y-83663973D01*
X143519737Y-83566503D01*
X143485771Y-83484501D01*
X143459397Y-83420827D01*
X143459390Y-83420814D01*
X143371789Y-83289711D01*
X143371786Y-83289707D01*
X143260292Y-83178213D01*
X143260288Y-83178210D01*
X143129185Y-83090609D01*
X143129172Y-83090602D01*
X142983501Y-83030264D01*
X142983489Y-83030261D01*
X142828845Y-82999500D01*
X142828842Y-82999500D01*
X142671158Y-82999500D01*
X142671155Y-82999500D01*
X142516510Y-83030261D01*
X142516498Y-83030264D01*
X142370827Y-83090602D01*
X142370814Y-83090609D01*
X142239711Y-83178210D01*
X142239707Y-83178213D01*
X142128213Y-83289707D01*
X142128210Y-83289711D01*
X142040609Y-83420814D01*
X142040602Y-83420827D01*
X141983423Y-83558873D01*
X141939582Y-83613277D01*
X141873288Y-83635342D01*
X141805589Y-83618063D01*
X141781181Y-83599102D01*
X141760292Y-83578213D01*
X141760288Y-83578210D01*
X141629185Y-83490609D01*
X141629172Y-83490602D01*
X141483501Y-83430264D01*
X141483489Y-83430261D01*
X141328845Y-83399500D01*
X141328842Y-83399500D01*
X141171158Y-83399500D01*
X141171155Y-83399500D01*
X141016510Y-83430261D01*
X141016498Y-83430264D01*
X140870827Y-83490602D01*
X140870814Y-83490609D01*
X140739125Y-83578602D01*
X140672447Y-83599480D01*
X140670234Y-83599500D01*
X139550097Y-83599500D01*
X139483058Y-83579815D01*
X139462416Y-83563181D01*
X138984574Y-83085339D01*
X138976252Y-83070537D01*
X138964923Y-83059754D01*
X138954211Y-83031331D01*
X138951776Y-83026999D01*
X138950500Y-83021759D01*
X138950500Y-83021158D01*
X138919737Y-82866503D01*
X138902631Y-82825206D01*
X138900372Y-82815929D01*
X138901575Y-82790188D01*
X138898821Y-82764573D01*
X138903180Y-82755864D01*
X138903635Y-82746136D01*
X138918560Y-82725136D01*
X138930095Y-82702093D01*
X138933143Y-82698934D01*
X139021789Y-82610289D01*
X139109394Y-82479179D01*
X139169737Y-82333497D01*
X139200500Y-82178842D01*
X139200500Y-82021158D01*
X139200500Y-82021155D01*
X139200499Y-82021153D01*
X139179076Y-81913454D01*
X139169737Y-81866503D01*
X139150812Y-81820814D01*
X139109397Y-81720827D01*
X139109390Y-81720814D01*
X139021789Y-81589711D01*
X139021786Y-81589707D01*
X138910292Y-81478213D01*
X138910288Y-81478210D01*
X138779185Y-81390609D01*
X138779172Y-81390602D01*
X138633501Y-81330264D01*
X138633489Y-81330261D01*
X138478845Y-81299500D01*
X138478842Y-81299500D01*
X138321158Y-81299500D01*
X138321155Y-81299500D01*
X138166510Y-81330261D01*
X138166498Y-81330264D01*
X138020827Y-81390602D01*
X138020814Y-81390609D01*
X137889711Y-81478210D01*
X137889707Y-81478213D01*
X137849884Y-81518037D01*
X137788561Y-81551522D01*
X137718869Y-81546538D01*
X137693312Y-81533458D01*
X137629185Y-81490609D01*
X137629172Y-81490602D01*
X137483501Y-81430264D01*
X137483489Y-81430261D01*
X137328845Y-81399500D01*
X137328842Y-81399500D01*
X137171158Y-81399500D01*
X137171155Y-81399500D01*
X137016510Y-81430261D01*
X137016498Y-81430264D01*
X136870827Y-81490602D01*
X136870814Y-81490609D01*
X136739711Y-81578210D01*
X136739707Y-81578213D01*
X136628213Y-81689707D01*
X136628210Y-81689711D01*
X136540609Y-81820814D01*
X136540602Y-81820827D01*
X136480264Y-81966498D01*
X136480261Y-81966510D01*
X136449500Y-82121153D01*
X136449500Y-82278846D01*
X136480261Y-82433489D01*
X136480264Y-82433501D01*
X136540602Y-82579172D01*
X136540609Y-82579185D01*
X136628210Y-82710288D01*
X136628213Y-82710292D01*
X136739707Y-82821786D01*
X136739711Y-82821789D01*
X136870814Y-82909390D01*
X136870827Y-82909397D01*
X137016498Y-82969735D01*
X137016503Y-82969737D01*
X137145368Y-82995370D01*
X137171153Y-83000499D01*
X137171156Y-83000500D01*
X137225500Y-83000500D01*
X137292539Y-83020185D01*
X137338294Y-83072989D01*
X137349500Y-83124500D01*
X137349500Y-83178846D01*
X137380261Y-83333489D01*
X137380264Y-83333501D01*
X137440602Y-83479172D01*
X137440609Y-83479185D01*
X137528210Y-83610288D01*
X137528213Y-83610292D01*
X137639707Y-83721786D01*
X137639711Y-83721789D01*
X137770814Y-83809390D01*
X137770827Y-83809397D01*
X137916498Y-83869735D01*
X137916503Y-83869737D01*
X137981147Y-83882595D01*
X138071849Y-83900638D01*
X138133760Y-83933023D01*
X138135339Y-83934574D01*
X138688584Y-84487819D01*
X138722069Y-84549142D01*
X138717085Y-84618834D01*
X138675213Y-84674767D01*
X138609749Y-84699184D01*
X138600903Y-84699500D01*
X131429766Y-84699500D01*
X131362727Y-84679815D01*
X131360875Y-84678602D01*
X131229185Y-84590609D01*
X131229172Y-84590602D01*
X131083501Y-84530264D01*
X131083489Y-84530261D01*
X130928845Y-84499500D01*
X130928842Y-84499500D01*
X130771158Y-84499500D01*
X130771155Y-84499500D01*
X130616510Y-84530261D01*
X130616498Y-84530264D01*
X130470827Y-84590602D01*
X130470814Y-84590609D01*
X130339711Y-84678210D01*
X130339707Y-84678213D01*
X130228213Y-84789707D01*
X130228210Y-84789711D01*
X130140609Y-84920814D01*
X130140602Y-84920827D01*
X130080264Y-85066498D01*
X130080261Y-85066510D01*
X130049500Y-85221153D01*
X123550500Y-85221153D01*
X123550500Y-78421153D01*
X132449500Y-78421153D01*
X132449500Y-78578846D01*
X132480261Y-78733489D01*
X132480264Y-78733501D01*
X132540602Y-78879172D01*
X132540609Y-78879185D01*
X132628210Y-79010288D01*
X132628213Y-79010292D01*
X132739707Y-79121786D01*
X132739711Y-79121789D01*
X132870814Y-79209390D01*
X132870827Y-79209397D01*
X133016498Y-79269735D01*
X133016503Y-79269737D01*
X133171153Y-79300499D01*
X133171156Y-79300500D01*
X133171158Y-79300500D01*
X133328844Y-79300500D01*
X133328845Y-79300499D01*
X133483497Y-79269737D01*
X133629179Y-79209394D01*
X133760289Y-79121789D01*
X133871789Y-79010289D01*
X133959394Y-78879179D01*
X134019737Y-78733497D01*
X134050500Y-78578842D01*
X134050500Y-78421158D01*
X134050500Y-78421155D01*
X134050499Y-78421153D01*
X134048338Y-78410288D01*
X134019737Y-78266503D01*
X134019735Y-78266498D01*
X133959397Y-78120827D01*
X133959390Y-78120814D01*
X133871789Y-77989711D01*
X133871786Y-77989707D01*
X133760292Y-77878213D01*
X133760288Y-77878210D01*
X133629185Y-77790609D01*
X133629172Y-77790602D01*
X133483501Y-77730264D01*
X133483489Y-77730261D01*
X133328845Y-77699500D01*
X133328842Y-77699500D01*
X133171158Y-77699500D01*
X133171155Y-77699500D01*
X133016510Y-77730261D01*
X133016498Y-77730264D01*
X132870827Y-77790602D01*
X132870814Y-77790609D01*
X132739711Y-77878210D01*
X132739707Y-77878213D01*
X132628213Y-77989707D01*
X132628210Y-77989711D01*
X132540609Y-78120814D01*
X132540602Y-78120827D01*
X132480264Y-78266498D01*
X132480261Y-78266510D01*
X132449500Y-78421153D01*
X123550500Y-78421153D01*
X123550500Y-75671153D01*
X130499500Y-75671153D01*
X130499500Y-75828846D01*
X130530261Y-75983489D01*
X130530264Y-75983501D01*
X130590602Y-76129172D01*
X130590609Y-76129185D01*
X130678210Y-76260288D01*
X130678213Y-76260292D01*
X130789707Y-76371786D01*
X130789711Y-76371789D01*
X130920814Y-76459390D01*
X130920827Y-76459397D01*
X131066498Y-76519735D01*
X131066503Y-76519737D01*
X131221153Y-76550499D01*
X131221156Y-76550500D01*
X131221158Y-76550500D01*
X131378844Y-76550500D01*
X131378845Y-76550499D01*
X131533497Y-76519737D01*
X131679179Y-76459394D01*
X131810289Y-76371789D01*
X131921789Y-76260289D01*
X132009394Y-76129179D01*
X132069737Y-75983497D01*
X132100500Y-75828842D01*
X132100500Y-75671158D01*
X132100500Y-75671155D01*
X132100499Y-75671153D01*
X132069738Y-75516510D01*
X132069737Y-75516503D01*
X132069735Y-75516498D01*
X132009397Y-75370827D01*
X132009390Y-75370814D01*
X131921789Y-75239711D01*
X131921786Y-75239707D01*
X131810292Y-75128213D01*
X131810288Y-75128210D01*
X131679185Y-75040609D01*
X131679172Y-75040602D01*
X131533501Y-74980264D01*
X131533489Y-74980261D01*
X131378845Y-74949500D01*
X131378842Y-74949500D01*
X131221158Y-74949500D01*
X131221155Y-74949500D01*
X131066510Y-74980261D01*
X131066498Y-74980264D01*
X130920827Y-75040602D01*
X130920814Y-75040609D01*
X130789711Y-75128210D01*
X130789707Y-75128213D01*
X130678213Y-75239707D01*
X130678210Y-75239711D01*
X130590609Y-75370814D01*
X130590602Y-75370827D01*
X130530264Y-75516498D01*
X130530261Y-75516510D01*
X130499500Y-75671153D01*
X123550500Y-75671153D01*
X123550500Y-71721153D01*
X131999500Y-71721153D01*
X131999500Y-71878846D01*
X132030261Y-72033489D01*
X132030264Y-72033501D01*
X132090602Y-72179172D01*
X132090609Y-72179185D01*
X132178210Y-72310288D01*
X132178213Y-72310292D01*
X132289707Y-72421786D01*
X132289711Y-72421789D01*
X132420814Y-72509390D01*
X132420827Y-72509397D01*
X132566498Y-72569735D01*
X132566503Y-72569737D01*
X132721153Y-72600499D01*
X132721156Y-72600500D01*
X132775576Y-72600500D01*
X132842615Y-72620185D01*
X132888370Y-72672989D01*
X132898314Y-72742147D01*
X132890137Y-72771952D01*
X132830264Y-72916498D01*
X132830261Y-72916510D01*
X132799500Y-73071153D01*
X132799500Y-73228846D01*
X132830261Y-73383489D01*
X132830264Y-73383501D01*
X132890602Y-73529172D01*
X132890609Y-73529185D01*
X132978210Y-73660288D01*
X132978213Y-73660292D01*
X133089707Y-73771786D01*
X133089711Y-73771789D01*
X133220814Y-73859390D01*
X133220827Y-73859397D01*
X133366498Y-73919735D01*
X133366503Y-73919737D01*
X133521153Y-73950499D01*
X133521156Y-73950500D01*
X133521158Y-73950500D01*
X133678844Y-73950500D01*
X133678845Y-73950499D01*
X133833497Y-73919737D01*
X133979179Y-73859394D01*
X134110289Y-73771789D01*
X134120774Y-73761304D01*
X161949500Y-73761304D01*
X161949500Y-73938695D01*
X161984103Y-74112658D01*
X161984106Y-74112667D01*
X162051983Y-74276540D01*
X162051990Y-74276553D01*
X162150535Y-74424034D01*
X162150538Y-74424038D01*
X162275961Y-74549461D01*
X162275965Y-74549464D01*
X162423446Y-74648009D01*
X162423459Y-74648016D01*
X162546363Y-74698923D01*
X162587334Y-74715894D01*
X162587336Y-74715894D01*
X162587341Y-74715896D01*
X162761304Y-74750499D01*
X162761307Y-74750500D01*
X162761309Y-74750500D01*
X162938693Y-74750500D01*
X162938694Y-74750499D01*
X162996682Y-74738964D01*
X163112658Y-74715896D01*
X163112661Y-74715894D01*
X163112666Y-74715894D01*
X163276547Y-74648013D01*
X163424035Y-74549464D01*
X163549464Y-74424035D01*
X163648013Y-74276547D01*
X163715894Y-74112666D01*
X163732694Y-74028210D01*
X163750499Y-73938695D01*
X163750500Y-73938693D01*
X163750500Y-73761306D01*
X163750499Y-73761304D01*
X163715896Y-73587341D01*
X163715893Y-73587332D01*
X163648016Y-73423459D01*
X163648009Y-73423446D01*
X163549464Y-73275965D01*
X163549461Y-73275961D01*
X163424038Y-73150538D01*
X163424034Y-73150535D01*
X163276553Y-73051990D01*
X163276540Y-73051983D01*
X163112667Y-72984106D01*
X163112658Y-72984103D01*
X162938694Y-72949500D01*
X162938691Y-72949500D01*
X162761309Y-72949500D01*
X162761306Y-72949500D01*
X162587341Y-72984103D01*
X162587332Y-72984106D01*
X162423459Y-73051983D01*
X162423446Y-73051990D01*
X162275965Y-73150535D01*
X162275961Y-73150538D01*
X162150538Y-73275961D01*
X162150535Y-73275965D01*
X162051990Y-73423446D01*
X162051983Y-73423459D01*
X161984106Y-73587332D01*
X161984103Y-73587341D01*
X161949500Y-73761304D01*
X134120774Y-73761304D01*
X134221789Y-73660289D01*
X134309394Y-73529179D01*
X134369737Y-73383497D01*
X134400500Y-73228842D01*
X134400500Y-73071158D01*
X134400500Y-73071155D01*
X134400499Y-73071153D01*
X134383184Y-72984106D01*
X134369737Y-72916503D01*
X134369735Y-72916498D01*
X134309397Y-72770827D01*
X134309390Y-72770814D01*
X134221789Y-72639711D01*
X134221786Y-72639707D01*
X134110292Y-72528213D01*
X134110288Y-72528210D01*
X133979185Y-72440609D01*
X133979172Y-72440602D01*
X133833501Y-72380264D01*
X133833489Y-72380261D01*
X133678845Y-72349500D01*
X133678842Y-72349500D01*
X133624424Y-72349500D01*
X133557385Y-72329815D01*
X133511630Y-72277011D01*
X133501686Y-72207853D01*
X133509863Y-72178048D01*
X133569735Y-72033501D01*
X133569737Y-72033497D01*
X133600500Y-71878842D01*
X133600500Y-71721158D01*
X133600500Y-71721155D01*
X133600499Y-71721153D01*
X133569738Y-71566510D01*
X133569737Y-71566503D01*
X133514507Y-71433164D01*
X133509397Y-71420827D01*
X133509390Y-71420814D01*
X133421789Y-71289711D01*
X133421786Y-71289707D01*
X133310292Y-71178213D01*
X133310288Y-71178210D01*
X133179185Y-71090609D01*
X133179172Y-71090602D01*
X133033501Y-71030264D01*
X133033489Y-71030261D01*
X132878845Y-70999500D01*
X132878842Y-70999500D01*
X132721158Y-70999500D01*
X132721155Y-70999500D01*
X132566510Y-71030261D01*
X132566498Y-71030264D01*
X132420827Y-71090602D01*
X132420814Y-71090609D01*
X132289711Y-71178210D01*
X132289707Y-71178213D01*
X132178213Y-71289707D01*
X132178210Y-71289711D01*
X132090609Y-71420814D01*
X132090602Y-71420827D01*
X132030264Y-71566498D01*
X132030261Y-71566510D01*
X131999500Y-71721153D01*
X123550500Y-71721153D01*
X123550500Y-69971153D01*
X135899500Y-69971153D01*
X135899500Y-70128846D01*
X135930261Y-70283489D01*
X135930264Y-70283501D01*
X135990602Y-70429172D01*
X135990609Y-70429185D01*
X136078210Y-70560288D01*
X136078213Y-70560292D01*
X136189707Y-70671786D01*
X136189711Y-70671789D01*
X136320814Y-70759390D01*
X136320827Y-70759397D01*
X136428225Y-70803882D01*
X136466503Y-70819737D01*
X136621153Y-70850499D01*
X136621156Y-70850500D01*
X136621158Y-70850500D01*
X136778844Y-70850500D01*
X136778845Y-70850499D01*
X136933497Y-70819737D01*
X136986097Y-70797949D01*
X137036670Y-70777002D01*
X137106139Y-70769533D01*
X137168618Y-70800808D01*
X137171803Y-70803882D01*
X137189707Y-70821786D01*
X137189711Y-70821789D01*
X137320814Y-70909390D01*
X137320827Y-70909397D01*
X137466498Y-70969735D01*
X137466503Y-70969737D01*
X137616131Y-70999500D01*
X137621153Y-71000499D01*
X137621156Y-71000500D01*
X137621158Y-71000500D01*
X137778844Y-71000500D01*
X137778845Y-71000499D01*
X137933497Y-70969737D01*
X138079179Y-70909394D01*
X138210289Y-70821789D01*
X138321789Y-70710289D01*
X138409394Y-70579179D01*
X138469737Y-70433497D01*
X138500500Y-70278842D01*
X138500500Y-70121158D01*
X138500500Y-70121155D01*
X138500499Y-70121153D01*
X138469738Y-69966510D01*
X138469737Y-69966503D01*
X138469735Y-69966498D01*
X138409397Y-69820827D01*
X138409390Y-69820814D01*
X138321789Y-69689711D01*
X138321786Y-69689707D01*
X138210292Y-69578213D01*
X138210288Y-69578210D01*
X138079185Y-69490609D01*
X138079172Y-69490602D01*
X137933501Y-69430264D01*
X137933489Y-69430261D01*
X137778845Y-69399500D01*
X137778842Y-69399500D01*
X137621158Y-69399500D01*
X137621155Y-69399500D01*
X137466510Y-69430261D01*
X137466498Y-69430264D01*
X137363330Y-69472998D01*
X137293861Y-69480467D01*
X137231382Y-69449192D01*
X137228197Y-69446118D01*
X137210292Y-69428213D01*
X137210288Y-69428210D01*
X137079185Y-69340609D01*
X137079172Y-69340602D01*
X136933501Y-69280264D01*
X136933489Y-69280261D01*
X136778845Y-69249500D01*
X136778842Y-69249500D01*
X136621158Y-69249500D01*
X136621155Y-69249500D01*
X136466510Y-69280261D01*
X136466498Y-69280264D01*
X136320827Y-69340602D01*
X136320814Y-69340609D01*
X136189711Y-69428210D01*
X136189707Y-69428213D01*
X136078213Y-69539707D01*
X136078210Y-69539711D01*
X135990609Y-69670814D01*
X135990602Y-69670827D01*
X135930264Y-69816498D01*
X135930261Y-69816510D01*
X135899500Y-69971153D01*
X123550500Y-69971153D01*
X123550500Y-67471153D01*
X143299500Y-67471153D01*
X143299500Y-67628846D01*
X143330261Y-67783489D01*
X143330264Y-67783501D01*
X143390602Y-67929172D01*
X143390609Y-67929185D01*
X143478210Y-68060288D01*
X143478213Y-68060292D01*
X143589707Y-68171786D01*
X143589711Y-68171789D01*
X143720814Y-68259390D01*
X143720827Y-68259397D01*
X143866498Y-68319735D01*
X143866503Y-68319737D01*
X144021153Y-68350499D01*
X144021156Y-68350500D01*
X144021158Y-68350500D01*
X144178844Y-68350500D01*
X144178845Y-68350499D01*
X144333497Y-68319737D01*
X144479179Y-68259394D01*
X144610289Y-68171789D01*
X144660925Y-68121153D01*
X147949500Y-68121153D01*
X147949500Y-68278846D01*
X147980261Y-68433489D01*
X147980264Y-68433501D01*
X148040602Y-68579172D01*
X148040609Y-68579185D01*
X148128210Y-68710288D01*
X148128213Y-68710292D01*
X148239707Y-68821786D01*
X148239711Y-68821789D01*
X148370814Y-68909390D01*
X148370827Y-68909397D01*
X148516498Y-68969735D01*
X148516503Y-68969737D01*
X148671153Y-69000499D01*
X148671156Y-69000500D01*
X148671158Y-69000500D01*
X148828844Y-69000500D01*
X148828845Y-69000499D01*
X148983497Y-68969737D01*
X149129179Y-68909394D01*
X149260289Y-68821789D01*
X149371789Y-68710289D01*
X149459394Y-68579179D01*
X149519737Y-68433497D01*
X149550500Y-68278842D01*
X149550500Y-68121158D01*
X149550500Y-68121155D01*
X149550499Y-68121153D01*
X149535585Y-68046175D01*
X149519737Y-67966503D01*
X149506062Y-67933489D01*
X149459397Y-67820827D01*
X149459390Y-67820814D01*
X149371790Y-67689712D01*
X149371784Y-67689705D01*
X149303232Y-67621153D01*
X151399500Y-67621153D01*
X151399500Y-67778846D01*
X151430261Y-67933489D01*
X151430264Y-67933501D01*
X151490602Y-68079172D01*
X151490609Y-68079185D01*
X151578210Y-68210288D01*
X151578213Y-68210292D01*
X151689707Y-68321786D01*
X151689711Y-68321789D01*
X151820814Y-68409390D01*
X151820827Y-68409397D01*
X151966498Y-68469735D01*
X151966503Y-68469737D01*
X152121153Y-68500499D01*
X152121156Y-68500500D01*
X152121158Y-68500500D01*
X152278844Y-68500500D01*
X152278845Y-68500499D01*
X152433497Y-68469737D01*
X152579179Y-68409394D01*
X152710289Y-68321789D01*
X152821789Y-68210289D01*
X152909394Y-68079179D01*
X152917217Y-68060292D01*
X152933429Y-68021153D01*
X158149500Y-68021153D01*
X158149500Y-68178846D01*
X158180261Y-68333489D01*
X158180264Y-68333501D01*
X158240602Y-68479172D01*
X158240609Y-68479185D01*
X158328210Y-68610288D01*
X158328213Y-68610292D01*
X158439707Y-68721786D01*
X158439711Y-68721789D01*
X158570814Y-68809390D01*
X158570827Y-68809397D01*
X158716498Y-68869735D01*
X158716503Y-68869737D01*
X158871153Y-68900499D01*
X158871156Y-68900500D01*
X158871158Y-68900500D01*
X159028844Y-68900500D01*
X159028845Y-68900499D01*
X159183497Y-68869737D01*
X159329179Y-68809394D01*
X159460289Y-68721789D01*
X159571789Y-68610289D01*
X159659394Y-68479179D01*
X159719737Y-68333497D01*
X159750500Y-68178842D01*
X159750500Y-68021158D01*
X159750500Y-68021155D01*
X159750499Y-68021153D01*
X159732204Y-67929179D01*
X159719737Y-67866503D01*
X159683427Y-67778842D01*
X159659397Y-67720827D01*
X159659390Y-67720814D01*
X159571789Y-67589711D01*
X159571786Y-67589707D01*
X159460292Y-67478213D01*
X159460288Y-67478210D01*
X159329185Y-67390609D01*
X159329172Y-67390602D01*
X159183501Y-67330264D01*
X159183489Y-67330261D01*
X159028845Y-67299500D01*
X159028842Y-67299500D01*
X158871158Y-67299500D01*
X158871155Y-67299500D01*
X158716510Y-67330261D01*
X158716498Y-67330264D01*
X158570827Y-67390602D01*
X158570814Y-67390609D01*
X158439711Y-67478210D01*
X158439707Y-67478213D01*
X158328213Y-67589707D01*
X158328210Y-67589711D01*
X158240609Y-67720814D01*
X158240602Y-67720827D01*
X158180264Y-67866498D01*
X158180261Y-67866510D01*
X158149500Y-68021153D01*
X152933429Y-68021153D01*
X152955603Y-67967621D01*
X152955605Y-67967614D01*
X152969737Y-67933497D01*
X153000500Y-67778842D01*
X153000500Y-67621158D01*
X153000500Y-67621155D01*
X153000499Y-67621153D01*
X152974531Y-67490606D01*
X152969737Y-67466503D01*
X152969735Y-67466498D01*
X152909397Y-67320827D01*
X152909390Y-67320814D01*
X152821789Y-67189711D01*
X152821786Y-67189707D01*
X152710292Y-67078213D01*
X152710288Y-67078210D01*
X152579185Y-66990609D01*
X152579172Y-66990602D01*
X152433501Y-66930264D01*
X152433489Y-66930261D01*
X152278845Y-66899500D01*
X152278842Y-66899500D01*
X152121158Y-66899500D01*
X152121155Y-66899500D01*
X151966510Y-66930261D01*
X151966498Y-66930264D01*
X151820827Y-66990602D01*
X151820814Y-66990609D01*
X151689711Y-67078210D01*
X151689707Y-67078213D01*
X151578213Y-67189707D01*
X151578210Y-67189711D01*
X151490609Y-67320814D01*
X151490602Y-67320827D01*
X151430264Y-67466498D01*
X151430261Y-67466510D01*
X151399500Y-67621153D01*
X149303232Y-67621153D01*
X149260292Y-67578213D01*
X149260288Y-67578210D01*
X149129185Y-67490609D01*
X149129172Y-67490602D01*
X148983501Y-67430264D01*
X148983489Y-67430261D01*
X148828845Y-67399500D01*
X148828842Y-67399500D01*
X148671158Y-67399500D01*
X148671155Y-67399500D01*
X148516510Y-67430261D01*
X148516498Y-67430264D01*
X148370827Y-67490602D01*
X148370814Y-67490609D01*
X148239711Y-67578210D01*
X148239707Y-67578213D01*
X148128213Y-67689707D01*
X148128210Y-67689711D01*
X148040609Y-67820814D01*
X148040602Y-67820827D01*
X147980264Y-67966498D01*
X147980261Y-67966510D01*
X147949500Y-68121153D01*
X144660925Y-68121153D01*
X144721789Y-68060289D01*
X144809394Y-67929179D01*
X144869737Y-67783497D01*
X144900500Y-67628842D01*
X144900500Y-67471158D01*
X144900500Y-67471155D01*
X144900499Y-67471153D01*
X144886246Y-67399500D01*
X144869737Y-67316503D01*
X144862694Y-67299500D01*
X144809397Y-67170827D01*
X144809390Y-67170814D01*
X144721789Y-67039711D01*
X144721786Y-67039707D01*
X144610292Y-66928213D01*
X144610288Y-66928210D01*
X144479185Y-66840609D01*
X144479172Y-66840602D01*
X144333501Y-66780264D01*
X144333489Y-66780261D01*
X144178845Y-66749500D01*
X144178842Y-66749500D01*
X144021158Y-66749500D01*
X144021155Y-66749500D01*
X143866510Y-66780261D01*
X143866498Y-66780264D01*
X143720827Y-66840602D01*
X143720814Y-66840609D01*
X143589711Y-66928210D01*
X143589707Y-66928213D01*
X143478213Y-67039707D01*
X143478210Y-67039711D01*
X143390609Y-67170814D01*
X143390602Y-67170827D01*
X143330264Y-67316498D01*
X143330261Y-67316510D01*
X143299500Y-67471153D01*
X123550500Y-67471153D01*
X123550500Y-64873920D01*
X133099499Y-64873920D01*
X133128340Y-65018907D01*
X133128343Y-65018917D01*
X133184912Y-65155488D01*
X133184919Y-65155501D01*
X133267048Y-65278415D01*
X133267051Y-65278419D01*
X133371580Y-65382948D01*
X133371584Y-65382951D01*
X133494498Y-65465080D01*
X133494511Y-65465087D01*
X133631082Y-65521656D01*
X133631087Y-65521658D01*
X133631091Y-65521658D01*
X133631092Y-65521659D01*
X133776079Y-65550500D01*
X133776082Y-65550500D01*
X133923920Y-65550500D01*
X134021462Y-65531096D01*
X134068913Y-65521658D01*
X134205495Y-65465084D01*
X134328416Y-65382951D01*
X134432951Y-65278416D01*
X134515084Y-65155495D01*
X134571658Y-65018913D01*
X134600500Y-64873920D01*
X137499499Y-64873920D01*
X137528340Y-65018907D01*
X137528343Y-65018917D01*
X137584912Y-65155488D01*
X137584919Y-65155501D01*
X137667048Y-65278415D01*
X137667051Y-65278419D01*
X137771580Y-65382948D01*
X137771584Y-65382951D01*
X137894498Y-65465080D01*
X137894511Y-65465087D01*
X138031082Y-65521656D01*
X138031087Y-65521658D01*
X138031091Y-65521658D01*
X138031092Y-65521659D01*
X138176079Y-65550500D01*
X138176082Y-65550500D01*
X138323920Y-65550500D01*
X138421462Y-65531096D01*
X138468913Y-65521658D01*
X138605495Y-65465084D01*
X138728416Y-65382951D01*
X138832951Y-65278416D01*
X138915084Y-65155495D01*
X138971658Y-65018913D01*
X139000500Y-64873918D01*
X139000500Y-64726082D01*
X139000500Y-64726079D01*
X138971659Y-64581092D01*
X138971658Y-64581091D01*
X138971658Y-64581087D01*
X138971656Y-64581082D01*
X138915087Y-64444511D01*
X138915080Y-64444498D01*
X138832951Y-64321584D01*
X138832948Y-64321580D01*
X138728419Y-64217051D01*
X138728415Y-64217048D01*
X138605501Y-64134919D01*
X138605488Y-64134912D01*
X138468917Y-64078343D01*
X138468907Y-64078340D01*
X138323920Y-64049500D01*
X138323918Y-64049500D01*
X138176082Y-64049500D01*
X138176080Y-64049500D01*
X138031092Y-64078340D01*
X138031082Y-64078343D01*
X137894511Y-64134912D01*
X137894498Y-64134919D01*
X137771584Y-64217048D01*
X137771580Y-64217051D01*
X137667051Y-64321580D01*
X137667048Y-64321584D01*
X137584919Y-64444498D01*
X137584912Y-64444511D01*
X137528343Y-64581082D01*
X137528340Y-64581092D01*
X137499500Y-64726079D01*
X137499500Y-64726082D01*
X137499500Y-64873918D01*
X137499500Y-64873920D01*
X137499499Y-64873920D01*
X134600500Y-64873920D01*
X134600500Y-64873918D01*
X134600500Y-64726082D01*
X134600500Y-64726079D01*
X134571659Y-64581092D01*
X134571658Y-64581091D01*
X134571658Y-64581087D01*
X134571656Y-64581082D01*
X134515087Y-64444511D01*
X134515080Y-64444498D01*
X134432951Y-64321584D01*
X134432948Y-64321580D01*
X134328419Y-64217051D01*
X134328415Y-64217048D01*
X134205501Y-64134919D01*
X134205488Y-64134912D01*
X134068917Y-64078343D01*
X134068907Y-64078340D01*
X133923920Y-64049500D01*
X133923918Y-64049500D01*
X133776082Y-64049500D01*
X133776080Y-64049500D01*
X133631092Y-64078340D01*
X133631082Y-64078343D01*
X133494511Y-64134912D01*
X133494498Y-64134919D01*
X133371584Y-64217048D01*
X133371580Y-64217051D01*
X133267051Y-64321580D01*
X133267048Y-64321584D01*
X133184919Y-64444498D01*
X133184912Y-64444511D01*
X133128343Y-64581082D01*
X133128340Y-64581092D01*
X133099500Y-64726079D01*
X133099500Y-64726082D01*
X133099500Y-64873918D01*
X133099500Y-64873920D01*
X133099499Y-64873920D01*
X123550500Y-64873920D01*
X123550500Y-63409029D01*
X123570185Y-63341990D01*
X123622989Y-63296235D01*
X123692147Y-63286291D01*
X123755703Y-63315316D01*
X123768786Y-63328493D01*
X123769893Y-63329789D01*
X123920213Y-63480109D01*
X124092179Y-63605048D01*
X124092181Y-63605049D01*
X124092184Y-63605051D01*
X124281588Y-63701557D01*
X124483757Y-63767246D01*
X124693713Y-63800500D01*
X124693714Y-63800500D01*
X124906286Y-63800500D01*
X124906287Y-63800500D01*
X125116243Y-63767246D01*
X125318412Y-63701557D01*
X125507816Y-63605051D01*
X125529789Y-63589086D01*
X125679786Y-63480109D01*
X125679788Y-63480106D01*
X125679792Y-63480104D01*
X125830104Y-63329792D01*
X125830106Y-63329788D01*
X125830109Y-63329786D01*
X125955048Y-63157820D01*
X125955047Y-63157820D01*
X125955051Y-63157816D01*
X126051557Y-62968412D01*
X126117246Y-62766243D01*
X126150500Y-62556287D01*
X126150500Y-62343713D01*
X126117246Y-62133757D01*
X126051557Y-61931588D01*
X125955051Y-61742184D01*
X125955049Y-61742181D01*
X125955048Y-61742179D01*
X125830109Y-61570213D01*
X125679786Y-61419890D01*
X125507820Y-61294951D01*
X125318414Y-61198444D01*
X125318413Y-61198443D01*
X125318412Y-61198443D01*
X125116243Y-61132754D01*
X125116241Y-61132753D01*
X125116240Y-61132753D01*
X124954957Y-61107208D01*
X124906287Y-61099500D01*
X124693713Y-61099500D01*
X124645042Y-61107208D01*
X124483760Y-61132753D01*
X124281585Y-61198444D01*
X124092179Y-61294951D01*
X123920213Y-61419890D01*
X123769892Y-61570211D01*
X123768778Y-61571516D01*
X123768231Y-61571872D01*
X123766451Y-61573653D01*
X123766076Y-61573278D01*
X123710266Y-61609700D01*
X123640398Y-61610188D01*
X123581357Y-61572826D01*
X123551888Y-61509474D01*
X123550500Y-61490970D01*
X123550500Y-60724754D01*
X123570185Y-60657715D01*
X123622989Y-60611960D01*
X123674636Y-60600754D01*
X167526729Y-60649861D01*
G37*
%TD.AperFunction*%
%TA.AperFunction,Conductor*%
G36*
X158206169Y-90372578D02*
G01*
X158252597Y-90401832D01*
X158313182Y-90462417D01*
X158346666Y-90523738D01*
X158349500Y-90550097D01*
X158349500Y-91340969D01*
X158329815Y-91408008D01*
X158277011Y-91453763D01*
X158249692Y-91462586D01*
X158116508Y-91489078D01*
X158116498Y-91489081D01*
X157970827Y-91549419D01*
X157970814Y-91549426D01*
X157839711Y-91637027D01*
X157839707Y-91637030D01*
X157728213Y-91748524D01*
X157728210Y-91748528D01*
X157640609Y-91879631D01*
X157640602Y-91879644D01*
X157580264Y-92025315D01*
X157580261Y-92025327D01*
X157549500Y-92179970D01*
X157549500Y-92337660D01*
X157552179Y-92351130D01*
X157545950Y-92420721D01*
X157503086Y-92475897D01*
X157478021Y-92489876D01*
X157469490Y-92493410D01*
X157469482Y-92493414D01*
X157338379Y-92581014D01*
X157338371Y-92581020D01*
X157226877Y-92692514D01*
X157226874Y-92692518D01*
X157139273Y-92823621D01*
X157139268Y-92823631D01*
X157128418Y-92849826D01*
X157084576Y-92904230D01*
X157038049Y-92923990D01*
X156990911Y-92933366D01*
X156990901Y-92933369D01*
X156845230Y-92993707D01*
X156845217Y-92993714D01*
X156714114Y-93081315D01*
X156714110Y-93081318D01*
X156602616Y-93192812D01*
X156602613Y-93192816D01*
X156515012Y-93323919D01*
X156515005Y-93323932D01*
X156454667Y-93469603D01*
X156454664Y-93469615D01*
X156423903Y-93624258D01*
X156423903Y-93781951D01*
X156454664Y-93936594D01*
X156454667Y-93936606D01*
X156515005Y-94082277D01*
X156515012Y-94082289D01*
X156531262Y-94106609D01*
X156552140Y-94173286D01*
X156533656Y-94240666D01*
X156481677Y-94287357D01*
X156428160Y-94299500D01*
X152582941Y-94299500D01*
X152515902Y-94279815D01*
X152470147Y-94227011D01*
X152460203Y-94157853D01*
X152489228Y-94094297D01*
X152495260Y-94087819D01*
X152571786Y-94011292D01*
X152571789Y-94011289D01*
X152659394Y-93880179D01*
X152719737Y-93734497D01*
X152750500Y-93579842D01*
X152750500Y-93422158D01*
X152750500Y-93422155D01*
X152750499Y-93422153D01*
X152738015Y-93359394D01*
X152719737Y-93267503D01*
X152714260Y-93254280D01*
X152659397Y-93121827D01*
X152659390Y-93121814D01*
X152571789Y-92990711D01*
X152571786Y-92990707D01*
X152460292Y-92879213D01*
X152460288Y-92879210D01*
X152329185Y-92791609D01*
X152329172Y-92791602D01*
X152183501Y-92731264D01*
X152183489Y-92731261D01*
X152028845Y-92700500D01*
X152028842Y-92700500D01*
X151871158Y-92700500D01*
X151871155Y-92700500D01*
X151716510Y-92731261D01*
X151716498Y-92731264D01*
X151570827Y-92791602D01*
X151570814Y-92791609D01*
X151439711Y-92879210D01*
X151439707Y-92879213D01*
X151328213Y-92990707D01*
X151328210Y-92990711D01*
X151240609Y-93121814D01*
X151240602Y-93121827D01*
X151180264Y-93267498D01*
X151180261Y-93267510D01*
X151149500Y-93422153D01*
X151149500Y-93579846D01*
X151180261Y-93734489D01*
X151180264Y-93734501D01*
X151240602Y-93880172D01*
X151240609Y-93880185D01*
X151328210Y-94011288D01*
X151328213Y-94011292D01*
X151404740Y-94087819D01*
X151438225Y-94149142D01*
X151433241Y-94218834D01*
X151391369Y-94274767D01*
X151325905Y-94299184D01*
X151317059Y-94299500D01*
X150150097Y-94299500D01*
X150120656Y-94290855D01*
X150090670Y-94284332D01*
X150085654Y-94280577D01*
X150083058Y-94279815D01*
X150062416Y-94263181D01*
X149937590Y-94138355D01*
X149937588Y-94138352D01*
X149818715Y-94019479D01*
X149797229Y-94007075D01*
X149781686Y-93998101D01*
X149733471Y-93947535D01*
X149720247Y-93878928D01*
X149746215Y-93814063D01*
X149758100Y-93800986D01*
X149768834Y-93790746D01*
X149784816Y-93781520D01*
X149896620Y-93669716D01*
X149896620Y-93669714D01*
X150131520Y-93434816D01*
X150210577Y-93297884D01*
X150251501Y-93145157D01*
X150251501Y-92987042D01*
X150251501Y-92979447D01*
X150251500Y-92979429D01*
X150251500Y-92621153D01*
X153449500Y-92621153D01*
X153449500Y-92778846D01*
X153480261Y-92933489D01*
X153480264Y-92933501D01*
X153540602Y-93079172D01*
X153540609Y-93079185D01*
X153628210Y-93210288D01*
X153628213Y-93210292D01*
X153739707Y-93321786D01*
X153739711Y-93321789D01*
X153870814Y-93409390D01*
X153870827Y-93409397D01*
X154016208Y-93469615D01*
X154016503Y-93469737D01*
X154129839Y-93492281D01*
X154171153Y-93500499D01*
X154171156Y-93500500D01*
X154171158Y-93500500D01*
X154328844Y-93500500D01*
X154328845Y-93500499D01*
X154483497Y-93469737D01*
X154629179Y-93409394D01*
X154760289Y-93321789D01*
X154871789Y-93210289D01*
X154959394Y-93079179D01*
X154962854Y-93070827D01*
X154980102Y-93029184D01*
X155019737Y-92933497D01*
X155050500Y-92778842D01*
X155050500Y-92621158D01*
X155050500Y-92621155D01*
X155050499Y-92621153D01*
X155042516Y-92581020D01*
X155019737Y-92466503D01*
X155000774Y-92420721D01*
X154959397Y-92320827D01*
X154959390Y-92320814D01*
X154871789Y-92189711D01*
X154871786Y-92189707D01*
X154760292Y-92078213D01*
X154760288Y-92078210D01*
X154629185Y-91990609D01*
X154629172Y-91990602D01*
X154483501Y-91930264D01*
X154483489Y-91930261D01*
X154328845Y-91899500D01*
X154328842Y-91899500D01*
X154171158Y-91899500D01*
X154171155Y-91899500D01*
X154016510Y-91930261D01*
X154016498Y-91930264D01*
X153870827Y-91990602D01*
X153870814Y-91990609D01*
X153739711Y-92078210D01*
X153739707Y-92078213D01*
X153628213Y-92189707D01*
X153628210Y-92189711D01*
X153540609Y-92320814D01*
X153540602Y-92320827D01*
X153480264Y-92466498D01*
X153480261Y-92466510D01*
X153449500Y-92621153D01*
X150251500Y-92621153D01*
X150251500Y-92093299D01*
X150271185Y-92026260D01*
X150323989Y-91980505D01*
X150393147Y-91970561D01*
X150456703Y-91999586D01*
X150490061Y-92045847D01*
X150504278Y-92080173D01*
X150504285Y-92080185D01*
X150591886Y-92211288D01*
X150591889Y-92211292D01*
X150703383Y-92322786D01*
X150703387Y-92322789D01*
X150834490Y-92410390D01*
X150834503Y-92410397D01*
X150969945Y-92466498D01*
X150980179Y-92470737D01*
X151134829Y-92501499D01*
X151134832Y-92501500D01*
X151134834Y-92501500D01*
X151292520Y-92501500D01*
X151292521Y-92501499D01*
X151447173Y-92470737D01*
X151592855Y-92410394D01*
X151723965Y-92322789D01*
X151835465Y-92211289D01*
X151923070Y-92080179D01*
X151925381Y-92074601D01*
X151949171Y-92017166D01*
X151983413Y-91934497D01*
X152014176Y-91779842D01*
X152014176Y-91622158D01*
X152001484Y-91558353D01*
X152007711Y-91488762D01*
X152035415Y-91446485D01*
X152495085Y-90986816D01*
X152556407Y-90953334D01*
X152582765Y-90950500D01*
X156670291Y-90950500D01*
X156737330Y-90970185D01*
X156739182Y-90971398D01*
X156870871Y-91059390D01*
X156870884Y-91059397D01*
X157016555Y-91119735D01*
X157016560Y-91119737D01*
X157164162Y-91149097D01*
X157171210Y-91150499D01*
X157171213Y-91150500D01*
X157171215Y-91150500D01*
X157328901Y-91150500D01*
X157328902Y-91150499D01*
X157483554Y-91119737D01*
X157615702Y-91065000D01*
X157629229Y-91059397D01*
X157629229Y-91059396D01*
X157629236Y-91059394D01*
X157760346Y-90971789D01*
X157871846Y-90860289D01*
X157959451Y-90729179D01*
X158019794Y-90583497D01*
X158043300Y-90465323D01*
X158075684Y-90403413D01*
X158136400Y-90368839D01*
X158206169Y-90372578D01*
G37*
%TD.AperFunction*%
%TA.AperFunction,Conductor*%
G36*
X156699191Y-83271185D02*
G01*
X156744946Y-83323989D01*
X156753769Y-83351308D01*
X156780261Y-83484491D01*
X156780264Y-83484501D01*
X156840602Y-83630172D01*
X156840609Y-83630185D01*
X156931595Y-83766354D01*
X156929922Y-83767471D01*
X156953627Y-83823297D01*
X156941829Y-83892163D01*
X156933562Y-83906531D01*
X156890608Y-83970816D01*
X156890602Y-83970827D01*
X156830264Y-84116498D01*
X156830261Y-84116510D01*
X156799500Y-84271153D01*
X156799500Y-84428846D01*
X156830261Y-84583489D01*
X156830264Y-84583501D01*
X156890602Y-84729172D01*
X156890609Y-84729185D01*
X156978210Y-84860288D01*
X156978213Y-84860292D01*
X157089707Y-84971786D01*
X157089711Y-84971789D01*
X157220814Y-85059390D01*
X157220827Y-85059397D01*
X157366498Y-85119735D01*
X157366503Y-85119737D01*
X157521153Y-85150499D01*
X157521156Y-85150500D01*
X157521158Y-85150500D01*
X157678844Y-85150500D01*
X157678845Y-85150499D01*
X157833497Y-85119737D01*
X157962028Y-85066498D01*
X157979172Y-85059397D01*
X157979172Y-85059396D01*
X157979179Y-85059394D01*
X158110289Y-84971789D01*
X158221789Y-84860289D01*
X158223393Y-84857887D01*
X158224560Y-84856912D01*
X158225653Y-84855581D01*
X158225905Y-84855788D01*
X158249419Y-84836134D01*
X158274988Y-84813979D01*
X158276121Y-84813816D01*
X158277002Y-84813080D01*
X158310611Y-84808856D01*
X158344146Y-84804035D01*
X158345190Y-84804511D01*
X158346327Y-84804369D01*
X158376858Y-84818974D01*
X158407702Y-84833060D01*
X158408322Y-84834025D01*
X158409356Y-84834520D01*
X158427157Y-84863334D01*
X158445476Y-84891838D01*
X158445690Y-84893331D01*
X158446079Y-84893960D01*
X158450499Y-84926773D01*
X158450499Y-85010588D01*
X158442327Y-85051675D01*
X158442527Y-85051729D01*
X158441710Y-85054775D01*
X158441062Y-85058037D01*
X158440423Y-85059577D01*
X158437321Y-85071155D01*
X158399499Y-85212307D01*
X158399499Y-85212309D01*
X158399499Y-85380410D01*
X158399500Y-85380423D01*
X158399500Y-85808538D01*
X158392430Y-85832612D01*
X158389413Y-85857526D01*
X158381831Y-85868708D01*
X158379815Y-85875577D01*
X158370997Y-85887635D01*
X158367292Y-85892107D01*
X158268480Y-85990920D01*
X158234659Y-86049500D01*
X158229435Y-86058547D01*
X158229435Y-86058548D01*
X158189424Y-86127848D01*
X158189423Y-86127850D01*
X158189423Y-86127851D01*
X158172209Y-86192096D01*
X158172108Y-86192472D01*
X158135742Y-86252132D01*
X158072895Y-86282660D01*
X158003519Y-86274365D01*
X157964652Y-86248058D01*
X157908690Y-86192096D01*
X157908686Y-86192093D01*
X157777583Y-86104492D01*
X157777570Y-86104485D01*
X157631899Y-86044147D01*
X157631887Y-86044144D01*
X157477243Y-86013383D01*
X157477240Y-86013383D01*
X157319556Y-86013383D01*
X157319553Y-86013383D01*
X157164908Y-86044144D01*
X157164896Y-86044147D01*
X157019225Y-86104485D01*
X157019212Y-86104492D01*
X156888109Y-86192093D01*
X156888105Y-86192096D01*
X156776611Y-86303590D01*
X156776608Y-86303594D01*
X156689007Y-86434697D01*
X156689002Y-86434706D01*
X156677248Y-86463083D01*
X156638178Y-86514000D01*
X156632340Y-86518479D01*
X156273214Y-86877605D01*
X156273215Y-86877606D01*
X156168479Y-86982342D01*
X156155963Y-87004020D01*
X156130930Y-87047380D01*
X156130929Y-87047382D01*
X156108416Y-87086373D01*
X156088712Y-87112051D01*
X155437584Y-87763181D01*
X155376261Y-87796666D01*
X155349903Y-87799500D01*
X152999097Y-87799500D01*
X152932058Y-87779815D01*
X152886303Y-87727011D01*
X152876359Y-87657853D01*
X152905384Y-87594297D01*
X152911416Y-87587819D01*
X153812416Y-86686819D01*
X153839343Y-86672115D01*
X153865162Y-86655523D01*
X153871362Y-86654631D01*
X153873739Y-86653334D01*
X153900097Y-86650500D01*
X153921731Y-86650500D01*
X153988770Y-86670185D01*
X153990622Y-86671398D01*
X154120814Y-86758390D01*
X154120827Y-86758397D01*
X154266452Y-86818716D01*
X154266503Y-86818737D01*
X154421153Y-86849499D01*
X154421156Y-86849500D01*
X154421158Y-86849500D01*
X154578844Y-86849500D01*
X154578845Y-86849499D01*
X154733497Y-86818737D01*
X154879179Y-86758394D01*
X155010289Y-86670789D01*
X155121789Y-86559289D01*
X155209394Y-86428179D01*
X155269737Y-86282497D01*
X155300500Y-86127842D01*
X155300500Y-85970158D01*
X155300500Y-85970155D01*
X155300499Y-85970153D01*
X155290879Y-85921789D01*
X155269737Y-85815503D01*
X155254691Y-85779179D01*
X155209397Y-85669827D01*
X155209390Y-85669814D01*
X155121789Y-85538711D01*
X155121786Y-85538707D01*
X155005982Y-85422903D01*
X155006905Y-85421979D01*
X154971361Y-85369795D01*
X154969493Y-85299951D01*
X154986261Y-85262800D01*
X154988737Y-85259093D01*
X155009394Y-85228179D01*
X155069737Y-85082497D01*
X155100500Y-84927842D01*
X155100500Y-84770158D01*
X155100500Y-84770155D01*
X155100499Y-84770153D01*
X155090471Y-84719738D01*
X155069737Y-84615503D01*
X155069735Y-84615498D01*
X155009397Y-84469827D01*
X155009390Y-84469814D01*
X154921789Y-84338711D01*
X154921786Y-84338707D01*
X154810292Y-84227213D01*
X154810288Y-84227210D01*
X154782625Y-84208726D01*
X154737820Y-84155114D01*
X154729113Y-84085789D01*
X154759268Y-84022761D01*
X154804061Y-83991064D01*
X154878107Y-83960394D01*
X155009217Y-83872789D01*
X155120717Y-83761289D01*
X155208322Y-83630179D01*
X155268665Y-83484497D01*
X155277574Y-83439711D01*
X155295159Y-83351308D01*
X155327544Y-83289397D01*
X155388260Y-83254823D01*
X155416776Y-83251500D01*
X156632152Y-83251500D01*
X156699191Y-83271185D01*
G37*
%TD.AperFunction*%
%TA.AperFunction,Conductor*%
G36*
X159738771Y-86277941D02*
G01*
X159786383Y-86329077D01*
X159799500Y-86384584D01*
X159799500Y-86915415D01*
X159779815Y-86982454D01*
X159727011Y-87028209D01*
X159657853Y-87038153D01*
X159594297Y-87009128D01*
X159563642Y-86966617D01*
X159563641Y-86966618D01*
X159563631Y-86966601D01*
X159560940Y-86962869D01*
X159559577Y-86959579D01*
X159480524Y-86822654D01*
X159480518Y-86822646D01*
X159395553Y-86737681D01*
X159362068Y-86676358D01*
X159367052Y-86606666D01*
X159395553Y-86562319D01*
X159437088Y-86520784D01*
X159480520Y-86477352D01*
X159502840Y-86438693D01*
X159559575Y-86340424D01*
X159560938Y-86337134D01*
X159562831Y-86334784D01*
X159563641Y-86333382D01*
X159563859Y-86333508D01*
X159604778Y-86282729D01*
X159671072Y-86260663D01*
X159738771Y-86277941D01*
G37*
%TD.AperFunction*%
%TA.AperFunction,Conductor*%
G36*
X161205703Y-84505384D02*
G01*
X161212181Y-84511416D01*
X161451219Y-84750454D01*
X161484704Y-84811777D01*
X161479720Y-84881469D01*
X161466641Y-84907025D01*
X161390608Y-85020816D01*
X161390602Y-85020827D01*
X161330264Y-85166498D01*
X161330261Y-85166510D01*
X161299500Y-85321153D01*
X161299500Y-85478846D01*
X161330261Y-85633489D01*
X161330264Y-85633501D01*
X161390602Y-85779172D01*
X161390609Y-85779185D01*
X161476878Y-85908294D01*
X161497756Y-85974971D01*
X161479272Y-86042351D01*
X161461457Y-86064866D01*
X161386615Y-86139707D01*
X161386612Y-86139711D01*
X161299011Y-86270814D01*
X161299004Y-86270827D01*
X161239061Y-86415546D01*
X161195220Y-86469950D01*
X161128926Y-86492015D01*
X161061227Y-86474736D01*
X161013616Y-86423599D01*
X161000500Y-86368094D01*
X161000500Y-84599097D01*
X161020185Y-84532058D01*
X161072989Y-84486303D01*
X161142147Y-84476359D01*
X161205703Y-84505384D01*
G37*
%TD.AperFunction*%
%TD*%
M02*
